<svg width="38" height="38" viewBox="0 0 38 38" fill="none" xmlns="http://www.w3.org/2000/svg" className="hover-svg">
<g clip-path="url(#clip0_259_1786)">
<path d="M19.0008 37.2008C8.95438 37.2008 0.800781 29.0472 0.800781 19.0008C0.800781 8.95438 8.95438 0.800781 19.0008 0.800781C29.0472 0.800781 37.2008 8.95438 37.2008 19.0008C37.2008 29.0472 29.0472 37.2008 19.0008 37.2008ZM19.0008 1.63798C9.42758 1.63798 1.63798 9.42758 1.63798 19.0008C1.63798 28.574 9.42758 36.3636 19.0008 36.3636C28.574 36.3636 36.3636 28.574 36.3636 19.0008C36.3636 9.42758 28.574 1.63798 19.0008 1.63798Z" fill="white" stroke="white" stroke-width="0.65" className="svg-path"/>
<path d="M19.0023 33.0143C11.2855 33.0143 4.98828 26.7171 4.98828 19.0003C4.98828 11.2835 11.2855 4.98633 19.0023 4.98633C26.7191 4.98633 33.0163 11.2835 33.0163 19.0003C33.0163 26.7171 26.7191 33.0143 19.0023 33.0143ZM19.0023 5.82353C11.7223 5.82353 5.82548 11.7203 5.82548 19.0003C5.82548 26.2803 11.7223 32.1771 19.0023 32.1771C26.2823 32.1771 32.1791 26.2803 32.1791 19.0003C32.1791 11.7203 26.2823 5.82353 19.0023 5.82353Z" fill="white" stroke="white" stroke-width="0.65" className="svg-path"/>
<path d="M19.002 37.2009C18.7836 37.2009 18.6016 37.0189 18.6016 36.8005V32.5781C18.6016 32.3597 18.7836 32.1777 19.002 32.1777C19.2204 32.1777 19.4024 32.3597 19.4024 32.5781V36.7641C19.4024 37.0189 19.2204 37.2009 19.002 37.2009Z" fill="white" className="svg-path"/>
<path d="M27.882 34.8346C27.7364 34.8346 27.5908 34.7618 27.518 34.6162L25.4068 30.9762C25.2976 30.7942 25.3704 30.5394 25.5524 30.4302C25.7344 30.321 25.9892 30.3938 26.0984 30.5758L28.2096 34.2158C28.3188 34.3978 28.246 34.6526 28.064 34.7618C28.0276 34.7982 27.9548 34.8346 27.882 34.8346Z" fill="white" className="svg-path"/>
<path d="M34.3991 28.3195C34.3263 28.3195 34.2535 28.3195 34.1807 28.2467L30.5407 26.1355C30.3587 26.0263 30.2859 25.7715 30.3951 25.5895C30.5043 25.4075 30.7591 25.3347 30.9411 25.4439L34.5811 27.5551C34.7631 27.6643 34.8359 27.9191 34.7267 28.1011C34.6903 28.2467 34.5447 28.3195 34.3991 28.3195Z" fill="white" className="svg-path"/>
<path d="M36.7986 19.4014H32.5762C32.3578 19.4014 32.1758 19.2194 32.1758 19.001C32.1758 18.7826 32.3578 18.6006 32.5762 18.6006H36.7622C36.9806 18.6006 37.1626 18.7826 37.1626 19.001C37.199 19.2194 37.017 19.4014 36.7986 19.4014Z" fill="white" className="svg-path"/>
<path d="M30.7591 12.631C30.6135 12.631 30.4679 12.5582 30.3951 12.4126C30.2859 12.2306 30.3587 11.9758 30.5407 11.8666L34.1807 9.75541C34.3627 9.64621 34.6175 9.71901 34.7267 9.90101C34.8359 10.083 34.7631 10.3378 34.5811 10.447L30.9411 12.5582C30.9047 12.5946 30.8319 12.631 30.7591 12.631Z" fill="white" className="svg-path"/>
<path d="M25.8059 7.64394C25.7331 7.64394 25.6603 7.64394 25.5875 7.57114C25.4055 7.46194 25.3327 7.20714 25.4419 7.02514L27.5531 3.38514C27.6623 3.20314 27.9171 3.13034 28.0991 3.23954C28.2811 3.34874 28.3539 3.60354 28.2447 3.78554L26.1335 7.42554C26.0607 7.57114 25.9515 7.64394 25.8059 7.64394Z" fill="white" className="svg-path"/>
<path d="M19.002 5.82398C18.7836 5.82398 18.6016 5.64198 18.6016 5.42358V1.20118C18.6016 0.982781 18.7836 0.800781 19.002 0.800781C19.2204 0.800781 19.4024 0.982781 19.4024 1.20118V5.38718C19.4024 5.64198 19.2204 5.82398 19.002 5.82398Z" fill="white" className="svg-path"/>
<path d="M12.1906 7.64418C12.045 7.64418 11.8994 7.57138 11.8266 7.42578L9.7154 3.78578C9.6426 3.60378 9.7154 3.34898 9.8974 3.23978C10.0794 3.13058 10.3342 3.20338 10.4434 3.38538L12.5546 7.02538C12.6638 7.20738 12.591 7.46218 12.409 7.57138C12.3362 7.60778 12.2634 7.64418 12.1906 7.64418Z" fill="white" className="svg-path"/>
<path d="M7.24281 12.6308C7.17001 12.6308 7.09721 12.6308 7.02441 12.558L3.38441 10.4468C3.20241 10.3376 3.12961 10.0828 3.23881 9.90076C3.34801 9.71876 3.60281 9.64596 3.78481 9.75516L7.42481 11.8664C7.60681 11.9756 7.67961 12.2304 7.57041 12.4124C7.49761 12.558 7.38841 12.6308 7.24281 12.6308Z" fill="white" className="svg-path"/>
<path d="M5.42358 19.4011H1.20118C0.982781 19.4011 0.800781 19.2191 0.800781 19.0007C0.800781 18.7823 0.982781 18.6003 1.20118 18.6003H5.38718C5.60558 18.6003 5.78758 18.7823 5.78758 19.0007C5.82398 19.2191 5.64198 19.4011 5.42358 19.4011Z" fill="white" className="svg-path"/>
<path d="M3.60281 28.3192C3.45721 28.3192 3.31161 28.2464 3.23881 28.1008C3.12961 27.9188 3.20241 27.664 3.38441 27.5548L7.02441 25.4436C7.20641 25.3344 7.46121 25.4072 7.57041 25.5892C7.67961 25.7712 7.60681 26.026 7.42481 26.1352L3.78481 28.2464C3.74841 28.2828 3.67561 28.3192 3.60281 28.3192Z" fill="white" className="svg-path"/>
<path d="M10.1184 34.8346C10.0456 34.8346 9.97283 34.8346 9.90003 34.7618C9.71803 34.6526 9.64523 34.3978 9.75443 34.2158L11.8656 30.5758C11.9748 30.3938 12.2296 30.321 12.4116 30.4302C12.5936 30.5394 12.6664 30.7942 12.5572 30.9762L10.446 34.6162C10.3732 34.7618 10.264 34.8346 10.1184 34.8346Z" fill="white" className="svg-path"/>
<path d="M19.0002 21.6217L19.2186 18.7825C19.3642 16.7441 17.7626 14.0869 16.1974 12.8493L15.9062 12.6309L17.9811 9.42773L18.3451 9.82813C20.4927 12.2669 21.1842 15.9069 20.0194 18.9645L19.0002 21.6217ZM16.9983 12.4489C18.1266 13.4317 19.1823 14.9969 19.7283 16.5985C19.9102 14.5601 19.3278 12.4125 18.0903 10.8109L16.9983 12.4489Z" fill="white" className="svg-path"/>
<path d="M9.64649 24.4239C9.42809 24.4239 9.24609 24.2419 9.24609 24.0235C9.24609 23.8051 9.42809 23.6231 9.64649 23.6231C10.7749 23.6231 11.8669 23.1863 12.7041 22.4583C13.0317 22.1671 13.4685 21.6939 13.5413 21.1115C13.6141 20.6747 13.3957 20.1651 12.9953 19.9831C12.8133 19.9103 12.5949 19.9467 12.3765 20.0195C12.1217 20.1651 11.9033 20.3835 11.7941 20.6383C11.6849 21.0023 11.7577 21.4755 11.9761 21.9123C12.0853 22.0943 12.0125 22.3491 11.8305 22.4583C11.6485 22.5675 11.3937 22.4947 11.2845 22.3127C10.9205 21.6939 10.8477 21.0023 11.0297 20.4199C11.1753 19.9467 11.5393 19.5099 12.0125 19.2915C12.4493 19.0731 12.8861 19.0731 13.2865 19.2187C14.0145 19.5099 14.4877 20.3471 14.3785 21.2207C14.3057 21.8759 13.9053 22.4947 13.2865 23.0771C12.2673 23.9143 10.9569 24.4239 9.64649 24.4239Z" fill="white" className="svg-path"/>
<path d="M17.1802 24.534C15.5422 24.534 13.795 24.17 12.4118 23.4056C12.2298 23.2964 12.157 23.0416 12.2662 22.8596C12.3754 22.6776 12.6302 22.6048 12.8122 22.714C15.4694 24.17 19.6554 24.0972 21.257 22.532C21.5482 22.2772 21.6938 21.8768 21.621 21.5492C21.5846 21.3308 21.439 21.1852 21.1842 21.1124C20.7838 20.9668 20.5654 21.1488 20.4562 21.2944C20.2742 21.5128 20.2742 21.8768 20.4198 22.0952C20.5654 22.2772 20.4926 22.532 20.3106 22.6776C20.1286 22.8232 19.8738 22.7504 19.7282 22.5684C19.3642 22.0588 19.4006 21.3308 19.7646 20.7848C20.1286 20.2752 20.7474 20.0932 21.4026 20.3116C21.9122 20.4936 22.2762 20.8576 22.3854 21.3672C22.531 21.9496 22.2762 22.6412 21.803 23.1144C20.8566 24.0244 19.073 24.534 17.1802 24.534Z" fill="white" className="svg-path"/>
<path d="M23.5851 24.6062C23.0027 24.6062 22.4203 24.3878 21.9107 23.9874C21.7287 23.8418 21.7287 23.587 21.8743 23.405C22.0199 23.223 22.2747 23.223 22.4567 23.3686C23.1119 23.9146 24.1311 23.9146 24.7499 23.3322C25.0775 23.041 25.6599 22.2038 25.6235 21.9854C25.6235 21.8762 25.4779 21.7306 25.2595 21.585L24.3131 20.9298C24.1311 20.7842 24.0947 20.5294 24.2039 20.3474C24.3495 20.1654 24.6043 20.129 24.7863 20.2382L25.7327 20.8934C26.1695 21.1846 26.3879 21.5122 26.4243 21.8762C26.4971 22.6042 25.5507 23.7326 25.2595 23.951C24.8227 24.3878 24.2039 24.6062 23.5851 24.6062Z" fill="white" className="svg-path"/>
<path d="M27.2623 23.4773C27.1167 23.4773 27.0075 23.4773 26.9347 23.4409C26.7163 23.4045 26.5707 23.1861 26.6071 22.9677C26.6435 22.7493 26.8619 22.6037 27.0803 22.6401C27.4443 22.7129 28.2087 22.5673 28.4999 22.2033C28.5727 22.0941 28.6819 21.9121 28.5727 21.5845C28.4271 21.1113 28.0267 20.8565 27.2623 20.6381C27.0439 20.5653 26.8983 20.3469 26.9711 20.1285C27.0439 19.9101 27.2623 19.7645 27.4807 19.8373C28.1723 20.0193 29.0459 20.3469 29.3735 21.3297C29.5919 22.0213 29.3735 22.4581 29.1187 22.7493C28.6455 23.2589 27.8447 23.4773 27.2623 23.4773Z" fill="white" className="svg-path"/>
</g>
<defs>
<clipPath id="clip0_259_1786">
<rect width="37.7" height="37.7" fill="white" transform="translate(0.148438 0.150391)"/>
</clipPath>
</defs>
</svg>
