<svg width="40" height="40" viewBox="0 0 40 40" fill="none" xmlns="http://www.w3.org/2000/svg"  className="hover-svg">
<g clip-path="url(#clip0_354_802)">
<path d="M30.0361 28.3774C31.3823 28.3774 32.4736 27.2861 32.4736 25.9399C32.4736 24.5937 31.3823 23.5024 30.0361 23.5024C28.6899 23.5024 27.5986 24.5937 27.5986 25.9399C27.5986 27.2861 28.6899 28.3774 30.0361 28.3774Z" fill="white" className="svg-path"/>
<path d="M20.2861 12.5337C21.6323 12.5337 22.7236 11.4424 22.7236 10.0962C22.7236 8.75 21.6323 7.65869 20.2861 7.65869C18.9399 7.65869 17.8486 8.75 17.8486 10.0962C17.8486 11.4424 18.9399 12.5337 20.2861 12.5337Z" fill="white" className="svg-path"/>
<path d="M10.5361 28.3774C11.8823 28.3774 12.9736 27.2861 12.9736 25.9399C12.9736 24.5937 11.8823 23.5024 10.5361 23.5024C9.18994 23.5024 8.09863 24.5937 8.09863 25.9399C8.09863 27.2861 9.18994 28.3774 10.5361 28.3774Z" fill="white" className="svg-path"/>
<path d="M5.66113 22.2837C5.08179 23.0561 4.69431 23.9552 4.5306 24.9068C4.3669 25.8584 4.43167 26.8353 4.71957 27.7569C5.00747 28.6785 5.51026 29.5186 6.18651 30.2078C6.86276 30.897 7.6931 31.4156 8.60912 31.721C9.52514 32.0263 10.5006 32.1096 11.4551 31.964C12.4096 31.8184 13.3159 31.448 14.0992 30.8834C14.8825 30.3189 15.5205 29.5762 15.9604 28.7167C16.4004 27.8573 16.6299 26.9055 16.6299 25.9399H30.0361" stroke="white" stroke-width="2" stroke-linecap="round" stroke-linejoin="round" className="svg-path"/>
<path d="M25.8711 7.65874C25.4879 6.78319 24.9043 6.01002 24.1672 5.4017C23.4301 4.79338 22.5602 4.36695 21.6279 4.15687C20.6956 3.94678 19.7269 3.95893 18.8002 4.19233C17.8734 4.42573 17.0145 4.87384 16.2929 5.50045C15.5713 6.12707 15.0072 6.91463 14.6462 7.79951C14.2851 8.68439 14.1373 9.64179 14.2146 10.5944C14.2919 11.5469 14.5921 12.468 15.0911 13.2831C15.59 14.0982 16.2737 14.7845 17.0869 15.2866L10.5361 25.94" stroke="white" stroke-width="2" stroke-linecap="round" stroke-linejoin="round" className="svg-path"/>
<path d="M30.0361 32.0337C30.9777 32.0327 31.9063 31.8135 32.749 31.3933C33.5916 30.9732 34.3255 30.3634 34.8929 29.612C35.4603 28.8605 35.8458 27.9878 36.0192 27.0623C36.1926 26.1368 36.1492 25.1837 35.8924 24.2778C35.6356 23.3719 35.1723 22.5378 34.5389 21.8411C33.9056 21.1443 33.1193 20.6038 32.242 20.2619C31.3646 19.9201 30.42 19.7862 29.4822 19.8708C28.5444 19.9555 27.6389 20.2562 26.8369 20.7496L20.2861 10.0962" stroke="white" stroke-width="2" stroke-linecap="round" stroke-linejoin="round" className="svg-path"/>
</g>
<defs>
<clipPath id="clip0_354_802">
<rect width="39" height="39" fill="white" transform="translate(0.786133 0.346191)"/>
</clipPath>
</defs>
</svg>
