<svg width="359" height="280" viewBox="0 0 359 280" fill="none" xmlns="http://www.w3.org/2000/svg">
<g clip-path="url(#clip0_303_549)">
<rect x="1" y="1" width="418.914" height="277.748" rx="5.09501" fill="white"/>
<path d="M58 179L375 179" stroke="#F3F3F3"/>
<path d="M1 6.1C1 3.28335 3.28335 1 6.1 1H414.9C417.717 1 420 3.28335 420 6.1V56H1V6.1Z" fill="#F0F0F0"/>
<path d="M18.136 34V22.8H23.32C24.056 22.8 24.696 22.944 25.24 23.232C25.784 23.5093 26.2107 23.8987 26.52 24.4C26.8293 24.9013 26.984 25.4827 26.984 26.144C26.984 26.8053 26.8293 27.3867 26.52 27.888C26.2107 28.3893 25.7787 28.784 25.224 29.072C24.68 29.3493 24.0453 29.488 23.32 29.488H19.816V34H18.136ZM19.816 28.064H23.144C23.8053 28.064 24.328 27.8933 24.712 27.552C25.1067 27.2 25.304 26.736 25.304 26.16C25.304 25.584 25.1067 25.1253 24.712 24.784C24.328 24.4427 23.8053 24.272 23.144 24.272H19.816V28.064ZM28.4753 34V25.856H30.0753V26.896C30.3313 26.512 30.6459 26.2133 31.0193 26C31.4033 25.776 31.8353 25.664 32.3153 25.664C32.6459 25.6747 32.9179 25.7227 33.1313 25.808V27.248C32.9819 27.184 32.8273 27.1413 32.6673 27.12C32.5073 27.088 32.3473 27.072 32.1873 27.072C31.7179 27.072 31.3019 27.2 30.9393 27.456C30.5766 27.7013 30.2886 28.064 30.0753 28.544V34H28.4753ZM37.816 34.16C37.0267 34.16 36.3067 33.9733 35.656 33.6C35.016 33.2267 34.5093 32.72 34.136 32.08C33.7627 31.44 33.576 30.7253 33.576 29.936C33.576 29.1467 33.7627 28.432 34.136 27.792C34.5093 27.152 35.016 26.6453 35.656 26.272C36.3067 25.888 37.0267 25.696 37.816 25.696C38.616 25.696 39.336 25.888 39.976 26.272C40.616 26.6453 41.1227 27.152 41.496 27.792C41.8693 28.432 42.056 29.1467 42.056 29.936C42.056 30.7253 41.8693 31.44 41.496 32.08C41.1227 32.72 40.616 33.2267 39.976 33.6C39.336 33.9733 38.616 34.16 37.816 34.16ZM37.816 32.752C38.3173 32.752 38.7707 32.6293 39.176 32.384C39.5813 32.128 39.9013 31.7867 40.136 31.36C40.3707 30.9333 40.488 30.4533 40.488 29.92C40.488 29.3973 40.3653 28.928 40.12 28.512C39.8853 28.0853 39.5653 27.744 39.16 27.488C38.7653 27.232 38.3173 27.104 37.816 27.104C37.3147 27.104 36.8613 27.232 36.456 27.488C36.0613 27.744 35.7413 28.0853 35.496 28.512C35.2613 28.928 35.144 29.3973 35.144 29.92C35.144 30.4533 35.2613 30.9333 35.496 31.36C35.7307 31.7867 36.0507 32.128 36.456 32.384C36.8613 32.6293 37.3147 32.752 37.816 32.752ZM47.393 34.144C46.6143 34.144 45.905 33.9573 45.265 33.584C44.625 33.2107 44.1183 32.704 43.745 32.064C43.3823 31.424 43.201 30.7093 43.201 29.92C43.201 29.1307 43.3877 28.4213 43.761 27.792C44.1343 27.152 44.6357 26.6453 45.265 26.272C45.905 25.888 46.6143 25.696 47.393 25.696C48.0117 25.696 48.6037 25.8133 49.169 26.048C49.745 26.2827 50.241 26.6133 50.657 27.04L49.665 28.144C49.3557 27.8027 49.009 27.5467 48.625 27.376C48.241 27.2053 47.841 27.12 47.425 27.12C46.9343 27.12 46.4863 27.2427 46.081 27.488C45.6863 27.7333 45.3717 28.0693 45.137 28.496C44.9023 28.9227 44.785 29.3973 44.785 29.92C44.785 30.4427 44.9023 30.9173 45.137 31.344C45.3717 31.7707 45.6917 32.112 46.097 32.368C46.5023 32.6133 46.9557 32.736 47.457 32.736C47.873 32.736 48.2623 32.656 48.625 32.496C48.9877 32.3253 49.329 32.08 49.649 31.76L50.625 32.784C50.1983 33.2213 49.7023 33.5573 49.137 33.792C48.5823 34.0267 48.001 34.144 47.393 34.144ZM55.5824 34.144C54.7824 34.144 54.057 33.9573 53.4064 33.584C52.7664 33.2107 52.2544 32.704 51.8704 32.064C51.497 31.424 51.3104 30.7093 51.3104 29.92C51.3104 29.1413 51.4917 28.4373 51.8544 27.808C52.217 27.168 52.7077 26.6613 53.3264 26.288C53.945 25.904 54.633 25.712 55.3904 25.712C56.1477 25.712 56.8197 25.904 57.4064 26.288C57.993 26.6613 58.457 27.1733 58.7984 27.824C59.1504 28.464 59.3264 29.1893 59.3264 30V30.448H52.9104C52.9957 30.896 53.161 31.296 53.4064 31.648C53.6624 32 53.9824 32.2773 54.3664 32.48C54.761 32.6827 55.1877 32.784 55.6464 32.784C56.041 32.784 56.4197 32.7253 56.7824 32.608C57.1557 32.48 57.465 32.2987 57.7104 32.064L58.7344 33.072C58.2544 33.4347 57.7584 33.7067 57.2464 33.888C56.745 34.0587 56.1904 34.144 55.5824 34.144ZM52.9264 29.248H57.7424C57.6784 28.8213 57.529 28.448 57.2944 28.128C57.0704 27.7973 56.7877 27.5413 56.4464 27.36C56.1157 27.168 55.753 27.072 55.3584 27.072C54.953 27.072 54.5797 27.1627 54.2384 27.344C53.897 27.5253 53.609 27.7813 53.3744 28.112C53.1504 28.432 53.001 28.8107 52.9264 29.248ZM63.7284 34.16C63.0244 34.16 62.363 34.0587 61.7444 33.856C61.1364 33.6427 60.6084 33.344 60.1604 32.96L61.0404 31.904C61.4564 32.2347 61.883 32.4907 62.3204 32.672C62.7684 32.8427 63.2217 32.928 63.6804 32.928C64.2564 32.928 64.7257 32.816 65.0884 32.592C65.451 32.368 65.6324 32.0747 65.6324 31.712C65.6324 31.4133 65.5257 31.1787 65.3124 31.008C65.099 30.8373 64.7684 30.72 64.3204 30.656L62.8484 30.448C62.0377 30.3307 61.4297 30.08 61.0244 29.696C60.619 29.312 60.4164 28.8 60.4164 28.16C60.4164 27.6693 60.5497 27.2427 60.8164 26.88C61.083 26.5067 61.4564 26.2187 61.9364 26.016C62.4164 25.8027 62.9764 25.696 63.6164 25.696C64.203 25.696 64.7684 25.7813 65.3124 25.952C65.8564 26.1227 66.379 26.3893 66.8804 26.752L66.0644 27.808C65.6164 27.5093 65.179 27.2907 64.7524 27.152C64.3364 27.0133 63.915 26.944 63.4884 26.944C62.9977 26.944 62.603 27.0507 62.3044 27.264C62.0057 27.4667 61.8564 27.7333 61.8564 28.064C61.8564 28.3627 61.9577 28.5973 62.1604 28.768C62.3737 28.928 62.7204 29.04 63.2004 29.104L64.6724 29.312C65.483 29.4293 66.0964 29.68 66.5124 30.064C66.9284 30.4373 67.1364 30.944 67.1364 31.584C67.1364 32.0747 66.987 32.5173 66.6884 32.912C66.3897 33.296 65.9844 33.6 65.4724 33.824C64.9604 34.048 64.379 34.16 63.7284 34.16ZM71.1659 34.16C70.4619 34.16 69.8005 34.0587 69.1819 33.856C68.5739 33.6427 68.0459 33.344 67.5979 32.96L68.4779 31.904C68.8939 32.2347 69.3205 32.4907 69.7579 32.672C70.2059 32.8427 70.6592 32.928 71.1179 32.928C71.6939 32.928 72.1632 32.816 72.5259 32.592C72.8885 32.368 73.0699 32.0747 73.0699 31.712C73.0699 31.4133 72.9632 31.1787 72.7499 31.008C72.5365 30.8373 72.2059 30.72 71.7579 30.656L70.2859 30.448C69.4752 30.3307 68.8672 30.08 68.4619 29.696C68.0565 29.312 67.8539 28.8 67.8539 28.16C67.8539 27.6693 67.9872 27.2427 68.2539 26.88C68.5205 26.5067 68.8939 26.2187 69.3739 26.016C69.8539 25.8027 70.4139 25.696 71.0539 25.696C71.6405 25.696 72.2059 25.7813 72.7499 25.952C73.2939 26.1227 73.8165 26.3893 74.3179 26.752L73.5019 27.808C73.0539 27.5093 72.6165 27.2907 72.1899 27.152C71.7739 27.0133 71.3525 26.944 70.9259 26.944C70.4352 26.944 70.0405 27.0507 69.7419 27.264C69.4432 27.4667 69.2939 27.7333 69.2939 28.064C69.2939 28.3627 69.3952 28.5973 69.5979 28.768C69.8112 28.928 70.1579 29.04 70.6379 29.104L72.1099 29.312C72.9205 29.4293 73.5339 29.68 73.9499 30.064C74.3659 30.4373 74.5739 30.944 74.5739 31.584C74.5739 32.0747 74.4245 32.5173 74.1259 32.912C73.8272 33.296 73.4219 33.6 72.9099 33.824C72.3979 34.048 71.8165 34.16 71.1659 34.16Z" fill="#232323"/>
<path opacity="0.4" d="M102 59V275.5" stroke="#C8C8C8" stroke-width="1.4" stroke-linecap="round" stroke-dasharray="10 10"/>
<path opacity="0.4" d="M210 59V275.5" stroke="#C8C8C8" stroke-width="1.4" stroke-linecap="round" stroke-dasharray="10 10"/>
<path opacity="0.4" d="M318 59V275.5" stroke="#C8C8C8" stroke-width="1.4" stroke-linecap="round" stroke-dasharray="10 10"/>
<path d="M18.136 88V76.8H23.32C24.056 76.8 24.696 76.944 25.24 77.232C25.784 77.5093 26.2107 77.8987 26.52 78.4C26.8293 78.9013 26.984 79.4827 26.984 80.144C26.984 80.8053 26.8293 81.3867 26.52 81.888C26.2107 82.3893 25.7787 82.784 25.224 83.072C24.68 83.3493 24.0453 83.488 23.32 83.488H19.816V88H18.136ZM19.816 82.064H23.144C23.8053 82.064 24.328 81.8933 24.712 81.552C25.1067 81.2 25.304 80.736 25.304 80.16C25.304 79.584 25.1067 79.1253 24.712 78.784C24.328 78.4427 23.8053 78.272 23.144 78.272H19.816V82.064ZM28.4753 88V79.856H30.0753V80.896C30.3313 80.512 30.6459 80.2133 31.0193 80C31.4033 79.776 31.8353 79.664 32.3153 79.664C32.6459 79.6747 32.9179 79.7227 33.1313 79.808V81.248C32.9819 81.184 32.8273 81.1413 32.6673 81.12C32.5073 81.088 32.3473 81.072 32.1873 81.072C31.7179 81.072 31.3019 81.2 30.9393 81.456C30.5766 81.7013 30.2886 82.064 30.0753 82.544V88H28.4753ZM37.816 88.16C37.0267 88.16 36.3067 87.9733 35.656 87.6C35.016 87.2267 34.5093 86.72 34.136 86.08C33.7627 85.44 33.576 84.7253 33.576 83.936C33.576 83.1467 33.7627 82.432 34.136 81.792C34.5093 81.152 35.016 80.6453 35.656 80.272C36.3067 79.888 37.0267 79.696 37.816 79.696C38.616 79.696 39.336 79.888 39.976 80.272C40.616 80.6453 41.1227 81.152 41.496 81.792C41.8693 82.432 42.056 83.1467 42.056 83.936C42.056 84.7253 41.8693 85.44 41.496 86.08C41.1227 86.72 40.616 87.2267 39.976 87.6C39.336 87.9733 38.616 88.16 37.816 88.16ZM37.816 86.752C38.3173 86.752 38.7707 86.6293 39.176 86.384C39.5813 86.128 39.9013 85.7867 40.136 85.36C40.3707 84.9333 40.488 84.4533 40.488 83.92C40.488 83.3973 40.3653 82.928 40.12 82.512C39.8853 82.0853 39.5653 81.744 39.16 81.488C38.7653 81.232 38.3173 81.104 37.816 81.104C37.3147 81.104 36.8613 81.232 36.456 81.488C36.0613 81.744 35.7413 82.0853 35.496 82.512C35.2613 82.928 35.144 83.3973 35.144 83.92C35.144 84.4533 35.2613 84.9333 35.496 85.36C35.7307 85.7867 36.0507 86.128 36.456 86.384C36.8613 86.6293 37.3147 86.752 37.816 86.752ZM47.393 88.144C46.6143 88.144 45.905 87.9573 45.265 87.584C44.625 87.2107 44.1183 86.704 43.745 86.064C43.3823 85.424 43.201 84.7093 43.201 83.92C43.201 83.1307 43.3877 82.4213 43.761 81.792C44.1343 81.152 44.6357 80.6453 45.265 80.272C45.905 79.888 46.6143 79.696 47.393 79.696C48.0117 79.696 48.6037 79.8133 49.169 80.048C49.745 80.2827 50.241 80.6133 50.657 81.04L49.665 82.144C49.3557 81.8027 49.009 81.5467 48.625 81.376C48.241 81.2053 47.841 81.12 47.425 81.12C46.9343 81.12 46.4863 81.2427 46.081 81.488C45.6863 81.7333 45.3717 82.0693 45.137 82.496C44.9023 82.9227 44.785 83.3973 44.785 83.92C44.785 84.4427 44.9023 84.9173 45.137 85.344C45.3717 85.7707 45.6917 86.112 46.097 86.368C46.5023 86.6133 46.9557 86.736 47.457 86.736C47.873 86.736 48.2623 86.656 48.625 86.496C48.9877 86.3253 49.329 86.08 49.649 85.76L50.625 86.784C50.1983 87.2213 49.7023 87.5573 49.137 87.792C48.5823 88.0267 48.001 88.144 47.393 88.144ZM55.5824 88.144C54.7824 88.144 54.057 87.9573 53.4064 87.584C52.7664 87.2107 52.2544 86.704 51.8704 86.064C51.497 85.424 51.3104 84.7093 51.3104 83.92C51.3104 83.1413 51.4917 82.4373 51.8544 81.808C52.217 81.168 52.7077 80.6613 53.3264 80.288C53.945 79.904 54.633 79.712 55.3904 79.712C56.1477 79.712 56.8197 79.904 57.4064 80.288C57.993 80.6613 58.457 81.1733 58.7984 81.824C59.1504 82.464 59.3264 83.1893 59.3264 84V84.448H52.9104C52.9957 84.896 53.161 85.296 53.4064 85.648C53.6624 86 53.9824 86.2773 54.3664 86.48C54.761 86.6827 55.1877 86.784 55.6464 86.784C56.041 86.784 56.4197 86.7253 56.7824 86.608C57.1557 86.48 57.465 86.2987 57.7104 86.064L58.7344 87.072C58.2544 87.4347 57.7584 87.7067 57.2464 87.888C56.745 88.0587 56.1904 88.144 55.5824 88.144ZM52.9264 83.248H57.7424C57.6784 82.8213 57.529 82.448 57.2944 82.128C57.0704 81.7973 56.7877 81.5413 56.4464 81.36C56.1157 81.168 55.753 81.072 55.3584 81.072C54.953 81.072 54.5797 81.1627 54.2384 81.344C53.897 81.5253 53.609 81.7813 53.3744 82.112C53.1504 82.432 53.001 82.8107 52.9264 83.248ZM63.7284 88.16C63.0244 88.16 62.363 88.0587 61.7444 87.856C61.1364 87.6427 60.6084 87.344 60.1604 86.96L61.0404 85.904C61.4564 86.2347 61.883 86.4907 62.3204 86.672C62.7684 86.8427 63.2217 86.928 63.6804 86.928C64.2564 86.928 64.7257 86.816 65.0884 86.592C65.451 86.368 65.6324 86.0747 65.6324 85.712C65.6324 85.4133 65.5257 85.1787 65.3124 85.008C65.099 84.8373 64.7684 84.72 64.3204 84.656L62.8484 84.448C62.0377 84.3307 61.4297 84.08 61.0244 83.696C60.619 83.312 60.4164 82.8 60.4164 82.16C60.4164 81.6693 60.5497 81.2427 60.8164 80.88C61.083 80.5067 61.4564 80.2187 61.9364 80.016C62.4164 79.8027 62.9764 79.696 63.6164 79.696C64.203 79.696 64.7684 79.7813 65.3124 79.952C65.8564 80.1227 66.379 80.3893 66.8804 80.752L66.0644 81.808C65.6164 81.5093 65.179 81.2907 64.7524 81.152C64.3364 81.0133 63.915 80.944 63.4884 80.944C62.9977 80.944 62.603 81.0507 62.3044 81.264C62.0057 81.4667 61.8564 81.7333 61.8564 82.064C61.8564 82.3627 61.9577 82.5973 62.1604 82.768C62.3737 82.928 62.7204 83.04 63.2004 83.104L64.6724 83.312C65.483 83.4293 66.0964 83.68 66.5124 84.064C66.9284 84.4373 67.1364 84.944 67.1364 85.584C67.1364 86.0747 66.987 86.5173 66.6884 86.912C66.3897 87.296 65.9844 87.6 65.4724 87.824C64.9604 88.048 64.379 88.16 63.7284 88.16ZM71.1659 88.16C70.4619 88.16 69.8005 88.0587 69.1819 87.856C68.5739 87.6427 68.0459 87.344 67.5979 86.96L68.4779 85.904C68.8939 86.2347 69.3205 86.4907 69.7579 86.672C70.2059 86.8427 70.6592 86.928 71.1179 86.928C71.6939 86.928 72.1632 86.816 72.5259 86.592C72.8885 86.368 73.0699 86.0747 73.0699 85.712C73.0699 85.4133 72.9632 85.1787 72.7499 85.008C72.5365 84.8373 72.2059 84.72 71.7579 84.656L70.2859 84.448C69.4752 84.3307 68.8672 84.08 68.4619 83.696C68.0565 83.312 67.8539 82.8 67.8539 82.16C67.8539 81.6693 67.9872 81.2427 68.2539 80.88C68.5205 80.5067 68.8939 80.2187 69.3739 80.016C69.8539 79.8027 70.4139 79.696 71.0539 79.696C71.6405 79.696 72.2059 79.7813 72.7499 79.952C73.2939 80.1227 73.8165 80.3893 74.3179 80.752L73.5019 81.808C73.0539 81.5093 72.6165 81.2907 72.1899 81.152C71.7739 81.0133 71.3525 80.944 70.9259 80.944C70.4352 80.944 70.0405 81.0507 69.7419 81.264C69.4432 81.4667 69.2939 81.7333 69.2939 82.064C69.2939 82.3627 69.3952 82.5973 69.5979 82.768C69.8112 82.928 70.1579 83.04 70.6379 83.104L72.1099 83.312C72.9205 83.4293 73.5339 83.68 73.9499 84.064C74.3659 84.4373 74.5739 84.944 74.5739 85.584C74.5739 86.0747 74.4245 86.5173 74.1259 86.912C73.8272 87.296 73.4219 87.6 72.9099 87.824C72.3979 88.048 71.8165 88.16 71.1659 88.16ZM80.6191 88V78.448L78.6031 79.296V77.888L81.1951 76.8H82.2031V88H80.6191Z" fill="#C8C8C8"/>
<path d="M34.13 105.15C33.31 104.67 32.68 104.033 32.24 103.24C31.8067 102.447 31.59 101.54 31.59 100.52C31.59 99.5 31.8067 98.5933 32.24 97.8C32.68 97 33.31 96.3633 34.13 95.89L34.67 96.53C33.9833 96.9433 33.4567 97.4933 33.09 98.18C32.7233 98.8667 32.54 99.6467 32.54 100.52C32.54 101.387 32.7233 102.167 33.09 102.86C33.4567 103.547 33.9833 104.093 34.67 104.5L34.13 105.15ZM36.4944 103V97.03L35.2344 97.56V96.68L36.8544 96H37.4844V103H36.4944ZM42.0588 103L40.5288 96H41.6088L42.6988 101.35L44.2788 96H45.2788L46.8588 101.34L47.9588 96H48.9888L47.4588 103H46.3788L44.7688 97.5L43.1488 103H42.0588ZM51.8816 103.09C51.3816 103.09 50.9282 102.973 50.5216 102.74C50.1216 102.507 49.8016 102.19 49.5616 101.79C49.3282 101.39 49.2116 100.943 49.2116 100.45C49.2116 99.9633 49.3249 99.5233 49.5516 99.13C49.7782 98.73 50.0849 98.4133 50.4716 98.18C50.8582 97.94 51.2882 97.82 51.7616 97.82C52.2349 97.82 52.6549 97.94 53.0216 98.18C53.3882 98.4133 53.6782 98.7333 53.8916 99.14C54.1116 99.54 54.2216 99.9933 54.2216 100.5V100.78H50.2116C50.2649 101.06 50.3682 101.31 50.5216 101.53C50.6816 101.75 50.8816 101.923 51.1216 102.05C51.3682 102.177 51.6349 102.24 51.9216 102.24C52.1682 102.24 52.4049 102.203 52.6316 102.13C52.8649 102.05 53.0582 101.937 53.2116 101.79L53.8516 102.42C53.5516 102.647 53.2416 102.817 52.9216 102.93C52.6082 103.037 52.2616 103.09 51.8816 103.09ZM50.2216 100.03H53.2316C53.1916 99.7633 53.0982 99.53 52.9516 99.33C52.8116 99.1233 52.6349 98.9633 52.4216 98.85C52.2149 98.73 51.9882 98.67 51.7416 98.67C51.4882 98.67 51.2549 98.7267 51.0416 98.84C50.8282 98.9533 50.6482 99.1133 50.5016 99.32C50.3616 99.52 50.2682 99.7567 50.2216 100.03ZM57.6335 103.09C57.1335 103.09 56.6802 102.973 56.2735 102.74C55.8735 102.507 55.5535 102.19 55.3135 101.79C55.0802 101.39 54.9635 100.943 54.9635 100.45C54.9635 99.9633 55.0768 99.5233 55.3035 99.13C55.5302 98.73 55.8368 98.4133 56.2235 98.18C56.6102 97.94 57.0402 97.82 57.5135 97.82C57.9868 97.82 58.4068 97.94 58.7735 98.18C59.1402 98.4133 59.4302 98.7333 59.6435 99.14C59.8635 99.54 59.9735 99.9933 59.9735 100.5V100.78H55.9635C56.0168 101.06 56.1202 101.31 56.2735 101.53C56.4335 101.75 56.6335 101.923 56.8735 102.05C57.1202 102.177 57.3868 102.24 57.6735 102.24C57.9202 102.24 58.1568 102.203 58.3835 102.13C58.6168 102.05 58.8102 101.937 58.9635 101.79L59.6035 102.42C59.3035 102.647 58.9935 102.817 58.6735 102.93C58.3602 103.037 58.0135 103.09 57.6335 103.09ZM55.9735 100.03H58.9835C58.9435 99.7633 58.8502 99.53 58.7035 99.33C58.5635 99.1233 58.3868 98.9633 58.1735 98.85C57.9668 98.73 57.7402 98.67 57.4935 98.67C57.2402 98.67 57.0068 98.7267 56.7935 98.84C56.5802 98.9533 56.4002 99.1133 56.2535 99.32C56.1135 99.52 56.0202 99.7567 55.9735 100.03ZM60.9259 103V96L61.9259 95.81V100.14L64.3959 97.91H65.5659L62.9359 100.29L65.7059 103H64.3859L61.9259 100.61V103H60.9259ZM66.352 95.85C67.172 96.33 67.7986 96.9667 68.232 97.76C68.672 98.5533 68.892 99.46 68.892 100.48C68.892 101.5 68.672 102.407 68.232 103.2C67.7986 104 67.172 104.637 66.352 105.11L65.812 104.47C66.4986 104.057 67.0253 103.507 67.392 102.82C67.7586 102.133 67.942 101.353 67.942 100.48C67.942 99.6133 67.7586 98.8367 67.392 98.15C67.0253 97.4567 66.4986 96.9067 65.812 96.5L66.352 95.85Z" fill="#C8C8C8"/>
<path d="M139.13 105.15C138.31 104.67 137.68 104.033 137.24 103.24C136.807 102.447 136.59 101.54 136.59 100.52C136.59 99.5 136.807 98.5933 137.24 97.8C137.68 97 138.31 96.3633 139.13 95.89L139.67 96.53C138.983 96.9433 138.457 97.4933 138.09 98.18C137.723 98.8667 137.54 99.6467 137.54 100.52C137.54 101.387 137.723 102.167 138.09 102.86C138.457 103.547 138.983 104.093 139.67 104.5L139.13 105.15ZM142.855 103.11C142.355 103.11 141.885 103.023 141.445 102.85C141.012 102.67 140.635 102.413 140.315 102.08L140.965 101.46C141.245 101.753 141.528 101.963 141.815 102.09C142.108 102.21 142.452 102.27 142.845 102.27C143.158 102.27 143.435 102.217 143.675 102.11C143.922 102.003 144.112 101.857 144.245 101.67C144.378 101.483 144.445 101.267 144.445 101.02C144.445 100.793 144.385 100.593 144.265 100.42C144.152 100.24 143.995 100.103 143.795 100.01C143.602 99.91 143.372 99.86 143.105 99.86H142.255V99.05H143.035C143.388 99.05 143.672 98.9467 143.885 98.74C144.098 98.5333 144.205 98.2633 144.205 97.93C144.205 97.71 144.145 97.51 144.025 97.33C143.905 97.15 143.738 97.01 143.525 96.91C143.318 96.8033 143.082 96.75 142.815 96.75C142.462 96.75 142.148 96.8133 141.875 96.94C141.608 97.06 141.332 97.2733 141.045 97.58L140.395 96.96C140.715 96.6133 141.085 96.35 141.505 96.17C141.925 95.9833 142.368 95.89 142.835 95.89C143.288 95.89 143.688 95.9733 144.035 96.14C144.388 96.3067 144.665 96.54 144.865 96.84C145.072 97.1333 145.175 97.4667 145.175 97.84C145.175 98.2067 145.052 98.5367 144.805 98.83C144.565 99.1167 144.248 99.3167 143.855 99.43C144.328 99.53 144.705 99.73 144.985 100.03C145.265 100.323 145.405 100.67 145.405 101.07C145.405 101.463 145.295 101.813 145.075 102.12C144.862 102.427 144.562 102.67 144.175 102.85C143.788 103.023 143.348 103.11 142.855 103.11ZM149.762 102.06H151.202C151.569 102.06 151.909 101.997 152.222 101.87C152.535 101.737 152.809 101.557 153.042 101.33C153.282 101.097 153.465 100.827 153.592 100.52C153.725 100.207 153.792 99.8667 153.792 99.5C153.792 99.14 153.725 98.8033 153.592 98.49C153.465 98.1767 153.282 97.9067 153.042 97.68C152.809 97.4467 152.535 97.2667 152.222 97.14C151.909 97.0067 151.569 96.94 151.202 96.94H149.762V102.06ZM148.712 103V96H151.182C151.709 96 152.195 96.09 152.642 96.27C153.089 96.4433 153.479 96.6867 153.812 97C154.145 97.3133 154.405 97.6833 154.592 98.11C154.779 98.5367 154.872 99 154.872 99.5C154.872 100.007 154.779 100.473 154.592 100.9C154.412 101.32 154.155 101.687 153.822 102C153.489 102.313 153.095 102.56 152.642 102.74C152.195 102.913 151.709 103 151.182 103H148.712ZM157.37 103.09C157.003 103.09 156.68 103.027 156.4 102.9C156.12 102.767 155.9 102.583 155.74 102.35C155.58 102.117 155.5 101.847 155.5 101.54C155.5 101.06 155.683 100.683 156.05 100.41C156.417 100.13 156.92 99.99 157.56 99.99C158.06 99.99 158.523 100.087 158.95 100.28V99.74C158.95 99.3733 158.843 99.1 158.63 98.92C158.423 98.74 158.117 98.65 157.71 98.65C157.477 98.65 157.233 98.6867 156.98 98.76C156.727 98.8267 156.443 98.9333 156.13 99.08L155.76 98.33C156.147 98.15 156.507 98.02 156.84 97.94C157.173 97.8533 157.51 97.81 157.85 97.81C158.51 97.81 159.02 97.9667 159.38 98.28C159.747 98.5933 159.93 99.04 159.93 99.62V103H158.95V102.56C158.723 102.74 158.48 102.873 158.22 102.96C157.96 103.047 157.677 103.09 157.37 103.09ZM156.46 101.52C156.46 101.767 156.563 101.967 156.77 102.12C156.983 102.267 157.26 102.34 157.6 102.34C157.867 102.34 158.11 102.303 158.33 102.23C158.557 102.15 158.763 102.027 158.95 101.86V101C158.757 100.887 158.553 100.807 158.34 100.76C158.133 100.707 157.9 100.68 157.64 100.68C157.273 100.68 156.983 100.757 156.77 100.91C156.563 101.057 156.46 101.26 156.46 101.52ZM161.325 105.15C161.218 105.15 161.118 105.143 161.025 105.13C160.931 105.123 160.855 105.11 160.795 105.09V104.21C160.915 104.237 161.061 104.25 161.235 104.25C161.701 104.25 162.038 104 162.245 103.5L162.465 103.01L160.425 97.91H161.535L163.015 101.79L164.655 97.91H165.735L163.275 103.63C163.115 103.99 162.945 104.28 162.765 104.5C162.585 104.727 162.378 104.89 162.145 104.99C161.911 105.097 161.638 105.15 161.325 105.15ZM168.106 103.1C167.666 103.1 167.252 103.037 166.866 102.91C166.486 102.777 166.156 102.59 165.876 102.35L166.426 101.69C166.686 101.897 166.952 102.057 167.226 102.17C167.506 102.277 167.789 102.33 168.076 102.33C168.436 102.33 168.729 102.26 168.956 102.12C169.182 101.98 169.296 101.797 169.296 101.57C169.296 101.383 169.229 101.237 169.096 101.13C168.962 101.023 168.756 100.95 168.476 100.91L167.556 100.78C167.049 100.707 166.669 100.55 166.416 100.31C166.162 100.07 166.036 99.75 166.036 99.35C166.036 99.0433 166.119 98.7767 166.286 98.55C166.452 98.3167 166.686 98.1367 166.986 98.01C167.286 97.8767 167.636 97.81 168.036 97.81C168.402 97.81 168.756 97.8633 169.096 97.97C169.436 98.0767 169.762 98.2433 170.076 98.47L169.566 99.13C169.286 98.9433 169.012 98.8067 168.746 98.72C168.486 98.6333 168.222 98.59 167.956 98.59C167.649 98.59 167.402 98.6567 167.216 98.79C167.029 98.9167 166.936 99.0833 166.936 99.29C166.936 99.4767 166.999 99.6233 167.126 99.73C167.259 99.83 167.476 99.9 167.776 99.94L168.696 100.07C169.202 100.143 169.586 100.3 169.846 100.54C170.106 100.773 170.236 101.09 170.236 101.49C170.236 101.797 170.142 102.073 169.956 102.32C169.769 102.56 169.516 102.75 169.196 102.89C168.876 103.03 168.512 103.1 168.106 103.1ZM171.264 95.85C172.084 96.33 172.711 96.9667 173.144 97.76C173.584 98.5533 173.804 99.46 173.804 100.48C173.804 101.5 173.584 102.407 173.144 103.2C172.711 104 172.084 104.637 171.264 105.11L170.724 104.47C171.411 104.057 171.937 103.507 172.304 102.82C172.671 102.133 172.854 101.353 172.854 100.48C172.854 99.6133 172.671 98.8367 172.304 98.15C171.937 97.4567 171.411 96.9067 170.724 96.5L171.264 95.85Z" fill="#5D636F"/>
<path d="M248.13 105.15C247.31 104.67 246.68 104.033 246.24 103.24C245.807 102.447 245.59 101.54 245.59 100.52C245.59 99.5 245.807 98.5933 246.24 97.8C246.68 97 247.31 96.3633 248.13 95.89L248.67 96.53C247.983 96.9433 247.457 97.4933 247.09 98.18C246.723 98.8667 246.54 99.6467 246.54 100.52C246.54 101.387 246.723 102.167 247.09 102.86C247.457 103.547 247.983 104.093 248.67 104.5L248.13 105.15ZM250.494 103V97.03L249.234 97.56V96.68L250.854 96H251.484V103H250.494ZM256.059 103L254.529 96H255.609L256.699 101.35L258.279 96H259.279L260.859 101.34L261.959 96H262.989L261.459 103H260.379L258.769 97.5L257.149 103H256.059ZM265.882 103.09C265.382 103.09 264.928 102.973 264.522 102.74C264.122 102.507 263.802 102.19 263.562 101.79C263.328 101.39 263.212 100.943 263.212 100.45C263.212 99.9633 263.325 99.5233 263.552 99.13C263.778 98.73 264.085 98.4133 264.472 98.18C264.858 97.94 265.288 97.82 265.762 97.82C266.235 97.82 266.655 97.94 267.022 98.18C267.388 98.4133 267.678 98.7333 267.892 99.14C268.112 99.54 268.222 99.9933 268.222 100.5V100.78H264.212C264.265 101.06 264.368 101.31 264.522 101.53C264.682 101.75 264.882 101.923 265.122 102.05C265.368 102.177 265.635 102.24 265.922 102.24C266.168 102.24 266.405 102.203 266.632 102.13C266.865 102.05 267.058 101.937 267.212 101.79L267.852 102.42C267.552 102.647 267.242 102.817 266.922 102.93C266.608 103.037 266.262 103.09 265.882 103.09ZM264.222 100.03H267.232C267.192 99.7633 267.098 99.53 266.952 99.33C266.812 99.1233 266.635 98.9633 266.422 98.85C266.215 98.73 265.988 98.67 265.742 98.67C265.488 98.67 265.255 98.7267 265.042 98.84C264.828 98.9533 264.648 99.1133 264.502 99.32C264.362 99.52 264.268 99.7567 264.222 100.03ZM271.634 103.09C271.134 103.09 270.68 102.973 270.274 102.74C269.874 102.507 269.554 102.19 269.314 101.79C269.08 101.39 268.964 100.943 268.964 100.45C268.964 99.9633 269.077 99.5233 269.304 99.13C269.53 98.73 269.837 98.4133 270.224 98.18C270.61 97.94 271.04 97.82 271.514 97.82C271.987 97.82 272.407 97.94 272.774 98.18C273.14 98.4133 273.43 98.7333 273.644 99.14C273.864 99.54 273.974 99.9933 273.974 100.5V100.78H269.964C270.017 101.06 270.12 101.31 270.274 101.53C270.434 101.75 270.634 101.923 270.874 102.05C271.12 102.177 271.387 102.24 271.674 102.24C271.92 102.24 272.157 102.203 272.384 102.13C272.617 102.05 272.81 101.937 272.964 101.79L273.604 102.42C273.304 102.647 272.994 102.817 272.674 102.93C272.36 103.037 272.014 103.09 271.634 103.09ZM269.974 100.03H272.984C272.944 99.7633 272.85 99.53 272.704 99.33C272.564 99.1233 272.387 98.9633 272.174 98.85C271.967 98.73 271.74 98.67 271.494 98.67C271.24 98.67 271.007 98.7267 270.794 98.84C270.58 98.9533 270.4 99.1133 270.254 99.32C270.114 99.52 270.02 99.7567 269.974 100.03ZM274.926 103V96L275.926 95.81V100.14L278.396 97.91H279.566L276.936 100.29L279.706 103H278.386L275.926 100.61V103H274.926ZM280.352 95.85C281.172 96.33 281.799 96.9667 282.232 97.76C282.672 98.5533 282.892 99.46 282.892 100.48C282.892 101.5 282.672 102.407 282.232 103.2C281.799 104 281.172 104.637 280.352 105.11L279.812 104.47C280.499 104.057 281.025 103.507 281.392 102.82C281.759 102.133 281.942 101.353 281.942 100.48C281.942 99.6133 281.759 98.8367 281.392 98.15C281.025 97.4567 280.499 96.9067 279.812 96.5L280.352 95.85Z" fill="#C8C8C8"/>
<path d="M351.13 105.15C350.31 104.67 349.68 104.033 349.24 103.24C348.807 102.447 348.59 101.54 348.59 100.52C348.59 99.5 348.807 98.5933 349.24 97.8C349.68 97 350.31 96.3633 351.13 95.89L351.67 96.53C350.983 96.9433 350.457 97.4933 350.09 98.18C349.723 98.8667 349.54 99.6467 349.54 100.52C349.54 101.387 349.723 102.167 350.09 102.86C350.457 103.547 350.983 104.093 351.67 104.5L351.13 105.15ZM354.855 103.11C354.355 103.11 353.885 103.023 353.445 102.85C353.012 102.67 352.635 102.413 352.315 102.08L352.965 101.46C353.245 101.753 353.528 101.963 353.815 102.09C354.108 102.21 354.452 102.27 354.845 102.27C355.158 102.27 355.435 102.217 355.675 102.11C355.922 102.003 356.112 101.857 356.245 101.67C356.378 101.483 356.445 101.267 356.445 101.02C356.445 100.793 356.385 100.593 356.265 100.42C356.152 100.24 355.995 100.103 355.795 100.01C355.602 99.91 355.372 99.86 355.105 99.86H354.255V99.05H355.035C355.388 99.05 355.672 98.9467 355.885 98.74C356.098 98.5333 356.205 98.2633 356.205 97.93C356.205 97.71 356.145 97.51 356.025 97.33C355.905 97.15 355.738 97.01 355.525 96.91C355.318 96.8033 355.082 96.75 354.815 96.75C354.462 96.75 354.148 96.8133 353.875 96.94C353.608 97.06 353.332 97.2733 353.045 97.58L352.395 96.96C352.715 96.6133 353.085 96.35 353.505 96.17C353.925 95.9833 354.368 95.89 354.835 95.89C355.288 95.89 355.688 95.9733 356.035 96.14C356.388 96.3067 356.665 96.54 356.865 96.84C357.072 97.1333 357.175 97.4667 357.175 97.84C357.175 98.2067 357.052 98.5367 356.805 98.83C356.565 99.1167 356.248 99.3167 355.855 99.43C356.328 99.53 356.705 99.73 356.985 100.03C357.265 100.323 357.405 100.67 357.405 101.07C357.405 101.463 357.295 101.813 357.075 102.12C356.862 102.427 356.562 102.67 356.175 102.85C355.788 103.023 355.348 103.11 354.855 103.11ZM361.842 103L360.312 96H361.392L362.482 101.35L364.062 96H365.062L366.642 101.34L367.742 96H368.772L367.242 103H366.162L364.552 97.5L362.932 103H361.842ZM371.665 103.09C371.165 103.09 370.711 102.973 370.305 102.74C369.905 102.507 369.585 102.19 369.345 101.79C369.111 101.39 368.995 100.943 368.995 100.45C368.995 99.9633 369.108 99.5233 369.335 99.13C369.561 98.73 369.868 98.4133 370.255 98.18C370.641 97.94 371.071 97.82 371.545 97.82C372.018 97.82 372.438 97.94 372.805 98.18C373.171 98.4133 373.461 98.7333 373.675 99.14C373.895 99.54 374.005 99.9933 374.005 100.5V100.78H369.995C370.048 101.06 370.151 101.31 370.305 101.53C370.465 101.75 370.665 101.923 370.905 102.05C371.151 102.177 371.418 102.24 371.705 102.24C371.951 102.24 372.188 102.203 372.415 102.13C372.648 102.05 372.841 101.937 372.995 101.79L373.635 102.42C373.335 102.647 373.025 102.817 372.705 102.93C372.391 103.037 372.045 103.09 371.665 103.09ZM370.005 100.03H373.015C372.975 99.7633 372.881 99.53 372.735 99.33C372.595 99.1233 372.418 98.9633 372.205 98.85C371.998 98.73 371.771 98.67 371.525 98.67C371.271 98.67 371.038 98.7267 370.825 98.84C370.611 98.9533 370.431 99.1133 370.285 99.32C370.145 99.52 370.051 99.7567 370.005 100.03ZM377.417 103.09C376.917 103.09 376.463 102.973 376.057 102.74C375.657 102.507 375.337 102.19 375.097 101.79C374.863 101.39 374.747 100.943 374.747 100.45C374.747 99.9633 374.86 99.5233 375.087 99.13C375.313 98.73 375.62 98.4133 376.007 98.18C376.393 97.94 376.823 97.82 377.297 97.82C377.77 97.82 378.19 97.94 378.557 98.18C378.923 98.4133 379.213 98.7333 379.427 99.14C379.647 99.54 379.757 99.9933 379.757 100.5V100.78H375.747C375.8 101.06 375.903 101.31 376.057 101.53C376.217 101.75 376.417 101.923 376.657 102.05C376.903 102.177 377.17 102.24 377.457 102.24C377.703 102.24 377.94 102.203 378.167 102.13C378.4 102.05 378.593 101.937 378.747 101.79L379.387 102.42C379.087 102.647 378.777 102.817 378.457 102.93C378.143 103.037 377.797 103.09 377.417 103.09ZM375.757 100.03H378.767C378.727 99.7633 378.633 99.53 378.487 99.33C378.347 99.1233 378.17 98.9633 377.957 98.85C377.75 98.73 377.523 98.67 377.277 98.67C377.023 98.67 376.79 98.7267 376.577 98.84C376.363 98.9533 376.183 99.1133 376.037 99.32C375.897 99.52 375.803 99.7567 375.757 100.03ZM380.709 103V96L381.709 95.81V100.14L384.179 97.91H385.349L382.719 100.29L385.489 103H384.169L381.709 100.61V103H380.709ZM386.135 95.85C386.955 96.33 387.582 96.9667 388.015 97.76C388.455 98.5533 388.675 99.46 388.675 100.48C388.675 101.5 388.455 102.407 388.015 103.2C387.582 104 386.955 104.637 386.135 105.11L385.595 104.47C386.282 104.057 386.808 103.507 387.175 102.82C387.542 102.133 387.725 101.353 387.725 100.48C387.725 99.6133 387.542 98.8367 387.175 98.15C386.808 97.4567 386.282 96.9067 385.595 96.5L386.135 95.85Z" fill="#C8C8C8"/>
<path d="M121.136 88V76.8H126.32C127.056 76.8 127.696 76.944 128.24 77.232C128.784 77.5093 129.211 77.8987 129.52 78.4C129.829 78.9013 129.984 79.4827 129.984 80.144C129.984 80.8053 129.829 81.3867 129.52 81.888C129.211 82.3893 128.779 82.784 128.224 83.072C127.68 83.3493 127.045 83.488 126.32 83.488H122.816V88H121.136ZM122.816 82.064H126.144C126.805 82.064 127.328 81.8933 127.712 81.552C128.107 81.2 128.304 80.736 128.304 80.16C128.304 79.584 128.107 79.1253 127.712 78.784C127.328 78.4427 126.805 78.272 126.144 78.272H122.816V82.064ZM131.475 88V79.856H133.075V80.896C133.331 80.512 133.646 80.2133 134.019 80C134.403 79.776 134.835 79.664 135.315 79.664C135.646 79.6747 135.918 79.7227 136.131 79.808V81.248C135.982 81.184 135.827 81.1413 135.667 81.12C135.507 81.088 135.347 81.072 135.187 81.072C134.718 81.072 134.302 81.2 133.939 81.456C133.577 81.7013 133.289 82.064 133.075 82.544V88H131.475ZM140.816 88.16C140.027 88.16 139.307 87.9733 138.656 87.6C138.016 87.2267 137.509 86.72 137.136 86.08C136.763 85.44 136.576 84.7253 136.576 83.936C136.576 83.1467 136.763 82.432 137.136 81.792C137.509 81.152 138.016 80.6453 138.656 80.272C139.307 79.888 140.027 79.696 140.816 79.696C141.616 79.696 142.336 79.888 142.976 80.272C143.616 80.6453 144.123 81.152 144.496 81.792C144.869 82.432 145.056 83.1467 145.056 83.936C145.056 84.7253 144.869 85.44 144.496 86.08C144.123 86.72 143.616 87.2267 142.976 87.6C142.336 87.9733 141.616 88.16 140.816 88.16ZM140.816 86.752C141.317 86.752 141.771 86.6293 142.176 86.384C142.581 86.128 142.901 85.7867 143.136 85.36C143.371 84.9333 143.488 84.4533 143.488 83.92C143.488 83.3973 143.365 82.928 143.12 82.512C142.885 82.0853 142.565 81.744 142.16 81.488C141.765 81.232 141.317 81.104 140.816 81.104C140.315 81.104 139.861 81.232 139.456 81.488C139.061 81.744 138.741 82.0853 138.496 82.512C138.261 82.928 138.144 83.3973 138.144 83.92C138.144 84.4533 138.261 84.9333 138.496 85.36C138.731 85.7867 139.051 86.128 139.456 86.384C139.861 86.6293 140.315 86.752 140.816 86.752ZM150.393 88.144C149.614 88.144 148.905 87.9573 148.265 87.584C147.625 87.2107 147.118 86.704 146.745 86.064C146.382 85.424 146.201 84.7093 146.201 83.92C146.201 83.1307 146.388 82.4213 146.761 81.792C147.134 81.152 147.636 80.6453 148.265 80.272C148.905 79.888 149.614 79.696 150.393 79.696C151.012 79.696 151.604 79.8133 152.169 80.048C152.745 80.2827 153.241 80.6133 153.657 81.04L152.665 82.144C152.356 81.8027 152.009 81.5467 151.625 81.376C151.241 81.2053 150.841 81.12 150.425 81.12C149.934 81.12 149.486 81.2427 149.081 81.488C148.686 81.7333 148.372 82.0693 148.137 82.496C147.902 82.9227 147.785 83.3973 147.785 83.92C147.785 84.4427 147.902 84.9173 148.137 85.344C148.372 85.7707 148.692 86.112 149.097 86.368C149.502 86.6133 149.956 86.736 150.457 86.736C150.873 86.736 151.262 86.656 151.625 86.496C151.988 86.3253 152.329 86.08 152.649 85.76L153.625 86.784C153.198 87.2213 152.702 87.5573 152.137 87.792C151.582 88.0267 151.001 88.144 150.393 88.144ZM158.582 88.144C157.782 88.144 157.057 87.9573 156.406 87.584C155.766 87.2107 155.254 86.704 154.87 86.064C154.497 85.424 154.31 84.7093 154.31 83.92C154.31 83.1413 154.492 82.4373 154.854 81.808C155.217 81.168 155.708 80.6613 156.326 80.288C156.945 79.904 157.633 79.712 158.39 79.712C159.148 79.712 159.82 79.904 160.406 80.288C160.993 80.6613 161.457 81.1733 161.798 81.824C162.15 82.464 162.326 83.1893 162.326 84V84.448H155.91C155.996 84.896 156.161 85.296 156.406 85.648C156.662 86 156.982 86.2773 157.366 86.48C157.761 86.6827 158.188 86.784 158.646 86.784C159.041 86.784 159.42 86.7253 159.782 86.608C160.156 86.48 160.465 86.2987 160.71 86.064L161.734 87.072C161.254 87.4347 160.758 87.7067 160.246 87.888C159.745 88.0587 159.19 88.144 158.582 88.144ZM155.926 83.248H160.742C160.678 82.8213 160.529 82.448 160.294 82.128C160.07 81.7973 159.788 81.5413 159.446 81.36C159.116 81.168 158.753 81.072 158.358 81.072C157.953 81.072 157.58 81.1627 157.238 81.344C156.897 81.5253 156.609 81.7813 156.374 82.112C156.15 82.432 156.001 82.8107 155.926 83.248ZM166.728 88.16C166.024 88.16 165.363 88.0587 164.744 87.856C164.136 87.6427 163.608 87.344 163.16 86.96L164.04 85.904C164.456 86.2347 164.883 86.4907 165.32 86.672C165.768 86.8427 166.222 86.928 166.68 86.928C167.256 86.928 167.726 86.816 168.088 86.592C168.451 86.368 168.632 86.0747 168.632 85.712C168.632 85.4133 168.526 85.1787 168.312 85.008C168.099 84.8373 167.768 84.72 167.32 84.656L165.848 84.448C165.038 84.3307 164.43 84.08 164.024 83.696C163.619 83.312 163.416 82.8 163.416 82.16C163.416 81.6693 163.55 81.2427 163.816 80.88C164.083 80.5067 164.456 80.2187 164.936 80.016C165.416 79.8027 165.976 79.696 166.616 79.696C167.203 79.696 167.768 79.7813 168.312 79.952C168.856 80.1227 169.379 80.3893 169.88 80.752L169.064 81.808C168.616 81.5093 168.179 81.2907 167.752 81.152C167.336 81.0133 166.915 80.944 166.488 80.944C165.998 80.944 165.603 81.0507 165.304 81.264C165.006 81.4667 164.856 81.7333 164.856 82.064C164.856 82.3627 164.958 82.5973 165.16 82.768C165.374 82.928 165.72 83.04 166.2 83.104L167.672 83.312C168.483 83.4293 169.096 83.68 169.512 84.064C169.928 84.4373 170.136 84.944 170.136 85.584C170.136 86.0747 169.987 86.5173 169.688 86.912C169.39 87.296 168.984 87.6 168.472 87.824C167.96 88.048 167.379 88.16 166.728 88.16ZM174.166 88.16C173.462 88.16 172.801 88.0587 172.182 87.856C171.574 87.6427 171.046 87.344 170.598 86.96L171.478 85.904C171.894 86.2347 172.321 86.4907 172.758 86.672C173.206 86.8427 173.659 86.928 174.118 86.928C174.694 86.928 175.163 86.816 175.526 86.592C175.889 86.368 176.07 86.0747 176.07 85.712C176.07 85.4133 175.963 85.1787 175.75 85.008C175.537 84.8373 175.206 84.72 174.758 84.656L173.286 84.448C172.475 84.3307 171.867 84.08 171.462 83.696C171.057 83.312 170.854 82.8 170.854 82.16C170.854 81.6693 170.987 81.2427 171.254 80.88C171.521 80.5067 171.894 80.2187 172.374 80.016C172.854 79.8027 173.414 79.696 174.054 79.696C174.641 79.696 175.206 79.7813 175.75 79.952C176.294 80.1227 176.817 80.3893 177.318 80.752L176.502 81.808C176.054 81.5093 175.617 81.2907 175.19 81.152C174.774 81.0133 174.353 80.944 173.926 80.944C173.435 80.944 173.041 81.0507 172.742 81.264C172.443 81.4667 172.294 81.7333 172.294 82.064C172.294 82.3627 172.395 82.5973 172.598 82.768C172.811 82.928 173.158 83.04 173.638 83.104L175.11 83.312C175.921 83.4293 176.534 83.68 176.95 84.064C177.366 84.4373 177.574 84.944 177.574 85.584C177.574 86.0747 177.425 86.5173 177.126 86.912C176.827 87.296 176.422 87.6 175.91 87.824C175.398 88.048 174.817 88.16 174.166 88.16ZM181.987 88V86.88L186.531 82.048C186.84 81.728 187.08 81.44 187.251 81.184C187.422 80.928 187.539 80.688 187.603 80.464C187.678 80.2293 187.715 79.984 187.715 79.728C187.715 79.2267 187.512 78.8107 187.107 78.48C186.702 78.1493 186.19 77.984 185.571 77.984C185.059 77.984 184.579 78.0853 184.131 78.288C183.683 78.4907 183.187 78.8427 182.643 79.344L181.779 78.288C182.376 77.7333 182.99 77.3173 183.619 77.04C184.259 76.7627 184.92 76.624 185.603 76.624C186.318 76.624 186.947 76.752 187.491 77.008C188.035 77.264 188.456 77.6213 188.755 78.08C189.064 78.528 189.219 79.0453 189.219 79.632C189.219 80.0053 189.171 80.352 189.075 80.672C188.979 80.9813 188.814 81.312 188.579 81.664C188.344 82.0053 188.014 82.4 187.587 82.848L183.939 86.688L189.443 86.672V88H181.987Z" fill="#000714"/>
<path d="M230.136 88V76.8H235.32C236.056 76.8 236.696 76.944 237.24 77.232C237.784 77.5093 238.211 77.8987 238.52 78.4C238.829 78.9013 238.984 79.4827 238.984 80.144C238.984 80.8053 238.829 81.3867 238.52 81.888C238.211 82.3893 237.779 82.784 237.224 83.072C236.68 83.3493 236.045 83.488 235.32 83.488H231.816V88H230.136ZM231.816 82.064H235.144C235.805 82.064 236.328 81.8933 236.712 81.552C237.107 81.2 237.304 80.736 237.304 80.16C237.304 79.584 237.107 79.1253 236.712 78.784C236.328 78.4427 235.805 78.272 235.144 78.272H231.816V82.064ZM240.475 88V79.856H242.075V80.896C242.331 80.512 242.646 80.2133 243.019 80C243.403 79.776 243.835 79.664 244.315 79.664C244.646 79.6747 244.918 79.7227 245.131 79.808V81.248C244.982 81.184 244.827 81.1413 244.667 81.12C244.507 81.088 244.347 81.072 244.187 81.072C243.718 81.072 243.302 81.2 242.939 81.456C242.577 81.7013 242.289 82.064 242.075 82.544V88H240.475ZM249.816 88.16C249.027 88.16 248.307 87.9733 247.656 87.6C247.016 87.2267 246.509 86.72 246.136 86.08C245.763 85.44 245.576 84.7253 245.576 83.936C245.576 83.1467 245.763 82.432 246.136 81.792C246.509 81.152 247.016 80.6453 247.656 80.272C248.307 79.888 249.027 79.696 249.816 79.696C250.616 79.696 251.336 79.888 251.976 80.272C252.616 80.6453 253.123 81.152 253.496 81.792C253.869 82.432 254.056 83.1467 254.056 83.936C254.056 84.7253 253.869 85.44 253.496 86.08C253.123 86.72 252.616 87.2267 251.976 87.6C251.336 87.9733 250.616 88.16 249.816 88.16ZM249.816 86.752C250.317 86.752 250.771 86.6293 251.176 86.384C251.581 86.128 251.901 85.7867 252.136 85.36C252.371 84.9333 252.488 84.4533 252.488 83.92C252.488 83.3973 252.365 82.928 252.12 82.512C251.885 82.0853 251.565 81.744 251.16 81.488C250.765 81.232 250.317 81.104 249.816 81.104C249.315 81.104 248.861 81.232 248.456 81.488C248.061 81.744 247.741 82.0853 247.496 82.512C247.261 82.928 247.144 83.3973 247.144 83.92C247.144 84.4533 247.261 84.9333 247.496 85.36C247.731 85.7867 248.051 86.128 248.456 86.384C248.861 86.6293 249.315 86.752 249.816 86.752ZM259.393 88.144C258.614 88.144 257.905 87.9573 257.265 87.584C256.625 87.2107 256.118 86.704 255.745 86.064C255.382 85.424 255.201 84.7093 255.201 83.92C255.201 83.1307 255.388 82.4213 255.761 81.792C256.134 81.152 256.636 80.6453 257.265 80.272C257.905 79.888 258.614 79.696 259.393 79.696C260.012 79.696 260.604 79.8133 261.169 80.048C261.745 80.2827 262.241 80.6133 262.657 81.04L261.665 82.144C261.356 81.8027 261.009 81.5467 260.625 81.376C260.241 81.2053 259.841 81.12 259.425 81.12C258.934 81.12 258.486 81.2427 258.081 81.488C257.686 81.7333 257.372 82.0693 257.137 82.496C256.902 82.9227 256.785 83.3973 256.785 83.92C256.785 84.4427 256.902 84.9173 257.137 85.344C257.372 85.7707 257.692 86.112 258.097 86.368C258.502 86.6133 258.956 86.736 259.457 86.736C259.873 86.736 260.262 86.656 260.625 86.496C260.988 86.3253 261.329 86.08 261.649 85.76L262.625 86.784C262.198 87.2213 261.702 87.5573 261.137 87.792C260.582 88.0267 260.001 88.144 259.393 88.144ZM267.582 88.144C266.782 88.144 266.057 87.9573 265.406 87.584C264.766 87.2107 264.254 86.704 263.87 86.064C263.497 85.424 263.31 84.7093 263.31 83.92C263.31 83.1413 263.492 82.4373 263.854 81.808C264.217 81.168 264.708 80.6613 265.326 80.288C265.945 79.904 266.633 79.712 267.39 79.712C268.148 79.712 268.82 79.904 269.406 80.288C269.993 80.6613 270.457 81.1733 270.798 81.824C271.15 82.464 271.326 83.1893 271.326 84V84.448H264.91C264.996 84.896 265.161 85.296 265.406 85.648C265.662 86 265.982 86.2773 266.366 86.48C266.761 86.6827 267.188 86.784 267.646 86.784C268.041 86.784 268.42 86.7253 268.782 86.608C269.156 86.48 269.465 86.2987 269.71 86.064L270.734 87.072C270.254 87.4347 269.758 87.7067 269.246 87.888C268.745 88.0587 268.19 88.144 267.582 88.144ZM264.926 83.248H269.742C269.678 82.8213 269.529 82.448 269.294 82.128C269.07 81.7973 268.788 81.5413 268.446 81.36C268.116 81.168 267.753 81.072 267.358 81.072C266.953 81.072 266.58 81.1627 266.238 81.344C265.897 81.5253 265.609 81.7813 265.374 82.112C265.15 82.432 265.001 82.8107 264.926 83.248ZM275.728 88.16C275.024 88.16 274.363 88.0587 273.744 87.856C273.136 87.6427 272.608 87.344 272.16 86.96L273.04 85.904C273.456 86.2347 273.883 86.4907 274.32 86.672C274.768 86.8427 275.222 86.928 275.68 86.928C276.256 86.928 276.726 86.816 277.088 86.592C277.451 86.368 277.632 86.0747 277.632 85.712C277.632 85.4133 277.526 85.1787 277.312 85.008C277.099 84.8373 276.768 84.72 276.32 84.656L274.848 84.448C274.038 84.3307 273.43 84.08 273.024 83.696C272.619 83.312 272.416 82.8 272.416 82.16C272.416 81.6693 272.55 81.2427 272.816 80.88C273.083 80.5067 273.456 80.2187 273.936 80.016C274.416 79.8027 274.976 79.696 275.616 79.696C276.203 79.696 276.768 79.7813 277.312 79.952C277.856 80.1227 278.379 80.3893 278.88 80.752L278.064 81.808C277.616 81.5093 277.179 81.2907 276.752 81.152C276.336 81.0133 275.915 80.944 275.488 80.944C274.998 80.944 274.603 81.0507 274.304 81.264C274.006 81.4667 273.856 81.7333 273.856 82.064C273.856 82.3627 273.958 82.5973 274.16 82.768C274.374 82.928 274.72 83.04 275.2 83.104L276.672 83.312C277.483 83.4293 278.096 83.68 278.512 84.064C278.928 84.4373 279.136 84.944 279.136 85.584C279.136 86.0747 278.987 86.5173 278.688 86.912C278.39 87.296 277.984 87.6 277.472 87.824C276.96 88.048 276.379 88.16 275.728 88.16ZM283.166 88.16C282.462 88.16 281.801 88.0587 281.182 87.856C280.574 87.6427 280.046 87.344 279.598 86.96L280.478 85.904C280.894 86.2347 281.321 86.4907 281.758 86.672C282.206 86.8427 282.659 86.928 283.118 86.928C283.694 86.928 284.163 86.816 284.526 86.592C284.889 86.368 285.07 86.0747 285.07 85.712C285.07 85.4133 284.963 85.1787 284.75 85.008C284.537 84.8373 284.206 84.72 283.758 84.656L282.286 84.448C281.475 84.3307 280.867 84.08 280.462 83.696C280.057 83.312 279.854 82.8 279.854 82.16C279.854 81.6693 279.987 81.2427 280.254 80.88C280.521 80.5067 280.894 80.2187 281.374 80.016C281.854 79.8027 282.414 79.696 283.054 79.696C283.641 79.696 284.206 79.7813 284.75 79.952C285.294 80.1227 285.817 80.3893 286.318 80.752L285.502 81.808C285.054 81.5093 284.617 81.2907 284.19 81.152C283.774 81.0133 283.353 80.944 282.926 80.944C282.435 80.944 282.041 81.0507 281.742 81.264C281.443 81.4667 281.294 81.7333 281.294 82.064C281.294 82.3627 281.395 82.5973 281.598 82.768C281.811 82.928 282.158 83.04 282.638 83.104L284.11 83.312C284.921 83.4293 285.534 83.68 285.95 84.064C286.366 84.4373 286.574 84.944 286.574 85.584C286.574 86.0747 286.425 86.5173 286.126 86.912C285.827 87.296 285.422 87.6 284.91 87.824C284.398 88.048 283.817 88.16 283.166 88.16ZM294.843 88.176C294.043 88.176 293.291 88.0373 292.587 87.76C291.894 87.472 291.291 87.0613 290.779 86.528L291.819 85.536C292.267 86.0053 292.72 86.3413 293.179 86.544C293.648 86.736 294.198 86.832 294.827 86.832C295.328 86.832 295.771 86.7467 296.155 86.576C296.55 86.4053 296.854 86.1707 297.067 85.872C297.28 85.5733 297.387 85.2267 297.387 84.832C297.387 84.4693 297.291 84.1493 297.099 83.872C296.918 83.584 296.667 83.3653 296.347 83.216C296.038 83.056 295.67 82.976 295.243 82.976H293.883V81.68H295.131C295.696 81.68 296.15 81.5147 296.491 81.184C296.832 80.8533 297.003 80.4213 297.003 79.888C297.003 79.536 296.907 79.216 296.715 78.928C296.523 78.64 296.256 78.416 295.915 78.256C295.584 78.0853 295.206 78 294.779 78C294.214 78 293.712 78.1013 293.275 78.304C292.848 78.496 292.406 78.8373 291.947 79.328L290.907 78.336C291.419 77.7813 292.011 77.36 292.683 77.072C293.355 76.7733 294.064 76.624 294.811 76.624C295.536 76.624 296.176 76.7573 296.731 77.024C297.296 77.2907 297.739 77.664 298.059 78.144C298.39 78.6133 298.555 79.1467 298.555 79.744C298.555 80.3307 298.358 80.8587 297.963 81.328C297.579 81.7867 297.072 82.1067 296.443 82.288C297.2 82.448 297.803 82.768 298.251 83.248C298.699 83.7173 298.923 84.272 298.923 84.912C298.923 85.5413 298.747 86.1013 298.395 86.592C298.054 87.0827 297.574 87.472 296.955 87.76C296.336 88.0373 295.632 88.176 294.843 88.176Z" fill="#929292"/>
<path d="M334.136 88V76.8H339.32C340.056 76.8 340.696 76.944 341.24 77.232C341.784 77.5093 342.211 77.8987 342.52 78.4C342.829 78.9013 342.984 79.4827 342.984 80.144C342.984 80.8053 342.829 81.3867 342.52 81.888C342.211 82.3893 341.779 82.784 341.224 83.072C340.68 83.3493 340.045 83.488 339.32 83.488H335.816V88H334.136ZM335.816 82.064H339.144C339.805 82.064 340.328 81.8933 340.712 81.552C341.107 81.2 341.304 80.736 341.304 80.16C341.304 79.584 341.107 79.1253 340.712 78.784C340.328 78.4427 339.805 78.272 339.144 78.272H335.816V82.064ZM344.475 88V79.856H346.075V80.896C346.331 80.512 346.646 80.2133 347.019 80C347.403 79.776 347.835 79.664 348.315 79.664C348.646 79.6747 348.918 79.7227 349.131 79.808V81.248C348.982 81.184 348.827 81.1413 348.667 81.12C348.507 81.088 348.347 81.072 348.187 81.072C347.718 81.072 347.302 81.2 346.939 81.456C346.577 81.7013 346.289 82.064 346.075 82.544V88H344.475ZM353.816 88.16C353.027 88.16 352.307 87.9733 351.656 87.6C351.016 87.2267 350.509 86.72 350.136 86.08C349.763 85.44 349.576 84.7253 349.576 83.936C349.576 83.1467 349.763 82.432 350.136 81.792C350.509 81.152 351.016 80.6453 351.656 80.272C352.307 79.888 353.027 79.696 353.816 79.696C354.616 79.696 355.336 79.888 355.976 80.272C356.616 80.6453 357.123 81.152 357.496 81.792C357.869 82.432 358.056 83.1467 358.056 83.936C358.056 84.7253 357.869 85.44 357.496 86.08C357.123 86.72 356.616 87.2267 355.976 87.6C355.336 87.9733 354.616 88.16 353.816 88.16ZM353.816 86.752C354.317 86.752 354.771 86.6293 355.176 86.384C355.581 86.128 355.901 85.7867 356.136 85.36C356.371 84.9333 356.488 84.4533 356.488 83.92C356.488 83.3973 356.365 82.928 356.12 82.512C355.885 82.0853 355.565 81.744 355.16 81.488C354.765 81.232 354.317 81.104 353.816 81.104C353.315 81.104 352.861 81.232 352.456 81.488C352.061 81.744 351.741 82.0853 351.496 82.512C351.261 82.928 351.144 83.3973 351.144 83.92C351.144 84.4533 351.261 84.9333 351.496 85.36C351.731 85.7867 352.051 86.128 352.456 86.384C352.861 86.6293 353.315 86.752 353.816 86.752ZM363.393 88.144C362.614 88.144 361.905 87.9573 361.265 87.584C360.625 87.2107 360.118 86.704 359.745 86.064C359.382 85.424 359.201 84.7093 359.201 83.92C359.201 83.1307 359.388 82.4213 359.761 81.792C360.134 81.152 360.636 80.6453 361.265 80.272C361.905 79.888 362.614 79.696 363.393 79.696C364.012 79.696 364.604 79.8133 365.169 80.048C365.745 80.2827 366.241 80.6133 366.657 81.04L365.665 82.144C365.356 81.8027 365.009 81.5467 364.625 81.376C364.241 81.2053 363.841 81.12 363.425 81.12C362.934 81.12 362.486 81.2427 362.081 81.488C361.686 81.7333 361.372 82.0693 361.137 82.496C360.902 82.9227 360.785 83.3973 360.785 83.92C360.785 84.4427 360.902 84.9173 361.137 85.344C361.372 85.7707 361.692 86.112 362.097 86.368C362.502 86.6133 362.956 86.736 363.457 86.736C363.873 86.736 364.262 86.656 364.625 86.496C364.988 86.3253 365.329 86.08 365.649 85.76L366.625 86.784C366.198 87.2213 365.702 87.5573 365.137 87.792C364.582 88.0267 364.001 88.144 363.393 88.144ZM371.582 88.144C370.782 88.144 370.057 87.9573 369.406 87.584C368.766 87.2107 368.254 86.704 367.87 86.064C367.497 85.424 367.31 84.7093 367.31 83.92C367.31 83.1413 367.492 82.4373 367.854 81.808C368.217 81.168 368.708 80.6613 369.326 80.288C369.945 79.904 370.633 79.712 371.39 79.712C372.148 79.712 372.82 79.904 373.406 80.288C373.993 80.6613 374.457 81.1733 374.798 81.824C375.15 82.464 375.326 83.1893 375.326 84V84.448H368.91C368.996 84.896 369.161 85.296 369.406 85.648C369.662 86 369.982 86.2773 370.366 86.48C370.761 86.6827 371.188 86.784 371.646 86.784C372.041 86.784 372.42 86.7253 372.782 86.608C373.156 86.48 373.465 86.2987 373.71 86.064L374.734 87.072C374.254 87.4347 373.758 87.7067 373.246 87.888C372.745 88.0587 372.19 88.144 371.582 88.144ZM368.926 83.248H373.742C373.678 82.8213 373.529 82.448 373.294 82.128C373.07 81.7973 372.788 81.5413 372.446 81.36C372.116 81.168 371.753 81.072 371.358 81.072C370.953 81.072 370.58 81.1627 370.238 81.344C369.897 81.5253 369.609 81.7813 369.374 82.112C369.15 82.432 369.001 82.8107 368.926 83.248ZM379.728 88.16C379.024 88.16 378.363 88.0587 377.744 87.856C377.136 87.6427 376.608 87.344 376.16 86.96L377.04 85.904C377.456 86.2347 377.883 86.4907 378.32 86.672C378.768 86.8427 379.222 86.928 379.68 86.928C380.256 86.928 380.726 86.816 381.088 86.592C381.451 86.368 381.632 86.0747 381.632 85.712C381.632 85.4133 381.526 85.1787 381.312 85.008C381.099 84.8373 380.768 84.72 380.32 84.656L378.848 84.448C378.038 84.3307 377.43 84.08 377.024 83.696C376.619 83.312 376.416 82.8 376.416 82.16C376.416 81.6693 376.55 81.2427 376.816 80.88C377.083 80.5067 377.456 80.2187 377.936 80.016C378.416 79.8027 378.976 79.696 379.616 79.696C380.203 79.696 380.768 79.7813 381.312 79.952C381.856 80.1227 382.379 80.3893 382.88 80.752L382.064 81.808C381.616 81.5093 381.179 81.2907 380.752 81.152C380.336 81.0133 379.915 80.944 379.488 80.944C378.998 80.944 378.603 81.0507 378.304 81.264C378.006 81.4667 377.856 81.7333 377.856 82.064C377.856 82.3627 377.958 82.5973 378.16 82.768C378.374 82.928 378.72 83.04 379.2 83.104L380.672 83.312C381.483 83.4293 382.096 83.68 382.512 84.064C382.928 84.4373 383.136 84.944 383.136 85.584C383.136 86.0747 382.987 86.5173 382.688 86.912C382.39 87.296 381.984 87.6 381.472 87.824C380.96 88.048 380.379 88.16 379.728 88.16ZM387.166 88.16C386.462 88.16 385.801 88.0587 385.182 87.856C384.574 87.6427 384.046 87.344 383.598 86.96L384.478 85.904C384.894 86.2347 385.321 86.4907 385.758 86.672C386.206 86.8427 386.659 86.928 387.118 86.928C387.694 86.928 388.163 86.816 388.526 86.592C388.889 86.368 389.07 86.0747 389.07 85.712C389.07 85.4133 388.963 85.1787 388.75 85.008C388.537 84.8373 388.206 84.72 387.758 84.656L386.286 84.448C385.475 84.3307 384.867 84.08 384.462 83.696C384.057 83.312 383.854 82.8 383.854 82.16C383.854 81.6693 383.987 81.2427 384.254 80.88C384.521 80.5067 384.894 80.2187 385.374 80.016C385.854 79.8027 386.414 79.696 387.054 79.696C387.641 79.696 388.206 79.7813 388.75 79.952C389.294 80.1227 389.817 80.3893 390.318 80.752L389.502 81.808C389.054 81.5093 388.617 81.2907 388.19 81.152C387.774 81.0133 387.353 80.944 386.926 80.944C386.435 80.944 386.041 81.0507 385.742 81.264C385.443 81.4667 385.294 81.7333 385.294 82.064C385.294 82.3627 385.395 82.5973 385.598 82.768C385.811 82.928 386.158 83.04 386.638 83.104L388.11 83.312C388.921 83.4293 389.534 83.68 389.95 84.064C390.366 84.4373 390.574 84.944 390.574 85.584C390.574 86.0747 390.425 86.5173 390.126 86.912C389.827 87.296 389.422 87.6 388.91 87.824C388.398 88.048 387.817 88.16 387.166 88.16ZM400.987 88V85.152H394.635V83.888L400.795 76.8H402.571V83.808H403.931V85.152H402.571V88H400.987ZM396.523 83.808H400.987V78.672L396.523 83.808Z" fill="#929292"/>
<circle cx="157" cy="178" r="20" fill="#FF6600"/>
<circle cx="268" cy="178" r="20" fill="#C8C8C8"/>
<circle cx="368" cy="178" r="20" fill="#C8C8C8"/>
<circle cx="157" cy="178" r="7" fill="white"/>
<circle cx="268" cy="178" r="7" fill="white"/>
<path d="M64.475 173.504C63.8018 172.8 63.1054 172.075 62.8429 171.438C62.6 170.854 62.5857 169.886 62.5714 168.948C62.5446 167.205 62.5161 165.23 61.1429 163.857C59.7696 162.484 57.7946 162.455 56.0518 162.429C55.1143 162.414 54.1464 162.4 53.5625 162.157C52.9268 161.895 52.2 161.198 51.4964 160.525C50.2643 159.341 48.8643 158 47 158C45.1357 158 43.7375 159.341 42.5036 160.525C41.8 161.198 41.075 161.895 40.4375 162.157C39.8571 162.4 38.8857 162.414 37.9482 162.429C36.2054 162.455 34.2304 162.484 32.8571 163.857C31.4839 165.23 31.4643 167.205 31.4286 168.948C31.4143 169.886 31.4 170.854 31.1571 171.438C30.8946 172.073 30.1982 172.8 29.525 173.504C28.3411 174.736 27 176.136 27 178C27 179.864 28.3411 181.262 29.525 182.496C30.1982 183.2 30.8946 183.925 31.1571 184.562C31.4 185.146 31.4143 186.114 31.4286 187.052C31.4554 188.795 31.4839 190.77 32.8571 192.143C34.2304 193.516 36.2054 193.545 37.9482 193.571C38.8857 193.586 39.8536 193.6 40.4375 193.843C41.0732 194.105 41.8 194.802 42.5036 195.475C43.7357 196.659 45.1357 198 47 198C48.8643 198 50.2625 196.659 51.4964 195.475C52.2 194.802 52.925 194.105 53.5625 193.843C54.1464 193.6 55.1143 193.586 56.0518 193.571C57.7946 193.545 59.7696 193.516 61.1429 192.143C62.5161 190.77 62.5446 188.795 62.5714 187.052C62.5857 186.114 62.6 185.146 62.8429 184.562C63.1054 183.927 63.8018 183.2 64.475 182.496C65.6589 181.264 67 179.864 67 178C67 176.136 65.6589 174.737 64.475 173.504ZM55.1536 174.725L45.1536 184.725C45.0209 184.858 44.8633 184.963 44.6899 185.035C44.5165 185.107 44.3306 185.144 44.1429 185.144C43.9551 185.144 43.7692 185.107 43.5958 185.035C43.4224 184.963 43.2648 184.858 43.1321 184.725L38.8464 180.439C38.5784 180.171 38.4278 179.808 38.4278 179.429C38.4278 179.049 38.5784 178.686 38.8464 178.418C39.1145 178.15 39.4781 177.999 39.8571 177.999C40.2362 177.999 40.5998 178.15 40.8679 178.418L44.1429 181.695L53.1321 172.704C53.2649 172.571 53.4224 172.466 53.5959 172.394C53.7693 172.322 53.9552 172.285 54.1429 172.285C54.3306 172.285 54.5164 172.322 54.6899 172.394C54.8633 172.466 55.0208 172.571 55.1536 172.704C55.2863 172.836 55.3916 172.994 55.4634 173.167C55.5352 173.341 55.5722 173.527 55.5722 173.714C55.5722 173.902 55.5352 174.088 55.4634 174.261C55.3916 174.435 55.2863 174.592 55.1536 174.725Z" fill="white"/>
<path d="M64.475 173.504C63.8018 172.8 63.1054 172.075 62.8429 171.438C62.6 170.854 62.5857 169.886 62.5714 168.948C62.5446 167.205 62.5161 165.23 61.1429 163.857C59.7696 162.484 57.7946 162.455 56.0518 162.429C55.1143 162.414 54.1464 162.4 53.5625 162.157C52.9268 161.895 52.2 161.198 51.4964 160.525C50.2643 159.341 48.8643 158 47 158C45.1357 158 43.7375 159.341 42.5036 160.525C41.8 161.198 41.075 161.895 40.4375 162.157C39.8571 162.4 38.8857 162.414 37.9482 162.429C36.2054 162.455 34.2304 162.484 32.8571 163.857C31.4839 165.23 31.4643 167.205 31.4286 168.948C31.4143 169.886 31.4 170.854 31.1571 171.438C30.8946 172.073 30.1982 172.8 29.525 173.504C28.3411 174.736 27 176.136 27 178C27 179.864 28.3411 181.262 29.525 182.496C30.1982 183.2 30.8946 183.925 31.1571 184.562C31.4 185.146 31.4143 186.114 31.4286 187.052C31.4554 188.795 31.4839 190.77 32.8571 192.143C34.2304 193.516 36.2054 193.545 37.9482 193.571C38.8857 193.586 39.8536 193.6 40.4375 193.843C41.0732 194.105 41.8 194.802 42.5036 195.475C43.7357 196.659 45.1357 198 47 198C48.8643 198 50.2625 196.659 51.4964 195.475C52.2 194.802 52.925 194.105 53.5625 193.843C54.1464 193.6 55.1143 193.586 56.0518 193.571C57.7946 193.545 59.7696 193.516 61.1429 192.143C62.5161 190.77 62.5446 188.795 62.5714 187.052C62.5857 186.114 62.6 185.146 62.8429 184.562C63.1054 183.927 63.8018 183.2 64.475 182.496C65.6589 181.264 67 179.864 67 178C67 176.136 65.6589 174.737 64.475 173.504ZM55.1536 174.725L45.1536 184.725C45.0209 184.858 44.8633 184.963 44.6899 185.035C44.5165 185.107 44.3306 185.144 44.1429 185.144C43.9551 185.144 43.7692 185.107 43.5958 185.035C43.4224 184.963 43.2648 184.858 43.1321 184.725L38.8464 180.439C38.5784 180.171 38.4278 179.808 38.4278 179.429C38.4278 179.049 38.5784 178.686 38.8464 178.418C39.1145 178.15 39.4781 177.999 39.8571 177.999C40.2362 177.999 40.5998 178.15 40.8679 178.418L44.1429 181.695L53.1321 172.704C53.2649 172.571 53.4224 172.466 53.5959 172.394C53.7693 172.322 53.9552 172.285 54.1429 172.285C54.3306 172.285 54.5164 172.322 54.6899 172.394C54.8633 172.466 55.0208 172.571 55.1536 172.704C55.2863 172.836 55.3916 172.994 55.4634 173.167C55.5352 173.341 55.5722 173.527 55.5722 173.714C55.5722 173.902 55.5352 174.088 55.4634 174.261C55.3916 174.435 55.2863 174.592 55.1536 174.725Z" fill="#0BA436"/>
<path d="M44.3333 207C44.3333 208.473 45.5272 209.667 47 209.667C48.4728 209.667 49.6667 208.473 49.6667 207C49.6667 205.527 48.4728 204.333 47 204.333C45.5272 204.333 44.3333 205.527 44.3333 207ZM97.5 207L92.5 204.113V209.887L97.5 207ZM47 207.5H93V206.5H47V207.5Z" fill="#F3F3F3"/>
<path d="M82.3333 136C82.3333 137.473 83.5272 138.667 85 138.667C86.4728 138.667 87.6667 137.473 87.6667 136C87.6667 134.527 86.4728 133.333 85 133.333C83.5272 133.333 82.3333 134.527 82.3333 136ZM135.5 136L130.5 133.113V138.887L135.5 136ZM85 136.5H131V135.5H85V136.5Z" fill="#F3F3F3"/>
<path d="M182.333 243C182.333 244.473 183.527 245.667 185 245.667C186.473 245.667 187.667 244.473 187.667 243C187.667 241.527 186.473 240.333 185 240.333C183.527 240.333 182.333 241.527 182.333 243ZM235.5 243L230.5 240.113V245.887L235.5 243ZM185 243.5H231V242.5H185V243.5Z" fill="#C8C8C8"/>
<path d="M292.333 161C292.333 162.473 293.527 163.667 295 163.667C296.473 163.667 297.667 162.473 297.667 161C297.667 159.527 296.473 158.333 295 158.333C293.527 158.333 292.333 159.527 292.333 161ZM345.5 161L340.5 158.113V163.887L345.5 161ZM295 161.5H341V160.5H295V161.5Z" fill="#F3F3F3"/>
</g>
<rect x="0.5" y="0.5" width="419.914" height="278.748" rx="5.59501" stroke="#000714"/>
<defs>
<clipPath id="clip0_303_549">
<rect x="1" y="1" width="418.914" height="277.748" rx="5.09501" fill="white"/>
</clipPath>
</defs>
</svg>
