<svg
        width="40"
        height="40"
        viewBox="0 0 40 40"
        fill="none"
        xmlns="http://www.w3.org/2000/svg"
        className="hover-svg"
      >
        <g clipPath="url(#clip0_241_1536)">
          <path
            d="M28.5312 12.6875H35.018C35.2609 12.6874 35.4983 12.7598 35.6997 12.8956C35.9011 13.0313 36.0574 13.2241 36.1484 13.4492L38.2812 18.7812"
            className="svg-path"
          />
          <path
            d="M4.15625 22.4375H28.5312"
            className="svg-path"
          />
          <path
            d="M29.75 33.4062C31.7693 33.4062 33.4062 31.7693 33.4062 29.75C33.4062 27.7307 31.7693 26.0938 29.75 26.0938C27.7307 26.0938 26.0938 27.7307 26.0938 29.75C26.0938 31.7693 27.7307 33.4062 29.75 33.4062Z"
            className="svg-path"
          />
          <path
            d="M12.6875 33.4062C14.7068 33.4062 16.3438 31.7693 16.3438 29.75C16.3438 27.7307 14.7068 26.0938 12.6875 26.0938C10.6682 26.0938 9.03125 27.7307 9.03125 29.75C9.03125 31.7693 10.6682 33.4062 12.6875 33.4062Z"
            className="svg-path"
          />
          <path
            d="M26.0938 29.75H16.3438"
            className="svg-path"
          />
          <path
            d="M28.5312 18.7812H38.2812V28.5312C38.2812 28.8545 38.1528 29.1645 37.9243 29.393C37.6957 29.6216 37.3857 29.75 37.0625 29.75H33.4062"
            className="svg-path"
          />
          <path
            d="M9.03125 29.75H5.375C5.05177 29.75 4.74177 29.6216 4.51321 29.393C4.28465 29.1645 4.15625 28.8545 4.15625 28.5312V11.4688C4.15625 11.1455 4.28465 10.8355 4.51321 10.607C4.74177 10.3784 5.05177 10.25 5.375 10.25H28.5312V26.3025"
            className="svg-path"
          />
        </g>
        <defs>
          <clipPath id="clip0_241_1536">
            <rect width="39" height="39" fill="white" transform="translate(0.5 0.5)" />
          </clipPath>
        </defs>
      </svg>