<svg width="396" height="396" viewBox="0 0 396 396" fill="none" xmlns="http://www.w3.org/2000/svg">
<path d="M13.4598 258.852C11.2076 258.852 8.95721 258.346 7.20078 257.334C5.29993 256.235 4.25391 254.704 4.25391 253.022C4.25543 251.345 5.29993 249.819 7.19447 248.726C10.7008 246.7 16.1982 246.7 19.7107 248.733C21.607 249.827 22.653 251.355 22.653 253.035C22.653 254.713 21.61 256.241 19.7155 257.334C17.9625 258.346 15.7104 258.852 13.4598 258.852ZM13.4428 249.606C11.6009 249.606 9.75911 250.003 8.38835 250.794C7.27871 251.434 6.643 252.247 6.64147 253.024C6.64147 253.806 7.28024 254.623 8.39466 255.267C11.1394 256.85 15.7774 256.85 18.522 255.267C19.6303 254.626 20.2658 253.813 20.2658 253.036C20.2658 252.256 19.6286 251.442 18.5157 250.8C17.1401 250.004 15.2922 249.606 13.4428 249.606Z" fill="#264E6E"/>
<path d="M323.586 252.202C323.499 252.202 323.409 252.192 323.322 252.172C321.096 251.667 318.451 251.4 315.672 251.4H315.669C312.899 251.314 310.26 251.658 308.022 252.166C307.546 252.272 307.046 252.079 306.772 251.673C306.496 251.268 306.496 250.735 306.772 250.329C307.543 249.196 307.95 247.85 307.944 246.437C307.944 245.015 307.537 243.667 306.766 242.536C306.489 242.13 306.489 241.597 306.766 241.191C307.04 240.786 307.537 240.587 308.016 240.699C312.483 241.709 318.92 241.705 323.309 240.705C323.785 240.595 324.282 240.791 324.559 241.195C324.836 241.6 324.836 242.132 324.562 242.538C323.791 243.675 323.387 245.023 323.393 246.434C323.393 247.856 323.8 249.204 324.571 250.335C324.848 250.741 324.848 251.274 324.571 251.68C324.348 252.01 323.975 252.202 323.586 252.202ZM315.675 249.012C317.702 249.012 319.669 249.147 321.479 249.409C321.168 248.465 321.006 247.464 321.006 246.438C321.003 245.414 321.161 244.413 321.472 243.467C317.885 243.984 313.49 243.989 309.859 243.462C310.17 244.405 310.331 245.406 310.331 246.432C310.335 247.456 310.176 248.457 309.865 249.404C311.684 249.143 313.673 248.975 315.675 249.012Z" fill="#264E6E"/>
<path d="M155.548 395.484C154.889 395.484 154.354 394.95 154.354 394.291L154.342 381.366C154.342 380.707 154.875 380.172 155.534 380.172C155.535 380.172 155.535 380.172 155.535 380.172C156.195 380.172 156.729 380.707 156.729 381.366L156.742 394.291C156.742 394.95 156.208 395.484 155.549 395.484C155.548 395.484 155.548 395.484 155.548 395.484Z" fill="#264E6E"/>
<path d="M166.733 389.026L144.352 389.02C143.693 389.02 143.158 388.486 143.158 387.827C143.158 387.167 143.693 386.633 144.352 386.633L166.733 386.639C167.392 386.639 167.927 387.174 167.927 387.833C167.926 388.492 167.392 389.026 166.733 389.026Z" fill="#264E6E"/>
<path d="M157.371 87.8197C156.958 87.8197 156.556 87.6052 156.336 87.2229C156.006 86.651 156.202 85.9206 156.774 85.5926L167.969 79.1393C168.544 78.8116 169.271 79.0074 169.601 79.576C169.931 80.1479 169.732 80.8786 169.163 81.2064L157.966 87.6596C157.778 87.7685 157.573 87.8197 157.371 87.8197Z" fill="#264E6E"/>
<path d="M168.566 94.281C168.156 94.281 167.755 94.0665 167.534 93.6843L156.336 74.306C156.006 73.7356 156.202 73.005 156.772 72.6756C157.348 72.3461 158.073 72.5419 158.403 73.1123L169.598 92.4906C169.931 93.061 169.735 93.7914 169.163 94.1209C168.977 94.2296 168.771 94.281 168.566 94.281Z" fill="#264E6E"/>
<path d="M86.5881 137.731C94.0465 130.273 94.0465 118.18 86.5881 110.722C79.1297 103.264 67.0372 103.264 59.5788 110.722C52.1204 118.18 52.1204 130.273 59.5788 137.731C67.0372 145.19 79.1297 145.19 86.5881 137.731Z" fill="white"/>
<path d="M73.0853 144.522C61.8962 144.522 52.793 135.419 52.793 124.23C52.793 113.041 61.8962 103.938 73.0853 103.938C84.2743 103.938 93.3774 113.041 93.3774 124.23C93.3774 135.419 84.2743 144.522 73.0853 144.522ZM73.0853 106.325C63.2128 106.325 55.1804 114.357 55.1804 124.23C55.1804 134.102 63.2128 142.135 73.0853 142.135C82.9578 142.135 90.9902 134.102 90.9902 124.23C90.9902 114.357 82.9578 106.325 73.0853 106.325Z" fill="#264E6E"/>
<path d="M73.0845 105.129C72.3261 105.129 71.5832 105.185 70.8465 105.272C78.6208 106.584 84.5579 113.298 84.5579 121.442C84.5579 130.525 77.1943 137.886 68.1109 137.886C63.1405 137.886 58.7358 135.635 55.7207 132.148C58.7329 138.738 65.3661 143.326 73.0845 143.326C83.6347 143.326 92.1829 134.777 92.1829 124.227C92.1829 113.684 83.6347 105.129 73.0845 105.129Z" fill="#FF672F"/>
<path d="M73.0849 144.522C65.1738 144.522 57.9326 139.86 54.636 132.646C54.3888 132.106 54.5752 131.466 55.0757 131.146C55.5746 130.824 56.2321 130.916 56.6237 131.37C59.5488 134.753 63.736 136.694 68.1111 136.694C76.5212 136.694 83.3645 129.853 83.3645 121.444C83.3645 114 78.0163 107.694 70.6477 106.451C70.0618 106.353 69.6389 105.838 69.6528 105.244C69.6685 104.651 70.1161 104.158 70.7067 104.088C71.4901 103.997 72.278 103.938 73.0847 103.938C84.2737 103.938 93.3768 113.041 93.3768 124.23C93.377 135.418 84.2739 144.522 73.0849 144.522ZM61.2928 137.677C64.5024 140.491 68.6756 142.134 73.0849 142.134C82.9574 142.134 90.9898 134.102 90.9898 124.229C90.9898 116.197 85.6728 109.383 78.3725 107.122C82.8892 110.331 85.7522 115.583 85.7522 121.444C85.7522 131.169 77.8381 139.081 68.1115 139.081C65.7472 139.082 63.433 138.594 61.2928 137.677Z" fill="#264E6E"/>
<path d="M307.657 235.527L201.726 174.371L64.6836 253.488V262.826L170.616 323.982L307.657 244.865V235.527Z" fill="#FF672F"/>
<path d="M170.616 325.175C170.41 325.175 170.204 325.122 170.019 325.017L64.087 263.859C63.717 263.646 63.4902 263.251 63.4902 262.825V253.487C63.4902 253.062 63.7172 252.667 64.087 252.454L201.129 173.337C201.496 173.122 201.956 173.122 202.323 173.337L308.254 234.493C308.624 234.706 308.851 235.101 308.851 235.527V244.864C308.851 245.29 308.624 245.685 308.254 245.898L171.213 325.017C171.028 325.122 170.823 325.175 170.616 325.175ZM65.8776 262.137L170.616 322.604L306.463 244.176V236.215L201.726 175.749L65.8774 254.176V262.137H65.8776Z" fill="#264E6E"/>
<path d="M201.726 174.371L64.6836 253.488L170.616 314.651L307.657 235.527L201.726 174.371Z" fill="white"/>
<path d="M170.616 315.843C170.41 315.843 170.204 315.791 170.019 315.685L64.087 254.521C63.717 254.308 63.4902 253.913 63.4902 253.487C63.4902 253.062 63.7172 252.667 64.087 252.454L201.129 173.337C201.496 173.122 201.956 173.122 202.323 173.337L308.254 234.493C308.624 234.706 308.851 235.101 308.851 235.527C308.851 235.952 308.624 236.347 308.254 236.56L171.213 315.685C171.028 315.791 170.823 315.843 170.616 315.843ZM67.0713 253.487L170.617 313.273L305.27 235.526L201.726 175.749L67.0713 253.487Z" fill="#264E6E"/>
<path d="M170.615 314.65V323.982L307.656 244.865V235.527L170.615 314.65Z" fill="#264E6E"/>
<path d="M170.616 325.175C170.409 325.175 170.204 325.122 170.019 325.017C169.649 324.802 169.422 324.408 169.422 323.982V314.65C169.422 314.224 169.649 313.829 170.019 313.615L307.059 234.493C307.426 234.278 307.886 234.278 308.253 234.493C308.623 234.706 308.85 235.101 308.85 235.527V244.864C308.85 245.29 308.623 245.685 308.253 245.898L171.212 325.017C171.027 325.122 170.822 325.175 170.616 325.175ZM171.809 315.34V321.915L306.462 244.176V237.594L171.809 315.34Z" fill="#264E6E"/>
<path d="M301.501 224.146L201.725 166.539L70.832 242.107V251.444L170.609 309.051L301.501 233.477V224.146Z" fill="#FF672F"/>
<path d="M170.61 310.243C170.403 310.243 170.198 310.191 170.013 310.085L70.2354 252.477C69.8656 252.264 69.6387 251.869 69.6387 251.443V242.106C69.6387 241.68 69.8656 241.285 70.2354 241.072L201.129 165.505C201.496 165.29 201.956 165.29 202.323 165.505L302.099 223.111C302.469 223.324 302.696 223.719 302.696 224.145V233.476C302.696 233.902 302.469 234.297 302.099 234.51L171.207 310.085C171.022 310.191 170.817 310.243 170.61 310.243ZM72.026 250.755L170.61 307.673L300.308 232.788V224.833L201.726 167.917L72.026 242.794V250.755Z" fill="#264E6E"/>
<path d="M170.609 299.713L70.832 242.107L201.725 166.539L301.501 224.146L170.609 299.713Z" fill="white"/>
<path d="M170.61 300.906C170.403 300.906 170.198 300.853 170.013 300.747L70.2354 243.139C69.8656 242.926 69.6387 242.531 69.6387 242.106C69.6387 241.68 69.8656 241.285 70.2354 241.072L201.129 165.505C201.496 165.29 201.956 165.29 202.323 165.505L302.099 223.111C302.469 223.324 302.696 223.719 302.696 224.145C302.696 224.57 302.469 224.965 302.099 225.178L171.207 300.747C171.022 300.853 170.817 300.906 170.61 300.906ZM73.2197 242.106L170.61 298.335L299.115 224.145L201.726 167.917L73.2197 242.106Z" fill="#264E6E"/>
<path d="M170.609 299.712V309.05L301.501 233.476V224.145L170.609 299.712Z" fill="#264E6E"/>
<path d="M170.609 310.243C170.403 310.243 170.198 310.19 170.013 310.084C169.643 309.869 169.416 309.475 169.416 309.049V299.711C169.416 299.285 169.643 298.89 170.013 298.676L300.905 223.11C301.271 222.896 301.732 222.896 302.098 223.11C302.468 223.323 302.695 223.718 302.695 224.144V233.475C302.695 233.901 302.468 234.296 302.098 234.509L171.206 310.084C171.022 310.19 170.816 310.243 170.609 310.243ZM171.803 300.401V306.982L300.308 232.787V226.211L171.803 300.401Z" fill="#264E6E"/>
<path d="M203.391 122.523L117.651 172.029L117.648 239.869L168.943 269.486L254.687 219.981V152.141L203.391 122.523Z" fill="#FF672F"/>
<path d="M168.943 270.679C168.737 270.679 168.532 270.626 168.347 270.52L117.052 240.901C116.682 240.688 116.455 240.294 116.455 239.868L116.458 172.028C116.458 171.602 116.685 171.208 117.055 170.995L202.795 121.489C203.162 121.274 203.622 121.274 203.988 121.489L255.285 151.107C255.655 151.32 255.881 151.714 255.881 152.14V219.98C255.881 220.406 255.655 220.801 255.285 221.014L169.54 270.521C169.355 270.626 169.15 270.679 168.943 270.679ZM118.842 239.179L168.943 268.108L253.494 219.291V152.829L203.392 123.901L118.846 172.717L118.842 239.179Z" fill="#264E6E"/>
<path d="M254.688 152.141V219.98L168.943 269.486V201.64L254.688 152.141Z" fill="#264E6E"/>
<path d="M168.944 270.679C168.737 270.679 168.532 270.626 168.347 270.52C167.977 270.306 167.75 269.911 167.75 269.485V201.639C167.75 201.214 167.977 200.819 168.347 200.606L254.091 151.106C254.458 150.892 254.918 150.892 255.285 151.106C255.655 151.319 255.882 151.714 255.882 152.14V219.979C255.882 220.405 255.655 220.8 255.285 221.013L169.54 270.52C169.356 270.626 169.15 270.679 168.944 270.679ZM170.137 202.328V267.418L253.494 219.291V154.207L170.137 202.328Z" fill="#264E6E"/>
<path d="M119.263 180.621C119.257 178.917 118.125 177.214 115.874 175.915C111.361 173.31 104.056 173.303 99.5519 175.902C97.3015 177.208 96.1791 178.911 96.1856 180.621V242.119C96.1856 242.125 96.1856 242.125 96.1856 242.132V242.138C96.1947 243.841 97.3263 245.539 99.5768 246.838C104.084 249.443 111.389 249.449 115.89 246.85C118.147 245.551 119.266 243.848 119.263 242.138V180.621Z" fill="white"/>
<path d="M107.752 250.004C104.597 250.004 101.441 249.294 98.9803 247.872C96.4205 246.394 95.0046 244.361 94.9922 242.145V180.621C94.9844 178.4 96.3911 176.357 98.954 174.871C103.861 172.037 111.556 172.045 116.472 174.882C119.033 176.36 120.449 178.397 120.457 180.617C120.457 180.618 120.457 180.62 120.457 180.622V242.139C120.461 244.367 119.05 246.41 116.486 247.886C114.038 249.299 110.897 250.004 107.752 250.004ZM107.695 175.138C104.959 175.138 102.229 175.736 100.149 176.936C98.3586 177.974 97.3746 179.283 97.3794 180.617V242.119C97.3872 243.464 98.3788 244.768 100.174 245.805C104.348 248.217 111.131 248.225 115.293 245.817C117.087 244.785 118.072 243.48 118.069 242.14V180.626C118.065 179.291 117.073 177.985 115.278 176.949C113.186 175.741 110.438 175.138 107.695 175.138Z" fill="#264E6E"/>
<path d="M119.263 180.623C119.257 178.926 118.129 177.229 115.891 175.93V246.853C118.147 245.553 119.267 243.85 119.263 242.14V180.623Z" fill="#264E6E"/>
<path d="M115.891 248.044C115.684 248.044 115.479 247.992 115.294 247.884C114.924 247.671 114.697 247.277 114.697 246.851V175.928C114.697 175.5 114.926 175.107 115.296 174.892C115.662 174.681 116.118 174.681 116.491 174.896C119.04 176.375 120.45 178.408 120.457 180.617C120.457 180.618 120.457 180.62 120.457 180.622V242.138C120.462 244.367 119.051 246.41 116.486 247.886C116.303 247.992 116.096 248.044 115.891 248.044ZM117.085 178.365V244.422C117.731 243.705 118.072 242.928 118.07 242.14V180.626C118.067 179.848 117.726 179.078 117.085 178.365Z" fill="#264E6E"/>
<path d="M150.685 198.761C150.682 197.058 149.547 195.355 147.296 194.055C142.789 191.45 135.484 191.444 130.977 194.043C128.723 195.348 127.601 197.052 127.611 198.761V260.266H127.607V260.278H127.611C127.623 261.982 128.751 263.679 130.999 264.978C135.512 267.583 142.811 267.589 147.318 264.991C149.569 263.691 150.688 261.988 150.685 260.278L150.688 198.761H150.685Z" fill="white"/>
<path d="M139.175 268.144C136.02 268.144 132.862 267.432 130.401 266.015C127.847 264.537 126.432 262.504 126.416 260.289V198.763C126.404 196.543 127.81 194.498 130.378 193.011C135.288 190.18 142.98 190.183 147.893 193.023C150.458 194.504 151.873 196.542 151.878 198.761V198.763V260.28C151.882 262.507 150.474 264.548 147.914 266.027C145.465 267.439 142.321 268.144 139.175 268.144ZM128.802 260.33C128.842 261.645 129.832 262.927 131.595 263.946C135.768 266.354 142.554 266.357 146.721 263.959C148.51 262.927 149.493 261.62 149.49 260.281L149.493 198.764H149.49C149.487 197.434 148.497 196.128 146.699 195.09C142.529 192.681 135.743 192.675 131.573 195.078C129.781 196.116 128.796 197.423 128.803 198.757V260.267C128.803 260.288 128.803 260.309 128.802 260.33Z" fill="#264E6E"/>
<path d="M150.683 198.76C150.679 197.063 149.554 195.366 147.316 194.066V264.989C149.567 263.69 150.686 261.987 150.683 260.277L150.686 198.76L150.683 198.76Z" fill="#264E6E"/>
<path d="M147.317 266.185C147.11 266.185 146.905 266.132 146.72 266.027C146.35 265.812 146.123 265.418 146.123 264.992V194.068C146.123 193.641 146.352 193.248 146.722 193.033C147.09 192.822 147.545 192.822 147.917 193.036C150.466 194.516 151.872 196.549 151.877 198.761V198.762V260.279C151.882 262.506 150.473 264.547 147.913 266.027C147.729 266.132 147.524 266.185 147.317 266.185ZM148.51 196.507V262.556C149.152 261.841 149.491 261.067 149.49 260.281L149.493 198.764H149.49C149.488 197.988 149.149 197.219 148.51 196.507Z" fill="#264E6E"/>
<path d="M276.155 162.609C276.149 160.906 275.018 159.202 272.767 157.903C268.254 155.298 260.949 155.292 256.442 157.89C254.191 159.196 253.072 160.899 253.078 162.609V224.108V224.113V224.126C253.084 225.83 254.216 227.527 256.466 228.826C260.98 231.431 268.279 231.437 272.78 228.838C275.037 227.533 276.156 225.829 276.156 224.126L276.155 162.609Z" fill="white"/>
<path d="M264.642 231.991C261.487 231.991 258.332 231.281 255.87 229.86C253.308 228.382 251.894 226.346 251.885 224.131V162.61C251.875 160.387 253.284 158.343 255.842 156.859C260.753 154.027 268.447 154.032 273.364 156.87C275.926 158.348 277.34 160.385 277.35 162.605C277.35 162.607 277.35 162.608 277.35 162.61V224.127C277.35 226.351 275.938 228.39 273.377 229.873C270.93 231.285 267.788 231.991 264.642 231.991ZM264.586 157.126C261.851 157.126 259.118 157.726 257.039 158.924C255.251 159.963 254.266 161.27 254.272 162.605V224.108C254.278 225.452 255.267 226.756 257.064 227.793C261.241 230.2 268.024 230.208 272.183 227.805C273.974 226.769 274.962 225.461 274.962 224.126V162.614C274.956 161.279 273.968 159.974 272.171 158.937C270.079 157.731 267.331 157.126 264.586 157.126Z" fill="#264E6E"/>
<path d="M276.155 162.608C276.149 160.911 275.017 159.214 272.779 157.914V228.837C275.036 227.532 276.155 225.828 276.155 224.124V162.608Z" fill="#264E6E"/>
<path d="M272.779 230.031C272.574 230.031 272.369 229.978 272.183 229.871C271.813 229.658 271.586 229.265 271.586 228.837V157.914C271.586 157.487 271.813 157.094 272.183 156.879C272.562 156.669 273.013 156.671 273.379 156.882C275.931 158.363 277.34 160.396 277.349 162.603C277.349 162.605 277.349 162.606 277.349 162.608V224.125C277.349 226.349 275.938 228.388 273.376 229.871C273.193 229.978 272.985 230.031 272.779 230.031ZM273.973 160.35V226.403C274.62 225.687 274.962 224.911 274.962 224.125V162.608C274.958 161.831 274.616 161.063 273.973 160.35Z" fill="#264E6E"/>
<path d="M244.804 180.706C244.798 179.003 243.673 177.306 241.416 176C236.902 173.395 229.603 173.389 225.096 175.993C222.846 177.293 221.727 178.996 221.727 180.706V242.211C221.727 242.211 221.727 242.211 221.727 242.217V242.229C221.739 243.926 222.871 245.624 225.121 246.923C229.629 249.528 236.934 249.534 241.434 246.936C243.691 245.636 244.81 243.933 244.804 242.229V180.706Z" fill="white"/>
<path d="M233.297 250.089C230.142 250.089 226.983 249.379 224.525 247.957C221.966 246.48 220.549 244.449 220.533 242.239V180.706C220.533 178.477 221.941 176.437 224.5 174.96C229.405 172.125 237.095 172.128 242.013 174.966C244.574 176.449 245.988 178.485 245.998 180.702C245.998 180.703 245.998 180.705 245.998 180.706V242.229C246.007 244.452 244.596 246.493 242.031 247.971C239.582 249.383 236.439 250.089 233.297 250.089ZM233.244 175.224C230.508 175.224 227.773 175.824 225.693 177.027C223.906 178.059 222.92 179.367 222.92 180.706V242.211C222.93 243.55 223.924 244.853 225.718 245.89C229.89 248.3 236.669 248.307 240.838 245.902C242.631 244.87 243.617 243.568 243.611 242.234V180.707C243.604 179.376 242.613 178.07 240.819 177.034C238.73 175.827 235.985 175.224 233.244 175.224Z" fill="#264E6E"/>
<path d="M244.803 180.705C244.797 179.008 243.672 177.311 241.434 176.012V246.935C243.69 245.636 244.81 243.932 244.803 242.229V180.705Z" fill="#264E6E"/>
<path d="M241.434 248.13C241.229 248.13 241.021 248.077 240.837 247.97C240.467 247.757 240.24 247.362 240.24 246.936V176.013C240.24 175.586 240.467 175.192 240.837 174.978C241.213 174.767 241.664 174.768 242.034 174.981C244.583 176.461 245.988 178.492 245.997 180.702C245.997 180.704 245.997 180.705 245.997 180.707V242.23C246.006 244.453 244.595 246.493 242.031 247.971C241.844 248.077 241.639 248.13 241.434 248.13ZM242.628 178.452V244.507C243.274 243.793 243.613 243.019 243.61 242.235V180.711C243.607 179.933 243.268 179.163 242.628 178.452Z" fill="#264E6E"/>
<path d="M213.458 198.805C213.452 197.101 212.327 195.397 210.07 194.098C205.563 191.493 198.258 191.487 193.751 194.086C191.494 195.391 190.375 197.095 190.381 198.805V260.309C190.381 260.309 190.381 260.309 190.381 260.315V260.328C190.393 262.025 191.519 263.722 193.769 265.021C198.283 267.626 205.587 267.632 210.089 265.034C212.339 263.734 213.464 262.031 213.464 260.328V198.805H213.458Z" fill="white"/>
<path d="M201.948 268.186C198.793 268.186 195.634 267.477 193.173 266.057C190.621 264.582 189.203 262.55 189.188 260.337V198.805C189.178 196.581 190.586 194.537 193.154 193.052C198.059 190.222 205.756 190.228 210.667 193.065C213.176 194.509 214.584 196.492 214.649 198.661C214.655 198.708 214.658 198.756 214.658 198.805V260.328C214.658 262.55 213.247 264.588 210.686 266.069C208.239 267.48 205.093 268.186 201.948 268.186ZM201.895 193.321C199.159 193.321 196.427 193.92 194.347 195.119C192.554 196.156 191.568 197.463 191.575 198.8V260.309C191.584 261.652 192.576 262.954 194.366 263.988C198.541 266.402 205.333 266.405 209.492 264C211.285 262.965 212.271 261.661 212.271 260.327V198.925C212.268 198.888 212.265 198.848 212.265 198.809C212.258 197.471 211.27 196.165 209.473 195.133C207.384 193.924 204.64 193.321 201.895 193.321Z" fill="#264E6E"/>
<path d="M213.458 198.803C213.451 197.106 212.326 195.409 210.088 194.109V265.032C212.338 263.733 213.464 262.029 213.464 260.326V198.803H213.458Z" fill="#264E6E"/>
<path d="M210.088 266.228C209.883 266.228 209.675 266.175 209.491 266.069C209.121 265.855 208.895 265.46 208.895 265.034V194.111C208.895 193.683 209.121 193.29 209.491 193.076C209.868 192.864 210.318 192.866 210.688 193.079C213.181 194.527 214.583 196.504 214.648 198.66C214.655 198.708 214.658 198.756 214.658 198.805V260.328C214.658 262.55 213.246 264.588 210.685 266.069C210.502 266.175 210.293 266.228 210.088 266.228ZM211.282 196.55V262.603C211.928 261.887 212.27 261.113 212.27 260.328V198.926C212.267 198.889 212.264 198.848 212.264 198.809C212.261 198.031 211.922 197.261 211.282 196.55Z" fill="#264E6E"/>
<path d="M182.105 216.901C182.099 215.204 180.973 213.501 178.723 212.195C174.209 209.59 166.904 209.584 162.403 212.189C160.148 213.488 159.026 215.192 159.032 216.901H159.029V278.406C159.029 278.406 159.029 278.406 159.029 278.412V278.425H159.032C159.045 280.122 160.17 281.819 162.422 283.118C166.935 285.723 174.234 285.736 178.741 283.131C180.992 281.831 182.111 280.128 182.105 278.425L182.105 216.901Z" fill="white"/>
<path d="M170.604 286.287C167.449 286.287 164.289 285.575 161.826 284.155C159.27 282.678 157.854 280.648 157.839 278.435L157.836 216.903C157.831 214.675 159.242 212.635 161.809 211.157C166.706 208.319 174.403 208.325 179.32 211.163C181.879 212.647 183.29 214.683 183.299 216.898C183.299 216.9 183.299 216.901 183.299 216.903V278.426C183.308 280.645 181.9 282.688 179.339 284.167C176.892 285.578 173.75 286.287 170.604 286.287ZM170.55 211.42C167.814 211.42 165.08 212.021 163.002 213.224C161.207 214.258 160.222 215.563 160.226 216.898L160.223 278.407C160.236 279.75 161.229 281.053 163.019 282.085C167.202 284.5 173.987 284.503 178.145 282.1C179.934 281.065 180.916 279.763 180.912 278.429V216.903C180.904 215.572 179.915 214.268 178.125 213.229C176.034 212.022 173.29 211.42 170.55 211.42Z" fill="#264E6E"/>
<path d="M182.106 216.902C182.1 215.205 180.974 213.508 178.742 212.215V283.131C180.993 281.832 182.112 280.129 182.106 278.425V216.902Z" fill="#264E6E"/>
<path d="M178.743 284.326C178.536 284.326 178.331 284.273 178.146 284.167C177.776 283.953 177.549 283.558 177.549 283.132V212.215C177.549 211.788 177.777 211.395 178.147 211.182C178.517 210.966 178.973 210.966 179.341 211.182C181.885 212.656 183.29 214.686 183.3 216.898C183.3 216.9 183.3 216.901 183.3 216.903V278.426C183.309 280.645 181.901 282.687 179.339 284.167C179.154 284.273 178.949 284.326 178.743 284.326ZM179.936 214.654V280.698C180.578 279.986 180.915 279.212 180.912 278.429V216.903C180.908 216.127 180.57 215.363 179.936 214.654Z" fill="#264E6E"/>
<path d="M301.501 153.298L201.725 95.6914L70.832 171.265V180.597L170.616 238.203L301.501 162.636V153.298Z" fill="#FF672F"/>
<path d="M170.616 239.396C170.41 239.396 170.204 239.343 170.019 239.236L70.2354 181.629C69.8656 181.416 69.6387 181.022 69.6387 180.596V171.264C69.6387 170.838 69.8656 170.443 70.2354 170.23L201.129 94.657C201.496 94.4425 201.956 94.4425 202.323 94.657L302.099 152.263C302.469 152.476 302.696 152.871 302.696 153.297V162.635C302.696 163.061 302.469 163.455 302.099 163.668L171.213 239.236C171.028 239.343 170.823 239.396 170.616 239.396ZM72.026 179.907L170.616 236.824L300.308 161.946V153.985L201.726 97.0692L72.026 171.953V179.907Z" fill="#264E6E"/>
<path d="M170.609 228.872L70.832 171.265L201.725 95.6914L301.501 153.298L170.609 228.872Z" fill="white"/>
<path d="M170.61 230.064C170.403 230.064 170.198 230.011 170.013 229.904L70.2354 172.298C69.8656 172.085 69.6387 171.69 69.6387 171.264C69.6387 170.838 69.8656 170.443 70.2354 170.23L201.129 94.657C201.496 94.4425 201.956 94.4425 202.323 94.657L302.099 152.263C302.469 152.476 302.696 152.871 302.696 153.297C302.696 153.723 302.469 154.118 302.099 154.331L171.207 229.904C171.022 230.011 170.817 230.064 170.61 230.064ZM73.2197 171.264L170.61 227.492L299.115 153.297L201.726 97.0692L73.2197 171.264Z" fill="#264E6E"/>
<path d="M170.609 228.87L170.616 238.202L301.501 162.635V153.297L170.609 228.87Z" fill="#264E6E"/>
<path d="M170.616 239.395C170.409 239.395 170.204 239.342 170.019 239.235C169.651 239.022 169.422 238.629 169.422 238.203L169.416 228.871C169.416 228.443 169.643 228.049 170.013 227.836L300.905 152.262C301.271 152.048 301.732 152.048 302.098 152.262C302.468 152.475 302.695 152.87 302.695 153.296V162.634C302.695 163.06 302.468 163.455 302.098 163.668L171.213 239.235C171.028 239.342 170.823 239.395 170.616 239.395ZM171.803 229.558L171.808 236.134L300.308 161.945V155.363L171.803 229.558Z" fill="#264E6E"/>
<path d="M201.726 90.0898L64.6836 169.213L170.616 230.369L307.657 151.246L201.726 90.0898Z" fill="white"/>
<path d="M170.616 231.562C170.41 231.562 170.204 231.51 170.019 231.402L64.087 170.246C63.717 170.033 63.4902 169.638 63.4902 169.212C63.4902 168.787 63.7172 168.392 64.087 168.179L201.129 89.0554C201.496 88.8409 201.956 88.8409 202.323 89.0554L308.254 150.212C308.624 150.425 308.851 150.82 308.851 151.245C308.851 151.671 308.624 152.066 308.254 152.279L171.213 231.402C171.028 231.509 170.823 231.562 170.616 231.562ZM67.0713 169.212L170.617 228.99L305.27 151.245L201.726 91.4676L67.0713 169.212Z" fill="#264E6E"/>
<path d="M117.648 166.284L254.687 87.1602L307.656 151.245L170.609 228.87L117.648 166.284Z" fill="#FF672F"/>
<path d="M170.61 230.063C170.268 230.063 169.932 229.917 169.699 229.64L116.738 167.054C116.51 166.784 116.412 166.426 116.473 166.078C116.533 165.73 116.746 165.427 117.052 165.25L254.091 86.1263C254.589 85.8325 255.239 85.949 255.608 86.3998L308.577 150.484C308.801 150.756 308.894 151.114 308.832 151.46C308.766 151.808 308.552 152.109 308.244 152.283L171.199 229.908C171.014 230.013 170.811 230.063 170.61 230.063ZM119.483 166.603L170.882 227.343L305.829 150.907L254.412 88.6986L119.483 166.603Z" fill="#264E6E"/>
<path d="M201.726 90.0887L254.688 87.1602L117.649 166.284L64.6836 169.212L201.726 90.0887Z" fill="white"/>
<path d="M64.6843 170.407C64.159 170.407 63.6912 170.062 63.5403 169.554C63.3819 169.024 63.6087 168.456 64.0874 168.18L201.13 89.0564C201.291 88.963 201.475 88.9088 201.661 88.8979L254.624 85.9697C255.183 85.9479 255.674 86.2931 255.833 86.8215C255.991 87.3514 255.764 87.9187 255.286 88.1955L118.247 167.319C118.085 167.412 117.903 167.466 117.715 167.477L64.7496 170.406C64.7279 170.407 64.7061 170.407 64.6843 170.407ZM202.078 91.2665L69.6144 167.745L117.3 165.109L249.759 88.6306L202.078 91.2665Z" fill="#264E6E"/>
<path d="M117.649 166.281L170.61 228.868L64.6836 169.209L117.649 166.281Z" fill="white"/>
<path d="M170.61 230.061C170.409 230.061 170.209 230.012 170.024 229.907L64.0978 170.249C63.6361 169.99 63.4016 169.455 63.5212 168.939C63.6409 168.421 64.0885 168.047 64.6184 168.017L117.584 165.089C117.949 165.06 118.319 165.225 118.56 165.511L171.521 228.097C171.894 228.538 171.898 229.183 171.53 229.628C171.297 229.911 170.955 230.061 170.61 230.061ZM68.8319 170.176L165.408 224.567L117.122 167.506L68.8319 170.176Z" fill="#264E6E"/>
<path d="M82.4961 173.357L148.275 210.403L115.384 171.535L82.4961 173.357Z" fill="#FF672F"/>
<path d="M148.275 211.598C148.074 211.598 147.874 211.548 147.689 211.444L81.9103 174.397C81.4486 174.137 81.2141 173.602 81.3337 173.086C81.4534 172.569 81.901 172.194 82.4309 172.165L115.319 170.343C115.695 170.314 116.054 170.478 116.295 170.764L149.186 209.633C149.559 210.074 149.563 210.719 149.195 211.164C148.962 211.447 148.62 211.598 148.275 211.598ZM86.6431 174.322L143.073 206.104L114.857 172.76L86.6431 174.322Z" fill="#264E6E"/>
<path d="M115.383 171.535L92.3184 172.816L138.448 198.79L115.383 171.535Z" fill="#264E6E"/>
<path d="M138.448 199.984C138.248 199.984 138.047 199.935 137.862 199.83L91.7325 173.856C91.2708 173.596 91.0362 173.062 91.156 172.546C91.2756 172.03 91.7233 171.653 92.2517 171.624L115.317 170.343C115.721 170.314 116.053 170.478 116.294 170.764L139.359 198.02C139.732 198.461 139.737 199.106 139.368 199.55C139.135 199.834 138.795 199.984 138.448 199.984ZM96.4652 173.781L133.246 194.491L114.857 172.76L96.4652 173.781Z" fill="#264E6E"/>
<path d="M220.441 148.704C214.479 145.266 209.089 144.925 205.178 147.163H205.172C205.166 147.169 205.154 147.175 205.147 147.181L196.91 151.937C192.987 154.175 190.562 159.006 190.562 165.895C190.562 179.64 200.23 196.364 212.167 203.252C218.178 206.722 223.606 207.032 227.522 204.732L235.629 200.051C239.589 197.825 242.045 192.982 242.045 186.062C242.045 172.317 232.372 155.593 220.441 148.704Z" fill="#FF672F"/>
<path d="M227.683 205.363L235.792 200.742C239.753 198.545 242.209 193.764 242.209 186.934L212.379 203.933C218.367 207.327 223.778 207.628 227.683 205.363Z" fill="#264E6E"/>
<path d="M225.025 228.083C221.135 228.292 216.797 227.394 212.262 225.397C211.793 225.19 211.487 224.778 211.462 224.313C211.437 223.849 211.694 223.405 212.138 223.149L247.909 202.471C248.349 202.214 248.916 202.184 249.381 202.393C249.849 202.6 250.152 203.014 250.177 203.476C250.592 211.238 247.825 217.202 242.388 220.268L232.683 225.878C230.436 227.198 227.85 227.932 225.025 228.083ZM215.981 224.014C221.878 226.099 227.178 226.01 231.076 223.719C231.079 223.717 231.083 223.715 231.087 223.713L240.811 218.092C244.796 215.847 247.035 211.58 247.252 205.938L215.981 224.014Z" fill="#264E6E"/>
<path d="M324.605 334.229C324.593 328.305 320.664 322.374 312.824 317.847C297.139 308.789 271.718 308.777 256.045 317.829C248.205 322.355 244.288 328.292 244.301 334.229V347.484C244.301 347.484 244.301 347.49 244.301 347.496V347.502C244.32 353.433 248.243 359.358 256.076 363.884C271.767 372.949 297.195 372.955 312.862 363.903C320.701 359.377 324.612 353.439 324.605 347.502V334.229Z" fill="#FF672F"/>
<path d="M284.5 371.853C273.993 371.853 263.484 369.541 255.479 364.918C247.522 360.321 243.129 354.135 243.107 347.505V334.228C243.095 327.589 247.475 321.397 255.448 316.793C271.423 307.57 297.428 307.583 313.421 316.812C321.388 321.412 325.787 327.598 325.799 334.225V334.228V347.502C325.805 354.145 321.423 360.337 313.459 364.937C305.479 369.547 294.991 371.853 284.5 371.853ZM284.404 312.233C274.348 312.233 264.295 314.443 256.642 318.863C249.443 323.019 245.482 328.475 245.495 334.225V347.483C245.514 353.243 249.483 358.695 256.673 362.851C272.01 371.708 296.947 371.72 312.265 362.87C319.458 358.714 323.418 353.259 323.412 347.502V334.229C323.4 328.487 319.427 323.038 312.228 318.882C304.556 314.449 294.478 312.233 284.404 312.233Z" fill="#264E6E"/>
<path d="M324.605 347.503V334.229C324.593 328.305 320.664 322.374 312.824 317.848C309.772 316.088 306.346 314.677 302.703 313.602V368.162C306.365 367.08 309.803 365.675 312.862 363.903C320.701 359.377 324.612 353.439 324.605 347.503Z" fill="#264E6E"/>
<path d="M302.703 369.353C302.449 369.353 302.197 369.273 301.988 369.117C301.687 368.89 301.51 368.536 301.51 368.16V313.6C301.51 313.223 301.687 312.869 301.988 312.642C302.287 312.422 302.679 312.347 303.042 312.456C306.878 313.587 310.369 315.054 313.421 316.811C321.388 321.411 325.787 327.597 325.799 334.224V347.501C325.805 354.144 321.423 360.336 313.459 364.936C310.437 366.683 306.934 368.153 303.042 369.303C302.93 369.338 302.815 369.353 302.703 369.353ZM303.897 315.222V366.537C306.996 365.524 309.803 364.293 312.265 362.869C319.458 358.713 323.418 353.258 323.412 347.501V334.228C323.4 328.489 319.427 323.037 312.228 318.881C309.75 317.451 306.953 316.223 303.897 315.222Z" fill="#264E6E"/>
<path d="M312.863 350.629C328.536 341.584 328.517 326.906 312.826 317.847C297.14 308.789 271.719 308.777 256.046 317.829C240.38 326.881 240.392 341.553 256.077 350.611C271.769 359.675 297.196 359.682 312.863 350.629Z" fill="white"/>
<path d="M284.501 358.581C273.994 358.581 263.484 356.268 255.48 351.646C247.504 347.039 243.111 340.847 243.111 334.207C243.111 327.577 247.491 321.391 255.449 316.797C271.423 307.568 297.435 307.583 313.422 316.812C321.405 321.422 325.8 327.617 325.8 334.26C325.8 340.891 321.417 347.07 313.459 351.665C305.477 356.274 294.992 358.581 284.501 358.581ZM284.405 312.234C274.349 312.234 264.296 314.444 256.643 318.864C249.456 323.014 245.499 328.466 245.499 334.208C245.499 339.958 249.468 345.417 256.674 349.576C272.011 358.441 296.947 358.444 312.266 349.598C312.266 349.595 312.266 349.595 312.266 349.595C319.453 345.448 323.413 340.002 323.413 334.26C323.413 328.507 319.44 323.045 312.229 318.883C304.557 314.45 294.479 312.234 284.405 312.234Z" fill="#264E6E"/>
<path d="M286.018 371.862C285.359 371.862 284.824 371.328 284.824 370.669V357.395C284.824 356.736 285.359 356.202 286.018 356.202C286.677 356.202 287.211 356.737 287.211 357.395V370.669C287.211 371.328 286.676 371.862 286.018 371.862ZM277.674 371.545C277.015 371.545 276.481 371.011 276.481 370.352V357.078C276.481 356.419 277.015 355.885 277.674 355.885C278.333 355.885 278.868 356.419 278.868 357.078V370.352C278.868 371.011 278.333 371.545 277.674 371.545ZM294.361 371.172C293.702 371.172 293.167 370.638 293.167 369.979V356.705C293.167 356.046 293.702 355.512 294.361 355.512C295.02 355.512 295.554 356.046 295.554 356.705V369.979C295.554 370.638 295.02 371.172 294.361 371.172ZM269.331 370.171C268.672 370.171 268.138 369.637 268.138 368.978V355.704C268.138 355.045 268.672 354.511 269.331 354.511C269.99 354.511 270.525 355.045 270.525 355.704V368.978C270.525 369.637 269.99 370.171 269.331 370.171ZM260.988 367.498C260.329 367.498 259.794 366.963 259.794 366.304V353.031C259.794 352.372 260.329 351.837 260.988 351.837C261.647 351.837 262.182 352.372 262.182 353.031V366.304C262.182 366.963 261.647 367.498 260.988 367.498ZM252.645 362.817C251.986 362.817 251.451 362.282 251.451 361.623V348.35C251.451 347.691 251.986 347.156 252.645 347.156C253.304 347.156 253.839 347.691 253.839 348.35V361.623C253.839 362.282 253.304 362.817 252.645 362.817Z" fill="#264E6E"/>
<path d="M273.757 340.818C270.139 338.73 269.604 335.534 272.129 333.116L280.36 337.872L286.185 336.97L275.585 330.853L278.6 329.112L287.062 333.998L292.893 333.097L282.53 327.116C286.713 325.655 292.247 325.966 295.865 328.055C298.831 329.771 299.794 332.326 298.47 334.565L303.984 337.748C304.071 337.679 304.164 337.611 304.233 337.542C308.05 333.47 306.751 328.335 301.062 325.052C294.566 321.303 284.37 320.974 277.226 324.058L274.485 322.472L268.653 323.368L273.384 326.103L270.369 327.844L267.77 326.34L261.945 327.241L266.832 330.057C261.491 334.185 262.057 340.067 268.56 343.822C274.242 347.104 283.133 347.856 290.183 345.656C290.313 345.612 290.425 345.556 290.549 345.513L285.029 342.324C281.155 343.094 276.723 342.534 273.757 340.818Z" fill="#264E6E"/>
</svg>
