<svg width="40" height="40" viewBox="0 0 40 40" fill="none" xmlns="http://www.w3.org/2000/svg"   className="hover-svg">
<g clip-path="url(#clip0_259_1737)">
<path d="M29.2937 18.4277C30.7129 18.4267 32.1128 18.7566 33.3822 19.3913C34.6516 20.026 35.7555 20.948 36.6062 22.084" stroke="white" stroke-width="2.4375" stroke-linecap="round" stroke-linejoin="round"  className="svg-path"/>
<path d="M2.4812 22.084C3.33188 20.948 4.43577 20.026 5.70516 19.3913C6.97456 18.7566 8.37448 18.4267 9.7937 18.4277" stroke="white" stroke-width="2.4375" stroke-linecap="round" stroke-linejoin="round"  className="svg-path"/>
<path d="M19.5437 28.1777C22.9092 28.1777 25.6375 25.4495 25.6375 22.084C25.6375 18.7185 22.9092 15.9902 19.5437 15.9902C16.1782 15.9902 13.45 18.7185 13.45 22.084C13.45 25.4495 16.1782 28.1777 19.5437 28.1777Z" stroke="white" stroke-width="2.4375" stroke-linecap="round" stroke-linejoin="round"  className="svg-path"/>
<path d="M11.0125 33.0527C11.8873 31.5681 13.1345 30.3374 14.6308 29.4824C16.127 28.6275 17.8204 28.1777 19.5437 28.1777C21.267 28.1777 22.9604 28.6275 24.4566 29.4824C25.9529 30.3374 27.2001 31.5681 28.075 33.0527" stroke="white" stroke-width="2.4375" stroke-linecap="round" stroke-linejoin="round"  className="svg-path"/>
<path d="M24.571 12.334C24.799 11.4513 25.2699 10.6501 25.9302 10.0216C26.5906 9.39301 27.414 8.96223 28.3069 8.77815C29.1998 8.59406 30.1264 8.66405 30.9816 8.98016C31.8367 9.29627 32.586 9.84584 33.1445 10.5664C33.703 11.2871 34.0482 12.1498 34.141 13.0568C34.2337 13.9637 34.0703 14.8785 33.6692 15.6973C33.2682 16.516 32.6456 17.2059 31.8721 17.6885C31.0987 18.1712 30.2054 18.4273 29.2937 18.4277" stroke="white" stroke-width="2.4375" stroke-linecap="round" stroke-linejoin="round"  className="svg-path"/>
<path d="M9.79369 18.4277C8.882 18.4273 7.98871 18.1712 7.21527 17.6885C6.44183 17.2059 5.81923 16.516 5.41818 15.6973C5.01712 14.8785 4.85369 13.9637 4.94644 13.0568C5.03919 12.1498 5.3844 11.2871 5.94287 10.5664C6.50134 9.84584 7.25069 9.29627 8.10582 8.98016C8.96095 8.66405 9.88758 8.59406 10.7805 8.77815C11.6734 8.96223 12.4968 9.39301 13.1572 10.0216C13.8175 10.6501 14.2884 11.4513 14.5163 12.334" stroke="white" stroke-width="2.4375" stroke-linecap="round" stroke-linejoin="round"  className="svg-path"/>
</g>
<defs>
<clipPath id="clip0_259_1737">
<rect width="39" height="39" fill="white" transform="translate(0.0437012 0.146484)"/>
</clipPath>
</defs>
</svg>
