<svg width="260" height="87" viewBox="0 0 260 87" fill="none" xmlns="http://www.w3.org/2000/svg">
<rect x="0.5" y="0.5" width="259" height="86" rx="7.5" fill="#082448"/>
<rect x="0.5" y="0.5" width="259" height="86" rx="7.5" stroke="url(#paint0_linear_459_498)"/>
<g clip-path="url(#clip0_459_498)">
<path d="M156.342 38.3994C157.298 44.1703 156.423 50.1003 153.843 55.3334C151.262 60.5665 147.109 64.8318 141.985 67.5135C136.86 70.1952 131.028 71.1545 125.331 70.253C119.634 69.3514 114.366 66.6355 110.289 62.4976C106.212 58.3596 103.536 53.0137 102.648 47.2316C101.76 41.4495 102.705 35.5305 105.347 30.3292C107.989 25.1278 112.192 20.9133 117.348 18.2942C122.504 15.675 128.347 14.7867 134.033 15.7575C134.576 15.8551 135.06 16.1665 135.379 16.624C135.697 17.0816 135.825 17.6482 135.733 18.2007C135.642 18.7532 135.34 19.2468 134.892 19.5743C134.444 19.9017 133.887 20.0364 133.342 19.9491C130.04 19.3852 126.656 19.5586 123.426 20.457C120.196 21.3554 117.198 22.9574 114.64 25.1514C112.082 27.3454 110.026 30.0787 108.615 33.1611C107.204 36.2436 106.471 39.6011 106.469 43C106.464 48.7221 108.536 54.2455 112.289 58.5152C113.812 56.2744 115.745 54.3525 117.984 52.8547C118.176 52.7261 118.403 52.6648 118.632 52.6801C118.861 52.6955 119.078 52.7867 119.251 52.9397C122.095 55.4376 125.731 56.8124 129.492 56.8124C133.253 56.8124 136.889 55.4376 139.733 52.9397C139.906 52.7867 140.124 52.6955 140.352 52.6801C140.581 52.6648 140.809 52.7261 141 52.8547C143.241 54.3525 145.178 56.2743 146.703 58.5152C150.459 54.2467 152.534 48.7232 152.531 43C152.531 41.6935 152.425 40.3892 152.212 39.1007C152.164 38.8242 152.17 38.5409 152.23 38.2669C152.291 37.993 152.404 37.7339 152.564 37.5046C152.723 37.2753 152.926 37.0804 153.16 36.9311C153.394 36.7818 153.655 36.681 153.928 36.6347C154.201 36.5884 154.48 36.5974 154.75 36.6612C155.019 36.725 155.273 36.8423 155.498 37.0064C155.722 37.1705 155.912 37.3781 156.057 37.6172C156.202 37.8563 156.299 38.1221 156.342 38.3994ZM117.984 40.875C117.984 43.1866 118.66 45.4463 119.925 47.3683C121.19 49.2903 122.989 50.7883 125.093 51.6729C127.197 52.5575 129.513 52.7889 131.747 52.338C133.98 51.887 136.032 50.7739 137.643 49.1393C139.253 47.5048 140.35 45.4223 140.794 43.1551C141.239 40.888 141.011 38.538 140.139 36.4024C139.267 34.2668 137.791 32.4415 135.898 31.1572C134.004 29.873 131.778 29.1875 129.5 29.1875C126.446 29.1875 123.517 30.4189 121.357 32.6107C119.198 34.8026 117.984 37.7753 117.984 40.875ZM158.2 18.1216C158.006 17.924 157.775 17.7673 157.521 17.6603C157.266 17.5534 156.994 17.4984 156.719 17.4984C156.444 17.4984 156.171 17.5534 155.917 17.6603C155.663 17.7673 155.432 17.924 155.237 18.1216L148.344 25.1208L145.638 22.3716C145.443 22.1742 145.212 22.0175 144.958 21.9107C144.704 21.8038 144.431 21.7488 144.156 21.7488C143.881 21.7488 143.609 21.8038 143.355 21.9107C143.1 22.0175 142.869 22.1742 142.675 22.3716C142.48 22.569 142.326 22.8034 142.221 23.0614C142.116 23.3193 142.061 23.5958 142.061 23.875C142.061 24.1542 142.116 24.4307 142.221 24.6887C142.326 24.9466 142.48 25.181 142.675 25.3785L146.862 29.6285C147.057 29.826 147.288 29.9828 147.542 30.0897C147.796 30.1967 148.069 30.2517 148.344 30.2517C148.619 30.2517 148.891 30.1967 149.146 30.0897C149.4 29.9828 149.631 29.826 149.825 29.6285L158.2 21.1285C158.395 20.9311 158.549 20.6967 158.655 20.4388C158.76 20.1808 158.814 19.9043 158.814 19.625C158.814 19.3458 158.76 19.0693 158.655 18.8113C158.549 18.5533 158.395 18.3189 158.2 18.1216Z" fill="white"/>
</g>
<defs>
<linearGradient id="paint0_linear_459_498" x1="251.5" y1="-2.65881e-06" x2="149.289" y2="270.432" gradientUnits="userSpaceOnUse">
<stop stop-color="white" stop-opacity="0.4"/>
<stop offset="0.405687" stop-color="white" stop-opacity="0.01"/>
<stop offset="0.574372" stop-color="white" stop-opacity="0.01"/>
<stop offset="1" stop-color="white" stop-opacity="0.1"/>
</linearGradient>
<clipPath id="clip0_459_498">
<rect width="67" height="68" fill="white" transform="translate(96 9)"/>
</clipPath>
</defs>
</svg>
