<svg width="188" height="188" viewBox="0 0 188 188" fill="none" xmlns="http://www.w3.org/2000/svg">
<path d="M119.367 169C118.231 169 117.094 168.744 116.207 168.233C115.249 167.679 114.72 166.907 114.72 166.059C114.72 165.212 115.247 164.442 116.204 163.889C117.975 162.868 120.749 162.87 122.52 163.891C123.478 164.445 124.005 165.216 124.005 166.065C124.005 166.912 123.478 167.682 122.523 168.235C121.638 168.745 120.502 169 119.367 169ZM119.359 164.335C118.429 164.335 117.499 164.534 116.807 164.934C116.247 165.256 115.925 165.667 115.925 166.059C115.925 166.453 116.248 166.865 116.81 167.188C118.197 167.991 120.537 167.99 121.921 167.19C122.481 166.868 122.801 166.457 122.801 166.065C122.801 165.671 122.479 165.259 121.918 164.936C121.224 164.534 120.291 164.335 119.359 164.335Z" fill="#113958"/>
<path d="M60.7422 165.51C60.4097 165.51 60.1399 165.24 60.1399 164.908L60.1351 158.387C60.1351 158.054 60.4042 157.784 60.7367 157.784C60.7375 157.784 60.7375 157.784 60.7375 157.784C61.07 157.784 61.3398 158.054 61.3398 158.387L61.3445 164.908C61.3445 165.24 61.0755 165.51 60.743 165.51C60.7422 165.51 60.7422 165.51 60.7422 165.51Z" fill="#113958"/>
<path d="M66.3868 162.252L55.0907 162.248C54.7582 162.248 54.4883 161.979 54.4883 161.646C54.4883 161.314 54.7581 161.044 55.0907 161.044L66.3868 161.047C66.7193 161.047 66.9891 161.317 66.9891 161.649C66.9891 161.982 66.7192 162.252 66.3868 162.252Z" fill="#113958"/>
<path d="M104.335 27.5854C103.839 27.5854 103.302 27.427 102.757 27.1125C100.985 26.0898 99.5972 23.6881 99.5972 21.6449C99.5972 20.5398 100.002 19.6974 100.735 19.2739C101.47 18.8503 102.4 18.9217 103.359 19.4747C105.13 20.4982 106.518 22.9007 106.518 24.9438C106.518 26.0474 106.115 26.8882 105.381 27.3118C105.064 27.4945 104.711 27.5854 104.335 27.5854ZM101.781 20.2088C101.613 20.2088 101.464 20.2449 101.337 20.317C100.996 20.5139 100.802 20.9978 100.802 21.6449C100.802 23.2426 101.972 25.2685 103.359 26.0694C103.919 26.3932 104.438 26.4646 104.779 26.2685C105.119 26.0724 105.313 25.5893 105.313 24.9438C105.313 23.3461 104.142 21.3186 102.757 20.5178C102.402 20.3131 102.066 20.2088 101.781 20.2088Z" fill="#113958"/>
<path d="M44.6475 90.7654C44.6326 90.7654 44.6177 90.7646 44.602 90.7639C44.3558 90.7451 44.1455 90.5772 44.0718 90.3411C43.7321 89.2437 43.1808 88.0226 42.4772 86.8085C41.7792 85.5951 40.9965 84.5056 40.2113 83.6554C40.0435 83.4734 40.0034 83.2076 40.1117 82.9839C40.2199 82.762 40.4419 82.6333 40.7 82.6459C41.3863 82.6992 42.0789 82.5369 42.7001 82.1792C43.3204 81.8239 43.8059 81.3079 44.1048 80.6859C44.2115 80.4624 44.4397 80.3306 44.6915 80.3462C44.9386 80.3643 45.1495 80.5321 45.2225 80.7682C45.5653 81.8694 46.1167 83.0913 46.8179 84.3031C46.8179 84.3039 46.8179 84.3039 46.8179 84.3039C47.5207 85.5204 48.305 86.6091 49.0861 87.4522C49.2548 87.6334 49.2947 87.9 49.1873 88.1236C49.0799 88.3472 48.8516 88.4804 48.599 88.4624C47.9096 88.4107 47.2186 88.5722 46.5974 88.9307C45.9778 89.286 45.4915 89.8029 45.1895 90.4257C45.0883 90.6343 44.8773 90.7654 44.6475 90.7654ZM41.8835 83.7652C42.4561 84.493 43.0113 85.3205 43.5212 86.206C44.0342 87.0916 44.4726 87.9857 44.8153 88.8414C45.1503 88.4665 45.5479 88.1441 45.9965 87.8869C46.4444 87.6281 46.9221 87.4461 47.413 87.3441C46.8428 86.6194 46.2867 85.7943 45.7745 84.9072C45.2624 84.0217 44.8247 83.1275 44.4812 82.2703C44.1464 82.6451 43.7495 82.9668 43.2992 83.224C42.8513 83.4821 42.3745 83.6632 41.8835 83.7652Z" fill="#113958"/>
<path d="M150.834 107.857C150.819 107.857 150.804 107.856 150.79 107.856C150.542 107.838 150.332 107.67 150.258 107.434C149.916 106.335 149.364 105.113 148.662 103.9C147.968 102.691 147.185 101.601 146.397 100.749C146.229 100.567 146.19 100.301 146.297 100.077C146.405 99.8546 146.631 99.7181 146.885 99.7393C147.571 99.7911 148.262 99.6311 148.887 99.2719C149.505 98.9165 149.991 98.3989 150.291 97.7769C150.399 97.5541 150.601 97.4279 150.879 97.4381C151.125 97.4569 151.335 97.624 151.409 97.86C151.753 98.966 152.303 100.189 153.001 101.395C153.001 101.396 153.003 101.396 153.003 101.396C153.703 102.612 154.489 103.7 155.271 104.543C155.441 104.725 155.482 104.991 155.373 105.215C155.267 105.437 155.035 105.572 154.787 105.554C154.098 105.499 153.405 105.665 152.78 106.023C152.161 106.38 151.676 106.896 151.376 107.517C151.274 107.726 151.064 107.857 150.834 107.857ZM148.069 100.858C148.644 101.587 149.197 102.414 149.706 103.299C150.217 104.183 150.656 105.078 151 105.934C151.334 105.56 151.731 105.238 152.179 104.98C152.63 104.721 153.108 104.54 153.599 104.438C153.027 103.712 152.471 102.886 151.96 101.999C151.448 101.116 151.011 100.222 150.666 99.3622C150.331 99.7363 149.935 100.059 149.486 100.317C149.037 100.575 148.56 100.757 148.069 100.858Z" fill="#113958"/>
<path d="M166.897 135.516L154.998 128.645L143.125 135.499V146.492L155.025 153.361L166.897 146.508V135.516Z" fill="#FF8744"/>
<path d="M155.025 153.964C154.922 153.964 154.817 153.937 154.724 153.884L142.824 147.015C142.637 146.906 142.523 146.707 142.523 146.492V135.499C142.523 135.284 142.637 135.085 142.824 134.977L154.697 128.123C154.882 128.016 155.115 128.016 155.3 128.123L167.198 134.994C167.385 135.102 167.499 135.301 167.499 135.516V146.508C167.499 146.723 167.385 146.922 167.198 147.03L155.326 153.884C155.234 153.937 155.129 153.964 155.025 153.964ZM143.728 146.144L155.025 152.666L166.295 146.16V135.864L154.998 129.34L143.728 135.847V146.144Z" fill="#113958"/>
<path d="M166.897 135.516L154.998 128.645L143.125 135.499L155.025 142.369L166.897 135.516Z" fill="white"/>
<path d="M155.025 142.972C154.922 142.972 154.817 142.945 154.724 142.892L142.824 136.021C142.637 135.913 142.523 135.714 142.523 135.499C142.523 135.284 142.637 135.085 142.824 134.977L154.697 128.123C154.882 128.016 155.115 128.016 155.3 128.123L167.198 134.994C167.385 135.102 167.499 135.301 167.499 135.516C167.499 135.731 167.385 135.93 167.198 136.039L155.326 142.892C155.234 142.945 155.129 142.972 155.025 142.972ZM144.33 135.499L155.025 141.675L165.692 135.516L154.998 129.34L144.33 135.499Z" fill="#113958"/>
<path d="M155.022 142.369V153.36L166.894 146.507V135.515L155.022 142.369Z" fill="#113958"/>
<path d="M155.023 153.963C154.919 153.963 154.814 153.936 154.721 153.883C154.535 153.775 154.42 153.576 154.42 153.361V142.369C154.42 142.154 154.535 141.955 154.721 141.847L166.593 134.993C166.778 134.886 167.011 134.886 167.196 134.993C167.382 135.101 167.497 135.301 167.497 135.516V146.507C167.497 146.722 167.382 146.921 167.196 147.03L155.324 153.883C155.231 153.936 155.126 153.963 155.023 153.963ZM155.625 142.717V152.318L166.292 146.159V136.559L155.625 142.717Z" fill="#113958"/>
<path d="M56.4945 59.049L44.5426 52.1517V38.3818L48.7907 35.9285L60.744 42.8305V56.5973L56.4945 59.049Z" fill="#FF8744"/>
<path d="M56.4946 59.6511C56.3903 59.6511 56.2868 59.6244 56.1934 59.5703L44.2417 52.6729C44.0551 52.5654 43.9406 52.3661 43.9406 52.1513V38.3814C43.9406 38.1665 44.0551 37.9672 44.2417 37.8598L48.4897 35.4064C48.6764 35.2981 48.9054 35.2981 49.0922 35.4064L61.0455 42.3086C61.2322 42.416 61.3467 42.6152 61.3467 42.8302V56.5968C61.3467 56.8117 61.2322 57.011 61.0455 57.1184L56.796 59.5703C56.7025 59.6243 56.5989 59.6511 56.4946 59.6511ZM45.1453 51.8038L56.4946 58.353L60.1418 56.2487V43.1776L48.7909 36.6238L45.1453 38.7289V51.8038Z" fill="#113958"/>
<path d="M56.4945 59.0489L44.5426 52.1515V38.3816L56.4929 45.2822L56.4945 59.0489Z" fill="white"/>
<path d="M56.4946 59.6508C56.3903 59.6508 56.2868 59.6241 56.1934 59.57L44.2417 52.6726C44.0551 52.5651 43.9406 52.3658 43.9406 52.1509V38.381C43.9406 38.1662 44.0551 37.9669 44.2417 37.8595C44.4284 37.7513 44.6574 37.7513 44.8441 37.8595L56.7942 44.7601C56.9809 44.8675 57.0954 45.0667 57.0954 45.2817L57.097 59.0483C57.097 59.2632 56.9825 59.4625 56.7958 59.5699C56.7024 59.624 56.5989 59.6508 56.4946 59.6508ZM45.1453 51.8035L55.8923 58.0053L55.8906 45.6291L45.1453 39.4243V51.8035Z" fill="#113958"/>
<path d="M56.49 45.2813L60.7411 42.8293V56.5962L56.4915 59.0479L56.49 45.2813Z" fill="#113958"/>
<path d="M56.4919 59.6509C56.3876 59.6509 56.2841 59.6242 56.1907 59.5702C56.0041 59.4627 55.8896 59.2635 55.8896 59.0485L55.8879 45.2819C55.8879 45.0669 56.0024 44.8678 56.1891 44.7603L60.4402 42.3085C60.6276 42.1994 60.8575 42.2011 61.0426 42.3085C61.2293 42.4159 61.3438 42.6151 61.3438 42.8301V56.5967C61.3438 56.8116 61.2293 57.0108 61.0426 57.1183L56.7931 59.5702C56.6998 59.6241 56.5962 59.6509 56.4919 59.6509ZM57.0927 45.63L57.0943 58.0053L60.139 56.2484V43.8731L57.0927 45.63Z" fill="#113958"/>
<path d="M44.6488 130.484C44.6613 128.735 43.5115 126.98 41.1961 125.643C36.5936 122.986 29.1409 122.981 24.5493 125.632C22.259 126.955 21.1139 128.69 21.1139 130.425V134.194C21.1201 135.931 22.2732 137.667 24.5711 138.993C29.1738 141.65 36.6219 141.657 41.2149 139.005C43.524 137.67 44.6659 135.92 44.6487 134.169V130.484H44.6488Z" fill="#FF8744"/>
<path d="M32.913 141.58C29.7843 141.58 26.6547 140.891 24.2704 139.515C21.8538 138.121 20.5189 136.232 20.5118 134.196V130.425C20.5118 128.389 21.8389 126.502 24.2484 125.111C28.9983 122.368 36.7366 122.373 41.4975 125.122C43.9321 126.527 45.2647 128.433 45.2514 130.486V134.169C45.2718 136.218 43.9455 138.123 41.5164 139.526C39.1461 140.896 36.0299 141.58 32.913 141.58ZM32.8557 124.244C29.9545 124.244 27.0564 124.881 24.8509 126.155C22.8296 127.321 21.7166 128.838 21.7166 130.425V134.195C21.7221 135.78 22.8429 137.301 24.8728 138.471C29.2996 141.031 36.4967 141.034 40.914 138.483C42.9502 137.307 44.0623 135.777 44.0467 134.176V130.485C44.0467 130.483 44.0467 130.481 44.0467 130.48C44.0585 128.877 42.9392 127.346 40.8953 126.166C38.6778 124.885 35.7648 124.244 32.8557 124.244Z" fill="#113958"/>
<path d="M41.1936 125.645C40.6476 125.329 40.0547 125.058 39.4398 124.818V139.841C40.064 139.599 40.6601 139.323 41.2124 139.007C43.5215 137.671 44.6634 135.921 44.6462 134.17V130.486C44.6588 128.736 43.5089 126.981 41.1936 125.645Z" fill="#113958"/>
<path d="M39.4401 140.443C39.3201 140.443 39.2017 140.407 39.0998 140.338C38.9359 140.225 38.8378 140.04 38.8378 139.841V124.818C38.8378 124.618 38.9358 124.432 39.1005 124.32C39.2653 124.207 39.4747 124.183 39.659 124.257C40.3571 124.529 40.9579 124.812 41.4951 125.123C43.9305 126.529 45.2638 128.435 45.249 130.49V134.17C45.2694 136.219 43.9431 138.123 41.514 139.527C40.9587 139.847 40.3344 140.14 39.6575 140.402C39.5876 140.429 39.5138 140.443 39.4401 140.443ZM40.0425 125.727V138.932C40.3508 138.79 40.6416 138.639 40.9131 138.484C42.9477 137.307 44.0598 135.778 44.0441 134.176V130.485C44.0559 128.877 42.9366 127.346 40.8927 126.167C40.6292 126.014 40.3476 125.869 40.0425 125.727Z" fill="#113958"/>
<path d="M32.8821 119.588C26.3831 119.588 21.1139 124.357 21.1139 130.442C21.1139 134.194 26.3831 137.236 32.8821 137.236C39.3826 137.236 44.6518 134.194 44.6518 130.442C44.6518 124.357 39.3826 119.588 32.8821 119.588Z" fill="white"/>
<path d="M32.8824 137.838C25.9458 137.838 20.5118 134.59 20.5118 130.442C20.5118 124.018 25.9458 118.986 32.8824 118.986C39.8199 118.986 45.2546 124.018 45.2546 130.442C45.2545 134.59 39.8199 137.838 32.8824 137.838ZM32.8824 120.191C26.6211 120.191 21.7166 124.694 21.7166 130.442C21.7166 133.856 26.7254 136.634 32.8824 136.634C39.0403 136.634 44.0498 133.856 44.0498 130.442C44.0498 124.694 39.1445 120.191 32.8824 120.191Z" fill="#113958"/>
<path d="M123.558 151.427L123.555 151.421C122.3 152.133 120.569 152.025 118.661 150.922L87.4664 132.911C83.6263 130.692 80.511 125.309 80.511 120.883V41.8161C80.511 39.6168 81.2827 38.07 82.5282 37.3422L82.5251 37.3376L82.547 37.3267C82.547 37.3251 82.547 37.3251 82.5501 37.3251L85.3299 35.7204C85.3299 35.7187 85.3299 35.7187 85.333 35.7187L85.3517 35.7062L85.355 35.7109C86.6098 35.0002 88.3385 35.11 90.2493 36.2145L121.444 54.2228C125.284 56.441 128.399 61.8246 128.399 66.2514V145.319C128.399 147.557 127.599 149.112 126.313 149.826L126.319 149.833L123.558 151.427Z" fill="#FF8744"/>
<path d="M121.766 152.477C120.707 152.478 119.548 152.13 118.36 151.443L87.1656 133.433C83.1639 131.121 79.9089 125.492 79.9089 120.883V41.816C79.9089 39.5069 80.7043 37.7539 82.1506 36.8661C82.1827 36.8402 82.2181 36.8175 82.2565 36.7986V36.7994C82.2581 36.7986 82.2596 36.7971 82.2612 36.7962L85.0291 35.1986C85.0432 35.1899 85.0581 35.1829 85.073 35.1751C85.0832 35.1704 85.0935 35.1657 85.1037 35.1617C86.6002 34.3389 88.5336 34.5264 90.5509 35.6927L121.746 53.7011C125.747 56.0125 129.002 61.6425 129.002 66.2513V145.319C129.002 147.655 128.188 149.416 126.707 150.295C126.681 150.317 126.652 150.337 126.621 150.356L123.86 151.95C123.83 151.967 123.799 151.981 123.766 151.993C123.16 152.317 122.486 152.477 121.766 152.477ZM82.8862 37.8261C82.869 37.8395 82.8509 37.8512 82.8321 37.8622C81.7239 38.51 81.1136 39.914 81.1136 41.816V120.883C81.1136 125.108 84.0988 130.269 87.7679 132.388L118.963 150.4C120.614 151.355 122.139 151.532 123.258 150.897C123.284 150.883 123.311 150.87 123.338 150.859L125.926 149.366C125.956 149.341 125.987 149.317 126.022 149.299C127.167 148.663 127.797 147.25 127.797 145.319V66.2513C127.797 62.0261 124.812 56.8636 121.143 54.7442L89.9484 36.7358C88.2958 35.7813 86.7703 35.6017 85.6518 36.2346C85.6322 36.2463 85.6118 36.2565 85.5914 36.2652L82.8862 37.8261Z" fill="#113958"/>
<path d="M116.583 54.6311L89.5426 39.0197L92.3253 37.4133L119.363 53.0247L116.583 54.6311Z" fill="#FF8744"/>
<path d="M116.584 55.233C116.48 55.233 116.375 55.2064 116.283 55.1522L89.2417 39.5407C89.0551 39.4333 88.9406 39.2341 88.9406 39.0192C88.9406 38.8042 89.0551 38.605 89.2417 38.4976L92.0246 36.8912C92.2112 36.783 92.4402 36.783 92.6269 36.8912L119.665 52.5027C119.851 52.6101 119.966 52.8094 119.966 53.0243C119.966 53.2392 119.851 53.4385 119.665 53.5459L116.885 55.1522C116.792 55.2064 116.687 55.233 116.584 55.233ZM90.7476 39.0193L116.584 53.935L118.159 53.0243L92.3257 38.1086L90.7476 39.0193Z" fill="#113958"/>
<path d="M123.555 151.421C122.3 152.133 120.569 152.025 118.661 150.922L87.4664 132.91C83.6263 130.692 80.511 125.309 80.511 120.883V85.7342L126.291 59.302C127.587 61.5077 128.399 64.0002 128.399 66.2513V145.319C128.399 147.557 127.599 149.112 126.313 149.826L126.319 149.833L123.558 151.427L123.555 151.421Z" fill="#113958"/>
<path d="M121.766 152.476C120.707 152.476 119.548 152.129 118.36 151.442L87.1656 133.432C83.1639 131.12 79.9089 125.491 79.9089 120.883V85.7337C79.9089 85.5189 80.0234 85.3196 80.2101 85.2121L125.99 58.7799C126.273 58.6168 126.643 58.7102 126.811 58.9964C128.224 61.402 129.002 63.9777 129.002 66.2508V145.318C129.002 147.654 128.188 149.416 126.707 150.294C126.681 150.316 126.652 150.336 126.621 150.355L123.86 151.949C123.83 151.966 123.799 151.98 123.766 151.993C123.16 152.316 122.487 152.476 121.766 152.476ZM81.1136 86.0813V120.883C81.1136 125.108 84.0988 130.268 87.7679 132.388L118.963 150.399C120.614 151.355 122.139 151.532 123.258 150.897C123.284 150.882 123.311 150.87 123.338 150.859L125.926 149.366C125.956 149.34 125.987 149.317 126.022 149.298C127.167 148.663 127.797 147.249 127.797 145.318V66.2509C127.797 64.3496 127.186 62.1951 126.066 60.1275L81.1136 86.0813Z" fill="#113958"/>
<path d="M80.511 120.883C80.511 125.309 83.6232 130.693 87.4664 132.913L118.661 150.923C122.501 153.139 125.617 151.352 125.617 146.926V67.8582C125.617 63.4313 122.501 58.0477 118.661 55.8295L87.4664 37.8196C83.6263 35.603 80.511 37.3913 80.511 41.815V120.883Z" fill="white"/>
<path d="M121.775 152.48C120.715 152.48 119.554 152.133 118.36 151.445L87.1656 133.435C83.1639 131.123 79.9089 125.493 79.9089 120.882V41.8148C79.9089 39.4556 80.7372 37.6775 82.2408 36.8092C83.7514 35.9394 85.7123 36.112 87.768 37.2978L118.963 55.3078C122.964 57.6193 126.219 63.2492 126.219 67.858V146.926C126.219 149.286 125.391 151.065 123.887 151.933C123.255 152.298 122.541 152.48 121.775 152.48ZM84.3578 37.468C83.7993 37.468 83.2887 37.5951 82.8432 37.8523C81.7279 38.4963 81.1137 39.9042 81.1137 41.8148V120.882C81.1137 125.109 84.0989 130.272 87.768 132.39L118.963 150.4C120.629 151.363 122.166 151.537 123.284 150.889C124.4 150.246 125.015 148.838 125.015 146.925V67.8579C125.015 63.6327 122.03 58.4702 118.36 56.3509L87.1657 38.341C86.1617 37.7614 85.2048 37.468 84.3578 37.468Z" fill="#113958"/>
<path d="M83.9874 98.1395L83.9906 94.6303L122.138 72.6045V76.1135L83.9874 98.1395ZM83.9874 43.8225V86.9516L122.062 64.9713C121.727 62.968 120.33 60.8017 118.658 59.8355L87.4667 41.827C85.5499 40.7196 83.9874 41.6137 83.9874 43.8225ZM83.9874 115.106V122.89C83.9874 125.102 85.5467 127.797 87.4667 128.904L118.661 146.914C120.578 148.022 122.138 147.126 122.138 144.917V93.082L83.9874 115.106Z" fill="#FF8744"/>
<path d="M98.5658 116.674L78.7157 105.212C74.2245 102.62 66.9381 102.623 62.4424 105.218C60.163 106.529 59.0445 108.26 59.0728 109.984H59.0665V139.247L59.0712 139.249C59.0838 140.94 60.2022 142.623 62.4329 143.911L82.2828 155.372C86.7755 157.965 94.062 157.963 98.5563 155.365C100.822 154.062 101.943 152.347 101.929 150.634H101.932V121.371C101.935 119.669 100.812 117.971 98.5658 116.674Z" fill="#FF8744"/>
<path d="M90.4128 157.904C87.3594 157.904 84.3068 157.235 81.982 155.893L62.1321 144.433C59.8151 143.095 58.5178 141.286 58.4707 139.33C58.4668 139.303 58.4645 139.275 58.4645 139.247V109.983C58.4645 109.955 58.4661 109.927 58.47 109.899C58.4778 107.901 59.7782 106.056 62.1422 104.695C66.7956 102.009 74.3669 102.006 79.0172 104.69L98.8671 116.152C101.236 117.52 102.538 119.373 102.535 121.371V150.634C102.535 150.654 102.533 150.675 102.532 150.695C102.519 152.687 101.217 154.529 98.8578 155.887C96.5299 157.231 93.471 157.904 90.4128 157.904ZM59.6692 139.174C59.6723 139.196 59.6739 139.22 59.6739 139.243C59.6856 140.784 60.772 142.255 62.7344 143.388L82.5844 154.849C86.9061 157.346 93.9337 157.34 98.2554 154.844C100.249 153.696 101.339 152.202 101.327 150.638C101.327 150.616 101.328 150.594 101.33 150.572V121.37C101.333 119.82 100.245 118.338 98.2649 117.195L78.4149 105.733C74.0964 103.24 67.0671 103.243 62.7438 105.739C60.7391 106.893 59.6496 108.396 59.6755 109.973C59.6763 110.006 59.6739 110.038 59.6693 110.07L59.6692 139.174Z" fill="#113958"/>
<path d="M101.93 150.634H101.933V121.37C101.936 119.668 100.813 117.971 98.5669 116.674L96.2451 115.332V156.374C97.0641 156.091 97.8547 155.773 98.5574 155.365C100.823 154.061 101.944 152.347 101.93 150.634Z" fill="#113958"/>
<path d="M96.2454 156.975C96.1215 156.975 95.9992 156.938 95.8956 156.864C95.7372 156.751 95.6431 156.568 95.6431 156.373V115.332C95.6431 115.117 95.7576 114.918 95.9442 114.81C96.1294 114.702 96.3616 114.702 96.5467 114.81L98.8683 116.151C101.237 117.519 102.539 119.373 102.536 121.37V150.633C102.536 150.654 102.534 150.674 102.533 150.694C102.52 152.687 101.218 154.528 98.859 155.887C98.2127 156.26 97.4457 156.597 96.4417 156.943C96.3771 156.964 96.3112 156.975 96.2454 156.975ZM96.8478 116.376V155.51C97.3984 155.292 97.8565 155.074 98.2549 154.844C100.25 153.695 101.34 152.202 101.328 150.638C101.328 150.616 101.329 150.594 101.331 150.572V121.37C101.334 119.82 100.246 118.338 98.2659 117.195L96.8478 116.376Z" fill="#113958"/>
<path d="M82.2818 126.071C86.7745 128.662 94.061 128.662 98.5553 126.066C103.054 123.471 103.057 119.266 98.5648 116.673L78.7147 105.21C74.2235 102.619 66.9371 102.622 62.4413 105.217C57.9439 107.81 57.9424 112.018 62.4318 114.61L82.2818 126.071Z" fill="white"/>
<path d="M90.4144 128.604C87.3603 128.604 84.3068 127.934 81.9813 126.593L62.1313 115.132C59.7665 113.767 58.4645 111.914 58.4645 109.916C58.4652 107.916 59.7704 106.062 62.1407 104.695C66.7965 102.008 74.367 102.007 79.0165 104.689L98.8665 116.151C101.232 117.517 102.536 119.369 102.536 121.367C102.534 123.366 101.229 125.221 98.857 126.589C96.5291 127.933 93.4718 128.604 90.4144 128.604ZM82.5836 125.549C86.9046 128.041 93.9345 128.04 98.2547 125.544C100.237 124.401 101.329 122.917 101.331 121.366C101.331 119.817 100.242 118.336 98.2641 117.195L78.4141 105.732C74.0956 103.24 67.0663 103.243 62.7431 105.739C60.7611 106.881 59.67 108.365 59.6693 109.917C59.6693 111.466 60.7571 112.947 62.7336 114.089L82.5836 125.549Z" fill="#113958"/>
<path d="M91.1608 123.395C89.1388 123.395 87.498 121.756 87.498 119.732V107.297C87.498 101.583 83.3129 94.34 78.3558 91.4788C76.6552 90.4969 75.1243 90.2082 74.2569 90.7069C73.3941 91.2058 72.878 92.6726 72.878 94.6286V107.807C72.878 109.829 71.2403 111.468 69.2167 111.468C67.1931 111.468 65.5538 109.829 65.5538 107.807V94.6286C65.5538 89.9557 67.3909 86.2144 70.594 84.3649C73.802 82.5107 77.9636 82.7944 82.0187 85.1351C89.1985 89.2796 94.8238 99.0147 94.8238 107.297V119.732C94.8238 121.756 93.1829 123.395 91.1608 123.395Z" fill="#113958"/>
<path d="M91.1612 123.997C88.809 123.997 86.896 122.084 86.896 119.732V107.297C86.896 101.771 82.8473 94.7663 78.055 92C76.589 91.1529 75.2157 90.8525 74.5576 91.2289C73.9035 91.607 73.4807 92.9411 73.4807 94.6283V107.807C73.4807 110.157 71.5677 112.07 69.217 112.07C66.8648 112.07 64.9518 110.157 64.9518 107.807V94.6283C64.9518 89.7339 66.8984 85.8029 70.2931 83.8428C73.6885 81.8796 78.0731 82.1612 82.3202 84.6131C89.6695 88.8556 95.4265 98.819 95.4265 107.297V119.732C95.4265 122.084 93.5126 123.997 91.1612 123.997ZM75.2901 89.865C76.2454 89.865 77.4079 90.2352 78.6573 90.9568C83.7759 93.9114 88.1007 101.394 88.1007 107.297V119.732C88.1007 121.42 89.4733 122.792 91.1612 122.792C92.8492 122.792 94.2217 121.42 94.2217 119.732V107.297C94.2217 99.2097 88.7289 89.7034 81.7177 85.6563C77.8518 83.4249 73.9073 83.1441 70.8955 84.8861C67.8837 86.6249 66.1566 90.1756 66.1566 94.6283V107.807C66.1566 109.493 67.5292 110.866 69.217 110.866C70.9033 110.866 72.276 109.493 72.276 107.807V94.6283C72.276 92.422 72.8885 90.8023 73.956 90.1851C74.3285 89.9701 74.7804 89.865 75.2901 89.865Z" fill="#113958"/>
<path d="M75.9079 135.599C75.9063 133.34 74.3189 130.592 72.3611 129.462C70.4034 128.331 68.8143 129.246 68.8143 131.503C68.8143 132.841 69.3743 134.338 70.234 135.579C70.2277 135.659 70.212 135.729 70.212 135.811V136.994C70.212 138.36 71.1751 140.026 72.3611 140.711C73.5486 141.397 74.5102 140.84 74.5102 139.474L74.5085 138.294C74.5069 138.209 74.4944 138.123 74.4881 138.035C75.3447 137.784 75.9079 136.935 75.9079 135.599Z" fill="#113958"/>
<path d="M73.3221 141.61C72.9229 141.61 72.4939 141.483 72.0602 141.233C70.686 140.438 69.6099 138.576 69.6099 136.993V135.81C69.6099 135.801 69.6115 135.771 69.6146 135.737C68.7213 134.38 68.2123 132.849 68.2123 131.503C68.2123 130.188 68.6876 129.189 69.5512 128.692C70.4171 128.193 71.5222 128.282 72.6626 128.94C74.8188 130.184 76.509 133.109 76.5106 135.599C76.5106 136.932 75.9961 137.953 75.1114 138.429L75.113 139.472C75.113 140.346 74.7742 141.042 74.1827 141.382C73.9214 141.535 73.6304 141.61 73.3221 141.61ZM70.7785 129.578C70.5456 129.578 70.3346 129.63 70.1534 129.735C69.678 130.008 69.4169 130.637 69.4169 131.503C69.4169 132.654 69.9079 134.049 70.7291 135.235C70.8084 135.349 70.8451 135.487 70.835 135.625L70.2123 135.81H70.8146V136.993C70.8146 138.146 71.661 139.61 72.6625 140.19C73.0373 140.405 73.3715 140.461 73.5801 140.339C73.7887 140.22 73.908 139.903 73.908 139.473L73.9064 138.295C73.9056 138.289 73.8876 138.083 73.8876 138.077C73.8672 137.795 74.0468 137.536 74.3189 137.458C74.9456 137.272 75.3057 136.596 75.3057 135.599C75.3041 133.569 73.8178 130.998 72.0601 129.984C71.5943 129.715 71.1574 129.578 70.7785 129.578Z" fill="#113958"/>
<path d="M72.7502 135.528V134.347C72.7502 134.264 72.7643 134.193 72.7722 134.113C71.9125 132.873 71.3509 131.376 71.3509 130.038C71.3509 129.685 71.4011 129.379 71.4748 129.095C69.9484 128.67 68.8143 129.6 68.8143 131.503C68.8143 132.841 69.3743 134.338 70.234 135.578C70.2277 135.658 70.212 135.729 70.212 135.811V136.993C70.212 138.36 71.1751 140.026 72.3611 140.711C73.5486 141.397 74.5102 140.84 74.5102 139.473L74.5085 138.931C73.5158 138.138 72.7502 136.736 72.7502 135.528Z" fill="white"/>
<path d="M73.3221 141.61C72.9229 141.61 72.4939 141.483 72.0602 141.233C70.686 140.438 69.6099 138.576 69.6099 136.993V135.81C69.6099 135.801 69.6115 135.771 69.6146 135.737C68.7213 134.38 68.2123 132.849 68.2123 131.503C68.2123 130.339 68.5998 129.402 69.3041 128.867C69.9261 128.394 70.7535 128.271 71.6367 128.514C71.9536 128.602 72.1411 128.929 72.0579 129.247C71.9865 129.521 71.9536 129.773 71.9536 130.038C71.9536 131.205 72.4328 132.565 73.2674 133.769C73.349 133.887 73.3858 134.03 73.3717 134.171L72.7505 134.347H73.3528V135.528C73.3528 136.518 73.9968 137.751 74.8847 138.46C75.0275 138.573 75.1106 138.745 75.1113 138.929L75.1129 139.472C75.1129 140.345 74.7741 141.042 74.1827 141.382C73.9214 141.534 73.6304 141.61 73.3221 141.61ZM70.7723 129.595C70.5221 129.597 70.2601 129.655 70.0326 129.827C69.6358 130.128 69.4169 130.723 69.4169 131.503C69.4169 132.654 69.9079 134.049 70.7291 135.234C70.8084 135.349 70.8451 135.487 70.835 135.625L70.2123 135.81H70.8146V136.993C70.8146 138.146 71.661 139.609 72.6625 140.19C73.0373 140.405 73.3715 140.461 73.5801 140.339C73.7887 140.22 73.908 139.903 73.908 139.473L73.9072 139.209C72.8601 138.26 72.148 136.787 72.148 135.528V134.347C72.148 134.32 72.1487 134.293 72.1503 134.268C71.2577 132.911 70.7486 131.38 70.7486 130.037C70.7487 129.89 70.7566 129.743 70.7723 129.595Z" fill="#113958"/>
<path d="M139.137 52.7763L114.86 38.7587C113.718 38.0998 112.684 38.0292 111.922 38.4386L111.917 38.4292L109.083 40.0653C108.316 40.5061 107.842 41.4504 107.842 42.7964L107.843 57.7585C107.843 60.4518 109.74 63.7305 112.077 65.081L136.356 79.0955C137.499 79.7575 138.531 79.825 139.292 79.4187L139.297 79.4265L139.347 79.3983C139.347 79.3967 139.35 79.3967 139.35 79.3951L142.13 77.792C142.897 77.351 143.372 76.4053 143.372 75.0578V60.0972C143.372 57.407 141.474 54.1254 139.137 52.7763Z" fill="#FF8744"/>
<path d="M138.24 80.2755C137.553 80.2755 136.809 80.0544 136.055 79.6174L111.776 65.6028C109.233 64.1338 107.241 60.6882 107.241 57.7586L107.24 42.7966C107.24 41.2704 107.787 40.115 108.783 39.5432L111.616 37.9079C111.659 37.8828 111.704 37.8639 111.751 37.8506C112.716 37.3871 113.921 37.522 115.161 38.2373L139.438 52.255C141.983 53.7233 143.975 57.1681 143.975 60.0977V75.0581C143.975 76.586 143.426 77.7421 142.43 78.3148L139.652 79.9171C139.619 79.936 139.584 79.9525 139.548 79.9651C139.15 80.1719 138.707 80.2755 138.24 80.2755ZM112.121 39.0076L109.384 40.5873C108.777 40.9355 108.445 41.7198 108.445 42.7967L108.446 57.7587C108.446 60.2561 110.211 63.3064 112.379 64.5598L136.657 78.5744C137.567 79.1006 138.403 79.212 139.009 78.8881C139.034 78.8739 139.06 78.8622 139.087 78.8527L141.829 77.2708C142.436 76.9218 142.77 76.1358 142.77 75.0581V60.0976C142.77 57.6426 140.968 54.5288 138.836 53.2982L114.559 39.2805C113.649 38.7558 112.812 38.6468 112.208 38.9699C112.179 38.9848 112.151 38.9973 112.121 39.0076Z" fill="#113958"/>
<path d="M139.291 79.4196L139.296 79.4273L139.346 79.3992C139.346 79.3976 139.349 79.3976 139.349 79.396L142.129 77.7929C142.896 77.3519 143.371 76.4062 143.371 75.0587V60.098C143.371 58.8495 142.951 57.4785 142.28 56.2283L119.512 69.3722L136.355 79.0964C137.498 79.7584 138.531 79.8258 139.291 79.4196Z" fill="#113958"/>
<path d="M138.239 80.2759C137.552 80.2759 136.808 80.0548 136.054 79.6179L119.211 69.8936C119.024 69.7862 118.91 69.5869 118.91 69.372C118.91 69.1571 119.024 68.9578 119.211 68.8505L141.979 55.7066C142.12 55.625 142.289 55.6053 142.445 55.6485C142.602 55.6932 142.733 55.7999 142.81 55.9435C143.562 57.3403 143.974 58.8157 143.974 60.0981V75.0586C143.974 76.5865 143.425 77.7426 142.429 78.3152L139.651 79.9176C139.618 79.9364 139.584 79.9529 139.547 79.9655C139.149 80.1724 138.707 80.2759 138.239 80.2759ZM120.717 69.372L136.656 78.5746C137.566 79.1009 138.402 79.2123 139.008 78.8883C139.033 78.8742 139.06 78.8624 139.086 78.853L141.828 77.271C142.435 76.922 142.769 76.1361 142.769 75.0584V60.098C142.769 59.1749 142.507 58.1176 142.026 57.0697L120.717 69.372Z" fill="#113958"/>
<path d="M136.356 54.383L112.077 40.3654C109.74 39.0163 107.842 40.1049 107.842 42.7967L107.843 57.7588C107.843 60.4521 109.74 63.7308 112.077 65.0814L136.356 79.0959C138.693 80.4481 140.589 79.3579 140.589 76.6644V61.704C140.59 59.0137 138.693 55.7322 136.356 54.383Z" fill="white"/>
<path d="M138.252 80.282C137.565 80.282 136.817 80.0593 136.055 79.6177L111.776 65.6031C109.233 64.1333 107.241 60.6885 107.241 57.7589L107.24 42.7969C107.24 41.2738 107.786 40.1193 108.777 39.5467C109.77 38.9733 111.05 39.0753 112.379 39.8439L136.657 53.8616C139.2 55.3291 141.192 58.7739 141.192 61.7042V76.6647C141.192 78.1902 140.646 79.3455 139.653 79.9174C139.231 80.1613 138.758 80.282 138.252 80.282ZM110.186 40.3875C109.886 40.3875 109.615 40.4542 109.38 40.5899C108.777 40.9389 108.445 41.7224 108.445 42.7969L108.446 57.7589C108.446 60.2563 110.211 63.3066 112.379 64.56L136.657 78.5746C137.598 79.1181 138.447 79.2248 139.051 78.8742C139.655 78.526 139.987 77.7417 139.987 76.6648V61.7042C139.987 59.2492 138.187 56.1354 136.055 54.9048L111.776 40.8871C111.201 40.5554 110.659 40.3875 110.186 40.3875Z" fill="#113958"/>
<path d="M127.709 66.2536C127.606 66.2536 127.504 66.2277 127.408 66.1728L114.528 58.7373C114.239 58.571 114.14 58.2024 114.306 57.9145C114.474 57.6243 114.846 57.5294 115.13 57.694L128.01 65.1296C128.299 65.2958 128.398 65.6645 128.232 65.9524C128.119 66.1454 127.916 66.2536 127.709 66.2536ZM133.601 65.7532C133.498 65.7532 133.394 65.7273 133.3 65.6724L114.528 54.836C114.239 54.6698 114.14 54.3011 114.306 54.0133C114.474 53.7254 114.846 53.6273 115.13 53.7929L133.902 64.6293C134.191 64.7956 134.29 65.1643 134.124 65.4521C134.011 65.6449 133.808 65.7532 133.601 65.7532ZM133.601 61.8535C133.498 61.8535 133.394 61.8276 133.3 61.7727L114.528 50.9316C114.239 50.7653 114.14 50.3966 114.306 50.1088C114.474 49.8186 114.846 49.7221 115.13 49.8883L133.902 60.7294C134.191 60.8957 134.29 61.2643 134.124 61.5522C134.011 61.7452 133.808 61.8535 133.601 61.8535Z" fill="#113958"/>
</svg>
