<svg width="373" height="373" viewBox="0 0 373 373" fill="none" xmlns="http://www.w3.org/2000/svg">
<path d="M185.804 316.18C183.671 316.18 181.538 315.7 179.873 314.743C178.072 313.7 177.08 312.25 177.08 310.656C177.082 309.065 178.072 307.619 179.867 306.582C183.192 304.661 188.405 304.667 191.728 306.591C193.528 307.625 194.518 309.074 194.518 310.668C194.518 312.259 193.531 313.706 191.734 314.743C190.073 315.7 187.94 316.18 185.804 316.18ZM185.789 307.418C184.043 307.418 182.298 307.793 180.999 308.544C179.947 309.148 179.344 309.92 179.343 310.656C179.343 311.396 179.948 312.17 181.005 312.783C183.609 314.28 188.007 314.283 190.603 312.78C191.655 312.176 192.256 311.405 192.256 310.668C192.256 309.929 191.652 309.157 190.597 308.55C189.295 307.796 187.542 307.418 185.789 307.418Z" fill="#1E3F58"/>
<path d="M67.6929 248.362C67.0682 248.362 66.5616 247.855 66.5616 247.231L66.5527 234.98C66.5527 234.354 67.058 233.848 67.6825 233.848C67.6841 233.848 67.6841 233.848 67.6841 233.848C68.3087 233.848 68.8154 234.353 68.8154 234.978L68.8242 247.231C68.8242 247.855 68.3189 248.362 67.6943 248.362C67.6929 248.362 67.6929 248.362 67.6929 248.362Z" fill="#1E3F58"/>
<path d="M78.2959 242.237L57.0806 242.231C56.456 242.231 55.9492 241.725 55.9492 241.1C55.9492 240.476 56.4559 239.969 57.0806 239.969L78.2959 239.975C78.9204 239.975 79.4272 240.481 79.4272 241.106C79.4272 241.731 78.9205 242.237 78.2959 242.237Z" fill="#1E3F58"/>
<path d="M87.7734 79.4689C86.8396 79.4689 85.832 79.1713 84.8066 78.5792C81.479 76.6612 78.873 72.1522 78.873 68.3133C78.873 66.2378 79.6317 64.6557 81.0104 63.8602C82.3893 63.0647 84.1377 63.1988 85.9378 64.2373C89.2654 66.1566 91.8714 70.6672 91.8714 74.5061C91.8714 76.5802 91.1128 78.1608 89.7354 78.9562C89.1421 79.2995 88.4791 79.4689 87.7734 79.4689ZM82.9727 65.616C82.6589 65.616 82.3776 65.6838 82.1419 65.8193C81.5026 66.1891 81.1357 67.098 81.1357 68.3132C81.1357 71.3153 83.335 75.1188 85.938 76.6198C86.9898 77.2282 87.9605 77.3622 88.6042 76.9969C89.2421 76.6271 89.6089 75.7198 89.6089 74.5059C89.6089 71.5038 87.4096 67.6989 84.8066 66.1962C84.1424 65.812 83.5104 65.616 82.9727 65.616Z" fill="#1E3F58"/>
<path d="M231.369 84.7146C231.343 84.7146 231.313 84.7131 231.284 84.7117C230.821 84.6764 230.426 84.3626 230.288 83.9176C229.651 81.8628 228.617 79.5677 227.295 77.2829C225.978 75.0026 224.508 72.9551 223.034 71.3612C222.719 71.0194 222.646 70.5185 222.846 70.1002C223.049 69.6803 223.482 69.4285 223.954 69.4653C225.238 69.5714 226.534 69.2636 227.707 68.5888C228.877 67.9187 229.79 66.9508 230.347 65.7871C230.547 65.3657 230.936 65.1213 231.448 65.1463C231.911 65.1801 232.309 65.4939 232.447 65.9389C233.086 67.9996 234.123 70.2961 235.443 72.578C235.443 72.5795 235.446 72.5795 235.446 72.5795C236.763 74.8613 238.233 76.906 239.703 78.4924C240.019 78.8342 240.092 79.3335 239.892 79.7519C239.692 80.1687 239.235 80.4163 238.79 80.3898C237.479 80.2927 236.195 80.599 235.028 81.2707C233.864 81.9395 232.951 82.9088 232.388 84.0755C232.197 84.4687 231.802 84.7146 231.369 84.7146ZM226.175 71.569C227.251 72.9331 228.293 74.4873 229.254 76.1502C230.217 77.8178 231.039 79.4957 231.685 81.0999C232.312 80.3973 233.057 79.7933 233.903 79.3086C234.746 78.824 235.641 78.4822 236.563 78.2906C235.491 76.9294 234.448 75.3768 233.488 73.7123C232.524 72.0463 231.699 70.3669 231.054 68.7613C230.427 69.4626 229.681 70.0665 228.836 70.5511C227.993 71.0357 227.097 71.3775 226.175 71.569Z" fill="#1E3F58"/>
<path d="M305.304 213.519C304.915 213.519 304.532 213.316 304.323 212.953C304.011 212.411 304.199 211.719 304.738 211.408L315.35 205.292C315.895 204.979 316.585 205.168 316.897 205.706C317.209 206.248 317.021 206.94 316.482 207.251L305.87 213.367C305.69 213.47 305.495 213.519 305.304 213.519Z" fill="#1E3F58"/>
<path d="M315.919 219.641C315.53 219.641 315.15 219.44 314.94 219.076L304.325 200.709C304.01 200.169 304.196 199.476 304.738 199.164C305.265 198.853 305.967 199.031 306.282 199.578L316.897 217.944C317.212 218.485 317.026 219.177 316.484 219.49C316.308 219.593 316.113 219.641 315.919 219.641Z" fill="#1E3F58"/>
<path d="M281.436 254.879L132.511 168.902L122.064 174.93C122.061 176.633 122.671 177.823 123.655 178.354L123.649 178.36L272.501 264.306C272.506 264.312 272.506 264.306 272.509 264.312L272.571 264.347L272.574 264.336C273.514 264.842 274.787 264.766 276.201 263.947C279.091 262.273 281.433 258.213 281.436 254.879Z" fill="#1E3F58"/>
<path d="M273.886 265.787C273.294 265.787 272.728 265.663 272.209 265.419C272.142 265.395 272.074 265.366 272.009 265.327L272.012 265.324C271.986 265.313 271.959 265.298 271.935 265.286L123.084 179.338C123.046 179.316 123.011 179.293 122.975 179.268C121.672 178.485 120.931 176.915 120.934 174.928C120.934 174.524 121.15 174.152 121.499 173.95L131.946 167.922C132.297 167.719 132.727 167.719 133.078 167.922L282.002 253.896C282.353 254.1 282.568 254.474 282.568 254.878C282.565 258.631 280.017 263.044 276.767 264.924C275.78 265.498 274.799 265.787 273.886 265.787ZM272.999 263.286C273.037 263.301 273.076 263.318 273.111 263.339C273.741 263.681 274.634 263.548 275.636 262.968C277.984 261.607 279.996 258.313 280.273 255.511L132.512 170.208L123.231 175.563C123.338 176.439 123.675 177.077 124.192 177.357C124.242 177.384 124.289 177.414 124.333 177.447L272.999 263.286Z" fill="#1E3F58"/>
<path d="M268.37 130.636L145.575 59.7402C138.363 55.5803 132.512 58.9451 132.512 67.2706V168.895L281.437 254.877L281.434 153.251C281.437 144.925 275.588 134.802 268.37 130.636Z" fill="#FF6600"/>
<path d="M281.437 256.009C281.243 256.009 281.045 255.958 280.871 255.858L131.946 169.875C131.596 169.673 131.381 169.299 131.381 168.895V67.2709C131.381 62.8282 132.938 59.4813 135.766 57.8477C138.602 56.2126 142.284 56.5381 146.141 58.761L268.937 129.657C276.455 133.995 282.568 144.581 282.566 153.251L282.568 254.877C282.568 255.281 282.353 255.655 282.003 255.858C281.829 255.958 281.632 256.009 281.437 256.009ZM133.643 168.243L280.306 252.918L280.303 153.251C280.306 145.301 274.699 135.595 267.805 131.616L145.01 60.7201C141.881 58.9199 139.004 58.5929 136.899 59.8068C134.8 61.0191 133.644 63.6706 133.644 67.2707L133.643 168.243Z" fill="#1E3F58"/>
<path d="M268.37 166.839L145.575 95.9434C138.363 91.7834 132.512 95.1482 132.512 103.474V168.896L281.437 254.878L281.434 189.454C281.437 181.128 275.588 171.006 268.37 166.839Z" fill="#1E3F58"/>
<path d="M281.437 256.009C281.243 256.009 281.045 255.959 280.871 255.858L131.946 169.875C131.596 169.673 131.381 169.299 131.381 168.895V103.473C131.381 99.0304 132.938 95.6836 135.766 94.05C138.602 92.4178 142.284 92.7389 146.141 94.9634L268.937 165.86C276.455 170.198 282.568 180.783 282.566 189.454L282.568 254.877C282.568 255.281 282.353 255.655 282.003 255.859C281.829 255.959 281.632 256.009 281.437 256.009ZM133.643 168.243L280.306 252.918L280.303 189.454C280.306 181.503 274.699 171.797 267.805 167.818L145.01 96.9224C141.881 95.1209 139.004 94.7968 136.899 96.0091C134.8 97.2215 133.644 99.8731 133.644 103.473L133.643 168.243Z" fill="#1E3F58"/>
<path d="M270.55 248.595L143.395 175.182V71.4062L270.55 144.825V248.595Z" fill="white"/>
<path d="M270.551 249.726C270.356 249.726 270.159 249.676 269.985 249.575L142.829 176.16C142.479 175.959 142.264 175.584 142.264 175.181V71.4054C142.264 71.0018 142.479 70.6276 142.829 70.4259C143.18 70.2226 143.61 70.2226 143.961 70.4259L271.117 143.844C271.467 144.046 271.682 144.42 271.682 144.823V248.594C271.682 248.998 271.467 249.372 271.117 249.575C270.943 249.676 270.745 249.726 270.551 249.726ZM144.526 174.528L269.42 246.635V145.476L144.526 73.3647V174.528Z" fill="#1E3F58"/>
<path d="M265.324 251.614L138.168 178.195V74.4258L265.327 147.844L265.324 251.614Z" fill="white"/>
<path d="M265.324 252.745C265.13 252.745 264.933 252.695 264.759 252.595L137.603 179.174C137.252 178.972 137.037 178.598 137.037 178.194V74.4251C137.037 74.0215 137.252 73.6473 137.603 73.4454C137.953 73.2422 138.384 73.2422 138.734 73.4454L265.893 146.863C266.244 147.065 266.459 147.439 266.459 147.843L266.456 251.614C266.456 252.017 266.24 252.392 265.89 252.595C265.716 252.695 265.519 252.745 265.324 252.745ZM139.3 177.542L264.193 249.655L264.196 148.496L139.3 76.3843V177.542Z" fill="#1E3F58"/>
<path d="M257.923 163.834L135.125 92.9318C127.91 88.7658 122.061 92.1305 122.064 100.45V174.929L270.983 260.911L270.986 186.437C270.981 178.111 265.138 168 257.923 163.834Z" fill="#FF6600"/>
<path d="M270.984 262.041C270.789 262.041 270.592 261.991 270.418 261.891L121.499 175.907C121.149 175.706 120.934 175.332 120.934 174.928V100.449C120.932 96.0094 122.488 92.6655 125.314 91.0332C128.149 89.3937 131.828 89.7223 135.691 91.951L258.489 162.853C265.999 167.188 272.112 177.766 272.118 186.434L272.115 260.91C272.115 261.313 271.9 261.688 271.549 261.891C271.376 261.991 271.178 262.041 270.984 262.041ZM123.196 174.275L269.853 258.951L269.856 186.436C269.85 178.488 264.243 168.788 257.358 164.812L134.559 93.9102C131.429 92.1043 128.551 91.7742 126.446 92.9925C124.35 94.2034 123.195 96.852 123.196 100.449V174.275Z" fill="#1E3F58"/>
<path d="M193.193 187.339L129.9 150.801V170.416L193.193 206.96V187.339Z" fill="white"/>
<path d="M193.193 208.091C192.999 208.091 192.801 208.041 192.627 207.939L129.335 171.395C128.985 171.193 128.77 170.819 128.77 170.415V150.8C128.77 150.396 128.985 150.022 129.335 149.82C129.686 149.617 130.116 149.617 130.467 149.82L193.759 186.359C194.109 186.56 194.324 186.935 194.324 187.338V206.96C194.324 207.363 194.109 207.737 193.759 207.939C193.585 208.041 193.387 208.091 193.193 208.091ZM131.032 169.763L192.062 205V187.991L131.032 152.759V169.763Z" fill="#1E3F58"/>
<path d="M204.852 287.009L219.635 278.471L219.638 273.51L181.53 251.508L166.749 260.04L166.746 265.007L204.852 287.009Z" fill="white"/>
<path d="M204.852 288.139C204.658 288.139 204.46 288.089 204.286 287.988L166.181 265.987C165.83 265.783 165.615 265.409 165.615 265.006L165.618 260.038C165.618 259.635 165.835 259.26 166.184 259.057L180.965 250.525C181.315 250.325 181.745 250.325 182.096 250.525L220.204 272.527C220.555 272.73 220.77 273.105 220.77 273.508L220.767 278.469C220.767 278.873 220.552 279.247 220.201 279.45L205.418 287.988C205.244 288.089 205.046 288.139 204.852 288.139ZM167.878 264.352L204.852 285.702L218.505 277.815L218.508 274.162L181.53 252.812L167.881 260.692L167.878 264.352Z" fill="#1E3F58"/>
<path d="M204.852 287.007L219.635 278.469L219.638 273.508L204.852 282.04V287.007Z" fill="#1E3F58"/>
<path d="M204.852 288.138C204.658 288.138 204.46 288.088 204.286 287.987C203.936 287.784 203.721 287.41 203.721 287.006V282.039C203.721 281.635 203.936 281.261 204.286 281.058L219.073 272.526C219.421 272.326 219.857 272.323 220.205 272.529C220.555 272.729 220.77 273.103 220.77 273.507L220.767 278.468C220.767 278.872 220.552 279.246 220.202 279.449L205.418 287.987C205.244 288.088 205.047 288.138 204.852 288.138ZM205.984 282.693V285.047L218.505 277.814L218.508 275.466L205.984 282.693Z" fill="#1E3F58"/>
<path d="M204.852 282.041L166.749 260.039L166.746 265.006L204.852 287.008V282.041Z" fill="#FF6600"/>
<path d="M204.852 288.138C204.658 288.138 204.46 288.088 204.286 287.988L166.181 265.986C165.83 265.783 165.615 265.408 165.615 265.005L165.618 260.038C165.618 259.634 165.835 259.26 166.184 259.057C166.534 258.856 166.965 258.856 167.315 259.057L205.418 281.058C205.768 281.262 205.983 281.636 205.983 282.039V287.007C205.983 287.41 205.768 287.785 205.418 287.988C205.244 288.088 205.046 288.138 204.852 288.138ZM167.878 264.351L203.721 285.047V282.694L167.879 261.997L167.878 264.351Z" fill="#1E3F58"/>
<path d="M134.576 299.88L131.621 236.943C131.618 235.741 130.82 234.533 129.232 233.62C126.047 231.782 120.888 231.776 117.709 233.614C116.118 234.533 115.323 235.735 115.329 236.943L112.377 299.863C112.377 299.863 112.371 299.869 112.371 299.874L112.374 299.881L112.377 299.874C112.377 301.519 113.464 303.156 115.629 304.406C119.966 306.91 126.996 306.91 131.327 304.412C133.495 303.163 134.576 301.524 134.573 299.881L134.576 299.88Z" fill="white"/>
<path d="M123.486 307.43C120.456 307.43 117.426 306.746 115.064 305.385C112.651 303.992 111.301 302.086 111.248 300C111.243 299.958 111.24 299.914 111.24 299.873C111.24 299.82 111.245 299.767 111.252 299.714L114.2 236.889C114.189 235.267 115.237 233.735 117.144 232.633C120.684 230.584 126.241 230.586 129.798 232.639C131.672 233.716 132.748 235.285 132.753 236.939L135.706 299.826C135.708 299.844 135.708 299.861 135.708 299.879C135.708 302.015 134.353 303.974 131.891 305.391C129.536 306.749 126.512 307.43 123.486 307.43ZM113.509 299.888C113.516 301.172 114.469 302.427 116.196 303.423C120.21 305.742 126.747 305.748 130.762 303.429C132.492 302.433 133.445 301.172 133.443 299.882H133.444L130.492 236.995C130.489 236.118 129.825 235.264 128.668 234.6C125.844 232.969 121.088 232.967 118.276 234.592C117.118 235.261 116.457 236.116 116.461 236.936L113.509 299.888Z" fill="#1E3F58"/>
<path d="M134.167 291.164C134.131 292.714 133.1 294.264 131.05 295.442C126.872 297.858 120.09 297.858 115.906 295.442C113.823 294.234 112.795 292.661 112.789 291.082L112.377 299.861C112.377 299.861 112.371 299.867 112.371 299.873L112.374 299.879L112.377 299.873C112.377 301.517 113.464 303.155 115.629 304.405C119.966 306.909 126.996 306.909 131.327 304.41C133.495 303.161 134.576 301.523 134.573 299.879H134.576L134.167 291.164Z" fill="#FF6600"/>
<path d="M123.486 307.429C120.456 307.429 117.426 306.745 115.064 305.384C112.651 303.991 111.301 302.085 111.248 299.999C111.243 299.957 111.24 299.913 111.24 299.872C111.24 299.819 111.245 299.766 111.252 299.713L111.66 291.028C111.69 290.418 112.121 290.026 112.815 289.949C113.428 289.964 113.918 290.462 113.921 291.078C113.926 292.306 114.833 293.511 116.474 294.463C120.339 296.69 126.622 296.69 130.484 294.463C132.103 293.532 133.008 292.35 133.036 291.137C133.05 290.527 133.544 290.041 134.154 290.032C134.755 290.029 135.267 290.5 135.297 291.11L135.706 299.825C135.708 302.014 134.353 303.973 131.891 305.39C129.536 306.748 126.512 307.429 123.486 307.429ZM113.509 299.887C113.516 301.171 114.469 302.426 116.196 303.422C120.21 305.741 126.747 305.746 130.762 303.428C132.492 302.432 133.445 301.171 133.443 299.881L133.227 295.273C132.762 295.686 132.223 296.071 131.614 296.422C127.057 299.059 119.908 299.056 115.341 296.422C114.732 296.066 114.191 295.68 113.727 295.261L113.509 299.887Z" fill="#1E3F58"/>
<path d="M131.622 236.941C131.619 235.739 130.821 234.531 129.233 233.618C128.944 233.447 128.623 233.317 128.305 233.176L129.955 305.057C130.432 304.857 130.9 304.657 131.328 304.409C133.496 303.16 134.577 301.522 134.574 299.878H134.577L131.622 236.941Z" fill="#1E3F58"/>
<path d="M129.955 306.188C129.74 306.188 129.525 306.126 129.34 306.006C129.026 305.802 128.833 305.458 128.824 305.083L127.174 233.202C127.165 232.814 127.355 232.449 127.678 232.234C127.999 232.019 128.409 231.982 128.765 232.141C129.241 232.35 129.537 232.483 129.809 232.643C131.663 233.709 132.738 235.266 132.754 236.91L135.708 299.825C135.709 302.014 134.354 303.973 131.892 305.39C131.427 305.658 130.916 305.882 130.393 306.1C130.253 306.159 130.104 306.188 129.955 306.188ZM129.482 235.164L131.045 303.26C132.598 302.29 133.445 301.097 133.443 299.88L130.493 236.993C130.491 236.977 130.491 236.96 130.491 236.943C130.49 236.336 130.131 235.715 129.482 235.164Z" fill="#1E3F58"/>
<path d="M129.242 233.612C126.054 231.774 120.886 231.768 117.702 233.606C114.517 235.45 114.523 238.432 117.71 240.271C120.895 242.109 126.066 242.109 129.247 240.276C132.432 238.438 132.429 235.457 129.242 233.612Z" fill="white"/>
<path d="M123.485 242.791C121.203 242.791 118.923 242.279 117.145 241.252C115.237 240.153 114.187 238.621 114.186 236.942C114.184 235.263 115.231 233.732 117.135 232.629C120.685 230.581 126.249 230.581 129.808 232.635C129.808 232.635 129.808 232.635 129.809 232.635C131.717 233.739 132.767 235.273 132.765 236.952C132.765 238.63 131.717 240.159 129.813 241.258C128.038 242.28 125.762 242.791 123.485 242.791ZM123.462 233.37C121.567 233.37 119.674 233.776 118.268 234.588C117.111 235.258 116.447 236.116 116.448 236.94C116.448 237.765 117.116 238.623 118.276 239.293C121.097 240.922 125.863 240.924 128.684 239.297C129.838 238.632 130.503 237.776 130.503 236.952C130.504 236.126 129.837 235.265 128.676 234.594C127.262 233.778 125.36 233.37 123.462 233.37Z" fill="#1E3F58"/>
<path d="M127.498 234.215C127.498 236.436 125.695 238.239 123.474 238.239C121.252 238.239 119.455 236.442 119.455 234.22V221.14C119.455 218.918 121.252 217.121 123.474 217.121C125.695 217.121 127.495 218.918 127.495 221.14L127.498 234.215Z" fill="white"/>
<path d="M123.474 239.369C120.634 239.369 118.324 237.059 118.324 234.219V221.138C118.324 218.298 120.634 215.988 123.474 215.988C126.316 215.988 128.627 218.298 128.627 221.138L128.63 234.213C128.63 237.056 126.317 239.369 123.474 239.369ZM123.474 218.251C121.882 218.251 120.587 219.546 120.587 221.138V234.219C120.587 235.811 121.882 237.106 123.474 237.106C125.069 237.106 126.367 235.808 126.367 234.213L126.364 221.138C126.364 219.546 125.068 218.251 123.474 218.251Z" fill="#1E3F58"/>
<path d="M150.94 225.313L158.78 220.787C166.493 216.356 171.266 206.828 171.263 193.264C171.266 166.154 152.21 133.169 128.7 119.599C116.956 112.817 106.327 112.169 98.6223 116.594L98.6196 116.587L90.7826 121.113L90.7857 121.119C83.0725 125.55 78.2969 135.072 78.2969 148.642C78.303 175.752 97.3585 208.732 120.863 222.302C132.612 229.084 143.239 229.738 150.943 225.312L150.94 225.313ZM149.561 213.799C143.699 215.337 136.504 214.129 128.702 209.621C109.102 198.302 93.2103 170.803 93.2132 148.2C93.2102 139.22 95.7498 132.403 100.001 128.113C105.861 126.569 113.055 127.777 120.863 132.285C140.461 143.598 156.346 171.098 156.352 193.7C156.352 202.686 153.813 209.504 149.561 213.799Z" fill="#FF6600"/>
<path d="M139.895 229.267C133.862 229.267 127.19 227.258 120.298 223.279C96.5208 209.552 77.1718 176.069 77.166 148.64C77.166 135.154 81.7635 125.059 90.1143 120.198C90.1467 120.175 90.182 120.152 90.2175 120.132L98.0542 115.607C98.091 115.584 98.1292 115.565 98.1691 115.549C106.563 110.794 117.599 111.88 129.266 118.618C153.05 132.345 172.397 165.831 172.394 193.263C172.397 206.808 167.763 216.93 159.344 221.767L151.506 226.29C151.505 226.29 151.505 226.292 151.505 226.292C148.043 228.28 144.126 229.267 139.895 229.267ZM91.4533 122.031C91.4209 122.054 91.3855 122.078 91.3502 122.098C83.6623 126.515 79.4285 135.941 79.4285 148.64C79.4345 175.349 98.2751 207.954 121.429 221.32C132.425 227.666 142.706 228.736 150.376 224.333L150.375 224.331L158.214 219.806C165.902 215.388 170.135 205.964 170.131 193.263C170.134 166.552 151.294 133.945 128.134 120.577C117.141 114.228 106.858 113.161 99.1867 117.573C99.1514 117.592 99.1159 117.611 99.0791 117.628L91.4533 122.031ZM144.471 215.566C139.383 215.566 133.832 213.89 128.137 210.599C108.254 199.116 92.0793 171.124 92.0822 148.198C92.0793 139.236 94.5393 132.015 99.1987 127.314C99.3402 127.171 99.5185 127.068 99.7129 127.017C106.131 125.326 113.641 126.805 121.429 131.303C141.304 142.776 157.478 170.767 157.484 193.698C157.484 202.662 155.022 209.887 150.366 214.592C150.223 214.737 150.045 214.84 149.849 214.891C148.128 215.342 146.33 215.566 144.471 215.566ZM100.589 129.129C96.5001 133.404 94.3418 139.989 94.3449 148.198C94.3418 170.403 110.008 197.518 129.268 208.64C136.394 212.756 143.193 214.182 148.974 212.779C153.062 208.499 155.221 201.911 155.221 193.699C155.215 171.488 139.549 144.376 120.297 133.263C113.162 129.144 106.358 127.714 100.589 129.129Z" fill="#1E3F58"/>
<path d="M102.199 127.676C101.45 127.776 100.714 127.923 100.001 128.112C95.7498 132.401 93.2102 139.219 93.213 148.199C93.213 153.437 94.0967 158.947 95.6552 164.456L87.8155 168.975C86.2631 163.472 85.373 157.968 85.373 152.724C85.3732 138.023 92.1141 129.067 102.199 127.676Z" fill="#1E3F58"/>
<path d="M87.8158 170.105C87.6715 170.105 87.5272 170.077 87.39 170.021C87.066 169.89 86.8214 169.617 86.7273 169.282C85.0789 163.436 84.2422 157.865 84.2422 152.723C84.2422 138.459 90.3834 128.871 100.746 126.775C101.175 126.686 101.61 126.613 102.049 126.554C102.687 126.468 103.236 126.904 103.32 127.523C103.404 128.14 102.972 128.71 102.354 128.796C101.776 128.875 101.215 128.98 100.665 129.11C100.64 129.115 100.614 129.123 100.589 129.129C96.4997 133.404 94.3415 139.987 94.3446 148.198C94.3446 153.152 95.1517 158.518 96.7442 164.147C96.8857 164.645 96.6692 165.176 96.2213 165.434L88.3816 169.954C88.2063 170.054 88.0118 170.105 87.8158 170.105ZM96.4746 130.728C90.136 134.268 86.5049 142.065 86.5049 152.723C86.5049 157.247 87.1825 162.13 88.523 167.261L94.3313 163.912C92.839 158.391 92.0819 153.109 92.0819 148.198C92.079 141.184 93.5859 135.236 96.4746 130.728Z" fill="#1E3F58"/>
<path d="M150.939 225.31C158.653 220.879 163.428 211.351 163.425 197.787C163.428 195.966 163.325 194.11 163.151 192.242L170.994 187.723C171.162 189.585 171.265 191.441 171.262 193.262C171.265 206.825 166.492 216.353 158.779 220.784L150.939 225.31Z" fill="#1E3F58"/>
<path d="M150.942 226.442C150.55 226.442 150.17 226.239 149.959 225.875C149.648 225.335 149.834 224.644 150.374 224.332L150.376 224.33C150.379 224.329 150.38 224.329 150.382 224.327L150.441 224.293C158.089 219.861 162.298 210.452 162.295 197.788C162.298 196.103 162.209 194.324 162.025 192.348C161.984 191.908 162.203 191.483 162.588 191.264L170.43 186.745C170.763 186.552 171.176 186.544 171.516 186.72C171.858 186.898 172.086 187.238 172.121 187.623C172.307 189.688 172.397 191.534 172.394 193.264C172.397 206.808 167.763 216.931 159.344 221.767L151.574 226.252C151.553 226.264 151.532 226.276 151.513 226.286L151.506 226.291L151.504 226.292C151.326 226.394 151.132 226.442 150.942 226.442ZM164.342 192.864C164.49 194.626 164.56 196.244 164.557 197.79C164.559 206.622 162.588 213.999 158.88 219.406C166.147 214.835 170.135 205.593 170.132 193.263C170.133 192.108 170.092 190.898 170.006 189.599L164.342 192.864Z" fill="#1E3F58"/>
<path d="M163.426 197.788C163.429 170.677 144.373 137.692 120.863 124.123C97.3585 110.553 78.303 121.53 78.2969 148.64C78.303 175.751 97.3585 208.73 120.863 222.3C144.373 235.876 163.429 224.899 163.426 197.788ZM156.352 193.699C156.346 216.307 140.461 225.458 120.863 214.145C101.265 202.832 85.3737 175.327 85.3737 152.724C85.3737 130.115 101.265 120.97 120.863 132.284C140.461 143.597 156.346 171.096 156.352 193.699Z" fill="white"/>
<path d="M139.897 229.271C133.862 229.271 127.192 227.261 120.298 223.28C96.5208 209.552 77.1718 176.069 77.166 148.641C77.1691 135.116 81.793 125.001 90.1866 120.156C98.5965 115.303 109.689 116.366 121.429 123.143C145.213 136.871 164.561 170.357 164.558 197.788C164.559 211.31 159.938 221.425 151.546 226.27C148.074 228.275 144.142 229.271 139.897 229.271ZM101.844 119.421C97.9878 119.421 94.4377 120.315 91.3178 122.115C83.6533 126.54 79.4316 135.959 79.4287 148.641C79.4346 175.349 98.2752 207.954 121.429 221.321C132.446 227.678 142.737 228.742 150.415 224.311C158.078 219.888 162.296 210.469 162.295 197.788C162.298 171.077 143.457 138.471 120.298 125.102C113.761 121.328 107.477 119.421 101.844 119.421ZM136.727 220.142C131.664 220.142 126.072 218.459 120.298 215.125C100.417 203.648 84.2427 175.655 84.2427 152.724C84.2427 141.38 88.1286 132.888 95.1862 128.813C102.26 124.731 111.577 125.617 121.429 131.304C141.304 142.777 157.478 170.768 157.484 193.699C157.481 205.048 153.592 213.541 146.533 217.616C143.609 219.304 140.299 220.142 136.727 220.142ZM105.003 128.551C101.819 128.551 98.8894 129.287 96.3174 130.772C89.9905 134.427 86.5052 142.222 86.5052 152.724C86.5052 174.935 102.171 202.048 121.429 213.166C130.552 218.43 139.061 219.313 145.402 215.657C151.731 212.002 155.218 204.205 155.221 193.699C155.215 171.488 139.549 144.376 120.297 133.263C114.875 130.133 109.666 128.551 105.003 128.551Z" fill="#1E3F58"/>
<path d="M235.291 170.348C229.646 167.09 224.537 166.772 220.831 168.887L220.825 168.893C220.814 168.899 220.807 168.899 220.802 168.904L212.995 173.412C209.277 175.539 206.973 180.118 206.973 186.64C206.978 199.668 216.141 215.519 227.454 222.053C233.146 225.341 238.296 225.63 242.008 223.45L249.692 219.013C253.439 216.903 255.773 212.319 255.767 205.761C255.772 192.733 246.604 176.877 235.291 170.348Z" fill="#FF6600"/>
<path d="M236.608 225.993C233.603 225.993 230.298 225 226.889 223.032C215.29 216.333 205.848 200.006 205.842 186.64C205.842 179.908 208.184 174.861 212.432 172.429L220.237 167.924C220.248 167.917 220.26 167.91 220.272 167.904C224.503 165.489 230.039 166.006 235.857 169.368C247.465 176.066 256.904 192.392 256.899 205.76C256.905 212.523 254.542 217.58 250.246 219.998L242.575 224.429C240.795 225.474 238.78 225.993 236.608 225.993ZM221.338 169.9L213.561 174.391C210.04 176.405 208.104 180.755 208.104 186.64C208.11 199.286 217.043 214.733 228.02 221.073C233.158 224.038 237.916 224.533 241.437 222.474L249.126 218.032C252.688 216.027 254.642 211.672 254.636 205.762C254.642 193.112 245.709 177.666 234.726 171.327C229.652 168.399 224.933 167.871 221.438 169.843C221.406 169.864 221.374 169.884 221.338 169.9Z" fill="#1E3F58"/>
<path d="M242.009 223.45L249.692 219.014C253.44 216.904 255.773 212.32 255.767 205.762L227.508 222.078C233.182 225.342 238.308 225.625 242.009 223.45Z" fill="#1E3F58"/>
<path d="M236.612 225.991C233.622 225.991 230.334 225.008 226.946 223.058C226.595 222.856 226.377 222.482 226.377 222.078C226.377 221.673 226.592 221.299 226.943 221.097L255.202 204.781C255.55 204.578 255.98 204.578 256.333 204.781C256.684 204.983 256.899 205.356 256.899 205.76C256.905 212.524 254.542 217.581 250.247 219.998L242.581 224.426C240.801 225.472 238.786 225.991 236.612 225.991ZM229.853 222.03C234.284 224.118 238.347 224.291 241.435 222.474C241.438 222.473 241.441 222.472 241.444 222.47L249.127 218.033C252.274 216.263 254.165 212.657 254.56 207.766L229.853 222.03Z" fill="#1E3F58"/>
<path d="M247.93 210.289C247.93 223.317 238.762 228.585 227.454 222.056C216.141 215.522 206.978 199.671 206.973 186.643C206.978 173.616 216.141 168.348 227.454 174.876C238.767 181.405 247.93 197.261 247.93 210.289Z" fill="white"/>
<path d="M236.617 225.998C233.609 225.998 230.301 225.003 226.889 223.034C215.29 216.334 205.848 200.008 205.842 186.641C205.845 179.929 208.172 174.889 212.391 172.454C216.622 170.007 222.175 170.519 228.02 173.895C239.622 180.59 249.062 196.916 249.062 210.287C249.062 216.999 246.737 222.037 242.515 224.475C240.754 225.492 238.762 225.998 236.617 225.998ZM218.295 173.197C216.542 173.197 214.931 173.6 213.522 174.414C210.031 176.429 208.107 180.771 208.104 186.642C208.11 199.288 217.043 214.735 228.02 221.075C233.135 224.025 237.881 224.538 241.384 222.515C244.875 220.499 246.799 216.156 246.799 210.287C246.799 197.637 237.867 182.19 226.889 175.854C223.831 174.089 220.902 173.197 218.295 173.197Z" fill="#1E3F58"/>
<path d="M225.015 207.064C224.948 207.064 224.877 207.058 224.809 207.044C224.435 206.975 224.123 206.723 223.972 206.373L217.874 191.937C217.632 191.361 217.9 190.698 218.478 190.455C219.043 190.207 219.718 190.48 219.96 191.056L225.39 203.91L235.165 193.735C235.595 193.284 236.317 193.268 236.765 193.703C237.216 194.136 237.23 194.852 236.797 195.303L225.832 206.716C225.616 206.94 225.322 207.064 225.015 207.064Z" fill="#1E3F58"/>
</svg>
