<svg width="20" height="20" viewBox="0 0 20 20" fill="none" xmlns="http://www.w3.org/2000/svg">
<path fill-rule="evenodd" clip-rule="evenodd" d="M10 17.5C10.9849 17.5 11.9602 17.306 12.8701 16.9291C13.7801 16.5522 14.6069 15.9997 15.3033 15.3033C15.9997 14.6069 16.5522 13.7801 16.9291 12.8701C17.306 11.9602 17.5 10.9849 17.5 10C17.5 9.01509 17.306 8.03982 16.9291 7.12987C16.5522 6.21993 15.9997 5.39314 15.3033 4.6967C14.6069 4.00026 13.7801 3.44781 12.8701 3.0709C11.9602 2.69399 10.9849 2.5 10 2.5C8.01088 2.5 6.10322 3.29018 4.6967 4.6967C3.29018 6.10322 2.5 8.01088 2.5 10C2.5 11.9891 3.29018 13.8968 4.6967 15.3033C6.10322 16.7098 8.01088 17.5 10 17.5ZM8.98583 6.65833L13.6892 9.27167C13.819 9.34386 13.9272 9.44945 14.0025 9.57751C14.0778 9.70557 14.1176 9.85143 14.1176 10C14.1176 10.1486 14.0778 10.2944 14.0025 10.4225C13.9272 10.5505 13.819 10.6561 13.6892 10.7283L8.98583 13.3417C8.83354 13.4263 8.66177 13.4697 8.48755 13.4675C8.31333 13.4654 8.14269 13.4177 7.99256 13.3293C7.84242 13.2409 7.71799 13.1148 7.63159 12.9635C7.5452 12.8122 7.49983 12.6409 7.5 12.4667V7.53333C7.49983 7.3591 7.5452 7.18784 7.63159 7.03653C7.71799 6.88522 7.84242 6.75911 7.99256 6.6707C8.14269 6.58228 8.31333 6.53463 8.48755 6.53246C8.66177 6.53029 8.83354 6.57368 8.98583 6.65833Z" fill="#FF6600"/>
</svg>
