<svg width="188" height="188" viewBox="0 0 188 188" fill="none" xmlns="http://www.w3.org/2000/svg">
<path d="M56.9513 143.801C55.8983 143.801 54.8453 143.564 54.0254 143.09C53.1372 142.578 52.6484 141.863 52.6484 141.077C52.6484 140.293 53.1365 139.58 54.0224 139.068C55.6616 138.123 58.2295 138.123 59.8701 139.07C60.7575 139.583 61.2456 140.297 61.2456 141.083C61.2456 141.867 60.7583 142.58 59.8729 143.092C59.0539 143.564 58.0022 143.801 56.9513 143.801ZM56.9441 139.481C56.0821 139.481 55.2207 139.665 54.5802 140.036C54.0617 140.333 53.764 140.714 53.764 141.077C53.764 141.442 54.0625 141.824 54.5832 142.123C55.8679 142.867 58.0351 142.867 59.3154 142.124C59.8332 141.827 60.1302 141.446 60.1302 141.083C60.1302 140.718 59.8325 140.336 59.3125 140.037C58.6704 139.665 57.8069 139.481 56.9441 139.481Z" fill="#113958"/>
<path d="M125.621 147.676C125.313 147.676 125.063 147.426 125.063 147.118L125.059 141.08C125.059 140.772 125.308 140.522 125.616 140.522C125.616 140.522 125.616 140.522 125.616 140.522C125.924 140.522 126.174 140.772 126.174 141.08L126.178 147.118C126.178 147.426 125.929 147.676 125.621 147.676C125.621 147.676 125.621 147.676 125.621 147.676Z" fill="#113958"/>
<path d="M130.849 144.659L120.39 144.657C120.082 144.657 119.832 144.407 119.832 144.099C119.832 143.791 120.082 143.541 120.39 143.541L130.849 143.544C131.157 143.544 131.407 143.794 131.407 144.102C131.407 144.41 131.157 144.659 130.849 144.659Z" fill="#113958"/>
<path d="M101.462 33.791C101.002 33.791 100.505 33.6443 99.9995 33.3524C98.3589 32.4068 97.0742 30.1838 97.0742 28.2912C97.0735 27.2687 97.4468 26.4887 98.1258 26.0966C98.8048 25.703 99.6698 25.769 100.557 26.2818C102.198 27.2281 103.482 29.4518 103.482 31.3444C103.482 32.3669 103.108 33.1462 102.429 33.5383C102.137 33.7076 101.81 33.791 101.462 33.791ZM99.0946 26.9615C98.9391 26.9615 98.8004 26.995 98.6843 27.0625C98.369 27.244 98.1889 27.6922 98.1896 28.2905C98.1896 29.7713 99.2739 31.6465 100.557 32.3865C101.076 32.6857 101.554 32.7518 101.872 32.5724C102.186 32.3902 102.367 31.9427 102.367 31.3444C102.367 29.8643 101.283 27.9884 99.9994 27.2476C99.6712 27.0581 99.3597 26.9615 99.0946 26.9615Z" fill="#113958"/>
<path d="M138.768 66.1933C138.754 66.1933 138.74 66.1926 138.726 66.1919C138.497 66.1744 138.303 66.0198 138.235 65.8004C137.921 64.7873 137.41 63.6559 136.758 62.5295C136.112 61.406 135.387 60.3972 134.66 59.6099C134.504 59.4414 134.468 59.1946 134.568 58.9883C134.669 58.7828 134.895 58.6673 135.113 58.6753C135.746 58.7291 136.386 58.5758 136.964 58.2425C137.539 57.9136 137.988 57.4357 138.265 56.8605C138.364 56.6535 138.578 56.5316 138.808 56.5461C139.037 56.5628 139.232 56.7182 139.3 56.9368C139.617 57.9565 140.128 59.0879 140.777 60.2099C140.777 60.2107 140.777 60.2107 140.777 60.2107C141.428 61.3371 142.154 62.3451 142.877 63.1258C143.033 63.2935 143.07 63.5405 142.971 63.7467C142.871 63.953 142.659 64.0735 142.427 64.0612C141.794 64.0088 141.148 64.1628 140.572 64.4954C139.998 64.8251 139.547 65.303 139.27 65.8782C139.176 66.0721 138.98 66.1933 138.768 66.1933ZM136.209 59.7116C136.738 60.3856 137.253 61.1518 137.725 61.9717C138.2 62.7931 138.606 63.6203 138.922 64.4112C139.232 64.0648 139.601 63.767 140.017 63.528C140.432 63.2891 140.874 63.1206 141.329 63.0262C140.8 62.3559 140.285 61.5904 139.811 60.769C139.337 59.9491 138.932 59.1212 138.614 58.3274C138.304 58.6739 137.936 58.9716 137.52 59.2098C137.104 59.4495 136.661 59.618 136.209 59.7116Z" fill="#113958"/>
<path d="M32.6131 65.127C32.4199 65.127 32.2326 65.0267 32.1295 64.8481C31.9755 64.5808 32.067 64.2403 32.3335 64.0863L37.5653 61.0695C37.8319 60.9141 38.1732 61.0085 38.3271 61.2736C38.481 61.5408 38.3896 61.8814 38.123 62.0354L32.8911 65.0522C32.8034 65.103 32.7074 65.127 32.6131 65.127Z" fill="#113958"/>
<path d="M37.8464 68.1465C37.6531 68.1465 37.4658 68.0463 37.3627 67.8677L32.1295 58.8101C31.9755 58.5435 32.067 58.2022 32.3335 58.0483C32.6022 57.8943 32.9414 57.9865 33.0953 58.2523L38.3286 67.3099C38.4826 67.5765 38.391 67.9178 38.1245 68.0717C38.0367 68.1226 37.9407 68.1465 37.8464 68.1465Z" fill="#113958"/>
<path d="M78.2981 161.599L71.0096 157.39L71.0081 154.944L89.7959 144.1L97.083 148.306L97.0843 150.752L78.2981 161.599Z" fill="white"/>
<path d="M78.2972 162.157C78.2006 162.157 78.1047 162.132 78.0183 162.083L70.7298 157.874C70.557 157.773 70.4509 157.589 70.4509 157.39L70.4495 154.944C70.4495 154.745 70.5555 154.56 70.7283 154.46L89.516 143.616C89.6888 143.517 89.9009 143.517 90.0738 143.616L97.3609 147.822C97.533 147.923 97.6397 148.107 97.6397 148.306L97.6412 150.752C97.6412 150.951 97.5351 151.135 97.3623 151.236L78.576 162.083C78.4896 162.132 78.3937 162.157 78.2972 162.157ZM71.5664 157.067L78.2972 160.956L96.5258 150.43L96.5243 148.629L89.795 144.743L71.565 155.266L71.5664 157.067Z" fill="#113958"/>
<path d="M78.2981 161.599L71.0096 157.389L71.0081 154.943L78.2981 159.153V161.599Z" fill="#FF8744"/>
<path d="M78.2972 162.157C78.2006 162.157 78.1047 162.132 78.0183 162.083L70.7298 157.873C70.557 157.773 70.4509 157.589 70.4509 157.39L70.4495 154.944C70.4495 154.745 70.5555 154.56 70.7283 154.462C70.9012 154.36 71.1132 154.361 71.2861 154.46L78.576 158.669C78.7489 158.77 78.8549 158.954 78.8549 159.153V161.599C78.8549 161.798 78.7489 161.982 78.576 162.083C78.4896 162.132 78.3937 162.157 78.2972 162.157ZM71.5664 157.067L77.7394 160.633V159.475L71.5656 155.91L71.5664 157.067Z" fill="#113958"/>
<path d="M78.2971 159.153L97.082 148.306L97.0833 150.752L78.2971 161.599V159.153Z" fill="#113958"/>
<path d="M78.2962 162.156C78.1996 162.156 78.1038 162.132 78.0174 162.082C77.8445 161.982 77.7385 161.798 77.7385 161.599V159.153C77.7385 158.954 77.8446 158.769 78.0174 158.669L96.8022 147.822C96.9751 147.723 97.1871 147.723 97.36 147.822C97.5321 147.922 97.6388 148.107 97.6388 148.306L97.6403 150.752C97.6403 150.951 97.5342 151.135 97.3614 151.235L78.5752 162.082C78.4887 162.132 78.3928 162.156 78.2962 162.156ZM78.8539 159.475V160.633L96.5247 150.429L96.524 149.272L78.8539 159.475Z" fill="#113958"/>
<path d="M64.4579 48.8006C67.9429 45.3156 67.9429 39.6653 64.4579 36.1803C60.9728 32.6953 55.3225 32.6953 51.8375 36.1803C48.3525 39.6653 48.3525 45.3156 51.8375 48.8006C55.3225 52.2857 60.9728 52.2857 64.4579 48.8006Z" fill="white"/>
<path d="M58.1498 51.9722C52.9216 51.9722 48.668 47.7187 48.668 42.4905C48.668 37.2623 52.9215 33.0088 58.1498 33.0088C63.3779 33.0088 67.6315 37.2623 67.6315 42.4905C67.6316 47.7187 63.3779 51.9722 58.1498 51.9722ZM58.1498 34.1242C53.5367 34.1242 49.7835 37.8774 49.7835 42.4904C49.7835 47.1035 53.5367 50.8567 58.1498 50.8567C62.7628 50.8567 66.516 47.1035 66.516 42.4904C66.516 37.8774 62.7628 34.1242 58.1498 34.1242Z" fill="#113958"/>
<path d="M58.1488 33.5664C57.7943 33.5664 57.4472 33.5926 57.103 33.6332C60.7357 34.2433 63.5098 37.3805 63.5098 41.1889C63.5098 45.4302 60.0689 48.8725 55.8248 48.8725C53.5023 48.8725 51.4442 47.818 50.0352 46.1883C51.4426 49.2705 54.5422 51.4144 58.1487 51.4144C63.0784 51.4144 67.0727 47.4173 67.0727 42.4904C67.0728 37.5606 63.0785 33.5664 58.1488 33.5664Z" fill="#FF8744"/>
<path d="M58.1479 51.9722C54.4514 51.9722 51.067 49.7928 49.5267 46.4202C49.412 46.1674 49.4998 45.869 49.7329 45.7194C49.9646 45.569 50.2725 45.6133 50.4562 45.8239C51.8252 47.4072 53.7817 48.315 55.8238 48.315C59.7535 48.315 62.9512 45.1181 62.9512 41.1892C62.9512 37.7076 60.4522 34.7613 57.0098 34.1831C56.7361 34.1374 56.5378 33.897 56.5443 33.6196C56.5516 33.3421 56.7608 33.1119 57.0367 33.0792C57.4027 33.0364 57.7709 33.0088 58.1478 33.0088C63.376 33.0088 67.6295 37.2623 67.6295 42.4905C67.6297 47.7187 63.3761 51.9722 58.1479 51.9722ZM52.6372 48.7724C54.1369 50.0891 56.0875 50.8567 58.1479 50.8567C62.761 50.8567 66.5141 47.1036 66.5141 42.4905C66.5141 38.7388 64.0318 35.5564 60.6237 34.4983C62.7305 35.998 64.0667 38.4504 64.0667 41.1891C64.0667 45.7332 60.3687 49.4305 55.824 49.4305C54.7193 49.4304 53.638 49.2023 52.6372 48.7724Z" fill="#113958"/>
<path d="M159.24 97.5392C159.233 94.7709 157.4 91.9995 153.737 89.8846C146.405 85.6522 134.528 85.6464 127.205 89.876C123.542 91.9908 121.713 94.765 121.719 97.5392V103.733C121.719 103.733 121.719 103.735 121.719 103.738V103.741C121.725 106.513 123.559 109.281 127.221 111.396C134.551 115.631 146.433 115.634 153.755 111.405C157.418 109.29 159.245 106.516 159.24 103.741V97.5392Z" fill="#FF8744"/>
<path d="M140.5 115.119C135.59 115.119 130.68 114.039 126.941 111.879C123.22 109.73 121.167 106.84 121.16 103.743V97.5393C121.154 94.4368 123.201 91.5427 126.925 89.393C134.387 85.0835 146.54 85.0864 154.015 89.4018C157.736 91.55 159.789 94.4389 159.797 97.5378C159.797 97.5385 159.797 97.5385 159.797 97.5393V103.741C159.803 106.845 157.755 109.739 154.033 111.887C150.303 114.042 145.402 115.119 140.5 115.119ZM140.455 87.2622C135.755 87.2622 131.058 88.2942 127.483 90.3589C124.12 92.3008 122.27 94.8506 122.276 97.5377V103.733C122.281 106.423 124.136 108.971 127.499 110.913C134.665 115.053 146.317 115.057 153.475 110.922C156.837 108.98 158.686 106.431 158.682 103.742V97.5406C158.675 94.8557 156.819 92.3088 153.457 90.3676C149.871 88.2978 145.161 87.2622 140.455 87.2622Z" fill="#113958"/>
<path d="M159.242 103.741V97.5391C159.235 94.7708 157.402 91.9994 153.738 89.8845C152.312 89.0625 150.712 88.403 149.008 87.9004V113.394C150.717 112.889 152.325 112.232 153.756 111.404C157.419 109.29 159.246 106.515 159.242 103.741Z" fill="#113958"/>
<path d="M149.007 113.952C148.888 113.952 148.771 113.915 148.673 113.841C148.532 113.736 148.449 113.57 148.449 113.395V87.9007C148.449 87.7249 148.532 87.5594 148.673 87.4541C148.814 87.348 148.998 87.3161 149.165 87.3654C150.958 87.8949 152.59 88.5797 154.016 89.4018C157.737 91.55 159.791 94.439 159.799 97.5379V103.741C159.804 106.845 157.757 109.739 154.034 111.888C152.622 112.705 150.984 113.392 149.165 113.929C149.113 113.945 149.06 113.952 149.007 113.952ZM149.565 88.6581V112.637C151.014 112.163 152.327 111.587 153.475 110.922C156.838 108.98 158.688 106.431 158.683 103.742V103.741V97.5393C158.676 94.8559 156.821 92.309 153.459 90.3678C152.3 89.6996 150.993 89.1266 149.565 88.6581Z" fill="#113958"/>
<path d="M153.756 105.203C161.076 100.976 161.069 94.1172 153.738 89.8846C146.406 85.6522 134.529 85.6464 127.206 89.876C119.884 94.1056 119.89 100.961 127.222 105.194C134.553 109.429 146.434 109.432 153.756 105.203Z" fill="white"/>
<path d="M140.501 108.917C135.592 108.917 130.682 107.837 126.942 105.677C123.214 103.525 121.161 100.631 121.16 97.5284C121.16 94.4302 123.207 91.5412 126.926 89.393C134.389 85.0835 146.541 85.0864 154.017 89.4018C157.745 91.5543 159.798 94.4492 159.798 97.5531C159.798 100.651 157.751 103.539 154.034 105.685C150.305 107.84 145.403 108.917 140.501 108.917ZM140.456 87.2623C135.756 87.2623 131.06 88.2943 127.484 90.359C124.125 92.2994 122.276 94.8456 122.276 97.5284C122.276 100.215 124.132 102.766 127.5 104.711C134.665 108.85 146.317 108.855 153.476 104.72C156.834 102.781 158.683 100.236 158.683 97.5531C158.683 94.8646 156.828 92.3126 153.459 90.3677C149.873 88.2979 145.163 87.2623 140.456 87.2623Z" fill="#113958"/>
<path d="M139.092 99.8426C139.615 99.5405 139.883 99.2123 139.899 98.855C139.915 98.5006 139.686 98.0184 139.212 97.4054C138.255 96.2927 137.748 95.3488 137.697 94.5759C137.646 93.8003 138.204 93.077 139.372 92.4001C140.447 91.7785 141.68 91.4705 143.061 91.4764C144.444 91.4821 145.792 91.796 147.108 92.4148L149.156 91.2324L150.68 92.1127L148.602 93.3095C149.593 94.0676 150.045 94.8462 149.959 95.6479C149.875 96.4497 149.231 97.1846 148.033 97.8587L147.965 97.8731L145.234 96.2958C145.93 95.8949 146.306 95.494 146.364 95.096C146.421 94.6981 146.165 94.335 145.597 94.0067C144.996 93.6611 144.405 93.5012 143.824 93.5245C143.243 93.5507 142.689 93.7162 142.161 94.0213C141.667 94.306 141.418 94.6138 141.408 94.9478C141.4 95.2819 141.628 95.7787 142.094 96.4382C143.054 97.5217 143.551 98.4601 143.586 99.2501C143.622 100.04 143.06 100.772 141.899 101.441C140.788 102.082 139.552 102.396 138.194 102.379C136.833 102.364 135.492 102.048 134.171 101.423L132.285 102.51L130.762 101.632L132.647 100.543C131.53 99.7731 130.929 98.9567 130.846 98.094C130.76 97.2312 131.416 96.412 132.805 95.6393L132.891 95.6219L135.613 97.1934C134.797 97.664 134.413 98.1172 134.466 98.55C134.515 98.98 134.861 99.3778 135.5 99.7468C136.126 100.11 136.747 100.293 137.368 100.296C137.986 100.299 138.561 100.148 139.092 99.8426Z" fill="#113958"/>
<path d="M141.21 115.123C140.902 115.123 140.652 114.874 140.652 114.566V108.364C140.652 108.056 140.902 107.806 141.21 107.806C141.518 107.806 141.768 108.056 141.768 108.364V114.566C141.768 114.874 141.518 115.123 141.21 115.123ZM137.312 114.975C137.004 114.975 136.754 114.725 136.754 114.417V108.215C136.754 107.907 137.004 107.658 137.312 107.658C137.62 107.658 137.869 107.907 137.869 108.215V114.417C137.869 114.725 137.62 114.975 137.312 114.975ZM145.109 114.801C144.801 114.801 144.551 114.551 144.551 114.243V108.041C144.551 107.733 144.801 107.483 145.109 107.483C145.417 107.483 145.666 107.733 145.666 108.041V114.243C145.666 114.551 145.417 114.801 145.109 114.801ZM133.413 114.333C133.105 114.333 132.856 114.083 132.856 113.775V107.573C132.856 107.265 133.105 107.016 133.413 107.016C133.721 107.016 133.971 107.265 133.971 107.573V113.775C133.971 114.083 133.721 114.333 133.413 114.333ZM129.515 113.084C129.207 113.084 128.957 112.834 128.957 112.526V106.324C128.957 106.016 129.207 105.766 129.515 105.766C129.823 105.766 130.073 106.016 130.073 106.324V112.526C130.073 112.834 129.823 113.084 129.515 113.084ZM125.616 110.897C125.308 110.897 125.059 110.647 125.059 110.339V104.137C125.059 103.829 125.308 103.579 125.616 103.579C125.924 103.579 126.174 103.829 126.174 104.137V110.339C126.174 110.647 125.924 110.897 125.616 110.897Z" fill="#113958"/>
<path d="M131.56 85.4748C130.168 83.0783 127.197 81.5967 122.966 81.5967C114.501 81.5967 104.211 87.5314 99.9844 94.8548C97.8696 98.5179 97.672 101.835 99.0651 104.235L102.16 109.597C102.162 109.597 102.162 109.6 102.163 109.6L102.166 109.606C103.556 112 106.529 113.484 110.757 113.484C119.224 113.484 129.515 107.547 133.741 100.223C135.856 96.56 136.051 93.2455 134.661 90.846L131.56 85.4748Z" fill="#FF8744"/>
<path d="M110.759 114.042C106.464 114.042 103.241 112.567 101.685 109.887L98.5834 104.514C97.0256 101.831 97.3524 98.301 99.5028 94.5761C103.811 87.1118 114.337 81.0391 122.967 81.0391C127.264 81.0391 130.488 82.5147 132.043 85.1945C132.043 85.1952 132.044 85.1952 132.044 85.196L135.145 90.5673C136.701 93.2522 136.374 96.781 134.226 100.502C129.917 107.968 119.389 114.042 110.759 114.042ZM122.967 82.1546C114.692 82.1546 104.6 87.9768 100.469 95.1339C98.5268 98.4986 98.1999 101.631 99.5486 103.955L102.645 109.319C103.998 111.648 106.878 112.927 110.759 112.927C119.034 112.927 129.128 107.103 133.26 99.9445C135.2 96.5834 135.527 93.4512 134.179 91.1258L131.079 85.7552C129.731 83.4335 126.85 82.1546 122.967 82.1546Z" fill="#113958"/>
<path d="M134.662 90.846L131.561 85.4748C130.17 83.0783 127.198 81.5967 122.967 81.5967C121.321 81.5967 119.606 81.8262 117.879 82.2416L130.626 104.319C131.855 103.029 132.918 101.655 133.743 100.223C135.858 96.56 136.052 93.2455 134.662 90.846Z" fill="#113958"/>
<path d="M130.625 104.877C130.603 104.877 130.581 104.876 130.559 104.873C130.385 104.852 130.23 104.751 130.142 104.598L117.395 82.5206C117.307 82.368 117.296 82.1836 117.365 82.0216C117.435 81.8597 117.577 81.7406 117.747 81.6992C119.569 81.2613 121.325 81.0391 122.966 81.0391C127.263 81.0391 130.487 82.5147 132.042 85.1945L135.144 90.5673C136.7 93.2529 136.373 96.781 134.225 100.502C133.406 101.923 132.331 103.337 131.029 104.704C130.923 104.815 130.777 104.877 130.625 104.877ZM118.74 82.6194L130.729 103.385C131.743 102.256 132.592 101.101 133.259 99.9452C135.199 96.5834 135.526 93.4512 134.178 91.1258V91.1251L131.077 85.7539C129.73 83.4336 126.849 82.1546 122.966 82.1546C121.632 82.1546 120.213 82.3107 118.74 82.6194Z" fill="#113958"/>
<path d="M130.64 94.852C134.867 87.5314 131.432 81.5967 122.966 81.5967C114.501 81.5967 104.211 87.5314 99.9844 94.8548C95.7577 102.178 99.1914 108.113 107.656 108.113C116.123 108.113 126.414 102.175 130.64 94.852Z" fill="white"/>
<path d="M107.657 108.671C103.353 108.671 100.128 107.192 98.5764 104.505C97.0266 101.821 97.3556 98.2952 99.5024 94.5761C103.81 87.1118 114.336 81.0391 122.966 81.0391C127.273 81.0391 130.499 82.5191 132.051 85.2069C133.599 87.8896 133.27 91.4141 131.124 95.1309C126.815 102.597 116.288 108.671 107.657 108.671ZM122.966 82.1545C114.692 82.1545 104.599 87.9767 100.468 95.1338C98.5291 98.4934 98.2002 101.624 99.5423 103.947C100.886 106.274 103.768 107.555 107.657 107.555C115.933 107.555 126.027 101.732 130.158 94.5732C132.097 91.2158 132.425 88.0879 131.084 85.7647C129.741 83.4363 126.858 82.1545 122.966 82.1545Z" fill="#113958"/>
<path d="M115.262 97.5421C115.564 97.0191 115.633 96.6009 115.468 96.2842C115.304 95.9704 114.864 95.6654 114.148 95.3721C112.762 94.8869 111.851 94.3205 111.421 93.6785C110.988 93.0335 111.11 92.1272 111.783 90.9565C112.405 89.8817 113.317 88.9985 114.516 88.313C115.718 87.6275 117.041 87.2237 118.489 87.1016L119.674 85.0537H121.432L120.233 87.1308C121.469 87.2905 122.249 87.7379 122.576 88.4758C122.905 89.2137 122.716 90.1722 122.013 91.3545L121.96 91.4011H118.808C119.211 90.7038 119.336 90.1692 119.188 89.7974C119.037 89.4228 118.634 89.2368 117.978 89.2368C117.285 89.2368 116.692 89.3938 116.201 89.7045C115.71 90.0183 115.315 90.4395 115.009 90.9653C114.724 91.4621 114.662 91.8513 114.821 92.1448C114.981 92.441 115.427 92.7547 116.161 93.0946C117.533 93.5535 118.432 94.1172 118.858 94.7824C119.285 95.4505 119.163 96.3627 118.492 97.5246C117.851 98.6344 116.938 99.5233 115.754 100.189C114.567 100.857 113.247 101.252 111.79 101.371L110.702 103.256H108.943L110.031 101.374C108.678 101.263 107.749 100.857 107.245 100.151C106.741 99.4478 106.898 98.4108 107.716 97.0454L107.781 96.9873H110.926C110.454 97.8036 110.346 98.3874 110.609 98.736C110.866 99.0847 111.366 99.256 112.104 99.256C112.826 99.256 113.457 99.1049 113.995 98.7971C114.533 98.489 114.955 98.0707 115.262 97.5421Z" fill="#113958"/>
<path d="M108.843 113.929C108.65 113.929 108.463 113.828 108.359 113.65L105.258 108.279C105.104 108.012 105.196 107.671 105.462 107.517C105.73 107.362 106.072 107.455 106.224 107.721L109.325 113.092C109.479 113.359 109.388 113.7 109.121 113.854C109.033 113.905 108.937 113.929 108.843 113.929ZM113.312 113.871C113.119 113.871 112.932 113.77 112.829 113.592L109.728 108.22C109.574 107.954 109.665 107.613 109.932 107.459C110.2 107.305 110.54 107.397 110.693 107.663L113.794 113.034C113.948 113.3 113.857 113.642 113.59 113.796C113.503 113.847 113.407 113.871 113.312 113.871ZM117.312 113.005C117.119 113.005 116.932 112.905 116.829 112.726L113.728 107.355C113.574 107.088 113.665 106.747 113.932 106.593C114.2 106.438 114.54 106.532 114.694 106.797L117.795 112.168C117.949 112.435 117.857 112.776 117.591 112.93C117.503 112.981 117.407 113.005 117.312 113.005ZM121.009 111.611C120.816 111.611 120.628 111.51 120.525 111.332L117.424 105.96C117.27 105.694 117.362 105.353 117.628 105.199C117.896 105.044 118.237 105.137 118.39 105.403L121.491 110.774C121.645 111.04 121.554 111.382 121.287 111.536C121.199 111.587 121.103 111.611 121.009 111.611ZM124.46 109.792C124.267 109.792 124.08 109.692 123.976 109.513L120.875 104.142C120.721 103.875 120.813 103.534 121.079 103.38C121.347 103.225 121.688 103.318 121.841 103.584L124.942 108.955C125.096 109.222 125.005 109.563 124.738 109.717C124.65 109.768 124.554 109.792 124.46 109.792ZM127.676 107.564C127.483 107.564 127.295 107.464 127.192 107.285L124.091 101.914C123.937 101.647 124.029 101.306 124.295 101.152C124.562 100.997 124.903 101.09 125.057 101.356L128.158 106.727C128.312 106.994 128.221 107.335 127.954 107.489C127.866 107.54 127.77 107.564 127.676 107.564Z" fill="#113958"/>
<path d="M118.634 59.835L83.8085 39.7285C80.2761 41.7691 77.4117 46.7206 77.4117 50.7934L77.4104 103.57L64.5312 111.007C64.5312 113.067 65.2516 114.537 66.4179 115.241L66.4165 115.244L101.235 135.346L101.237 135.342C102.419 136.061 104.057 135.993 105.873 134.945C109.471 132.868 112.238 127.821 112.238 123.677V70.8986H112.236C112.238 66.8273 115.102 61.8758 118.634 59.835Z" fill="white"/>
<path d="M103.007 136.379C102.285 136.379 101.611 136.206 101.012 135.857C100.993 135.848 100.974 135.84 100.956 135.83L66.1368 115.727C66.1143 115.714 66.0932 115.7 66.0737 115.684C64.7178 114.833 63.9727 113.176 63.9727 111.007C63.9727 110.808 64.0787 110.623 64.2515 110.524L76.8517 103.248L76.8532 50.793C76.8532 46.5518 79.8475 41.3715 83.5287 39.2451C83.7015 39.1449 83.9136 39.1449 84.0864 39.2451L118.912 59.3516C119.085 59.4512 119.191 59.6356 119.191 59.8346C119.191 60.0336 119.085 60.2181 118.912 60.3176C115.54 62.2661 112.795 67.0128 112.793 70.8981L112.795 123.677C112.795 128.115 109.877 133.278 106.151 135.429C105.054 136.06 103.986 136.379 103.007 136.379ZM101.452 134.827C101.478 134.837 101.502 134.851 101.526 134.865C102.583 135.507 104.028 135.365 105.593 134.461C108.949 132.525 111.679 127.687 111.679 123.677V70.8981C111.679 66.9656 114.254 62.2254 117.565 59.8615L83.8134 40.3758C80.5664 42.4165 77.9686 47.0121 77.9686 50.7929L77.9671 103.57C77.9671 103.769 77.8611 103.953 77.6883 104.053L65.0946 111.325C65.1585 112.957 65.725 114.171 66.7054 114.764C66.7199 114.772 66.733 114.781 66.7468 114.79L101.452 134.827Z" fill="#113958"/>
<path d="M108.369 100.376C108.275 100.376 108.179 100.352 108.091 100.301L95.9223 93.2759C95.6557 93.1219 95.5643 92.7805 95.7182 92.514C95.8715 92.2482 96.2121 92.156 96.48 92.3099L108.649 99.3355C108.915 99.4895 109.007 99.8309 108.853 100.097C108.75 100.276 108.562 100.376 108.369 100.376ZM108.369 95.923C108.275 95.923 108.179 95.899 108.091 95.8482L99.7874 91.0536C99.5209 90.8996 99.4293 90.5582 99.5833 90.2917C99.7366 90.0252 100.077 89.9322 100.345 90.0876L108.649 94.8822C108.916 95.0362 109.007 95.3775 108.853 95.6441C108.75 95.8228 108.562 95.923 108.369 95.923ZM92.498 91.2126C92.4037 91.2126 92.3077 91.1886 92.2199 91.1378L80.9937 84.6569C80.7272 84.5029 80.6356 84.1616 80.7896 83.8951C80.9429 83.6292 81.2842 83.537 81.5514 83.6909L92.7777 90.1719C93.0442 90.3258 93.1357 90.6671 92.9817 90.9337C92.8786 91.1124 92.6913 91.2126 92.498 91.2126ZM96.3616 88.9903C96.2672 88.9903 96.1714 88.9664 96.0835 88.9155L80.9937 80.2036C80.7272 80.0496 80.6356 79.7083 80.7896 79.4418C80.9429 79.1759 81.2842 79.0837 81.5514 79.2377L96.6412 87.9496C96.9077 88.1036 96.9993 88.445 96.8453 88.7115C96.7422 88.8901 96.5548 88.9903 96.3616 88.9903Z" fill="#113958"/>
<path d="M108.369 87.0206C108.275 87.0206 108.179 86.9965 108.091 86.9457L95.9223 79.9201C95.6557 79.7661 95.5643 79.4248 95.7182 79.1583C95.8715 78.8925 96.2121 78.8003 96.48 78.9543L108.649 85.9799C108.915 86.1338 109.007 86.4752 108.853 86.7417C108.75 86.9203 108.562 87.0206 108.369 87.0206ZM108.369 82.5716C108.275 82.5716 108.179 82.5477 108.091 82.4968L99.7859 77.7022C99.5193 77.5482 99.4279 77.2069 99.5818 76.9404C99.7358 76.6746 100.077 76.5816 100.344 76.7363L108.649 81.5309C108.915 81.6849 109.007 82.0262 108.853 82.2927C108.75 82.4714 108.562 82.5716 108.369 82.5716ZM92.498 77.8569C92.4037 77.8569 92.3077 77.833 92.2199 77.7821L80.9937 71.3011C80.7272 71.1472 80.6356 70.8059 80.7896 70.5393C80.9429 70.2728 81.2842 70.1813 81.5514 70.3353L92.7777 76.8162C93.0442 76.9702 93.1357 77.3115 92.9817 77.578C92.8786 77.7567 92.6913 77.8569 92.498 77.8569ZM96.3616 75.6404C96.2672 75.6404 96.1714 75.6165 96.0835 75.5656L80.9937 66.8522C80.7272 66.6982 80.6356 66.3569 80.7896 66.0904C80.9429 65.8238 81.2842 65.7301 81.5514 65.8863L96.6412 74.5997C96.9077 74.7537 96.9993 75.095 96.8453 75.3615C96.7422 75.5402 96.5548 75.6404 96.3616 75.6404Z" fill="#113958"/>
<path d="M108.369 73.6655C108.275 73.6655 108.179 73.6415 108.091 73.5906L95.9223 66.565C95.6557 66.411 95.5643 66.0697 95.7182 65.8032C95.8715 65.5366 96.2121 65.443 96.48 65.5991L108.649 72.6247C108.915 72.7787 109.007 73.12 108.853 73.3865C108.75 73.5652 108.562 73.6655 108.369 73.6655ZM108.369 69.2165C108.275 69.2165 108.179 69.1925 108.091 69.1417L99.7859 64.3471C99.5193 64.1931 99.4279 63.8518 99.5818 63.5853C99.7358 63.3195 100.077 63.2265 100.344 63.3812L108.649 68.1759C108.915 68.3299 109.007 68.6712 108.853 68.9377C108.75 69.1163 108.562 69.2165 108.369 69.2165ZM92.498 64.5018C92.4037 64.5018 92.3077 64.4778 92.2199 64.427L80.9937 57.946C80.7272 57.792 80.6356 57.4507 80.7896 57.1842C80.9429 56.9176 81.2842 56.8247 81.5514 56.9801L92.7777 63.461C93.0442 63.615 93.1357 63.9563 92.9817 64.2229C92.8786 64.4016 92.6913 64.5018 92.498 64.5018ZM96.3616 62.2839C96.2672 62.2839 96.1714 62.2599 96.0835 62.209L80.9951 53.497C80.7286 53.3431 80.6371 53.0018 80.7911 52.7352C80.945 52.4701 81.2863 52.3757 81.5529 52.5312L96.6412 61.2431C96.9077 61.3971 96.9993 61.7384 96.8453 62.0049C96.7422 62.1836 96.5548 62.2839 96.3616 62.2839Z" fill="#113958"/>
<path d="M108.369 113.732C108.275 113.732 108.179 113.708 108.091 113.657L95.9223 106.631C95.6557 106.477 95.5643 106.136 95.7182 105.87C95.8715 105.604 96.2121 105.511 96.48 105.665L108.649 112.691C108.915 112.845 109.007 113.186 108.853 113.453C108.75 113.631 108.562 113.732 108.369 113.732ZM108.369 109.278C108.275 109.278 108.179 109.255 108.091 109.204L99.7874 104.409C99.5209 104.255 99.4293 103.914 99.5833 103.647C99.7366 103.382 100.077 103.288 100.345 103.443L108.649 108.238C108.916 108.392 109.007 108.733 108.853 109C108.75 109.178 108.562 109.278 108.369 109.278ZM92.4966 104.568C92.4022 104.568 92.3063 104.544 92.2184 104.493L80.9952 98.0108C80.7287 97.8568 80.6372 97.5155 80.7912 97.249C80.9451 96.9832 81.2864 96.8895 81.553 97.0449L92.7763 103.527C93.0428 103.681 93.1343 104.023 92.9804 104.289C92.8772 104.468 92.6898 104.568 92.4966 104.568ZM96.3616 102.346C96.2672 102.346 96.1714 102.322 96.0835 102.271L80.9937 93.5591C80.7272 93.4051 80.6356 93.0637 80.7896 92.7972C80.9429 92.5314 81.2842 92.4392 81.5514 92.5931L96.6412 101.305C96.9077 101.459 96.9993 101.8 96.8453 102.067C96.7422 102.246 96.5548 102.346 96.3616 102.346Z" fill="#113958"/>
<path d="M108.369 122.664C108.275 122.664 108.179 122.64 108.091 122.589L99.7874 117.795C99.5209 117.641 99.4293 117.299 99.5833 117.033C99.7366 116.766 100.077 116.673 100.345 116.829L108.649 121.623C108.916 121.777 109.007 122.119 108.853 122.385C108.75 122.564 108.562 122.664 108.369 122.664ZM96.3616 115.732C96.2672 115.732 96.1714 115.708 96.0835 115.657L80.9937 106.945C80.7272 106.791 80.6356 106.449 80.7896 106.183C80.9429 105.917 81.2842 105.825 81.5514 105.979L96.6412 114.691C96.9077 114.845 96.9993 115.186 96.8453 115.453C96.7422 115.631 96.5548 115.732 96.3616 115.732Z" fill="#113958"/>
<path d="M107.359 126.685C107.264 126.685 107.168 126.66 107.08 126.611L94.9116 119.585C94.645 119.431 94.5535 119.089 94.7075 118.823C94.8614 118.557 95.2006 118.464 95.4693 118.619L107.638 125.644C107.905 125.798 107.996 126.139 107.842 126.406C107.739 126.585 107.552 126.685 107.359 126.685ZM91.4873 117.521C91.393 117.521 91.297 117.497 91.2092 117.447L79.9859 110.964C79.7193 110.81 79.6278 110.469 79.7818 110.202C79.9358 109.936 80.2771 109.843 80.5436 109.998L91.7669 116.481C92.0334 116.635 92.1249 116.976 91.9709 117.242C91.8679 117.421 91.6806 117.521 91.4873 117.521Z" fill="#113958"/>
<path d="M99.3576 131.113V91.0507H99.3561C99.3561 89.0375 98.6328 87.6301 97.4737 86.9678L97.4752 86.9648L62.6579 66.8626L62.6551 66.8669C61.496 66.1988 59.8996 66.2859 58.1523 67.2621L64.5317 70.9454L64.5301 111.008H64.5317C64.5317 113.067 65.252 114.536 66.4184 115.24L66.417 115.243L101.236 135.345L101.237 135.341C100.075 134.635 99.3576 133.167 99.3576 131.113Z" fill="#FF8744"/>
<path d="M101.232 135.902C101.136 135.902 101.041 135.877 100.956 135.829L66.1372 115.726C66.1147 115.713 66.0936 115.7 66.074 115.684C64.7181 114.833 63.973 113.176 63.973 111.008V71.2677L57.8726 67.7454C57.699 67.6452 57.5923 67.4592 57.5938 67.2588C57.5952 67.0577 57.7042 66.8732 57.8791 66.7758C59.7231 65.7446 61.4886 65.5913 62.8618 66.3444C62.8872 66.3539 62.9119 66.3662 62.936 66.38L97.7533 86.4823C97.7714 86.4932 97.7895 86.5041 97.8063 86.5165C99.1651 87.3255 99.9131 88.9319 99.9131 91.0511L99.9146 131.113C99.9146 132.901 100.487 134.233 101.526 134.865C101.748 135 101.848 135.27 101.766 135.517C101.713 135.677 101.59 135.806 101.434 135.866C101.368 135.89 101.3 135.902 101.232 135.902ZM66.7473 114.79L99.1679 133.508C98.9254 132.81 98.799 132.005 98.799 131.113V91.0511C98.7975 89.3205 98.2282 88.0423 97.1962 87.4525C97.178 87.4416 97.1599 87.4301 97.1431 87.4184L62.4436 67.3837C62.4204 67.3743 62.3979 67.3634 62.3754 67.3504C61.562 66.882 60.5111 66.8725 59.3528 67.3118L64.8097 70.4629C64.9826 70.5624 65.0886 70.7469 65.0886 70.9458L65.0871 111.008C65.0886 112.8 65.663 114.133 66.7059 114.763C66.7204 114.771 66.7342 114.781 66.7473 114.79Z" fill="#113958"/>
<path d="M97.4726 86.9687L97.4741 86.9657L62.6568 66.8636L62.654 66.8678C61.4716 66.1867 59.8346 66.2854 58.0467 67.3167C54.5142 69.3575 51.65 74.3103 51.65 78.3831L51.6484 111.886L86.4745 131.994L86.476 98.4868H86.4745C86.476 94.4155 89.3401 89.4641 92.8725 87.4235C94.6592 86.3921 96.2946 86.2934 97.4756 86.9716C97.4741 86.9715 97.4741 86.9687 97.4726 86.9687Z" fill="white"/>
<path d="M86.4735 132.551C86.377 132.551 86.2811 132.527 86.1947 132.477L51.3687 112.368C51.1958 112.269 51.0898 112.084 51.0898 111.885L51.0913 78.3827C51.0913 74.1408 54.0856 68.9598 57.7668 66.8334C59.65 65.7477 61.4539 65.5748 62.8606 66.3447C62.8853 66.3541 62.9107 66.3665 62.9348 66.3803L97.7521 86.4825C98.0077 86.63 98.1043 86.9509 97.9721 87.2146C97.9031 87.3526 97.7818 87.4578 97.6351 87.5021C97.4892 87.5465 97.3308 87.5305 97.1965 87.4549C96.1412 86.8478 94.7048 87.0083 93.1507 87.9059C89.778 89.8544 87.0328 94.6011 87.0314 98.4865V131.994C87.0314 132.193 86.9253 132.377 86.7525 132.477C86.666 132.527 86.5701 132.551 86.4735 132.551ZM52.2053 111.564L85.9158 131.028L85.9173 98.4865C85.9173 94.2459 88.9115 89.0664 92.5928 86.94C93.3517 86.5014 94.099 86.2124 94.8114 86.0729L62.4424 67.3839C62.4191 67.3745 62.3966 67.3636 62.3748 67.3505C61.3174 66.7419 59.881 66.9017 58.3246 67.7993C54.9513 69.7486 52.2068 74.496 52.2068 78.3828L52.2053 111.564Z" fill="#113958"/>
<path d="M82.6089 108.692C82.5145 108.692 82.4187 108.668 82.3308 108.617L70.1619 101.591C69.8954 101.437 69.8039 101.096 69.9578 100.83C70.1111 100.563 70.4517 100.472 70.7197 100.625L82.8885 107.651C83.155 107.805 83.2466 108.146 83.0926 108.413C82.9895 108.592 82.8021 108.692 82.6089 108.692ZM82.6089 104.24C82.5145 104.24 82.4187 104.216 82.3308 104.165L74.0269 99.3691C73.7604 99.2152 73.6689 98.8738 73.8229 98.6073C73.9761 98.3415 74.316 98.2486 74.5847 98.4033L82.8885 103.199C83.155 103.353 83.2465 103.695 83.0925 103.961C82.9895 104.14 82.8021 104.24 82.6089 104.24ZM66.7377 99.5281C66.6434 99.5281 66.5475 99.5042 66.4596 99.4533L55.2334 92.9724C54.9669 92.8183 54.8753 92.477 55.0293 92.2105C55.1833 91.9455 55.5232 91.8503 55.7912 92.0065L67.0173 98.4874C67.2839 98.6414 67.3753 98.9828 67.2214 99.2493C67.1183 99.428 66.931 99.5281 66.7377 99.5281ZM70.6013 97.3073C70.5069 97.3073 70.4111 97.2833 70.3232 97.2325L55.232 88.5206C54.9654 88.3666 54.8739 88.0253 55.0279 87.7588C55.1811 87.493 55.521 87.3994 55.7897 87.5547L70.8809 96.2667C71.1475 96.4206 71.2389 96.7619 71.085 97.0285C70.9819 97.2071 70.7945 97.3073 70.6013 97.3073Z" fill="#113958"/>
<path d="M84.045 90.8535C83.9506 90.8535 83.8547 90.8296 83.7668 90.7787L75.463 85.9826C75.1965 85.8287 75.105 85.4873 75.2589 85.2208C75.4114 84.9542 75.7535 84.8613 76.0207 85.0167L84.3245 89.8128C84.5911 89.9668 84.6826 90.3081 84.5286 90.5746C84.4256 90.7533 84.2382 90.8535 84.045 90.8535ZM72.0374 83.9209C71.943 83.9209 71.8471 83.897 71.7592 83.8461L56.6695 75.1341C56.4029 74.9801 56.3114 74.6388 56.4654 74.3723C56.6186 74.1057 56.9585 74.0128 57.2272 74.1682L72.3169 82.8802C72.5835 83.0342 72.675 83.3755 72.521 83.642C72.418 83.8207 72.2306 83.9209 72.0374 83.9209Z" fill="#113958"/>
<path d="M82.6075 95.3058C82.5131 95.3058 82.4173 95.2819 82.3293 95.231L70.1605 88.2054C69.8939 88.0514 69.8025 87.7101 69.9564 87.4436C70.1097 87.1778 70.4503 87.0855 70.7182 87.2395L82.8871 94.2651C83.1536 94.4191 83.2452 94.7604 83.0912 95.0269C82.988 95.2056 82.8006 95.3058 82.6075 95.3058ZM66.7363 86.1422C66.6419 86.1422 66.5461 86.1181 66.4582 86.0673L55.2319 79.5864C54.9654 79.4324 54.8739 79.0911 55.0279 78.8246C55.1818 78.5588 55.5218 78.4665 55.7897 78.6205L67.0159 85.1014C67.2824 85.2553 67.3739 85.5967 67.22 85.8632C67.1168 86.0419 66.9295 86.1422 66.7363 86.1422Z" fill="#113958"/>
<path d="M82.6075 122.047C82.5131 122.047 82.4173 122.023 82.3293 121.973L70.1605 114.947C69.8939 114.793 69.8025 114.452 69.9564 114.185C70.1097 113.919 70.4503 113.827 70.7182 113.981L82.8871 121.007C83.1536 121.161 83.2452 121.502 83.0912 121.769C82.988 121.947 82.8006 122.047 82.6075 122.047ZM82.6075 117.594C82.5131 117.594 82.4173 117.57 82.3293 117.519L74.0255 112.725C73.759 112.571 73.6675 112.229 73.8215 111.963C73.9747 111.696 74.3146 111.603 74.5833 111.759L82.887 116.553C83.1535 116.707 83.2451 117.049 83.0911 117.315C82.988 117.494 82.8006 117.594 82.6075 117.594ZM66.7363 112.884C66.6419 112.884 66.5461 112.86 66.4582 112.809L55.2319 106.328C54.9654 106.174 54.8739 105.833 55.0279 105.566C55.1818 105.3 55.5218 105.208 55.7897 105.362L67.0159 111.843C67.2824 111.997 67.3739 112.338 67.22 112.605C67.1168 112.784 66.9295 112.884 66.7363 112.884ZM70.6014 110.662C70.507 110.662 70.4111 110.638 70.3232 110.587L55.232 101.876C54.9655 101.722 54.874 101.381 55.028 101.114C55.1819 100.848 55.5218 100.755 55.7898 100.91L70.881 109.621C71.1475 109.775 71.239 110.116 71.085 110.383C70.9819 110.561 70.7945 110.662 70.6014 110.662Z" fill="#113958"/>
<path d="M57.7345 99.2521L35.256 86.2727C34.1972 85.6628 33.2414 85.5973 32.5355 85.9765L32.5298 85.9677L29.9066 87.4827C29.1964 87.8908 28.7578 88.7652 28.7578 90.0114L28.7592 103.865C28.7592 106.359 30.5138 109.395 32.6795 110.645L39.0195 114.306L43.9187 123.494L46.4953 122.006L49.1042 120.128L55.1594 123.622C56.2169 124.235 57.1726 124.297 57.8786 123.921L57.8829 123.928L57.9293 123.902C57.9293 123.9 57.9307 123.9 57.9323 123.899L60.5046 122.415C61.2163 122.006 61.6564 121.13 61.6564 119.883V106.031C61.6547 103.54 59.8988 100.501 57.7345 99.2521Z" fill="#FF8744"/>
<path d="M56.9015 124.714C56.2661 124.714 55.5776 124.509 54.879 124.104L49.1366 120.791L46.8207 122.459L44.1968 123.977C44.0653 124.051 43.9092 124.07 43.7647 124.03C43.6194 123.989 43.4967 123.89 43.4255 123.757L38.6018 114.708L32.3998 111.128C30.0454 109.768 28.2008 106.578 28.2008 103.865L28.1992 90.0112C28.1992 88.5979 28.7068 87.5282 29.6277 86.9987L32.2502 85.4845C32.2916 85.4605 32.3345 85.4424 32.3787 85.4301C33.2741 85.0045 34.3889 85.1301 35.5335 85.7896L58.0127 98.7689C60.3665 100.128 62.2118 103.317 62.2133 106.03V119.883C62.2133 121.297 61.7049 122.369 60.7811 122.898L58.2102 124.383C58.1797 124.4 58.1478 124.415 58.1143 124.426C57.744 124.618 57.3351 124.714 56.9015 124.714ZM49.1032 119.57C49.199 119.57 49.2957 119.595 49.3821 119.645L55.4374 123.139C56.2791 123.626 57.0518 123.729 57.6154 123.428C57.6386 123.415 57.6626 123.405 57.6873 123.396L60.2248 121.932C60.7883 121.608 61.0977 120.881 61.0977 119.883V106.031C61.0962 103.718 59.4622 100.893 57.4549 99.7348L34.9764 86.7555C34.1326 86.2689 33.3605 86.1673 32.7985 86.4679C32.7716 86.4824 32.7433 86.494 32.715 86.5042L30.1847 87.9654C29.6233 88.2878 29.3147 89.0141 29.3147 90.0112L29.3162 103.865C29.3162 106.178 30.9495 109.002 32.9575 110.162L39.2976 113.822C39.3877 113.875 39.4617 113.951 39.5111 114.043L44.1387 122.722L46.2158 121.523L48.7772 119.676C48.8745 119.606 48.9885 119.57 49.1032 119.57Z" fill="#113958"/>
<path d="M39.2734 114.785L43.9169 123.494L46.4936 122.006L49.1024 120.128L55.1576 123.621C56.2151 124.235 57.1708 124.297 57.8768 123.921L57.8811 123.928L57.9275 123.902C57.9275 123.9 57.9289 123.9 57.9305 123.899L60.5028 122.414C61.2145 122.006 61.6546 121.13 61.6546 119.883V106.031C61.653 104.874 61.2654 103.605 60.6436 102.447L39.2734 114.785Z" fill="#113958"/>
<path d="M56.8998 124.714C56.2643 124.714 55.5759 124.509 54.8772 124.104L49.1348 120.792L46.8189 122.459L44.195 123.978C44.0636 124.052 43.9074 124.071 43.763 124.03C43.6177 123.989 43.4949 123.891 43.4238 123.757L38.7803 115.047C38.6394 114.782 38.7331 114.452 38.9937 114.302L60.364 101.965C60.494 101.889 60.6487 101.87 60.7954 101.911C60.9406 101.952 61.0626 102.051 61.1345 102.184C61.8274 103.475 62.2101 104.841 62.2116 106.03V119.883C62.2116 121.298 61.7032 122.369 60.7794 122.899L58.2086 124.383C58.178 124.4 58.1461 124.415 58.1126 124.427C57.7429 124.618 57.3333 124.714 56.8998 124.714ZM49.1015 119.571C49.1973 119.571 49.2939 119.596 49.3803 119.646L55.4357 123.139C56.2774 123.626 57.0501 123.729 57.6136 123.429C57.6369 123.416 57.6608 123.405 57.6855 123.397L60.223 121.932C60.7865 121.609 61.0959 120.882 61.0959 119.883V106.031C61.0952 105.175 60.8527 104.196 60.4082 103.227L40.0184 114.999L44.1369 122.723L46.2139 121.524L48.7753 119.676C48.8727 119.606 48.9867 119.571 49.1015 119.571Z" fill="#113958"/>
<path d="M55.1593 100.739L32.6795 87.7597C30.5153 86.5107 28.7578 87.5186 28.7578 90.0111L28.7592 103.865C28.7592 106.359 30.5138 109.394 32.6795 110.645L39.0195 114.305L43.9187 123.494L48.8208 119.964L55.1594 123.621C57.3236 124.873 59.0797 123.864 59.0797 121.37V107.518C59.0797 105.027 57.3235 101.988 55.1593 100.739Z" fill="white"/>
<path d="M56.9146 124.72C56.2784 124.72 55.5864 124.514 54.879 124.104L48.8534 120.628L44.244 123.947C44.1133 124.04 43.9492 124.075 43.7916 124.037C43.6347 124.001 43.5018 123.898 43.4255 123.757L38.6018 114.709L32.3998 111.128C30.0454 109.769 28.2008 106.579 28.2008 103.865L28.1992 90.0116C28.1992 88.6013 28.7047 87.5322 29.6233 87.0021C30.5435 86.4704 31.7273 86.5656 32.9575 87.2773L55.4375 100.257C57.792 101.615 59.6366 104.805 59.6366 107.518V121.37C59.6366 122.783 59.1304 123.853 58.2117 124.383C57.821 124.608 57.383 124.72 56.9146 124.72ZM48.82 119.407C48.9159 119.407 49.0124 119.431 49.0988 119.482L55.4374 123.139C56.306 123.641 57.0918 123.744 57.6546 123.416C58.2131 123.094 58.521 122.368 58.521 121.37V107.518C58.521 105.245 56.8536 102.362 54.8796 101.222L32.3997 88.2431C31.5297 87.7412 30.7417 87.6439 30.181 87.9678C29.6226 88.291 29.3146 89.0166 29.3146 90.0114L29.3161 103.865C29.3161 106.178 30.9494 109.003 32.9575 110.162L39.2975 113.823C39.3876 113.875 39.4616 113.951 39.5111 114.043L44.1095 122.668L48.4939 119.512C48.5912 119.442 48.7053 119.407 48.82 119.407Z" fill="#113958"/>
<path d="M47.1499 111.73C47.0555 111.73 46.9596 111.707 46.8717 111.656L34.9469 104.771C34.6803 104.617 34.5889 104.276 34.7428 104.009C34.8968 103.743 35.2373 103.65 35.5046 103.805L47.4294 110.69C47.696 110.844 47.7875 111.185 47.6335 111.452C47.5304 111.63 47.343 111.73 47.1499 111.73ZM52.6068 111.267C52.5124 111.267 52.4166 111.243 52.3286 111.192L34.9468 101.159C34.6803 101.005 34.5888 100.663 34.7427 100.397C34.8967 100.131 35.2373 100.038 35.5045 100.193L52.8863 110.226C53.1528 110.38 53.2444 110.722 53.0904 110.988C52.9873 111.167 52.8 111.267 52.6068 111.267ZM52.6068 107.656C52.5124 107.656 52.4166 107.632 52.3286 107.581L34.9468 97.5434C34.6803 97.3894 34.5888 97.0481 34.7427 96.7816C34.8967 96.5158 35.2373 96.4236 35.5045 96.5775L52.8863 106.616C53.1528 106.77 53.2444 107.111 53.0904 107.377C52.9873 107.556 52.8 107.656 52.6068 107.656Z" fill="#113958"/>
</svg>
