<svg width="359" height="280" viewBox="0 0 359 280" fill="none" xmlns="http://www.w3.org/2000/svg">
<rect x="0.5" y="0.5" width="419.914" height="278.748" rx="5.59501" fill="white"/>
<rect x="0.5" y="0.5" width="419.914" height="278.748" rx="5.59501" stroke="#000714"/>
<path d="M43 40L43 244" stroke="#EEE7E2" stroke-width="0.990338"/>
<path d="M43 40L43 140" stroke="#FF6600"/>
<circle cx="43" cy="89" r="10" fill="#FF6600"/>
<path d="M46.6512 86.2308L41.6877 91.1114L39.357 88.8197C39.0548 88.5226 38.5585 88.5226 38.2348 88.8197C37.911 89.1167 37.9326 89.6048 38.2348 89.9231L41.1266 92.7666C41.2776 92.9151 41.4719 93 41.6877 93C41.9035 93 42.0977 92.9151 42.2488 92.7666L47.7734 87.3343C48.0755 87.0372 48.0755 86.5491 47.7734 86.2308C47.4713 85.9125 46.9533 85.9338 46.6512 86.2308Z" fill="white"/>
<path d="M76.816 93.496H79.12C79.7067 93.496 80.2507 93.3947 80.752 93.192C81.2533 92.9787 81.6907 92.6907 82.064 92.328C82.448 91.9547 82.7413 91.5227 82.944 91.032C83.1573 90.5307 83.264 89.9867 83.264 89.4C83.264 88.824 83.1573 88.2853 82.944 87.784C82.7413 87.2827 82.448 86.8507 82.064 86.488C81.6907 86.1147 81.2533 85.8267 80.752 85.624C80.2507 85.4107 79.7067 85.304 79.12 85.304H76.816V93.496ZM75.136 95V83.8H79.088C79.9307 83.8 80.7093 83.944 81.424 84.232C82.1387 84.5093 82.7627 84.8987 83.296 85.4C83.8293 85.9013 84.2453 86.4933 84.544 87.176C84.8427 87.8587 84.992 88.6 84.992 89.4C84.992 90.2107 84.8427 90.9573 84.544 91.64C84.256 92.312 83.8453 92.8987 83.312 93.4C82.7787 93.9013 82.1493 94.296 81.424 94.584C80.7093 94.8613 79.9307 95 79.088 95H75.136ZM90.441 95.16C89.6517 95.16 88.9317 94.9733 88.281 94.6C87.641 94.2267 87.1343 93.72 86.761 93.08C86.3877 92.44 86.201 91.7253 86.201 90.936C86.201 90.1467 86.3877 89.432 86.761 88.792C87.1343 88.152 87.641 87.6453 88.281 87.272C88.9317 86.888 89.6517 86.696 90.441 86.696C91.241 86.696 91.961 86.888 92.601 87.272C93.241 87.6453 93.7477 88.152 94.121 88.792C94.4943 89.432 94.681 90.1467 94.681 90.936C94.681 91.7253 94.4943 92.44 94.121 93.08C93.7477 93.72 93.241 94.2267 92.601 94.6C91.961 94.9733 91.241 95.16 90.441 95.16ZM90.441 93.752C90.9423 93.752 91.3957 93.6293 91.801 93.384C92.2063 93.128 92.5263 92.7867 92.761 92.36C92.9957 91.9333 93.113 91.4533 93.113 90.92C93.113 90.3973 92.9903 89.928 92.745 89.512C92.5103 89.0853 92.1903 88.744 91.785 88.488C91.3903 88.232 90.9423 88.104 90.441 88.104C89.9397 88.104 89.4863 88.232 89.081 88.488C88.6863 88.744 88.3663 89.0853 88.121 89.512C87.8863 89.928 87.769 90.3973 87.769 90.92C87.769 91.4533 87.8863 91.9333 88.121 92.36C88.3557 92.7867 88.6757 93.128 89.081 93.384C89.4863 93.6293 89.9397 93.752 90.441 93.752ZM100.018 95.144C99.2393 95.144 98.53 94.9573 97.89 94.584C97.25 94.2107 96.7433 93.704 96.37 93.064C96.0073 92.424 95.826 91.7093 95.826 90.92C95.826 90.1307 96.0127 89.4213 96.386 88.792C96.7593 88.152 97.2607 87.6453 97.89 87.272C98.53 86.888 99.2393 86.696 100.018 86.696C100.637 86.696 101.229 86.8133 101.794 87.048C102.37 87.2827 102.866 87.6133 103.282 88.04L102.29 89.144C101.981 88.8027 101.634 88.5467 101.25 88.376C100.866 88.2053 100.466 88.12 100.05 88.12C99.5593 88.12 99.1113 88.2427 98.706 88.488C98.3113 88.7333 97.9967 89.0693 97.762 89.496C97.5273 89.9227 97.41 90.3973 97.41 90.92C97.41 91.4427 97.5273 91.9173 97.762 92.344C97.9967 92.7707 98.3167 93.112 98.722 93.368C99.1273 93.6133 99.5807 93.736 100.082 93.736C100.498 93.736 100.887 93.656 101.25 93.496C101.613 93.3253 101.954 93.08 102.274 92.76L103.25 93.784C102.823 94.2213 102.327 94.5573 101.762 94.792C101.207 95.0267 100.626 95.144 100.018 95.144ZM107.69 95.16C107.06 95.16 106.506 95.0267 106.026 94.76C105.546 94.4933 105.172 94.12 104.906 93.64C104.639 93.1493 104.506 92.5893 104.506 91.96V86.856H106.09V91.688C106.09 92.328 106.271 92.8347 106.634 93.208C107.007 93.5813 107.503 93.768 108.122 93.768C108.559 93.768 108.948 93.6773 109.29 93.496C109.631 93.304 109.908 93.0373 110.122 92.696V86.856H111.722V95H110.122V94.168C109.492 94.8293 108.682 95.16 107.69 95.16ZM113.616 95V86.856H115.216V87.64C115.824 87.0107 116.587 86.696 117.504 86.696C118.059 86.696 118.549 86.8187 118.976 87.064C119.413 87.3093 119.76 87.64 120.016 88.056C120.357 87.608 120.757 87.272 121.216 87.048C121.675 86.8133 122.192 86.696 122.768 86.696C123.376 86.696 123.904 86.8293 124.352 87.096C124.811 87.3627 125.168 87.736 125.424 88.216C125.691 88.696 125.824 89.2507 125.824 89.88V95H124.224V90.152C124.224 89.512 124.053 89.0107 123.712 88.648C123.381 88.2747 122.928 88.088 122.352 88.088C121.957 88.088 121.6 88.1787 121.28 88.36C120.96 88.5413 120.683 88.8187 120.448 89.192C120.469 89.2987 120.485 89.4107 120.496 89.528C120.507 89.6453 120.512 89.7627 120.512 89.88V95H118.928V90.152C118.928 89.512 118.757 89.0107 118.416 88.648C118.085 88.2747 117.632 88.088 117.056 88.088C116.672 88.088 116.325 88.1733 116.016 88.344C115.707 88.504 115.44 88.7493 115.216 89.08V95H113.616ZM131.567 95.144C130.767 95.144 130.041 94.9573 129.391 94.584C128.751 94.2107 128.239 93.704 127.855 93.064C127.481 92.424 127.295 91.7093 127.295 90.92C127.295 90.1413 127.476 89.4373 127.839 88.808C128.201 88.168 128.692 87.6613 129.311 87.288C129.929 86.904 130.617 86.712 131.375 86.712C132.132 86.712 132.804 86.904 133.391 87.288C133.977 87.6613 134.441 88.1733 134.783 88.824C135.135 89.464 135.311 90.1893 135.311 91V91.448H128.895C128.98 91.896 129.145 92.296 129.391 92.648C129.647 93 129.967 93.2773 130.351 93.48C130.745 93.6827 131.172 93.784 131.631 93.784C132.025 93.784 132.404 93.7253 132.767 93.608C133.14 93.48 133.449 93.2987 133.695 93.064L134.719 94.072C134.239 94.4347 133.743 94.7067 133.231 94.888C132.729 95.0587 132.175 95.144 131.567 95.144ZM128.911 90.248H133.727C133.663 89.8213 133.513 89.448 133.279 89.128C133.055 88.7973 132.772 88.5413 132.431 88.36C132.1 88.168 131.737 88.072 131.343 88.072C130.937 88.072 130.564 88.1627 130.223 88.344C129.881 88.5253 129.593 88.7813 129.359 89.112C129.135 89.432 128.985 89.8107 128.911 90.248ZM136.835 95V86.856H138.435V87.688C139.064 87.0267 139.88 86.696 140.883 86.696C141.512 86.696 142.061 86.8293 142.531 87.096C143.011 87.3627 143.384 87.736 143.651 88.216C143.928 88.696 144.067 89.2507 144.067 89.88V95H142.467V90.152C142.467 89.512 142.285 89.0107 141.923 88.648C141.571 88.2747 141.075 88.088 140.435 88.088C140.008 88.088 139.624 88.1787 139.283 88.36C138.941 88.5413 138.659 88.8027 138.435 89.144V95H136.835ZM149.166 95.144C148.377 95.144 147.774 94.9627 147.358 94.6C146.942 94.2267 146.734 93.688 146.734 92.984V88.2H145.006V86.856H146.734V84.776L148.318 84.392V86.856H150.718V88.2H148.318V92.616C148.318 93.032 148.409 93.3307 148.59 93.512C148.782 93.6827 149.092 93.768 149.518 93.768C149.742 93.768 149.94 93.752 150.11 93.72C150.292 93.688 150.484 93.64 150.686 93.576V94.92C150.473 94.9947 150.222 95.048 149.934 95.08C149.657 95.1227 149.401 95.144 149.166 95.144ZM159.993 95.176C159.022 95.176 158.18 94.9733 157.465 94.568C156.75 94.1627 156.201 93.592 155.817 92.856C155.433 92.1093 155.241 91.2293 155.241 90.216V83.8H156.921V90.216C156.921 90.9093 157.044 91.512 157.289 92.024C157.545 92.536 157.902 92.9307 158.361 93.208C158.83 93.4853 159.374 93.624 159.993 93.624C160.633 93.624 161.182 93.4853 161.641 93.208C162.1 92.9307 162.452 92.536 162.697 92.024C162.953 91.512 163.081 90.9093 163.081 90.216V83.8H164.761V90.216C164.761 91.2293 164.564 92.1093 164.169 92.856C163.785 93.592 163.236 94.1627 162.521 94.568C161.806 94.9733 160.964 95.176 159.993 95.176ZM166.647 98.264V86.856H168.231V87.64C168.914 87.032 169.746 86.728 170.727 86.728C171.495 86.728 172.188 86.9147 172.807 87.288C173.436 87.6613 173.932 88.1627 174.295 88.792C174.658 89.4213 174.839 90.1307 174.839 90.92C174.839 91.7093 174.652 92.424 174.279 93.064C173.916 93.6933 173.42 94.1947 172.791 94.568C172.172 94.9413 171.474 95.128 170.695 95.128C170.247 95.128 169.815 95.0587 169.399 94.92C168.983 94.7707 168.599 94.5627 168.247 94.296V98.264H166.647ZM170.519 93.736C171.042 93.736 171.506 93.6133 171.911 93.368C172.327 93.1227 172.658 92.792 172.903 92.376C173.148 91.9493 173.271 91.4693 173.271 90.936C173.271 90.4027 173.148 89.9227 172.903 89.496C172.658 89.0693 172.327 88.7333 171.911 88.488C171.506 88.2427 171.042 88.12 170.519 88.12C170.06 88.12 169.634 88.2053 169.239 88.376C168.844 88.5467 168.514 88.7867 168.247 89.096V92.776C168.514 93.0747 168.844 93.3093 169.239 93.48C169.644 93.6507 170.071 93.736 170.519 93.736ZM176.366 95V83.8L177.966 83.496V95H176.366ZM183.722 95.16C182.933 95.16 182.213 94.9733 181.562 94.6C180.922 94.2267 180.416 93.72 180.042 93.08C179.669 92.44 179.482 91.7253 179.482 90.936C179.482 90.1467 179.669 89.432 180.042 88.792C180.416 88.152 180.922 87.6453 181.562 87.272C182.213 86.888 182.933 86.696 183.722 86.696C184.522 86.696 185.242 86.888 185.882 87.272C186.522 87.6453 187.029 88.152 187.402 88.792C187.776 89.432 187.962 90.1467 187.962 90.936C187.962 91.7253 187.776 92.44 187.402 93.08C187.029 93.72 186.522 94.2267 185.882 94.6C185.242 94.9733 184.522 95.16 183.722 95.16ZM183.722 93.752C184.224 93.752 184.677 93.6293 185.082 93.384C185.488 93.128 185.808 92.7867 186.042 92.36C186.277 91.9333 186.394 91.4533 186.394 90.92C186.394 90.3973 186.272 89.928 186.026 89.512C185.792 89.0853 185.472 88.744 185.066 88.488C184.672 88.232 184.224 88.104 183.722 88.104C183.221 88.104 182.768 88.232 182.362 88.488C181.968 88.744 181.648 89.0853 181.402 89.512C181.168 89.928 181.05 90.3973 181.05 90.92C181.05 91.4533 181.168 91.9333 181.402 92.36C181.637 92.7867 181.957 93.128 182.362 93.384C182.768 93.6293 183.221 93.752 183.722 93.752ZM192.129 95.144C191.543 95.144 191.025 95.0427 190.577 94.84C190.129 94.6267 189.777 94.3333 189.521 93.96C189.265 93.5867 189.137 93.1547 189.137 92.664C189.137 91.896 189.431 91.2933 190.017 90.856C190.604 90.408 191.409 90.184 192.433 90.184C193.233 90.184 193.975 90.3387 194.657 90.648V89.784C194.657 89.1973 194.487 88.76 194.145 88.472C193.815 88.184 193.324 88.04 192.673 88.04C192.3 88.04 191.911 88.0987 191.505 88.216C191.1 88.3227 190.647 88.4933 190.145 88.728L189.553 87.528C190.172 87.24 190.748 87.032 191.281 86.904C191.815 86.7653 192.353 86.696 192.897 86.696C193.953 86.696 194.769 86.9467 195.345 87.448C195.932 87.9493 196.225 88.664 196.225 89.592V95H194.657V94.296C194.295 94.584 193.905 94.7973 193.489 94.936C193.073 95.0747 192.62 95.144 192.129 95.144ZM190.673 92.632C190.673 93.0267 190.839 93.3467 191.169 93.592C191.511 93.8373 191.953 93.96 192.497 93.96C192.924 93.96 193.313 93.896 193.665 93.768C194.028 93.64 194.359 93.4427 194.657 93.176V91.8C194.348 91.6187 194.023 91.4907 193.681 91.416C193.351 91.3307 192.977 91.288 192.561 91.288C191.975 91.288 191.511 91.4107 191.169 91.656C190.839 91.8907 190.673 92.216 190.673 92.632ZM201.813 95.128C201.056 95.128 200.362 94.9413 199.733 94.568C199.104 94.1947 198.608 93.6933 198.245 93.064C197.882 92.424 197.701 91.7093 197.701 90.92C197.701 90.1307 197.882 89.4213 198.245 88.792C198.618 88.1627 199.12 87.6613 199.749 87.288C200.378 86.9147 201.077 86.728 201.845 86.728C202.293 86.728 202.725 86.7973 203.141 86.936C203.557 87.0747 203.941 87.2773 204.293 87.544V83.8L205.893 83.496V95H204.309V94.216C203.616 94.824 202.784 95.128 201.813 95.128ZM202.021 93.736C202.49 93.736 202.917 93.6507 203.301 93.48C203.696 93.3093 204.026 93.064 204.293 92.744V89.08C204.026 88.7813 203.696 88.5467 203.301 88.376C202.917 88.1947 202.49 88.104 202.021 88.104C201.509 88.104 201.045 88.2267 200.629 88.472C200.213 88.7173 199.882 89.0533 199.637 89.48C199.392 89.896 199.269 90.3707 199.269 90.904C199.269 91.4373 199.392 91.9173 199.637 92.344C199.882 92.7707 200.213 93.112 200.629 93.368C201.045 93.6133 201.509 93.736 202.021 93.736ZM211.692 95.144C210.892 95.144 210.166 94.9573 209.516 94.584C208.876 94.2107 208.364 93.704 207.98 93.064C207.606 92.424 207.42 91.7093 207.42 90.92C207.42 90.1413 207.601 89.4373 207.964 88.808C208.326 88.168 208.817 87.6613 209.436 87.288C210.054 86.904 210.742 86.712 211.5 86.712C212.257 86.712 212.929 86.904 213.516 87.288C214.102 87.6613 214.566 88.1733 214.908 88.824C215.26 89.464 215.436 90.1893 215.436 91V91.448H209.02C209.105 91.896 209.27 92.296 209.516 92.648C209.772 93 210.092 93.2773 210.476 93.48C210.87 93.6827 211.297 93.784 211.756 93.784C212.15 93.784 212.529 93.7253 212.892 93.608C213.265 93.48 213.574 93.2987 213.82 93.064L214.844 94.072C214.364 94.4347 213.868 94.7067 213.356 94.888C212.854 95.0587 212.3 95.144 211.692 95.144ZM209.036 90.248H213.852C213.788 89.8213 213.638 89.448 213.404 89.128C213.18 88.7973 212.897 88.5413 212.556 88.36C212.225 88.168 211.862 88.072 211.468 88.072C211.062 88.072 210.689 88.1627 210.348 88.344C210.006 88.5253 209.718 88.7813 209.484 89.112C209.26 89.432 209.11 89.8107 209.036 90.248ZM220.735 95.128C219.978 95.128 219.284 94.9413 218.655 94.568C218.026 94.1947 217.53 93.6933 217.167 93.064C216.804 92.424 216.623 91.7093 216.623 90.92C216.623 90.1307 216.804 89.4213 217.167 88.792C217.54 88.1627 218.042 87.6613 218.671 87.288C219.3 86.9147 219.999 86.728 220.767 86.728C221.215 86.728 221.647 86.7973 222.063 86.936C222.479 87.0747 222.863 87.2773 223.215 87.544V83.8L224.815 83.496V95H223.231V94.216C222.538 94.824 221.706 95.128 220.735 95.128ZM220.943 93.736C221.412 93.736 221.839 93.6507 222.223 93.48C222.618 93.3093 222.948 93.064 223.215 92.744V89.08C222.948 88.7813 222.618 88.5467 222.223 88.376C221.839 88.1947 221.412 88.104 220.943 88.104C220.431 88.104 219.967 88.2267 219.551 88.472C219.135 88.7173 218.804 89.0533 218.559 89.48C218.314 89.896 218.191 90.3707 218.191 90.904C218.191 91.4373 218.314 91.9173 218.559 92.344C218.804 92.7707 219.135 93.112 219.551 93.368C219.967 93.6133 220.431 93.736 220.943 93.736Z" fill="#929292"/>
<g filter="url(#filter0_dd_303_739)">
<circle cx="43" cy="139" r="18" fill="#FF6600"/>
<circle cx="43" cy="139" r="7.2" fill="white"/>
<path d="M80.52 144.12H83.4C84.1333 144.12 84.8133 143.993 85.44 143.74C86.0667 143.473 86.6133 143.113 87.08 142.66C87.56 142.193 87.9267 141.653 88.18 141.04C88.4467 140.413 88.58 139.733 88.58 139C88.58 138.28 88.4467 137.607 88.18 136.98C87.9267 136.353 87.56 135.813 87.08 135.36C86.6133 134.893 86.0667 134.533 85.44 134.28C84.8133 134.013 84.1333 133.88 83.4 133.88H80.52V144.12ZM78.42 146V132H83.36C84.4133 132 85.3867 132.18 86.28 132.54C87.1733 132.887 87.9533 133.373 88.62 134C89.2867 134.627 89.8067 135.367 90.18 136.22C90.5533 137.073 90.74 138 90.74 139C90.74 140.013 90.5533 140.947 90.18 141.8C89.82 142.64 89.3067 143.373 88.64 144C87.9733 144.627 87.1867 145.12 86.28 145.48C85.3867 145.827 84.4133 146 83.36 146H78.42ZM97.5513 146.2C96.5646 146.2 95.6646 145.967 94.8513 145.5C94.0513 145.033 93.4179 144.4 92.9513 143.6C92.4846 142.8 92.2513 141.907 92.2513 140.92C92.2513 139.933 92.4846 139.04 92.9513 138.24C93.4179 137.44 94.0513 136.807 94.8513 136.34C95.6646 135.86 96.5646 135.62 97.5513 135.62C98.5513 135.62 99.4513 135.86 100.251 136.34C101.051 136.807 101.685 137.44 102.151 138.24C102.618 139.04 102.851 139.933 102.851 140.92C102.851 141.907 102.618 142.8 102.151 143.6C101.685 144.4 101.051 145.033 100.251 145.5C99.4513 145.967 98.5513 146.2 97.5513 146.2ZM97.5513 144.44C98.1779 144.44 98.7446 144.287 99.2513 143.98C99.7579 143.66 100.158 143.233 100.451 142.7C100.745 142.167 100.891 141.567 100.891 140.9C100.891 140.247 100.738 139.66 100.431 139.14C100.138 138.607 99.7379 138.18 99.2313 137.86C98.7379 137.54 98.1779 137.38 97.5513 137.38C96.9246 137.38 96.3579 137.54 95.8513 137.86C95.3579 138.18 94.9579 138.607 94.6513 139.14C94.3579 139.66 94.2113 140.247 94.2113 140.9C94.2113 141.567 94.3579 142.167 94.6513 142.7C94.9446 143.233 95.3446 143.66 95.8513 143.98C96.3579 144.287 96.9246 144.44 97.5513 144.44ZM109.523 146.18C108.549 146.18 107.663 145.947 106.863 145.48C106.063 145.013 105.429 144.38 104.963 143.58C104.509 142.78 104.283 141.887 104.283 140.9C104.283 139.913 104.516 139.027 104.983 138.24C105.449 137.44 106.076 136.807 106.863 136.34C107.663 135.86 108.549 135.62 109.523 135.62C110.296 135.62 111.036 135.767 111.743 136.06C112.463 136.353 113.083 136.767 113.603 137.3L112.363 138.68C111.976 138.253 111.543 137.933 111.063 137.72C110.583 137.507 110.083 137.4 109.563 137.4C108.949 137.4 108.389 137.553 107.883 137.86C107.389 138.167 106.996 138.587 106.703 139.12C106.409 139.653 106.263 140.247 106.263 140.9C106.263 141.553 106.409 142.147 106.703 142.68C106.996 143.213 107.396 143.64 107.903 143.96C108.409 144.267 108.976 144.42 109.603 144.42C110.123 144.42 110.609 144.32 111.063 144.12C111.516 143.907 111.943 143.6 112.343 143.2L113.562 144.48C113.029 145.027 112.409 145.447 111.703 145.74C111.009 146.033 110.283 146.18 109.523 146.18ZM119.112 146.2C118.326 146.2 117.632 146.033 117.032 145.7C116.432 145.367 115.966 144.9 115.632 144.3C115.299 143.687 115.132 142.987 115.132 142.2V135.82H117.112V141.86C117.112 142.66 117.339 143.293 117.792 143.76C118.259 144.227 118.879 144.46 119.652 144.46C120.199 144.46 120.686 144.347 121.112 144.12C121.539 143.88 121.886 143.547 122.152 143.12V135.82H124.152V146H122.152V144.96C121.366 145.787 120.352 146.2 119.112 146.2ZM126.52 146V135.82H128.52V136.8C129.28 136.013 130.233 135.62 131.38 135.62C132.073 135.62 132.687 135.773 133.22 136.08C133.767 136.387 134.2 136.8 134.52 137.32C134.947 136.76 135.447 136.34 136.02 136.06C136.593 135.767 137.24 135.62 137.96 135.62C138.72 135.62 139.38 135.787 139.94 136.12C140.513 136.453 140.96 136.92 141.28 137.52C141.613 138.12 141.78 138.813 141.78 139.6V146H139.78V139.94C139.78 139.14 139.567 138.513 139.14 138.06C138.727 137.593 138.16 137.36 137.44 137.36C136.947 137.36 136.5 137.473 136.1 137.7C135.7 137.927 135.353 138.273 135.06 138.74C135.087 138.873 135.107 139.013 135.12 139.16C135.133 139.307 135.14 139.453 135.14 139.6V146H133.16V139.94C133.16 139.14 132.947 138.513 132.52 138.06C132.107 137.593 131.54 137.36 130.82 137.36C130.34 137.36 129.907 137.467 129.52 137.68C129.133 137.88 128.8 138.187 128.52 138.6V146H126.52ZM148.958 146.18C147.958 146.18 147.052 145.947 146.238 145.48C145.438 145.013 144.798 144.38 144.318 143.58C143.852 142.78 143.618 141.887 143.618 140.9C143.618 139.927 143.845 139.047 144.298 138.26C144.752 137.46 145.365 136.827 146.138 136.36C146.912 135.88 147.772 135.64 148.718 135.64C149.665 135.64 150.505 135.88 151.238 136.36C151.972 136.827 152.552 137.467 152.978 138.28C153.418 139.08 153.638 139.987 153.638 141V141.56H145.618C145.725 142.12 145.932 142.62 146.238 143.06C146.558 143.5 146.958 143.847 147.438 144.1C147.932 144.353 148.465 144.48 149.038 144.48C149.532 144.48 150.005 144.407 150.458 144.26C150.925 144.1 151.312 143.873 151.618 143.58L152.898 144.84C152.298 145.293 151.678 145.633 151.038 145.86C150.412 146.073 149.718 146.18 148.958 146.18ZM145.638 140.06H151.658C151.578 139.527 151.392 139.06 151.098 138.66C150.818 138.247 150.465 137.927 150.038 137.7C149.625 137.46 149.172 137.34 148.678 137.34C148.172 137.34 147.705 137.453 147.278 137.68C146.852 137.907 146.492 138.227 146.198 138.64C145.918 139.04 145.732 139.513 145.638 140.06ZM155.543 146V135.82H157.543V136.86C158.33 136.033 159.35 135.62 160.603 135.62C161.39 135.62 162.077 135.787 162.663 136.12C163.263 136.453 163.73 136.92 164.063 137.52C164.41 138.12 164.583 138.813 164.583 139.6V146H162.583V139.94C162.583 139.14 162.357 138.513 161.903 138.06C161.463 137.593 160.843 137.36 160.043 137.36C159.51 137.36 159.03 137.473 158.603 137.7C158.177 137.927 157.823 138.253 157.543 138.68V146H155.543ZM170.958 146.18C169.971 146.18 169.218 145.953 168.698 145.5C168.178 145.033 167.918 144.36 167.918 143.48V137.5H165.758V135.82H167.918V133.22L169.898 132.74V135.82H172.898V137.5H169.898V143.02C169.898 143.54 170.011 143.913 170.238 144.14C170.478 144.353 170.865 144.46 171.398 144.46C171.678 144.46 171.925 144.44 172.138 144.4C172.365 144.36 172.605 144.3 172.858 144.22V145.9C172.591 145.993 172.278 146.06 171.918 146.1C171.571 146.153 171.251 146.18 170.958 146.18ZM183.111 146L177.391 132H179.651L184.391 143.92L189.211 132H191.371L185.571 146H183.111ZM196.087 146.18C195.087 146.18 194.181 145.947 193.367 145.48C192.567 145.013 191.927 144.38 191.447 143.58C190.981 142.78 190.747 141.887 190.747 140.9C190.747 139.927 190.974 139.047 191.427 138.26C191.881 137.46 192.494 136.827 193.267 136.36C194.041 135.88 194.901 135.64 195.847 135.64C196.794 135.64 197.634 135.88 198.367 136.36C199.101 136.827 199.681 137.467 200.107 138.28C200.547 139.08 200.767 139.987 200.767 141V141.56H192.747C192.854 142.12 193.061 142.62 193.367 143.06C193.687 143.5 194.087 143.847 194.567 144.1C195.061 144.353 195.594 144.48 196.167 144.48C196.661 144.48 197.134 144.407 197.587 144.26C198.054 144.1 198.441 143.873 198.747 143.58L200.027 144.84C199.427 145.293 198.807 145.633 198.167 145.86C197.541 146.073 196.847 146.18 196.087 146.18ZM192.767 140.06H198.787C198.707 139.527 198.521 139.06 198.227 138.66C197.947 138.247 197.594 137.927 197.167 137.7C196.754 137.46 196.301 137.34 195.807 137.34C195.301 137.34 194.834 137.453 194.407 137.68C193.981 137.907 193.621 138.227 193.327 138.64C193.047 139.04 192.861 139.513 192.767 140.06ZM202.672 146V135.82H204.672V137.12C204.992 136.64 205.386 136.267 205.852 136C206.332 135.72 206.872 135.58 207.472 135.58C207.886 135.593 208.226 135.653 208.492 135.76V137.56C208.306 137.48 208.112 137.427 207.912 137.4C207.712 137.36 207.512 137.34 207.312 137.34C206.726 137.34 206.206 137.5 205.752 137.82C205.299 138.127 204.939 138.58 204.672 139.18V146H202.672ZM210.094 146V135.82H212.094V146H210.094ZM211.094 134.18C210.761 134.18 210.474 134.06 210.234 133.82C209.994 133.567 209.874 133.273 209.874 132.94C209.874 132.593 209.994 132.307 210.234 132.08C210.474 131.84 210.761 131.72 211.094 131.72C211.441 131.72 211.734 131.84 211.974 132.08C212.214 132.307 212.334 132.593 212.334 132.94C212.334 133.273 212.214 133.567 211.974 133.82C211.734 134.06 211.441 134.18 211.094 134.18ZM215.97 146V137.5H213.61V135.82H215.97V134.28C215.97 133.213 216.263 132.4 216.85 131.84C217.45 131.28 218.303 131 219.41 131C219.69 131 219.95 131.02 220.19 131.06C220.443 131.087 220.67 131.133 220.87 131.2V132.92C220.63 132.853 220.416 132.807 220.23 132.78C220.043 132.74 219.836 132.72 219.61 132.72C219.05 132.72 218.63 132.853 218.35 133.12C218.083 133.373 217.95 133.78 217.95 134.34V135.82H220.87V137.5H217.95V146H215.97ZM222.399 146V135.82H224.399V146H222.399ZM223.399 134.18C223.065 134.18 222.779 134.06 222.539 133.82C222.299 133.567 222.179 133.273 222.179 132.94C222.179 132.593 222.299 132.307 222.539 132.08C222.779 131.84 223.065 131.72 223.399 131.72C223.745 131.72 224.039 131.84 224.279 132.08C224.519 132.307 224.639 132.593 224.639 132.94C224.639 133.273 224.519 133.567 224.279 133.82C224.039 134.06 223.745 134.18 223.399 134.18ZM231.634 146.18C230.634 146.18 229.728 145.947 228.914 145.48C228.114 145.013 227.474 144.38 226.994 143.58C226.528 142.78 226.294 141.887 226.294 140.9C226.294 139.927 226.521 139.047 226.974 138.26C227.428 137.46 228.041 136.827 228.814 136.36C229.588 135.88 230.448 135.64 231.394 135.64C232.341 135.64 233.181 135.88 233.914 136.36C234.648 136.827 235.228 137.467 235.654 138.28C236.094 139.08 236.314 139.987 236.314 141V141.56H228.294C228.401 142.12 228.608 142.62 228.914 143.06C229.234 143.5 229.634 143.847 230.114 144.1C230.608 144.353 231.141 144.48 231.714 144.48C232.208 144.48 232.681 144.407 233.134 144.26C233.601 144.1 233.988 143.873 234.294 143.58L235.574 144.84C234.974 145.293 234.354 145.633 233.714 145.86C233.088 146.073 232.394 146.18 231.634 146.18ZM228.314 140.06H234.334C234.254 139.527 234.068 139.06 233.774 138.66C233.494 138.247 233.141 137.927 232.714 137.7C232.301 137.46 231.848 137.34 231.354 137.34C230.848 137.34 230.381 137.453 229.954 137.68C229.528 137.907 229.168 138.227 228.874 138.64C228.594 139.04 228.408 139.513 228.314 140.06ZM242.938 146.16C241.991 146.16 241.125 145.927 240.338 145.46C239.551 144.993 238.931 144.367 238.478 143.58C238.025 142.78 237.798 141.887 237.798 140.9C237.798 139.913 238.025 139.027 238.478 138.24C238.945 137.453 239.571 136.827 240.358 136.36C241.145 135.893 242.018 135.66 242.978 135.66C243.538 135.66 244.078 135.747 244.598 135.92C245.118 136.093 245.598 136.347 246.038 136.68V132L248.038 131.62V146H246.058V145.02C245.191 145.78 244.151 146.16 242.938 146.16ZM243.198 144.42C243.785 144.42 244.318 144.313 244.798 144.1C245.291 143.887 245.705 143.58 246.038 143.18V138.6C245.705 138.227 245.291 137.933 244.798 137.72C244.318 137.493 243.785 137.38 243.198 137.38C242.558 137.38 241.978 137.533 241.458 137.84C240.938 138.147 240.525 138.567 240.218 139.1C239.911 139.62 239.758 140.213 239.758 140.88C239.758 141.547 239.911 142.147 240.218 142.68C240.525 143.213 240.938 143.64 241.458 143.96C241.978 144.267 242.558 144.42 243.198 144.42Z" fill="#000714"/>
</g>
<circle cx="43" cy="189" r="10" fill="#EBEBEB"/>
<circle cx="43" cy="189" r="4" fill="white"/>
<path d="M75.136 195V183.8H80.32C81.056 183.8 81.696 183.944 82.24 184.232C82.784 184.509 83.2107 184.899 83.52 185.4C83.8293 185.901 83.984 186.483 83.984 187.144C83.984 187.805 83.8293 188.387 83.52 188.888C83.2107 189.389 82.7787 189.784 82.224 190.072C81.68 190.349 81.0453 190.488 80.32 190.488H76.816V195H75.136ZM76.816 189.064H80.144C80.8053 189.064 81.328 188.893 81.712 188.552C82.1067 188.2 82.304 187.736 82.304 187.16C82.304 186.584 82.1067 186.125 81.712 185.784C81.328 185.443 80.8053 185.272 80.144 185.272H76.816V189.064ZM87.6919 195.144C87.1052 195.144 86.5879 195.043 86.1399 194.84C85.6919 194.627 85.3399 194.333 85.0839 193.96C84.8279 193.587 84.6999 193.155 84.6999 192.664C84.6999 191.896 84.9932 191.293 85.5799 190.856C86.1665 190.408 86.9719 190.184 87.9959 190.184C88.7959 190.184 89.5372 190.339 90.2199 190.648V189.784C90.2199 189.197 90.0492 188.76 89.7079 188.472C89.3772 188.184 88.8865 188.04 88.2359 188.04C87.8625 188.04 87.4732 188.099 87.0679 188.216C86.6625 188.323 86.2092 188.493 85.7079 188.728L85.1159 187.528C85.7345 187.24 86.3105 187.032 86.8439 186.904C87.3772 186.765 87.9159 186.696 88.4599 186.696C89.5159 186.696 90.3319 186.947 90.9079 187.448C91.4945 187.949 91.7879 188.664 91.7879 189.592V195H90.2199V194.296C89.8572 194.584 89.4679 194.797 89.0519 194.936C88.6359 195.075 88.1825 195.144 87.6919 195.144ZM86.2359 192.632C86.2359 193.027 86.4012 193.347 86.7319 193.592C87.0732 193.837 87.5159 193.96 88.0599 193.96C88.4865 193.96 88.8759 193.896 89.2279 193.768C89.5905 193.64 89.9212 193.443 90.2199 193.176V191.8C89.9105 191.619 89.5852 191.491 89.2439 191.416C88.9132 191.331 88.5399 191.288 88.1239 191.288C87.5372 191.288 87.0732 191.411 86.7319 191.656C86.4012 191.891 86.2359 192.216 86.2359 192.632ZM94.0193 198.44C93.8486 198.44 93.6886 198.429 93.5393 198.408C93.3899 198.397 93.2673 198.376 93.1713 198.344V196.936C93.3633 196.979 93.5979 197 93.8753 197C94.6219 197 95.1606 196.6 95.4913 195.8L95.8433 195.016L92.5793 186.856H94.3553L96.7233 193.064L99.3473 186.856H101.075L97.1393 196.008C96.8833 196.584 96.6113 197.048 96.3233 197.4C96.0353 197.763 95.7046 198.024 95.3313 198.184C94.9579 198.355 94.5206 198.44 94.0193 198.44ZM102.069 195V186.856H103.669V187.64C104.277 187.011 105.04 186.696 105.957 186.696C106.512 186.696 107.002 186.819 107.429 187.064C107.866 187.309 108.213 187.64 108.469 188.056C108.81 187.608 109.21 187.272 109.669 187.048C110.128 186.813 110.645 186.696 111.221 186.696C111.829 186.696 112.357 186.829 112.805 187.096C113.264 187.363 113.621 187.736 113.877 188.216C114.144 188.696 114.277 189.251 114.277 189.88V195H112.677V190.152C112.677 189.512 112.506 189.011 112.165 188.648C111.834 188.275 111.381 188.088 110.805 188.088C110.41 188.088 110.053 188.179 109.733 188.36C109.413 188.541 109.136 188.819 108.901 189.192C108.922 189.299 108.938 189.411 108.949 189.528C108.96 189.645 108.965 189.763 108.965 189.88V195H107.381V190.152C107.381 189.512 107.21 189.011 106.869 188.648C106.538 188.275 106.085 188.088 105.509 188.088C105.125 188.088 104.778 188.173 104.469 188.344C104.16 188.504 103.893 188.749 103.669 189.08V195H102.069ZM120.02 195.144C119.22 195.144 118.495 194.957 117.844 194.584C117.204 194.211 116.692 193.704 116.308 193.064C115.935 192.424 115.748 191.709 115.748 190.92C115.748 190.141 115.929 189.437 116.292 188.808C116.655 188.168 117.145 187.661 117.764 187.288C118.383 186.904 119.071 186.712 119.828 186.712C120.585 186.712 121.257 186.904 121.844 187.288C122.431 187.661 122.895 188.173 123.236 188.824C123.588 189.464 123.764 190.189 123.764 191V191.448H117.348C117.433 191.896 117.599 192.296 117.844 192.648C118.1 193 118.42 193.277 118.804 193.48C119.199 193.683 119.625 193.784 120.084 193.784C120.479 193.784 120.857 193.725 121.22 193.608C121.593 193.48 121.903 193.299 122.148 193.064L123.172 194.072C122.692 194.435 122.196 194.707 121.684 194.888C121.183 195.059 120.628 195.144 120.02 195.144ZM117.364 190.248H122.18C122.116 189.821 121.967 189.448 121.732 189.128C121.508 188.797 121.225 188.541 120.884 188.36C120.553 188.168 120.191 188.072 119.796 188.072C119.391 188.072 119.017 188.163 118.676 188.344C118.335 188.525 118.047 188.781 117.812 189.112C117.588 189.432 117.439 189.811 117.364 190.248ZM125.288 195V186.856H126.888V187.688C127.517 187.027 128.333 186.696 129.336 186.696C129.965 186.696 130.514 186.829 130.984 187.096C131.464 187.363 131.837 187.736 132.104 188.216C132.381 188.696 132.52 189.251 132.52 189.88V195H130.92V190.152C130.92 189.512 130.738 189.011 130.376 188.648C130.024 188.275 129.528 188.088 128.888 188.088C128.461 188.088 128.077 188.179 127.736 188.36C127.394 188.541 127.112 188.803 126.888 189.144V195H125.288ZM137.62 195.144C136.83 195.144 136.228 194.963 135.812 194.6C135.396 194.227 135.188 193.688 135.188 192.984V188.2H133.46V186.856H135.188V184.776L136.772 184.392V186.856H139.172V188.2H136.772V192.616C136.772 193.032 136.862 193.331 137.044 193.512C137.236 193.683 137.545 193.768 137.972 193.768C138.196 193.768 138.393 193.752 138.564 193.72C138.745 193.688 138.937 193.64 139.14 193.576V194.92C138.926 194.995 138.676 195.048 138.388 195.08C138.11 195.123 137.854 195.144 137.62 195.144ZM143.886 195V183.8H145.566V195H143.886ZM147.663 195V186.856H149.263V187.688C149.892 187.027 150.708 186.696 151.711 186.696C152.34 186.696 152.889 186.829 153.359 187.096C153.839 187.363 154.212 187.736 154.479 188.216C154.756 188.696 154.895 189.251 154.895 189.88V195H153.295V190.152C153.295 189.512 153.113 189.011 152.751 188.648C152.399 188.275 151.903 188.088 151.263 188.088C150.836 188.088 150.452 188.179 150.111 188.36C149.769 188.541 149.487 188.803 149.263 189.144V195H147.663ZM156.741 195V186.856H158.341V195H156.741ZM157.541 185.544C157.274 185.544 157.045 185.448 156.853 185.256C156.661 185.053 156.565 184.819 156.565 184.552C156.565 184.275 156.661 184.045 156.853 183.864C157.045 183.672 157.274 183.576 157.541 183.576C157.818 183.576 158.053 183.672 158.245 183.864C158.437 184.045 158.533 184.275 158.533 184.552C158.533 184.819 158.437 185.053 158.245 185.256C158.053 185.448 157.818 185.544 157.541 185.544ZM163.713 195.144C162.924 195.144 162.321 194.963 161.905 194.6C161.489 194.227 161.281 193.688 161.281 192.984V188.2H159.553V186.856H161.281V184.776L162.865 184.392V186.856H165.265V188.2H162.865V192.616C162.865 193.032 162.956 193.331 163.137 193.512C163.329 193.683 163.639 193.768 164.065 193.768C164.289 193.768 164.487 193.752 164.657 193.72C164.839 193.688 165.031 193.64 165.233 193.576V194.92C165.02 194.995 164.769 195.048 164.481 195.08C164.204 195.123 163.948 195.144 163.713 195.144ZM166.444 195V186.856H168.044V195H166.444ZM167.244 185.544C166.977 185.544 166.748 185.448 166.556 185.256C166.364 185.053 166.268 184.819 166.268 184.552C166.268 184.275 166.364 184.045 166.556 183.864C166.748 183.672 166.977 183.576 167.244 183.576C167.521 183.576 167.756 183.672 167.948 183.864C168.14 184.045 168.236 184.275 168.236 184.552C168.236 184.819 168.14 185.053 167.948 185.256C167.756 185.448 167.521 185.544 167.244 185.544ZM172.504 195.144C171.918 195.144 171.4 195.043 170.952 194.84C170.504 194.627 170.152 194.333 169.896 193.96C169.64 193.587 169.512 193.155 169.512 192.664C169.512 191.896 169.806 191.293 170.392 190.856C170.979 190.408 171.784 190.184 172.808 190.184C173.608 190.184 174.35 190.339 175.032 190.648V189.784C175.032 189.197 174.862 188.76 174.52 188.472C174.19 188.184 173.699 188.04 173.048 188.04C172.675 188.04 172.286 188.099 171.88 188.216C171.475 188.323 171.022 188.493 170.52 188.728L169.928 187.528C170.547 187.24 171.123 187.032 171.656 186.904C172.19 186.765 172.728 186.696 173.272 186.696C174.328 186.696 175.144 186.947 175.72 187.448C176.307 187.949 176.6 188.664 176.6 189.592V195H175.032V194.296C174.67 194.584 174.28 194.797 173.864 194.936C173.448 195.075 172.995 195.144 172.504 195.144ZM171.048 192.632C171.048 193.027 171.214 193.347 171.544 193.592C171.886 193.837 172.328 193.96 172.872 193.96C173.299 193.96 173.688 193.896 174.04 193.768C174.403 193.64 174.734 193.443 175.032 193.176V191.8C174.723 191.619 174.398 191.491 174.056 191.416C173.726 191.331 173.352 191.288 172.936 191.288C172.35 191.288 171.886 191.411 171.544 191.656C171.214 191.891 171.048 192.216 171.048 192.632ZM181.698 195.144C180.908 195.144 180.306 194.963 179.89 194.6C179.474 194.227 179.266 193.688 179.266 192.984V188.2H177.538V186.856H179.266V184.776L180.85 184.392V186.856H183.25V188.2H180.85V192.616C180.85 193.032 180.94 193.331 181.122 193.512C181.314 193.683 181.623 193.768 182.05 193.768C182.274 193.768 182.471 193.752 182.642 193.72C182.823 193.688 183.015 193.64 183.218 193.576V194.92C183.004 194.995 182.754 195.048 182.466 195.08C182.188 195.123 181.932 195.144 181.698 195.144ZM188.207 195.144C187.407 195.144 186.682 194.957 186.031 194.584C185.391 194.211 184.879 193.704 184.495 193.064C184.122 192.424 183.935 191.709 183.935 190.92C183.935 190.141 184.117 189.437 184.479 188.808C184.842 188.168 185.333 187.661 185.951 187.288C186.57 186.904 187.258 186.712 188.015 186.712C188.773 186.712 189.445 186.904 190.031 187.288C190.618 187.661 191.082 188.173 191.423 188.824C191.775 189.464 191.951 190.189 191.951 191V191.448H185.535C185.621 191.896 185.786 192.296 186.031 192.648C186.287 193 186.607 193.277 186.991 193.48C187.386 193.683 187.813 193.784 188.271 193.784C188.666 193.784 189.045 193.725 189.407 193.608C189.781 193.48 190.09 193.299 190.335 193.064L191.359 194.072C190.879 194.435 190.383 194.707 189.871 194.888C189.37 195.059 188.815 195.144 188.207 195.144ZM185.551 190.248H190.367C190.303 189.821 190.154 189.448 189.919 189.128C189.695 188.797 189.413 188.541 189.071 188.36C188.741 188.168 188.378 188.072 187.983 188.072C187.578 188.072 187.205 188.163 186.863 188.344C186.522 188.525 186.234 188.781 185.999 189.112C185.775 189.432 185.626 189.811 185.551 190.248ZM197.251 195.128C196.493 195.128 195.8 194.941 195.171 194.568C194.541 194.195 194.045 193.693 193.683 193.064C193.32 192.424 193.139 191.709 193.139 190.92C193.139 190.131 193.32 189.421 193.683 188.792C194.056 188.163 194.557 187.661 195.187 187.288C195.816 186.915 196.515 186.728 197.283 186.728C197.731 186.728 198.163 186.797 198.579 186.936C198.995 187.075 199.379 187.277 199.731 187.544V183.8L201.331 183.496V195H199.747V194.216C199.053 194.824 198.221 195.128 197.251 195.128ZM197.459 193.736C197.928 193.736 198.355 193.651 198.739 193.48C199.133 193.309 199.464 193.064 199.731 192.744V189.08C199.464 188.781 199.133 188.547 198.739 188.376C198.355 188.195 197.928 188.104 197.459 188.104C196.947 188.104 196.483 188.227 196.067 188.472C195.651 188.717 195.32 189.053 195.075 189.48C194.829 189.896 194.707 190.371 194.707 190.904C194.707 191.437 194.829 191.917 195.075 192.344C195.32 192.771 195.651 193.112 196.067 193.368C196.483 193.613 196.947 193.736 197.459 193.736Z" fill="#929292"/>
<circle cx="43" cy="239" r="8" fill="#EBEBEB"/>
<circle cx="43" cy="239" r="3.2" fill="white"/>
<path d="M74.994 244V234.2H79.53C80.174 234.2 80.734 234.326 81.21 234.578C81.686 234.821 82.0593 235.161 82.33 235.6C82.6007 236.039 82.736 236.547 82.736 237.126C82.736 237.705 82.6007 238.213 82.33 238.652C82.0593 239.091 81.6813 239.436 81.196 239.688C80.72 239.931 80.1647 240.052 79.53 240.052H76.464V244H74.994ZM76.464 238.806H79.376C79.9547 238.806 80.412 238.657 80.748 238.358C81.0933 238.05 81.266 237.644 81.266 237.14C81.266 236.636 81.0933 236.235 80.748 235.936C80.412 235.637 79.9547 235.488 79.376 235.488H76.464V238.806ZM85.9804 244.126C85.4671 244.126 85.0144 244.037 84.6224 243.86C84.2304 243.673 83.9224 243.417 83.6984 243.09C83.4744 242.763 83.3624 242.385 83.3624 241.956C83.3624 241.284 83.6191 240.757 84.1324 240.374C84.6457 239.982 85.3504 239.786 86.2464 239.786C86.9464 239.786 87.5951 239.921 88.1924 240.192V239.436C88.1924 238.923 88.0431 238.54 87.7444 238.288C87.4551 238.036 87.0257 237.91 86.4564 237.91C86.1297 237.91 85.7891 237.961 85.4344 238.064C85.0797 238.157 84.6831 238.307 84.2444 238.512L83.7264 237.462C84.2677 237.21 84.7717 237.028 85.2384 236.916C85.7051 236.795 86.1764 236.734 86.6524 236.734C87.5764 236.734 88.2904 236.953 88.7944 237.392C89.3077 237.831 89.5644 238.456 89.5644 239.268V244H88.1924V243.384C87.8751 243.636 87.5344 243.823 87.1704 243.944C86.8064 244.065 86.4097 244.126 85.9804 244.126ZM84.7064 241.928C84.7064 242.273 84.8511 242.553 85.1404 242.768C85.4391 242.983 85.8264 243.09 86.3024 243.09C86.6757 243.09 87.0164 243.034 87.3244 242.922C87.6417 242.81 87.9311 242.637 88.1924 242.404V241.2C87.9217 241.041 87.6371 240.929 87.3384 240.864C87.0491 240.789 86.7224 240.752 86.3584 240.752C85.8451 240.752 85.4391 240.859 85.1404 241.074C84.8511 241.279 84.7064 241.564 84.7064 241.928ZM91.5168 247.01C91.3675 247.01 91.2275 247.001 91.0968 246.982C90.9662 246.973 90.8588 246.954 90.7748 246.926V245.694C90.9428 245.731 91.1482 245.75 91.3908 245.75C92.0442 245.75 92.5155 245.4 92.8048 244.7L93.1128 244.014L90.2568 236.874H91.8108L93.8828 242.306L96.1788 236.874H97.6908L94.2468 244.882C94.0228 245.386 93.7848 245.792 93.5328 246.1C93.2808 246.417 92.9915 246.646 92.6648 246.786C92.3382 246.935 91.9555 247.01 91.5168 247.01ZM98.5604 244V236.874H99.9604V237.56C100.492 237.009 101.16 236.734 101.962 236.734C102.448 236.734 102.877 236.841 103.25 237.056C103.633 237.271 103.936 237.56 104.16 237.924C104.459 237.532 104.809 237.238 105.21 237.042C105.612 236.837 106.064 236.734 106.568 236.734C107.1 236.734 107.562 236.851 107.954 237.084C108.356 237.317 108.668 237.644 108.892 238.064C109.126 238.484 109.242 238.969 109.242 239.52V244H107.842V239.758C107.842 239.198 107.693 238.759 107.394 238.442C107.105 238.115 106.708 237.952 106.204 237.952C105.859 237.952 105.546 238.031 105.266 238.19C104.986 238.349 104.744 238.591 104.538 238.918C104.557 239.011 104.571 239.109 104.58 239.212C104.59 239.315 104.594 239.417 104.594 239.52V244H103.208V239.758C103.208 239.198 103.059 238.759 102.76 238.442C102.471 238.115 102.074 237.952 101.57 237.952C101.234 237.952 100.931 238.027 100.66 238.176C100.39 238.316 100.156 238.531 99.9604 238.82V244H98.5604ZM114.267 244.126C113.567 244.126 112.933 243.963 112.363 243.636C111.803 243.309 111.355 242.866 111.019 242.306C110.693 241.746 110.529 241.121 110.529 240.43C110.529 239.749 110.688 239.133 111.005 238.582C111.323 238.022 111.752 237.579 112.293 237.252C112.835 236.916 113.437 236.748 114.099 236.748C114.762 236.748 115.35 236.916 115.863 237.252C116.377 237.579 116.783 238.027 117.081 238.596C117.389 239.156 117.543 239.791 117.543 240.5V240.892H111.929C112.004 241.284 112.149 241.634 112.363 241.942C112.587 242.25 112.867 242.493 113.203 242.67C113.549 242.847 113.922 242.936 114.323 242.936C114.669 242.936 115 242.885 115.317 242.782C115.644 242.67 115.915 242.511 116.129 242.306L117.025 243.188C116.605 243.505 116.171 243.743 115.723 243.902C115.285 244.051 114.799 244.126 114.267 244.126ZM111.943 239.842H116.157C116.101 239.469 115.971 239.142 115.765 238.862C115.569 238.573 115.322 238.349 115.023 238.19C114.734 238.022 114.417 237.938 114.071 237.938C113.717 237.938 113.39 238.017 113.091 238.176C112.793 238.335 112.541 238.559 112.335 238.848C112.139 239.128 112.009 239.459 111.943 239.842ZM118.877 244V236.874H120.277V237.602C120.827 237.023 121.541 236.734 122.419 236.734C122.969 236.734 123.45 236.851 123.861 237.084C124.281 237.317 124.607 237.644 124.841 238.064C125.083 238.484 125.205 238.969 125.205 239.52V244H123.805V239.758C123.805 239.198 123.646 238.759 123.329 238.442C123.021 238.115 122.587 237.952 122.027 237.952C121.653 237.952 121.317 238.031 121.019 238.19C120.72 238.349 120.473 238.577 120.277 238.876V244H118.877ZM129.667 244.126C128.976 244.126 128.449 243.967 128.085 243.65C127.721 243.323 127.539 242.852 127.539 242.236V238.05H126.027V236.874H127.539V235.054L128.925 234.718V236.874H131.025V238.05H128.925V241.914C128.925 242.278 129.004 242.539 129.163 242.698C129.331 242.847 129.602 242.922 129.975 242.922C130.171 242.922 130.344 242.908 130.493 242.88C130.652 242.852 130.82 242.81 130.997 242.754V243.93C130.81 243.995 130.591 244.042 130.339 244.07C130.096 244.107 129.872 244.126 129.667 244.126ZM135.15 244V234.2H139.588C140.242 234.2 140.811 234.321 141.296 234.564C141.791 234.807 142.174 235.147 142.444 235.586C142.724 236.015 142.864 236.519 142.864 237.098C142.864 237.742 142.682 238.297 142.318 238.764C141.954 239.231 141.464 239.567 140.848 239.772L143.032 244H141.408L139.378 239.982H136.62V244H135.15ZM136.62 238.75H139.476C140.055 238.75 140.517 238.605 140.862 238.316C141.217 238.017 141.394 237.616 141.394 237.112C141.394 236.627 141.217 236.235 140.862 235.936C140.517 235.637 140.055 235.488 139.476 235.488H136.62V238.75ZM147.203 244.126C146.503 244.126 145.868 243.963 145.299 243.636C144.739 243.309 144.291 242.866 143.955 242.306C143.628 241.746 143.465 241.121 143.465 240.43C143.465 239.749 143.624 239.133 143.941 238.582C144.258 238.022 144.688 237.579 145.229 237.252C145.77 236.916 146.372 236.748 147.035 236.748C147.698 236.748 148.286 236.916 148.799 237.252C149.312 237.579 149.718 238.027 150.017 238.596C150.325 239.156 150.479 239.791 150.479 240.5V240.892H144.865C144.94 241.284 145.084 241.634 145.299 241.942C145.523 242.25 145.803 242.493 146.139 242.67C146.484 242.847 146.858 242.936 147.259 242.936C147.604 242.936 147.936 242.885 148.253 242.782C148.58 242.67 148.85 242.511 149.065 242.306L149.961 243.188C149.541 243.505 149.107 243.743 148.659 243.902C148.22 244.051 147.735 244.126 147.203 244.126ZM144.879 239.842H149.093C149.037 239.469 148.906 239.142 148.701 238.862C148.505 238.573 148.258 238.349 147.959 238.19C147.67 238.022 147.352 237.938 147.007 237.938C146.652 237.938 146.326 238.017 146.027 238.176C145.728 238.335 145.476 238.559 145.271 238.848C145.075 239.128 144.944 239.459 144.879 239.842ZM151.812 244V234.2L153.212 233.934V244H151.812ZM158.277 244.126C157.577 244.126 156.942 243.963 156.373 243.636C155.813 243.309 155.365 242.866 155.029 242.306C154.702 241.746 154.539 241.121 154.539 240.43C154.539 239.749 154.698 239.133 155.015 238.582C155.332 238.022 155.762 237.579 156.303 237.252C156.844 236.916 157.446 236.748 158.109 236.748C158.772 236.748 159.36 236.916 159.873 237.252C160.386 237.579 160.792 238.027 161.091 238.596C161.399 239.156 161.553 239.791 161.553 240.5V240.892H155.939C156.014 241.284 156.158 241.634 156.373 241.942C156.597 242.25 156.877 242.493 157.213 242.67C157.558 242.847 157.932 242.936 158.333 242.936C158.678 242.936 159.01 242.885 159.327 242.782C159.654 242.67 159.924 242.511 160.139 242.306L161.035 243.188C160.615 243.505 160.181 243.743 159.733 243.902C159.294 244.051 158.809 244.126 158.277 244.126ZM155.953 239.842H160.167C160.111 239.469 159.98 239.142 159.775 238.862C159.579 238.573 159.332 238.349 159.033 238.19C158.744 238.022 158.426 237.938 158.081 237.938C157.726 237.938 157.4 238.017 157.101 238.176C156.802 238.335 156.55 238.559 156.345 238.848C156.149 239.128 156.018 239.459 155.953 239.842ZM165.045 244.126C164.532 244.126 164.079 244.037 163.687 243.86C163.295 243.673 162.987 243.417 162.763 243.09C162.539 242.763 162.427 242.385 162.427 241.956C162.427 241.284 162.684 240.757 163.197 240.374C163.71 239.982 164.415 239.786 165.311 239.786C166.011 239.786 166.66 239.921 167.257 240.192V239.436C167.257 238.923 167.108 238.54 166.809 238.288C166.52 238.036 166.09 237.91 165.521 237.91C165.194 237.91 164.854 237.961 164.499 238.064C164.144 238.157 163.748 238.307 163.309 238.512L162.791 237.462C163.332 237.21 163.836 237.028 164.303 236.916C164.77 236.795 165.241 236.734 165.717 236.734C166.641 236.734 167.355 236.953 167.859 237.392C168.372 237.831 168.629 238.456 168.629 239.268V244H167.257V243.384C166.94 243.636 166.599 243.823 166.235 243.944C165.871 244.065 165.474 244.126 165.045 244.126ZM163.771 241.928C163.771 242.273 163.916 242.553 164.205 242.768C164.504 242.983 164.891 243.09 165.367 243.09C165.74 243.09 166.081 243.034 166.389 242.922C166.706 242.81 166.996 242.637 167.257 242.404V241.2C166.986 241.041 166.702 240.929 166.403 240.864C166.114 240.789 165.787 240.752 165.423 240.752C164.91 240.752 164.504 240.859 164.205 241.074C163.916 241.279 163.771 241.564 163.771 241.928ZM172.692 244.14C172.076 244.14 171.497 244.051 170.956 243.874C170.424 243.687 169.962 243.426 169.57 243.09L170.34 242.166C170.704 242.455 171.077 242.679 171.46 242.838C171.852 242.987 172.249 243.062 172.65 243.062C173.154 243.062 173.565 242.964 173.882 242.768C174.199 242.572 174.358 242.315 174.358 241.998C174.358 241.737 174.265 241.531 174.078 241.382C173.891 241.233 173.602 241.13 173.21 241.074L171.922 240.892C171.213 240.789 170.681 240.57 170.326 240.234C169.971 239.898 169.794 239.45 169.794 238.89C169.794 238.461 169.911 238.087 170.144 237.77C170.377 237.443 170.704 237.191 171.124 237.014C171.544 236.827 172.034 236.734 172.594 236.734C173.107 236.734 173.602 236.809 174.078 236.958C174.554 237.107 175.011 237.341 175.45 237.658L174.736 238.582C174.344 238.321 173.961 238.129 173.588 238.008C173.224 237.887 172.855 237.826 172.482 237.826C172.053 237.826 171.707 237.919 171.446 238.106C171.185 238.283 171.054 238.517 171.054 238.806C171.054 239.067 171.143 239.273 171.32 239.422C171.507 239.562 171.81 239.66 172.23 239.716L173.518 239.898C174.227 240.001 174.764 240.22 175.128 240.556C175.492 240.883 175.674 241.326 175.674 241.886C175.674 242.315 175.543 242.703 175.282 243.048C175.021 243.384 174.666 243.65 174.218 243.846C173.77 244.042 173.261 244.14 172.692 244.14ZM180.234 244.126C179.534 244.126 178.9 243.963 178.33 243.636C177.77 243.309 177.322 242.866 176.986 242.306C176.66 241.746 176.496 241.121 176.496 240.43C176.496 239.749 176.655 239.133 176.972 238.582C177.29 238.022 177.719 237.579 178.26 237.252C178.802 236.916 179.404 236.748 180.066 236.748C180.729 236.748 181.317 236.916 181.83 237.252C182.344 237.579 182.75 238.027 183.048 238.596C183.356 239.156 183.51 239.791 183.51 240.5V240.892H177.896C177.971 241.284 178.116 241.634 178.33 241.942C178.554 242.25 178.834 242.493 179.17 242.67C179.516 242.847 179.889 242.936 180.29 242.936C180.636 242.936 180.967 242.885 181.284 242.782C181.611 242.67 181.882 242.511 182.096 242.306L182.992 243.188C182.572 243.505 182.138 243.743 181.69 243.902C181.252 244.051 180.766 244.126 180.234 244.126ZM177.91 239.842H182.124C182.068 239.469 181.938 239.142 181.732 238.862C181.536 238.573 181.289 238.349 180.99 238.19C180.701 238.022 180.384 237.938 180.038 237.938C179.684 237.938 179.357 238.017 179.058 238.176C178.76 238.335 178.508 238.559 178.302 238.848C178.106 239.128 177.976 239.459 177.91 239.842ZM188.147 244.112C187.484 244.112 186.878 243.949 186.327 243.622C185.776 243.295 185.342 242.857 185.025 242.306C184.708 241.746 184.549 241.121 184.549 240.43C184.549 239.739 184.708 239.119 185.025 238.568C185.352 238.017 185.79 237.579 186.341 237.252C186.892 236.925 187.503 236.762 188.175 236.762C188.567 236.762 188.945 236.823 189.309 236.944C189.673 237.065 190.009 237.243 190.317 237.476V234.2L191.717 233.934V244H190.331V243.314C189.724 243.846 188.996 244.112 188.147 244.112ZM188.329 242.894C188.74 242.894 189.113 242.819 189.449 242.67C189.794 242.521 190.084 242.306 190.317 242.026V238.82C190.084 238.559 189.794 238.353 189.449 238.204C189.113 238.045 188.74 237.966 188.329 237.966C187.881 237.966 187.475 238.073 187.111 238.288C186.747 238.503 186.458 238.797 186.243 239.17C186.028 239.534 185.921 239.949 185.921 240.416C185.921 240.883 186.028 241.303 186.243 241.676C186.458 242.049 186.747 242.348 187.111 242.572C187.475 242.787 187.881 242.894 188.329 242.894Z" fill="#929292"/>
<circle cx="43" cy="40" r="8" fill="#FF6600"/>
<path d="M46.2434 37.5387L41.8314 41.877L39.7596 39.8399C39.4911 39.5758 39.0499 39.5758 38.7621 39.8399C38.4744 40.1039 38.4936 40.5378 38.7621 40.8207L41.3326 43.3482C41.4669 43.4803 41.6396 43.5557 41.8314 43.5557C42.0232 43.5557 42.1959 43.4803 42.3301 43.3482L47.2409 38.5195C47.5095 38.2554 47.5095 37.8216 47.2409 37.5387C46.9724 37.2558 46.512 37.2746 46.2434 37.5387Z" fill="white"/>
<path d="M74.994 45V35.2H82.246V36.488H76.464V39.498H80.272V40.744H76.464V45H74.994ZM85.6231 45.14C85.0724 45.14 84.5871 45.0233 84.1671 44.79C83.7471 44.5567 83.4204 44.23 83.1871 43.81C82.9537 43.3807 82.8371 42.8907 82.8371 42.34V37.874H84.2231V42.102C84.2231 42.662 84.3817 43.1053 84.6991 43.432C85.0257 43.7587 85.4597 43.922 86.0011 43.922C86.3837 43.922 86.7244 43.8427 87.0231 43.684C87.3217 43.516 87.5644 43.2827 87.7511 42.984V37.874H89.1511V45H87.7511V44.272C87.2004 44.8507 86.4911 45.14 85.6231 45.14ZM90.8084 45V37.874H92.2084V38.602C92.7591 38.0233 93.4731 37.734 94.3504 37.734C94.9011 37.734 95.3818 37.8507 95.7924 38.084C96.2124 38.3173 96.5391 38.644 96.7724 39.064C97.0151 39.484 97.1364 39.9693 97.1364 40.52V45H95.7364V40.758C95.7364 40.198 95.5778 39.7593 95.2604 39.442C94.9524 39.1153 94.5184 38.952 93.9584 38.952C93.5851 38.952 93.2491 39.0313 92.9504 39.19C92.6518 39.3487 92.4044 39.5773 92.2084 39.876V45H90.8084ZM102.028 45.112C101.365 45.112 100.758 44.9487 100.208 44.622C99.6571 44.2953 99.2231 43.8567 98.9058 43.306C98.5884 42.746 98.4298 42.1207 98.4298 41.43C98.4298 40.7393 98.5884 40.1187 98.9058 39.568C99.2324 39.0173 99.6711 38.5787 100.222 38.252C100.772 37.9253 101.384 37.762 102.056 37.762C102.448 37.762 102.826 37.8227 103.19 37.944C103.554 38.0653 103.89 38.2427 104.198 38.476V35.2L105.598 34.934V45H104.212V44.314C103.605 44.846 102.877 45.112 102.028 45.112ZM102.21 43.894C102.62 43.894 102.994 43.8193 103.33 43.67C103.675 43.5207 103.964 43.306 104.198 43.026V39.82C103.964 39.5587 103.675 39.3533 103.33 39.204C102.994 39.0453 102.62 38.966 102.21 38.966C101.762 38.966 101.356 39.0733 100.992 39.288C100.628 39.5027 100.338 39.7967 100.124 40.17C99.9091 40.534 99.8018 40.9493 99.8018 41.416C99.8018 41.8827 99.9091 42.3027 100.124 42.676C100.338 43.0493 100.628 43.348 100.992 43.572C101.356 43.7867 101.762 43.894 102.21 43.894ZM109.369 45L113.415 35.2H115.151L119.155 45H117.559L116.425 42.13H112.043L110.895 45H109.369ZM112.519 40.912H115.949L114.241 36.6L112.519 40.912ZM122.905 45.112C122.242 45.112 121.635 44.9487 121.085 44.622C120.534 44.2953 120.1 43.8567 119.783 43.306C119.465 42.746 119.307 42.1207 119.307 41.43C119.307 40.7393 119.465 40.1187 119.783 39.568C120.109 39.0173 120.548 38.5787 121.099 38.252C121.649 37.9253 122.261 37.762 122.933 37.762C123.325 37.762 123.703 37.8227 124.067 37.944C124.431 38.0653 124.767 38.2427 125.075 38.476V35.2L126.475 34.934V45H125.089V44.314C124.482 44.846 123.754 45.112 122.905 45.112ZM123.087 43.894C123.497 43.894 123.871 43.8193 124.207 43.67C124.552 43.5207 124.841 43.306 125.075 43.026V39.82C124.841 39.5587 124.552 39.3533 124.207 39.204C123.871 39.0453 123.497 38.966 123.087 38.966C122.639 38.966 122.233 39.0733 121.869 39.288C121.505 39.5027 121.215 39.7967 121.001 40.17C120.786 40.534 120.679 40.9493 120.679 41.416C120.679 41.8827 120.786 42.3027 121.001 42.676C121.215 43.0493 121.505 43.348 121.869 43.572C122.233 43.7867 122.639 43.894 123.087 43.894ZM131.409 45.112C130.746 45.112 130.139 44.9487 129.589 44.622C129.038 44.2953 128.604 43.8567 128.287 43.306C127.969 42.746 127.811 42.1207 127.811 41.43C127.811 40.7393 127.969 40.1187 128.287 39.568C128.613 39.0173 129.052 38.5787 129.603 38.252C130.153 37.9253 130.765 37.762 131.437 37.762C131.829 37.762 132.207 37.8227 132.571 37.944C132.935 38.0653 133.271 38.2427 133.579 38.476V35.2L134.979 34.934V45H133.593V44.314C132.986 44.846 132.258 45.112 131.409 45.112ZM131.591 43.894C132.001 43.894 132.375 43.8193 132.711 43.67C133.056 43.5207 133.345 43.306 133.579 43.026V39.82C133.345 39.5587 133.056 39.3533 132.711 39.204C132.375 39.0453 132.001 38.966 131.591 38.966C131.143 38.966 130.737 39.0733 130.373 39.288C130.009 39.5027 129.719 39.7967 129.505 40.17C129.29 40.534 129.183 40.9493 129.183 41.416C129.183 41.8827 129.29 42.3027 129.505 42.676C129.719 43.0493 130.009 43.348 130.373 43.572C130.737 43.7867 131.143 43.894 131.591 43.894ZM140.053 45.126C139.353 45.126 138.718 44.9627 138.149 44.636C137.589 44.3093 137.141 43.866 136.805 43.306C136.478 42.746 136.315 42.1207 136.315 41.43C136.315 40.7487 136.473 40.1327 136.791 39.582C137.108 39.022 137.537 38.5787 138.079 38.252C138.62 37.916 139.222 37.748 139.885 37.748C140.547 37.748 141.135 37.916 141.649 38.252C142.162 38.5787 142.568 39.0267 142.867 39.596C143.175 40.156 143.329 40.7907 143.329 41.5V41.892H137.715C137.789 42.284 137.934 42.634 138.149 42.942C138.373 43.25 138.653 43.4927 138.989 43.67C139.334 43.8473 139.707 43.936 140.109 43.936C140.454 43.936 140.785 43.8847 141.103 43.782C141.429 43.67 141.7 43.5113 141.915 43.306L142.811 44.188C142.391 44.5053 141.957 44.7433 141.509 44.902C141.07 45.0513 140.585 45.126 140.053 45.126ZM137.729 40.842H141.943C141.887 40.4687 141.756 40.142 141.551 39.862C141.355 39.5727 141.107 39.3487 140.809 39.19C140.519 39.022 140.202 38.938 139.857 38.938C139.502 38.938 139.175 39.0173 138.877 39.176C138.578 39.3347 138.326 39.5587 138.121 39.848C137.925 40.128 137.794 40.4593 137.729 40.842ZM147.965 45.112C147.303 45.112 146.696 44.9487 146.145 44.622C145.595 44.2953 145.161 43.8567 144.843 43.306C144.526 42.746 144.367 42.1207 144.367 41.43C144.367 40.7393 144.526 40.1187 144.843 39.568C145.17 39.0173 145.609 38.5787 146.159 38.252C146.71 37.9253 147.321 37.762 147.993 37.762C148.385 37.762 148.763 37.8227 149.127 37.944C149.491 38.0653 149.827 38.2427 150.135 38.476V35.2L151.535 34.934V45H150.149V44.314C149.543 44.846 148.815 45.112 147.965 45.112ZM148.147 43.894C148.558 43.894 148.931 43.8193 149.267 43.67C149.613 43.5207 149.902 43.306 150.135 43.026V39.82C149.902 39.5587 149.613 39.3533 149.267 39.204C148.931 39.0453 148.558 38.966 148.147 38.966C147.699 38.966 147.293 39.0733 146.929 39.288C146.565 39.5027 146.276 39.7967 146.061 40.17C145.847 40.534 145.739 40.9493 145.739 41.416C145.739 41.8827 145.847 42.3027 146.061 42.676C146.276 43.0493 146.565 43.348 146.929 43.572C147.293 43.7867 147.699 43.894 148.147 43.894Z" fill="#929292"/>
<defs>
<filter id="filter0_dd_303_739" x="5" y="81" width="291" height="116" filterUnits="userSpaceOnUse" color-interpolation-filters="sRGB">
<feFlood flood-opacity="0" result="BackgroundImageFix"/>
<feColorMatrix in="SourceAlpha" type="matrix" values="0 0 0 0 0 0 0 0 0 0 0 0 0 0 0 0 0 0 127 0" result="hardAlpha"/>
<feMorphology radius="5" operator="erode" in="SourceAlpha" result="effect1_dropShadow_303_739"/>
<feOffset dy="20"/>
<feGaussianBlur stdDeviation="12.5"/>
<feColorMatrix type="matrix" values="0 0 0 0 0 0 0 0 0 0 0 0 0 0 0 0 0 0 0.1 0"/>
<feBlend mode="normal" in2="BackgroundImageFix" result="effect1_dropShadow_303_739"/>
<feColorMatrix in="SourceAlpha" type="matrix" values="0 0 0 0 0 0 0 0 0 0 0 0 0 0 0 0 0 0 127 0" result="hardAlpha"/>
<feMorphology radius="5" operator="erode" in="SourceAlpha" result="effect2_dropShadow_303_739"/>
<feOffset dy="-20"/>
<feGaussianBlur stdDeviation="12.5"/>
<feColorMatrix type="matrix" values="0 0 0 0 0 0 0 0 0 0 0 0 0 0 0 0 0 0 0.1 0"/>
<feBlend mode="normal" in2="effect1_dropShadow_303_739" result="effect2_dropShadow_303_739"/>
<feBlend mode="normal" in="SourceGraphic" in2="effect2_dropShadow_303_739" result="shape"/>
</filter>
</defs>
</svg>
