<svg width="434" height="434" viewBox="0 0 434 434" fill="none" xmlns="http://www.w3.org/2000/svg">
<g clip-path="url(#clip0_459_320)">
<path d="M230.035 370.332C229.934 370.332 229.83 370.321 229.729 370.296C227.149 369.712 224.083 369.402 220.862 369.402C217.785 369.377 214.578 369.705 211.995 370.292C211.444 370.411 210.864 370.184 210.543 369.719C210.226 369.247 210.226 368.631 210.547 368.159C211.44 366.855 211.912 365.295 211.909 363.652C211.909 362.009 211.433 360.445 210.54 359.13C210.219 358.662 210.219 358.042 210.54 357.574C210.857 357.102 211.433 356.864 211.988 357.005C214.557 357.585 217.605 357.894 220.804 357.894C220.84 357.898 220.869 357.898 220.909 357.894C224.112 357.894 227.156 357.588 229.714 357.008C230.266 356.886 230.846 357.109 231.163 357.581C231.483 358.049 231.483 358.665 231.166 359.137C230.273 360.452 229.808 362.009 229.815 363.645C229.815 365.295 230.287 366.855 231.181 368.17C231.498 368.642 231.498 369.258 231.177 369.726C230.918 370.112 230.485 370.332 230.035 370.332ZM220.862 366.635C223.214 366.635 225.495 366.793 227.596 367.096C227.235 366.001 227.048 364.841 227.048 363.652C227.041 362.467 227.225 361.306 227.585 360.207C225.491 360.506 223.121 360.791 220.858 360.661C220.84 360.661 220.822 360.661 220.804 360.661C218.473 360.661 216.21 360.507 214.124 360.204C214.488 361.299 214.675 362.459 214.675 363.648C214.679 364.837 214.492 365.997 214.131 367.089C216.228 366.786 218.588 366.599 220.862 366.635Z" fill="#1E2358"/>
<path d="M67.0101 260.879C66.2463 260.879 65.6267 260.259 65.6267 259.495L65.6123 244.518C65.6123 243.754 66.2319 243.134 66.9958 243.134C67.7596 243.134 68.3793 243.754 68.3793 244.518L68.3936 259.495C68.3936 260.259 67.774 260.879 67.0101 260.879Z" fill="#1E2358"/>
<path d="M79.9735 253.396L54.0361 253.389C53.2722 253.389 52.6526 252.769 52.6526 252.005C52.6526 251.241 53.2722 250.622 54.0361 250.622L79.9735 250.629C80.7373 250.629 81.357 251.249 81.357 252.012C81.357 252.776 80.7373 253.396 79.9735 253.396Z" fill="#1E2358"/>
<path d="M251.57 83.3881C250.427 83.3881 249.195 83.024 247.941 82.3036C243.874 79.9545 240.689 74.4349 240.689 69.7401C240.689 67.2 241.618 65.2653 243.301 64.2926C244.987 63.3234 247.124 63.4855 249.325 64.761C253.393 67.11 256.581 72.6296 256.581 77.3207C256.581 79.8535 255.655 81.7847 253.973 82.7576C253.245 83.179 252.434 83.3881 251.57 83.3881ZM245.697 66.4435C245.315 66.4435 244.973 66.5264 244.684 66.692C243.902 67.1425 243.456 68.2521 243.456 69.7401C243.456 73.4114 246.143 78.0665 249.325 79.904C250.618 80.6498 251.807 80.8119 252.585 80.3651C253.367 79.9111 253.814 78.805 253.814 77.3207C253.814 73.6493 251.123 68.9943 247.941 67.1533C247.127 66.6849 246.353 66.4435 245.697 66.4435Z" fill="#1E2358"/>
<path d="M366.985 281.231C366.51 281.231 366.041 280.983 365.786 280.54C365.404 279.877 365.634 279.03 366.294 278.648L379.271 271.168C379.938 270.79 380.785 271.017 381.163 271.676C381.545 272.339 381.314 273.186 380.655 273.568L367.677 281.047C367.457 281.174 367.22 281.231 366.985 281.231Z" fill="#1E2358"/>
<path d="M379.963 288.718C379.488 288.718 379.023 288.469 378.767 288.026L365.79 265.566C365.404 264.903 365.631 264.06 366.294 263.678C366.939 263.296 367.796 263.516 368.182 264.182L381.16 286.643C381.545 287.306 381.318 288.149 380.655 288.531C380.439 288.657 380.201 288.718 379.963 288.718Z" fill="#1E2358"/>
<path d="M174.538 331.614L148.359 316.5L122.238 331.578V342.326L148.416 357.44L174.538 342.361V331.614Z" fill="#FF672F"/>
<path d="M148.414 358.824C148.177 358.824 147.935 358.762 147.723 358.64L121.544 343.526C121.115 343.277 120.852 342.82 120.852 342.326V331.578C120.852 331.085 121.115 330.627 121.544 330.379L147.669 315.3C148.094 315.055 148.627 315.055 149.052 315.3L175.231 330.415C175.66 330.663 175.923 331.121 175.923 331.615V342.362C175.923 342.856 175.66 343.313 175.231 343.562L149.106 358.64C148.894 358.762 148.652 358.824 148.414 358.824ZM123.619 341.526L148.414 355.844L173.156 341.562V332.414L148.36 318.096L123.619 332.378V341.526Z" fill="#1E2358"/>
<path d="M174.538 331.614L148.359 316.5L122.238 331.578L148.416 346.692L174.538 331.614Z" fill="white"/>
<path d="M148.414 348.076C148.177 348.076 147.935 348.015 147.723 347.892L121.544 332.778C121.115 332.53 120.852 332.072 120.852 331.578C120.852 331.085 121.115 330.627 121.544 330.379L147.669 315.3C148.094 315.055 148.627 315.055 149.052 315.3L175.231 330.415C175.66 330.663 175.923 331.121 175.923 331.615C175.923 332.108 175.66 332.566 175.231 332.814L149.106 347.893C148.894 348.015 148.652 348.076 148.414 348.076ZM125.003 331.578L148.414 345.097L171.772 331.614L148.36 318.096L125.003 331.578Z" fill="#1E2358"/>
<path d="M148.416 346.693V357.44L174.538 342.362V331.615L148.416 346.693Z" fill="#1E2358"/>
<path d="M148.414 358.824C148.177 358.824 147.935 358.763 147.723 358.64C147.294 358.391 147.031 357.934 147.031 357.44V346.693C147.031 346.199 147.294 345.742 147.723 345.493L173.848 330.415C174.273 330.17 174.806 330.17 175.231 330.415C175.66 330.663 175.923 331.121 175.923 331.614V342.362C175.923 342.855 175.66 343.313 175.231 343.562L149.106 358.64C148.894 358.763 148.652 358.824 148.414 358.824ZM149.798 347.493V355.044L173.156 341.562V334.01L149.798 347.493Z" fill="#1E2358"/>
<path d="M115.752 161.702C124.397 153.058 124.397 139.042 115.752 130.397C107.107 121.753 93.0914 121.753 84.4468 130.397C75.8021 139.042 75.8021 153.058 84.4468 161.702C93.0915 170.347 107.107 170.347 115.752 161.702Z" fill="white"/>
<path d="M100.099 169.57C87.1286 169.57 76.5793 159.02 76.5793 146.05C76.5793 133.08 87.1287 122.53 100.099 122.53C113.07 122.53 123.619 133.079 123.619 146.05C123.619 159.02 113.07 169.57 100.099 169.57ZM100.099 125.297C88.6562 125.297 79.3463 134.607 79.3463 146.05C79.3463 157.493 88.6562 166.803 100.099 166.803C111.542 166.803 120.852 157.493 120.852 146.05C120.852 134.607 111.542 125.297 100.099 125.297Z" fill="#1E2358"/>
<path d="M100.101 123.914C99.2218 123.914 98.3605 123.979 97.5069 124.08C106.521 125.596 113.399 133.379 113.399 142.822C113.399 153.346 104.864 161.881 94.3362 161.881C88.5753 161.881 83.4699 159.269 79.9749 155.227C83.4662 162.869 91.1549 168.187 100.101 168.187C112.329 168.187 122.237 158.275 122.237 146.05C122.237 133.826 112.329 123.914 100.101 123.914Z" fill="#FF672F"/>
<path d="M100.099 169.57C90.9298 169.57 82.535 164.166 78.716 155.803C78.4277 155.176 78.6474 154.434 79.2238 154.063C79.7967 153.688 80.5678 153.8 81.0181 154.322C84.4157 158.246 89.2687 160.498 94.3345 160.498C104.084 160.498 112.018 152.568 112.018 142.822C112.018 134.189 105.821 126.883 97.2781 125.445C96.6008 125.33 96.1071 124.735 96.125 124.047C96.1431 123.359 96.6619 122.786 97.3464 122.707C98.2507 122.599 99.1659 122.53 100.099 122.53C113.07 122.53 123.619 133.08 123.619 146.05C123.619 159.021 113.07 169.57 100.099 169.57ZM86.4261 161.633C90.1479 164.897 94.9867 166.803 100.099 166.803C111.542 166.803 120.852 157.493 120.852 146.05C120.852 136.744 114.695 128.85 106.242 126.223C111.47 129.945 114.785 136.03 114.785 142.822C114.785 154.095 105.612 163.265 94.3346 163.265C91.5964 163.265 88.9086 162.699 86.4261 161.633Z" fill="#1E2358"/>
<path d="M304.293 164.608L190.653 98.9956C180.515 93.1442 171.338 92.5898 164.701 96.423V96.4192L158.342 100.094C158.338 100.094 158.331 100.098 158.331 100.102L158.259 100.137L158.266 100.141C151.673 103.975 147.594 112.139 147.594 123.765C147.594 147.094 164.009 175.486 184.265 187.184L297.901 252.793C298.946 253.399 299.976 253.907 300.999 254.397C307.146 266.971 316.672 278.288 327.402 284.481C329.217 285.529 330.99 286.34 332.727 287.024L339.118 283.335C335.761 275.373 333.79 267.093 333.79 259.405C333.793 253.431 334.975 248.466 337.072 244.633C339.536 240.374 340.963 234.804 340.963 228.023C340.963 204.698 324.541 176.3 304.293 164.608Z" fill="#FF672F"/>
<path d="M332.725 288.408C332.552 288.408 332.383 288.376 332.217 288.311C330.2 287.518 328.398 286.654 326.712 285.677C316.235 279.631 306.507 268.625 299.968 255.434C299.056 254.995 298.141 254.53 297.211 253.99L183.572 188.384C162.97 176.484 146.209 147.498 146.209 123.766C146.209 112.02 150.245 103.204 157.569 98.9451C157.595 98.927 157.623 98.9127 157.649 98.8983L164.008 95.2233C171.376 90.9648 181.082 91.8762 191.343 97.7958L304.983 163.408C325.584 175.302 342.345 204.287 342.345 228.023C342.345 234.825 340.976 240.648 338.27 245.324C336.224 249.064 335.175 253.809 335.171 259.404C335.171 266.61 336.977 274.699 340.392 282.798C340.662 283.44 340.414 284.185 339.808 284.535L333.417 288.224C333.204 288.347 332.967 288.408 332.725 288.408ZM159.097 101.255C159.05 101.287 159.003 101.312 158.953 101.338C152.522 105.081 148.977 113.047 148.977 123.766C148.977 146.615 165.118 174.527 184.955 185.985L298.595 251.594C299.611 252.185 300.609 252.675 301.596 253.15C301.877 253.284 302.104 253.511 302.241 253.788C308.546 266.686 317.971 277.437 328.096 283.282C329.494 284.092 330.978 284.816 332.617 285.49L337.377 282.745C334.12 274.685 332.405 266.64 332.405 259.405C332.409 253.341 333.572 248.146 335.86 243.966C338.332 239.69 339.578 234.336 339.578 228.024C339.578 205.17 323.437 177.259 303.6 165.809L189.96 100.196C180.6 94.7879 171.87 93.8763 165.392 97.6234L159.097 101.255Z" fill="#1E2358"/>
<path d="M301 254.397C307.146 266.971 316.673 278.288 327.402 284.481C329.218 285.529 330.991 286.34 332.727 287.024L339.119 283.335C335.761 275.373 333.79 267.093 333.79 259.405C333.794 253.431 334.975 248.466 337.072 244.633C339.537 240.374 340.963 234.804 340.963 228.023L297.988 252.833C299.004 253.416 300.005 253.921 301 254.397Z" fill="#1E2358"/>
<path d="M332.725 288.408C332.552 288.408 332.383 288.376 332.217 288.311C330.2 287.518 328.398 286.654 326.712 285.677C316.235 279.631 306.507 268.624 299.968 255.434C299.085 255.006 298.195 254.548 297.298 254.033C296.869 253.788 296.603 253.33 296.603 252.833C296.603 252.339 296.866 251.882 297.294 251.633L340.27 226.823C340.695 226.578 341.228 226.578 341.653 226.823C342.082 227.072 342.345 227.53 342.345 228.023C342.345 234.825 340.976 240.648 338.27 245.324C336.224 249.064 335.175 253.809 335.172 259.405C335.172 266.61 336.977 274.699 340.392 282.798C340.662 283.44 340.414 284.185 339.808 284.535L333.417 288.224C333.205 288.347 332.967 288.408 332.725 288.408ZM300.839 252.783C301.092 252.905 301.344 253.028 301.596 253.15C301.877 253.284 302.104 253.51 302.241 253.788C308.546 266.686 317.971 277.437 328.096 283.281C329.494 284.092 330.978 284.816 332.617 285.49L337.377 282.745C334.12 274.685 332.405 266.64 332.405 259.405C332.408 253.341 333.572 248.146 335.86 243.966C338.007 240.252 339.229 235.719 339.513 230.455L300.839 252.783Z" fill="#1E2358"/>
<path d="M330.68 248.322C333.152 244.064 334.572 238.493 334.572 231.716C334.572 208.388 318.149 179.989 297.901 168.298L184.265 102.689C164.009 90.9973 147.594 100.437 147.594 123.766C147.594 147.095 164.009 175.486 184.265 187.184L297.901 252.794C298.946 253.399 299.977 253.907 300.999 254.397C307.146 266.971 316.672 278.288 327.402 284.481C329.217 285.529 330.99 286.34 332.727 287.025C329.372 279.062 327.402 270.783 327.402 263.094C327.402 257.121 328.584 252.156 330.68 248.322Z" fill="white"/>
<path d="M332.725 288.408C332.556 288.408 332.383 288.376 332.217 288.311C330.2 287.518 328.398 286.654 326.712 285.677C316.235 279.631 306.507 268.624 299.968 255.434C299.056 254.995 298.141 254.53 297.211 253.989L183.572 188.384C162.97 176.483 146.209 147.498 146.209 123.766C146.209 111.984 150.259 103.157 157.613 98.9126C164.981 94.6539 174.687 95.5655 184.955 101.489L298.595 167.098C319.197 178.994 335.954 207.983 335.954 231.716C335.954 238.533 334.585 244.348 331.886 248.999C329.829 252.771 328.787 257.513 328.787 263.094C328.787 270.303 330.589 278.392 334.001 286.487C334.217 286.999 334.105 287.593 333.716 287.99C333.449 288.264 333.089 288.408 332.725 288.408ZM167.863 99.0424C164.609 99.0424 161.619 99.7955 158.996 101.309C152.536 105.041 148.976 113.014 148.976 123.766C148.976 146.615 165.118 174.527 184.955 185.984L298.595 251.593C299.611 252.184 300.609 252.674 301.596 253.15C301.877 253.283 302.104 253.51 302.241 253.788C308.546 266.686 317.971 277.437 328.095 283.281C328.773 283.674 329.472 284.049 330.2 284.405C327.458 277.03 326.02 269.723 326.02 263.094C326.02 257.038 327.18 251.846 329.465 247.659C329.472 247.648 329.475 247.637 329.483 247.627C331.94 243.397 333.187 238.046 333.187 231.716C333.187 208.863 317.049 180.951 297.212 169.497L183.572 103.888C177.998 100.671 172.648 99.0424 167.863 99.0424Z" fill="#1E2358"/>
<path d="M210.894 160.314C210.894 176.026 199.837 182.381 186.196 174.506C172.548 166.63 161.488 147.498 161.488 131.782C161.488 116.074 172.548 109.718 186.196 117.594C199.837 125.47 210.898 144.594 210.894 160.314Z" fill="#FF672F"/>
<path d="M197.252 179.279C193.62 179.279 189.621 178.08 185.503 175.705C171.498 167.624 160.106 147.92 160.106 131.782C160.106 123.683 162.913 117.601 168.011 114.658C173.123 111.71 179.825 112.326 186.886 116.394C200.887 124.479 212.28 144.18 212.28 160.314C212.28 168.416 209.473 174.498 204.375 177.442C202.246 178.67 199.842 179.279 197.252 179.279ZM175.145 115.587C173.03 115.587 171.091 116.073 169.394 117.053C165.19 119.482 162.873 124.713 162.873 131.782C162.873 147.037 173.646 165.668 186.886 173.306C193.051 176.865 198.769 177.478 202.992 175.046C207.196 172.617 209.513 167.386 209.513 160.314C209.513 145.059 198.744 126.435 185.503 118.793C181.817 116.664 178.286 115.587 175.145 115.587Z" fill="#1E2358"/>
<path d="M186.196 154.402C180.878 151.332 176.569 143.881 176.569 137.763C176.569 131.638 180.878 129.163 186.189 132.233C191.507 135.299 195.816 142.753 195.816 148.875C195.816 154.996 191.507 157.471 186.196 154.402ZM186.196 174.506C193.121 178.505 199.376 178.822 203.858 176.124C200.244 167.145 193.691 158.733 186.196 154.402C178.695 150.071 172.145 150.914 168.528 155.72C173.017 163.604 179.264 170.507 186.196 174.506Z" fill="white"/>
<path d="M197.23 179.28C193.609 179.28 189.617 178.08 185.503 175.706C178.603 171.724 172.147 164.868 167.326 156.405C167.056 155.926 167.092 155.331 167.423 154.888C170.324 151.033 174.799 149.545 179.886 150.5C177.036 146.76 175.184 142.022 175.184 137.763C175.184 134.29 176.427 131.66 178.686 130.356C180.952 129.048 183.867 129.297 186.883 131.033C192.665 134.369 197.198 142.206 197.198 148.875C197.198 152.344 195.955 154.974 193.696 156.279C193.188 156.574 192.647 156.787 192.078 156.927C197.482 161.586 202.166 168.219 205.139 175.608C205.394 176.239 205.153 176.959 204.569 177.309C202.386 178.624 199.907 179.28 197.23 179.28ZM170.208 155.857C174.73 163.521 180.628 169.696 186.886 173.306C192.626 176.617 197.962 177.377 202.094 175.493C198.398 166.972 192.118 159.421 185.503 155.601C179.259 151.995 173.609 152.11 170.208 155.857ZM181.889 132.294C181.215 132.294 180.599 132.445 180.07 132.752C178.704 133.541 177.951 135.32 177.951 137.763C177.951 143.434 181.961 150.359 186.886 153.202C189.016 154.438 190.943 154.675 192.312 153.883C193.678 153.094 194.431 151.314 194.431 148.875C194.431 143.2 190.424 136.272 185.499 133.433C184.195 132.676 182.963 132.294 181.889 132.294Z" fill="#1E2358"/>
<path d="M283.982 219.52C283.744 219.52 283.506 219.459 283.29 219.337L230.035 188.593C229.372 188.211 229.145 187.365 229.527 186.701C229.916 186.035 230.77 185.822 231.419 186.193L284.673 216.937C285.336 217.319 285.563 218.166 285.181 218.829C284.922 219.272 284.457 219.52 283.982 219.52ZM303.153 201.138C302.915 201.138 302.677 201.077 302.461 200.955L230.035 159.146C229.372 158.764 229.145 157.918 229.527 157.255C229.916 156.588 230.77 156.376 231.419 156.747L303.844 198.555C304.507 198.937 304.734 199.784 304.352 200.447C304.093 200.89 303.628 201.138 303.153 201.138ZM264.81 193.734C264.573 193.734 264.335 193.673 264.119 193.551L230.039 173.868C229.376 173.482 229.149 172.639 229.531 171.976C229.916 171.31 230.77 171.097 231.422 171.468L265.502 191.151C266.165 191.536 266.392 192.379 266.01 193.042C265.751 193.486 265.286 193.734 264.81 193.734Z" fill="#1E2358"/>
<path d="M266.487 262.972L152.851 197.363C142.741 191.526 133.59 190.96 126.957 194.754L126.953 194.75L126.928 194.765C126.924 194.765 126.921 194.768 126.921 194.772L120.565 198.443C113.91 202.248 109.792 210.448 109.792 222.125C109.792 228.913 111.212 236.122 113.684 243.228C115.781 249.482 116.962 255.813 116.962 261.79C116.962 269.471 114.988 275.481 111.634 279.563C113.374 280.893 115.146 282.121 116.962 283.173C127.688 289.363 137.218 289.05 143.361 283.577C144.384 284.265 145.411 284.942 146.459 285.544L260.099 351.153C270.115 356.939 279.18 357.534 285.802 353.855L285.809 353.873L292.403 350.069H292.399C299.046 346.257 303.154 338.064 303.154 326.387C303.154 303.065 286.739 274.667 266.487 262.972Z" fill="#FF672F"/>
<path d="M276.48 357.555C271.205 357.555 265.394 355.808 259.41 352.349L145.766 286.744C144.988 286.297 144.221 285.807 143.457 285.303C136.579 290.739 126.743 290.411 116.269 284.373C114.529 283.364 112.739 282.15 110.797 280.662C110.498 280.435 110.303 280.093 110.263 279.722C110.22 279.351 110.328 278.976 110.566 278.684C113.845 274.692 115.578 268.848 115.578 261.79C115.578 256.112 114.501 250.016 112.371 243.667C109.745 236.112 108.408 228.859 108.408 222.125C108.408 210.308 112.483 201.47 119.88 197.244L126.195 193.594C126.242 193.565 126.289 193.536 126.34 193.515C133.787 189.353 143.399 190.312 153.542 196.163L267.178 261.772C287.776 273.669 304.536 302.654 304.536 326.387C304.536 338.197 300.472 347.035 293.09 351.268L286.5 355.073C286.428 355.113 286.349 355.149 286.27 355.177C283.326 356.766 280.022 357.555 276.48 357.555ZM143.363 282.193C143.633 282.193 143.903 282.272 144.138 282.431C145.128 283.098 146.126 283.761 147.146 284.344L260.793 349.953C270.02 355.286 278.656 356.233 285.134 352.645C285.192 352.612 285.25 352.587 285.311 352.562L291.71 348.869C298.199 345.147 301.769 337.163 301.769 326.386C301.769 303.533 285.632 275.621 265.794 264.171L152.158 198.562C142.83 193.172 134.129 192.25 127.644 195.954C127.626 195.968 127.615 195.968 127.611 195.968L121.259 199.64C114.756 203.358 111.175 211.342 111.175 222.125C111.175 228.55 112.457 235.496 114.99 242.774C117.217 249.417 118.344 255.813 118.344 261.79C118.344 268.862 116.701 274.876 113.581 279.293C115.008 280.338 116.352 281.22 117.656 281.977C127.46 287.637 136.492 287.839 142.444 282.543C142.704 282.312 143.032 282.193 143.363 282.193Z" fill="#1E2358"/>
<path d="M285.803 353.855L285.81 353.873L292.403 350.069H292.399C299.047 346.257 303.154 338.064 303.154 326.387L260.186 351.2C270.166 356.936 279.202 357.523 285.803 353.855Z" fill="#1E2358"/>
<path d="M276.487 357.552C271.238 357.552 265.451 355.822 259.496 352.4C259.067 352.155 258.801 351.697 258.801 351.2C258.801 350.706 259.064 350.248 259.492 350L302.461 325.187C302.886 324.942 303.419 324.942 303.844 325.187C304.273 325.435 304.536 325.893 304.536 326.386C304.536 338.197 300.472 347.035 293.089 351.268L286.5 355.073C286.428 355.112 286.348 355.148 286.273 355.177C283.329 356.763 280.029 357.552 276.487 357.552ZM263.019 351.16C271.4 355.404 279.186 355.945 285.134 352.645C285.192 352.612 285.249 352.587 285.311 352.562L291.709 348.869C297.701 345.435 301.203 338.366 301.708 328.818L263.019 351.16Z" fill="#1E2358"/>
<path d="M116.963 261.79C116.963 269.471 114.988 275.48 111.634 279.563C113.374 280.892 115.147 282.121 116.963 283.173C127.688 289.363 137.218 289.049 143.361 283.576L143.358 283.58C144.388 284.261 145.411 284.942 146.46 285.544L260.1 351.153C280.348 362.848 296.766 353.408 296.766 330.076C296.766 306.754 280.351 278.355 260.1 266.661L146.46 201.051C126.215 189.364 109.793 198.803 109.793 222.125C109.793 228.913 111.212 236.122 113.684 243.227C115.781 249.482 116.963 255.812 116.963 261.79Z" fill="white"/>
<path d="M276.509 357.573C271.234 357.573 265.416 355.819 259.41 352.353L145.766 286.743C144.988 286.297 144.221 285.807 143.457 285.302C136.579 290.739 126.743 290.411 116.269 284.373C114.529 283.364 112.739 282.15 110.797 280.662C110.498 280.435 110.303 280.093 110.263 279.721C110.22 279.35 110.328 278.976 110.566 278.684C113.845 274.692 115.578 268.848 115.578 261.79C115.578 256.112 114.501 250.016 112.371 243.667C109.745 236.112 108.408 228.859 108.408 222.125C108.408 210.347 112.458 201.524 119.811 197.28C127.186 193.021 136.889 193.929 147.15 199.852L260.793 265.461C281.391 277.358 298.148 306.343 298.148 330.076C298.148 341.861 294.098 350.688 286.745 354.932C283.689 356.694 280.234 357.57 276.509 357.573ZM144.199 282.478C145.269 283.187 146.195 283.8 147.146 284.344L260.793 349.953C270.157 355.365 278.88 356.276 285.361 352.536C291.821 348.807 295.381 340.831 295.381 330.076C295.381 307.226 279.244 279.314 259.41 267.861L145.766 202.252C136.41 196.847 127.683 195.925 121.194 199.675C114.734 203.404 111.175 211.378 111.175 222.125C111.175 228.549 112.457 235.496 114.99 242.774C117.217 249.417 118.344 255.813 118.344 261.79C118.344 268.862 116.701 274.876 113.581 279.293C115.008 280.338 116.352 281.22 117.653 281.977C127.46 287.637 136.492 287.839 142.444 282.543L142.452 282.55C142.531 282.467 142.628 282.399 142.736 282.345C143.219 282.099 143.792 282.168 144.199 282.478Z" fill="#1E2358"/>
<path d="M173.089 258.673C173.089 274.389 162.035 280.745 148.387 272.869C134.74 264.989 123.686 245.865 123.686 230.149C123.686 214.433 134.743 208.077 148.391 215.957C162.031 223.837 173.089 242.957 173.089 258.673Z" fill="#FF672F"/>
<path d="M159.447 277.643C155.815 277.643 151.816 276.443 147.697 274.069C133.696 265.984 122.304 246.283 122.304 230.149C122.304 222.046 125.111 215.961 130.209 213.017C135.321 210.063 142.026 210.686 149.081 214.757C163.082 222.846 174.474 242.547 174.474 258.673C174.474 266.777 171.668 272.862 166.569 275.805C164.44 277.034 162.037 277.643 159.447 277.643ZM137.339 213.95C135.228 213.95 133.289 214.437 131.592 215.413C127.388 217.841 125.071 223.076 125.071 230.149C125.071 245.4 135.84 264.027 149.081 271.669C155.245 275.229 160.967 275.841 165.186 273.409C169.391 270.981 171.707 265.746 171.707 258.673C171.707 243.429 160.938 224.802 147.698 217.157C144.008 215.028 140.481 213.95 137.339 213.95Z" fill="#1E2358"/>
<path d="M164.305 253.604C164.305 263.728 157.178 267.824 148.387 262.748C139.596 257.675 132.473 245.349 132.469 235.222C132.469 225.094 139.596 221.005 148.391 226.081C157.178 231.154 164.305 243.48 164.305 253.604Z" fill="white"/>
<path d="M155.512 266.319C153.087 266.319 150.428 265.522 147.697 263.948C138.542 258.662 131.088 245.778 131.084 235.222C131.084 229.817 132.979 225.75 136.424 223.761C139.875 221.765 144.375 222.161 149.081 224.881C158.236 230.17 165.686 243.054 165.686 253.604C165.686 259.008 163.791 263.08 160.347 265.068C158.895 265.904 157.267 266.319 155.512 266.319ZM141.27 225.278C139.991 225.278 138.823 225.569 137.807 226.157C135.256 227.63 133.851 230.848 133.851 235.222C133.855 244.895 140.686 256.706 149.081 261.548C152.893 263.75 156.391 264.139 158.964 262.672C161.514 261.199 162.919 257.978 162.919 253.604C162.919 243.934 156.092 232.123 147.697 227.281C145.399 225.951 143.208 225.278 141.27 225.278Z" fill="#1E2358"/>
<path d="M246.176 317.884C245.938 317.884 245.7 317.822 245.484 317.7L192.233 286.956C191.57 286.574 191.343 285.728 191.725 285.065C192.111 284.398 192.965 284.189 193.617 284.557L246.868 315.3C247.531 315.682 247.758 316.529 247.376 317.192C247.116 317.635 246.652 317.884 246.176 317.884ZM265.343 299.505C265.106 299.505 264.868 299.444 264.652 299.321L192.233 257.51C191.57 257.128 191.343 256.281 191.725 255.618C192.111 254.952 192.965 254.739 193.617 255.11L266.035 296.922C266.698 297.304 266.925 298.15 266.543 298.814C266.284 299.257 265.819 299.505 265.343 299.505ZM227.005 292.09C226.767 292.09 226.529 292.029 226.313 291.907L192.233 272.231C191.57 271.849 191.343 271.003 191.725 270.34C192.111 269.673 192.965 269.461 193.617 269.832L227.697 289.507C228.36 289.889 228.587 290.736 228.205 291.399C227.945 291.842 227.48 292.09 227.005 292.09Z" fill="#1E2358"/>
<path d="M166.049 254.613C166.053 258.662 163.203 260.295 159.689 258.262L137.089 245.213C133.572 243.188 130.722 238.263 130.722 234.216C130.726 230.171 133.572 228.531 137.089 230.559L159.689 243.609C163.203 245.641 166.056 250.57 166.049 254.613Z" fill="white"/>
<path d="M162.541 260.525C161.425 260.525 160.221 260.168 158.996 259.459L136.399 246.413C132.439 244.132 129.337 238.778 129.337 234.217C129.34 231.745 130.248 229.861 131.895 228.913C133.538 227.973 135.627 228.124 137.782 229.36L160.38 242.41C164.343 244.701 167.438 250.062 167.43 254.613C167.434 257.081 166.533 258.962 164.89 259.913C164.177 260.32 163.384 260.525 162.541 260.525ZM134.241 231.075C133.877 231.075 133.549 231.154 133.275 231.309C132.533 231.738 132.108 232.797 132.104 234.22C132.104 237.758 134.702 242.244 137.779 244.013L160.38 257.063C161.619 257.783 162.75 257.938 163.504 257.517C164.242 257.088 164.667 256.032 164.664 254.616C164.664 254.613 164.664 254.613 164.664 254.609C164.671 251.078 162.073 246.589 158.996 244.805L136.399 231.759C135.613 231.305 134.871 231.075 134.241 231.075Z" fill="#1E2358"/>
<path d="M155.078 249.659C154.415 249.277 153.878 248.347 153.878 247.584C153.878 246.823 154.411 246.521 155.078 246.899C155.737 247.281 156.277 248.207 156.277 248.967C156.277 249.731 155.737 250.041 155.078 249.659ZM142.896 241.242C142.896 240.482 142.36 239.556 141.7 239.174C141.034 238.796 140.497 239.099 140.497 239.859C140.501 240.623 141.038 241.552 141.7 241.934C142.36 242.316 142.9 242.006 142.896 241.242Z" fill="#1E2358"/>
<path d="M155.613 251.208C155.209 251.208 154.788 251.089 154.385 250.858V250.855C153.289 250.224 152.497 248.848 152.497 247.583C152.497 246.719 152.871 246.002 153.527 245.62C154.183 245.238 155.001 245.259 155.761 245.695C156.863 246.333 157.66 247.706 157.66 248.967C157.66 249.839 157.281 250.555 156.618 250.941C156.308 251.118 155.966 251.208 155.613 251.208ZM155.768 248.463L155.076 249.659L155.775 248.466C155.775 248.463 155.772 248.463 155.768 248.463ZM142.235 243.483C141.832 243.483 141.41 243.364 141.007 243.13C139.922 242.511 139.123 241.138 139.112 239.873C139.112 238.994 139.486 238.281 140.142 237.899C140.805 237.517 141.616 237.531 142.383 237.971C143.486 238.612 144.278 239.981 144.278 241.239C144.286 242.107 143.907 242.828 143.244 243.213C142.934 243.393 142.592 243.483 142.235 243.483ZM141.515 241.242C141.511 241.25 141.511 241.257 141.511 241.264L142.895 241.242H141.515Z" fill="#1E2358"/>
<path d="M338.91 138.895C334.514 136.358 330.58 136.106 327.64 137.641L327.611 137.59L323.849 139.759C320.989 132.424 315.735 125.514 309.625 121.986C305.071 119.356 300.942 119.097 297.951 120.808L297.948 120.804L288.263 126.396L288.267 126.4C285.32 128.144 283.5 131.811 283.5 137.021C283.5 143.038 285.968 149.761 289.737 155.425L314.683 196.17L339.637 184.23C340.091 184.071 340.531 183.873 340.948 183.639V183.643L350.684 178.022L350.68 178.011C353.609 176.282 355.454 172.69 355.454 167.494C355.454 156.974 348.039 144.166 338.91 138.895Z" fill="#FF672F"/>
<path d="M314.682 197.554C314.214 197.554 313.759 197.316 313.5 196.89L288.557 156.145C284.475 150.017 282.115 143.027 282.115 137.021C282.115 131.483 284.05 127.286 287.559 125.211L297.258 119.608C300.836 117.562 305.473 117.997 310.315 120.786C316.087 124.119 321.319 130.395 324.529 137.77L326.917 136.39C327.061 136.307 327.216 136.253 327.379 136.225C330.83 134.625 335.143 135.129 339.6 137.695C349.104 143.186 356.84 156.552 356.84 167.494C356.84 172.888 354.959 177.002 351.54 179.107C351.489 179.15 351.432 179.186 351.374 179.222L341.639 184.842C341.138 185.12 340.623 185.35 340.1 185.534L315.28 197.417C315.085 197.51 314.884 197.554 314.682 197.554ZM302.234 121.103C300.908 121.103 299.697 121.402 298.638 122.008L288.957 127.596C286.334 129.149 284.882 132.499 284.882 137.021C284.882 142.497 287.073 148.925 290.892 154.657L315.212 194.383L339.041 182.983C339.553 182.792 339.924 182.63 340.266 182.436L349.843 176.909C349.886 176.876 349.929 176.847 349.976 176.819C352.617 175.262 354.073 171.951 354.073 167.494C354.073 157.431 346.96 145.142 338.216 140.094C334.458 137.922 330.927 137.482 328.279 138.866C328.175 138.923 328.067 138.963 327.955 138.988L324.543 140.959C324.194 141.16 323.772 141.2 323.394 141.063C323.012 140.93 322.709 140.638 322.562 140.263C319.697 132.928 314.477 126.385 308.932 123.186C306.539 121.802 304.255 121.103 302.234 121.103Z" fill="#1E2358"/>
<path d="M289.737 155.425C289.088 154.459 288.544 153.425 287.979 152.402L320.729 133.497C321.944 135.5 323.01 137.604 323.85 139.759L291.56 158.404L289.737 155.425ZM314.684 196.17L339.638 184.23C340.091 184.071 340.531 183.873 340.949 183.639V183.643L350.684 178.022L350.68 178.011C353.609 176.282 355.454 172.69 355.454 167.495L312.36 192.372L314.684 196.17Z" fill="#1E2358"/>
<path d="M314.682 197.553C314.213 197.553 313.759 197.315 313.5 196.89L311.176 193.093C310.982 192.776 310.924 192.394 311.018 192.03C311.108 191.67 311.342 191.36 311.666 191.172L354.765 166.294C355.189 166.049 355.723 166.049 356.148 166.294C356.577 166.543 356.84 167.001 356.84 167.494C356.84 172.888 354.959 177.002 351.54 179.106C351.489 179.15 351.432 179.186 351.374 179.222L341.639 184.842C341.138 185.12 340.623 185.35 340.097 185.534L315.28 197.416C315.085 197.51 314.884 197.553 314.682 197.553ZM314.278 192.862L315.212 194.383L339.041 182.983C339.553 182.792 339.924 182.63 340.266 182.435L349.843 176.909C349.886 176.876 349.929 176.847 349.976 176.818C352.098 175.568 353.453 173.183 353.907 169.987L314.278 192.862ZM291.558 159.788C291.094 159.788 290.639 159.55 290.377 159.125L288.575 156.17C288.01 155.331 287.52 154.445 287.033 153.555L286.767 153.072C286.403 152.413 286.633 151.58 287.285 151.202L320.04 132.297C320.681 131.937 321.524 132.135 321.913 132.78C323.21 134.917 324.295 137.096 325.141 139.255C325.39 139.892 325.134 140.617 324.543 140.959L292.25 159.604C292.034 159.726 291.796 159.788 291.558 159.788ZM289.843 152.92C290.171 153.511 290.51 154.091 290.884 154.65C290.899 154.668 290.91 154.686 290.92 154.704L292.034 156.531L322.111 139.165C321.57 137.903 320.94 136.639 320.23 135.381L289.843 152.92Z" fill="#1E2358"/>
<path d="M345.867 173.028C345.87 162.508 338.456 149.699 329.322 144.428C322.92 140.732 317.436 141.791 314.684 146.338C311.931 138.613 306.44 131.216 300.041 127.519C290.904 122.248 283.5 126.5 283.5 137.02C283.5 143.037 285.968 149.76 289.737 155.424L314.684 196.169L339.638 184.229C343.406 182.922 345.87 179.045 345.867 173.028Z" fill="white"/>
<path d="M314.682 197.553C314.214 197.553 313.759 197.316 313.5 196.89L288.557 156.145C284.475 150.016 282.115 143.027 282.115 137.021C282.115 131.429 284.075 127.217 287.635 125.16C291.205 123.099 295.853 123.51 300.732 126.32C306.572 129.696 311.929 136.181 315.089 143.585C318.62 140.083 324.212 139.878 330.016 143.228C339.52 148.716 347.252 162.082 347.249 173.028C347.252 179.394 344.644 183.956 340.093 185.537L315.28 197.416C315.085 197.51 314.884 197.553 314.682 197.553ZM292.643 126.634C291.306 126.634 290.085 126.94 289.018 127.556C286.352 129.098 284.882 132.46 284.882 137.021C284.882 142.497 287.073 148.925 290.892 154.657L315.212 194.383L339.041 182.983C342.554 181.751 344.485 178.148 344.482 173.028C344.485 162.965 337.377 150.672 328.633 145.628C323.106 142.436 318.339 142.973 315.864 147.055C315.59 147.516 315.068 147.761 314.541 147.714C314.012 147.66 313.558 147.307 313.378 146.803C310.618 139.053 305.239 132.121 299.348 128.72C296.952 127.336 294.668 126.634 292.643 126.634Z" fill="#1E2358"/>
</g>
<defs>
<clipPath id="clip0_459_320">
<rect width="434" height="434" fill="white"/>
</clipPath>
</defs>
</svg>
