<svg width="359" height="280" viewBox="0 0 359 280" fill="none" xmlns="http://www.w3.org/2000/svg">
<rect x="0.499939" y="0.5" width="419.914" height="278.748" rx="5.59501" fill="white"/>
<rect x="0.499939" y="0.5" width="419.914" height="278.748" rx="5.59501" stroke="#000714"/>
<path d="M26.1359 41V29.8H28.3919L31.8959 36.968L35.3999 29.8H37.6399V41H36.0559V31.848L31.8799 40.2L27.7039 31.848V41H26.1359ZM43.5972 41.16C42.8079 41.16 42.0879 40.9733 41.4372 40.6C40.7972 40.2267 40.2905 39.72 39.9172 39.08C39.5439 38.44 39.3572 37.7253 39.3572 36.936C39.3572 36.1467 39.5439 35.432 39.9172 34.792C40.2905 34.152 40.7972 33.6453 41.4372 33.272C42.0879 32.888 42.8079 32.696 43.5972 32.696C44.3972 32.696 45.1172 32.888 45.7572 33.272C46.3972 33.6453 46.9039 34.152 47.2772 34.792C47.6505 35.432 47.8372 36.1467 47.8372 36.936C47.8372 37.7253 47.6505 38.44 47.2772 39.08C46.9039 39.72 46.3972 40.2267 45.7572 40.6C45.1172 40.9733 44.3972 41.16 43.5972 41.16ZM43.5972 39.752C44.0985 39.752 44.5519 39.6293 44.9572 39.384C45.3625 39.128 45.6825 38.7867 45.9172 38.36C46.1519 37.9333 46.2692 37.4533 46.2692 36.92C46.2692 36.3973 46.1465 35.928 45.9012 35.512C45.6665 35.0853 45.3465 34.744 44.9412 34.488C44.5465 34.232 44.0985 34.104 43.5972 34.104C43.0959 34.104 42.6425 34.232 42.2372 34.488C41.8425 34.744 41.5225 35.0853 41.2772 35.512C41.0425 35.928 40.9252 36.3973 40.9252 36.92C40.9252 37.4533 41.0425 37.9333 41.2772 38.36C41.5119 38.7867 41.8319 39.128 42.2372 39.384C42.6425 39.6293 43.0959 39.752 43.5972 39.752ZM49.3502 41V32.856H50.9502V33.688C51.5795 33.0267 52.3955 32.696 53.3982 32.696C54.0275 32.696 54.5769 32.8293 55.0462 33.096C55.5262 33.3627 55.8995 33.736 56.1662 34.216C56.4435 34.696 56.5822 35.2507 56.5822 35.88V41H54.9822V36.152C54.9822 35.512 54.8009 35.0107 54.4382 34.648C54.0862 34.2747 53.5902 34.088 52.9502 34.088C52.5235 34.088 52.1395 34.1787 51.7982 34.36C51.4569 34.5413 51.1742 34.8027 50.9502 35.144V41H49.3502ZM62.3323 41.144C61.5323 41.144 60.807 40.9573 60.1563 40.584C59.5163 40.2107 59.0043 39.704 58.6203 39.064C58.247 38.424 58.0603 37.7093 58.0603 36.92C58.0603 36.1413 58.2416 35.4373 58.6043 34.808C58.967 34.168 59.4576 33.6613 60.0763 33.288C60.695 32.904 61.383 32.712 62.1403 32.712C62.8976 32.712 63.5696 32.904 64.1563 33.288C64.743 33.6613 65.207 34.1733 65.5483 34.824C65.9003 35.464 66.0763 36.1893 66.0763 37V37.448H59.6603C59.7456 37.896 59.911 38.296 60.1563 38.648C60.4123 39 60.7323 39.2773 61.1163 39.48C61.511 39.6827 61.9376 39.784 62.3963 39.784C62.791 39.784 63.1696 39.7253 63.5323 39.608C63.9056 39.48 64.215 39.2987 64.4603 39.064L65.4843 40.072C65.0043 40.4347 64.5083 40.7067 63.9963 40.888C63.495 41.0587 62.9403 41.144 62.3323 41.144ZM59.6763 36.248H64.4923C64.4283 35.8213 64.279 35.448 64.0443 35.128C63.8203 34.7973 63.5376 34.5413 63.1963 34.36C62.8656 34.168 62.503 34.072 62.1083 34.072C61.703 34.072 61.3296 34.1627 60.9883 34.344C60.647 34.5253 60.359 34.7813 60.1243 35.112C59.9003 35.432 59.751 35.8107 59.6763 36.248ZM67.9098 44.44C67.7391 44.44 67.5791 44.4293 67.4298 44.408C67.2805 44.3973 67.1578 44.376 67.0618 44.344V42.936C67.2538 42.9787 67.4885 43 67.7658 43C68.5125 43 69.0511 42.6 69.3818 41.8L69.7338 41.016L66.4698 32.856H68.2458L70.6138 39.064L73.2378 32.856H74.9658L71.0298 42.008C70.7738 42.584 70.5018 43.048 70.2138 43.4C69.9258 43.7627 69.5951 44.024 69.2218 44.184C68.8485 44.3547 68.4111 44.44 67.9098 44.44ZM82.5673 41V31.288H78.6313V29.8H88.1833V31.288H84.2473V41H82.5673ZM88.6471 41V32.856H90.2471V33.896C90.5031 33.512 90.8177 33.2133 91.1911 33C91.5751 32.776 92.0071 32.664 92.4871 32.664C92.8177 32.6747 93.0897 32.7227 93.3031 32.808V34.248C93.1537 34.184 92.9991 34.1413 92.8391 34.12C92.6791 34.088 92.5191 34.072 92.3591 34.072C91.8897 34.072 91.4737 34.2 91.1111 34.456C90.7484 34.7013 90.4604 35.064 90.2471 35.544V41H88.6471ZM96.8324 41.144C96.2458 41.144 95.7284 41.0427 95.2804 40.84C94.8324 40.6267 94.4804 40.3333 94.2244 39.96C93.9684 39.5867 93.8404 39.1547 93.8404 38.664C93.8404 37.896 94.1338 37.2933 94.7204 36.856C95.3071 36.408 96.1124 36.184 97.1364 36.184C97.9364 36.184 98.6778 36.3387 99.3604 36.648V35.784C99.3604 35.1973 99.1898 34.76 98.8484 34.472C98.5178 34.184 98.0271 34.04 97.3764 34.04C97.0031 34.04 96.6138 34.0987 96.2084 34.216C95.8031 34.3227 95.3498 34.4933 94.8484 34.728L94.2564 33.528C94.8751 33.24 95.4511 33.032 95.9844 32.904C96.5178 32.7653 97.0564 32.696 97.6004 32.696C98.6564 32.696 99.4724 32.9467 100.048 33.448C100.635 33.9493 100.928 34.664 100.928 35.592V41H99.3604V40.296C98.9978 40.584 98.6084 40.7973 98.1924 40.936C97.7764 41.0747 97.3231 41.144 96.8324 41.144ZM95.3764 38.632C95.3764 39.0267 95.5418 39.3467 95.8724 39.592C96.2138 39.8267 96.6564 39.944 97.2004 39.944C97.6271 39.944 98.0164 39.8853 98.3684 39.768C98.7311 39.64 99.0618 39.4427 99.3604 39.176V37.8C99.0511 37.6187 98.7258 37.4907 98.3844 37.416C98.0538 37.3307 97.6804 37.288 97.2644 37.288C96.6778 37.288 96.2138 37.4107 95.8724 37.656C95.5418 37.8907 95.3764 38.216 95.3764 38.632ZM102.772 41V32.856H104.372V33.688C105.001 33.0267 105.817 32.696 106.82 32.696C107.449 32.696 107.999 32.8293 108.468 33.096C108.948 33.3627 109.321 33.736 109.588 34.216C109.865 34.696 110.004 35.2507 110.004 35.88V41H108.404V36.152C108.404 35.512 108.223 35.0107 107.86 34.648C107.508 34.2747 107.012 34.088 106.372 34.088C105.945 34.088 105.561 34.1787 105.22 34.36C104.879 34.5413 104.596 34.8027 104.372 35.144V41H102.772ZM114.65 41.16C113.946 41.16 113.285 41.0587 112.666 40.856C112.058 40.6427 111.53 40.344 111.082 39.96L111.962 38.904C112.378 39.2347 112.805 39.4907 113.242 39.672C113.69 39.8427 114.144 39.928 114.602 39.928C115.178 39.928 115.648 39.816 116.01 39.592C116.373 39.368 116.554 39.0747 116.554 38.712C116.554 38.4133 116.448 38.1787 116.234 38.008C116.021 37.8373 115.69 37.72 115.242 37.656L113.77 37.448C112.96 37.3307 112.352 37.08 111.946 36.696C111.541 36.312 111.338 35.8 111.338 35.16C111.338 34.6693 111.472 34.2427 111.738 33.88C112.005 33.5067 112.378 33.2187 112.858 33.016C113.338 32.8027 113.898 32.696 114.538 32.696C115.125 32.696 115.69 32.7813 116.234 32.952C116.778 33.1227 117.301 33.3893 117.802 33.752L116.986 34.808C116.538 34.5093 116.101 34.2907 115.674 34.152C115.258 34.0133 114.837 33.944 114.41 33.944C113.92 33.944 113.525 34.0507 113.226 34.264C112.928 34.4667 112.778 34.7333 112.778 35.064C112.778 35.3627 112.88 35.5973 113.082 35.768C113.296 35.928 113.642 36.04 114.122 36.104L115.594 36.312C116.405 36.4293 117.018 36.68 117.434 37.064C117.85 37.4373 118.058 37.944 118.058 38.584C118.058 39.0747 117.909 39.5173 117.61 39.912C117.312 40.296 116.906 40.6 116.394 40.824C115.882 41.048 115.301 41.16 114.65 41.16ZM120.347 41V34.2H118.459V32.856H120.347V31.624C120.347 30.7707 120.582 30.12 121.051 29.672C121.531 29.224 122.214 29 123.099 29C123.323 29 123.531 29.016 123.723 29.048C123.926 29.0693 124.107 29.1067 124.267 29.16V30.536C124.075 30.4827 123.905 30.4453 123.755 30.424C123.606 30.392 123.441 30.376 123.259 30.376C122.811 30.376 122.475 30.4827 122.251 30.696C122.038 30.8987 121.931 31.224 121.931 31.672V32.856H124.267V34.2H121.931V41H120.347ZM129.02 41.144C128.22 41.144 127.494 40.9573 126.844 40.584C126.204 40.2107 125.692 39.704 125.308 39.064C124.934 38.424 124.748 37.7093 124.748 36.92C124.748 36.1413 124.929 35.4373 125.292 34.808C125.654 34.168 126.145 33.6613 126.764 33.288C127.382 32.904 128.07 32.712 128.828 32.712C129.585 32.712 130.257 32.904 130.844 33.288C131.43 33.6613 131.894 34.1733 132.236 34.824C132.588 35.464 132.764 36.1893 132.764 37V37.448H126.348C126.433 37.896 126.598 38.296 126.844 38.648C127.1 39 127.42 39.2773 127.804 39.48C128.198 39.6827 128.625 39.784 129.084 39.784C129.478 39.784 129.857 39.7253 130.22 39.608C130.593 39.48 130.902 39.2987 131.148 39.064L132.172 40.072C131.692 40.4347 131.196 40.7067 130.684 40.888C130.182 41.0587 129.628 41.144 129.02 41.144ZM126.364 36.248H131.18C131.116 35.8213 130.966 35.448 130.732 35.128C130.508 34.7973 130.225 34.5413 129.884 34.36C129.553 34.168 129.19 34.072 128.796 34.072C128.39 34.072 128.017 34.1627 127.676 34.344C127.334 34.5253 127.046 34.7813 126.812 35.112C126.588 35.432 126.438 35.8107 126.364 36.248ZM134.288 41V32.856H135.888V33.896C136.144 33.512 136.458 33.2133 136.832 33C137.216 32.776 137.648 32.664 138.128 32.664C138.458 32.6747 138.73 32.7227 138.944 32.808V34.248C138.794 34.184 138.64 34.1413 138.48 34.12C138.32 34.088 138.16 34.072 138 34.072C137.53 34.072 137.114 34.2 136.752 34.456C136.389 34.7013 136.101 35.064 135.888 35.544V41H134.288Z" fill="#232323"/>
<rect x="24.9999" y="62" width="330" height="36" rx="6" fill="#FAFAFA"/>
<path d="M42.2319 86V74.8H50.2479V75.888H43.4639V79.808H47.8959V80.88H43.4639V84.912H50.3119V86H42.2319ZM51.8673 86V77.984H53.0513V78.928C53.6806 78.192 54.5233 77.824 55.5793 77.824C56.1873 77.824 56.7206 77.9573 57.1793 78.224C57.6486 78.48 58.0113 78.8427 58.2673 79.312C58.534 79.7707 58.6673 80.3093 58.6673 80.928V86H57.4993V81.168C57.4993 80.4533 57.2966 79.8933 56.8913 79.488C56.4966 79.072 55.9526 78.864 55.2593 78.864C54.7793 78.864 54.3526 78.9707 53.9793 79.184C53.606 79.3973 53.2966 79.7013 53.0513 80.096V86H51.8673ZM63.5662 86.16C62.8729 86.16 62.3395 85.9947 61.9662 85.664C61.5929 85.3333 61.4062 84.8533 61.4062 84.224V78.992H59.6782V77.984H61.4062V75.952L62.5742 75.648V77.984H64.9902V78.992H62.5742V83.92C62.5742 84.3467 62.6702 84.656 62.8622 84.848C63.0542 85.0293 63.3689 85.12 63.8062 85.12C64.0302 85.12 64.2275 85.104 64.3982 85.072C64.5795 85.04 64.7715 84.9867 64.9742 84.912V85.952C64.7715 86.0267 64.5422 86.08 64.2862 86.112C64.0409 86.144 63.8009 86.16 63.5662 86.16ZM69.8617 86.144C69.0937 86.144 68.395 85.9627 67.7657 85.6C67.147 85.2267 66.651 84.7253 66.2777 84.096C65.915 83.4667 65.7337 82.7627 65.7337 81.984C65.7337 81.216 65.9097 80.5227 66.2617 79.904C66.6137 79.2747 67.0884 78.7787 67.6857 78.416C68.283 78.0427 68.9497 77.856 69.6857 77.856C70.4004 77.856 71.0404 78.0427 71.6057 78.416C72.1817 78.7787 72.635 79.2747 72.9657 79.904C73.307 80.5227 73.4777 81.216 73.4777 81.984V82.352H66.9017C66.9657 82.8747 67.131 83.344 67.3977 83.76C67.675 84.176 68.0324 84.5067 68.4697 84.752C68.907 84.9867 69.387 85.104 69.9097 85.104C70.3257 85.104 70.731 85.04 71.1257 84.912C71.5204 84.784 71.851 84.6027 72.1177 84.368L72.8537 85.152C72.4057 85.4827 71.9364 85.7333 71.4457 85.904C70.9657 86.064 70.4377 86.144 69.8617 86.144ZM66.9337 81.408H72.2937C72.2297 80.928 72.0697 80.5013 71.8137 80.128C71.5684 79.744 71.259 79.4453 70.8857 79.232C70.5124 79.008 70.1017 78.896 69.6537 78.896C69.195 78.896 68.7737 79.0027 68.3897 79.216C68.0057 79.4293 67.6857 79.728 67.4297 80.112C67.1737 80.4853 67.0084 80.9173 66.9337 81.408ZM75.1329 86V77.984H76.3169V79.12C76.5623 78.704 76.8716 78.384 77.2449 78.16C77.6289 77.9253 78.0663 77.808 78.5569 77.808C78.8343 77.808 79.0849 77.8453 79.3089 77.92V79.008C79.1703 78.9547 79.0316 78.9173 78.8929 78.896C78.7543 78.8747 78.6156 78.864 78.4769 78.864C77.9863 78.864 77.5543 79.008 77.1809 79.296C76.8183 79.5733 76.5303 79.9787 76.3169 80.512V86H75.1329ZM84.3257 86V74.8H85.5577L92.2937 83.888V74.8H93.4617V86H92.3737L85.4937 76.672V86H84.3257ZM98.0672 86.144C97.4805 86.144 96.9632 86.0427 96.5152 85.84C96.0779 85.6373 95.7312 85.3547 95.4752 84.992C95.2299 84.6293 95.1072 84.208 95.1072 83.728C95.1072 82.9707 95.3952 82.3733 95.9712 81.936C96.5472 81.4987 97.3259 81.28 98.3072 81.28C99.1712 81.28 99.9552 81.4613 100.659 81.824V80.768C100.659 80.128 100.478 79.648 100.115 79.328C99.7525 78.9973 99.2245 78.832 98.5312 78.832C98.1365 78.832 97.7365 78.8907 97.3312 79.008C96.9365 79.1147 96.4992 79.2907 96.0192 79.536L95.5712 78.624C96.1472 78.3467 96.6805 78.144 97.1712 78.016C97.6619 77.888 98.1525 77.824 98.6432 77.824C99.6565 77.824 100.435 78.064 100.979 78.544C101.534 79.024 101.811 79.712 101.811 80.608V86H100.659V85.216C100.297 85.5253 99.8965 85.76 99.4592 85.92C99.0325 86.0693 98.5685 86.144 98.0672 86.144ZM96.2432 83.696C96.2432 84.144 96.4299 84.512 96.8032 84.8C97.1872 85.0773 97.6779 85.216 98.2752 85.216C98.7552 85.216 99.1925 85.1413 99.5872 84.992C99.9819 84.8427 100.339 84.608 100.659 84.288V82.784C100.329 82.56 99.9765 82.4 99.6032 82.304C99.2299 82.1973 98.8085 82.144 98.3392 82.144C97.6992 82.144 97.1872 82.288 96.8032 82.576C96.4299 82.8533 96.2432 83.2267 96.2432 83.696ZM103.789 86V77.984H104.973V78.864C105.581 78.1707 106.365 77.824 107.325 77.824C107.891 77.824 108.392 77.9573 108.829 78.224C109.267 78.48 109.608 78.832 109.853 79.28C110.184 78.7893 110.579 78.4267 111.037 78.192C111.496 77.9467 112.019 77.824 112.605 77.824C113.192 77.824 113.704 77.9573 114.141 78.224C114.579 78.48 114.92 78.8427 115.165 79.312C115.421 79.7707 115.549 80.3093 115.549 80.928V86H114.381V81.168C114.381 80.4533 114.195 79.8933 113.821 79.488C113.448 79.072 112.941 78.864 112.301 78.864C111.864 78.864 111.464 78.976 111.101 79.2C110.739 79.4133 110.429 79.7387 110.173 80.176C110.195 80.2933 110.211 80.416 110.221 80.544C110.243 80.6613 110.253 80.7893 110.253 80.928V86H109.085V81.168C109.085 80.4533 108.899 79.8933 108.525 79.488C108.152 79.072 107.651 78.864 107.021 78.864C106.595 78.864 106.205 78.9653 105.853 79.168C105.512 79.36 105.219 79.648 104.973 80.032V86H103.789ZM121.299 86.144C120.531 86.144 119.833 85.9627 119.203 85.6C118.585 85.2267 118.089 84.7253 117.715 84.096C117.353 83.4667 117.171 82.7627 117.171 81.984C117.171 81.216 117.347 80.5227 117.699 79.904C118.051 79.2747 118.526 78.7787 119.123 78.416C119.721 78.0427 120.387 77.856 121.123 77.856C121.838 77.856 122.478 78.0427 123.043 78.416C123.619 78.7787 124.073 79.2747 124.403 79.904C124.745 80.5227 124.915 81.216 124.915 81.984V82.352H118.339C118.403 82.8747 118.569 83.344 118.835 83.76C119.113 84.176 119.47 84.5067 119.907 84.752C120.345 84.9867 120.825 85.104 121.347 85.104C121.763 85.104 122.169 85.04 122.563 84.912C122.958 84.784 123.289 84.6027 123.555 84.368L124.291 85.152C123.843 85.4827 123.374 85.7333 122.883 85.904C122.403 86.064 121.875 86.144 121.299 86.144ZM118.371 81.408H123.731C123.667 80.928 123.507 80.5013 123.251 80.128C123.006 79.744 122.697 79.4453 122.323 79.232C121.95 79.008 121.539 78.896 121.091 78.896C120.633 78.896 120.211 79.0027 119.827 79.216C119.443 79.4293 119.123 79.728 118.867 80.112C118.611 80.4853 118.446 80.9173 118.371 81.408Z" fill="#929292"/>
<rect x="24.9999" y="113" width="330" height="36" rx="5.1" fill="#FAFAFA"/>
<path d="M45.8639 137.16C44.9786 137.16 44.1306 136.984 43.3199 136.632C42.5093 136.269 41.7946 135.752 41.1759 135.08L41.9919 134.232C42.5679 134.851 43.1813 135.315 43.8319 135.624C44.4933 135.933 45.1866 136.088 45.9119 136.088C46.4986 136.088 47.0159 135.997 47.4639 135.816C47.9226 135.624 48.2799 135.363 48.5359 135.032C48.7919 134.691 48.9199 134.307 48.9199 133.88C48.9199 133.304 48.7173 132.861 48.3119 132.552C47.9173 132.243 47.2613 132.013 46.3439 131.864L44.7279 131.608C43.6506 131.427 42.8559 131.107 42.3439 130.648C41.8319 130.189 41.5759 129.565 41.5759 128.776C41.5759 128.157 41.7413 127.613 42.0719 127.144C42.4026 126.675 42.8613 126.312 43.4479 126.056C44.0453 125.789 44.7333 125.656 45.5119 125.656C46.3013 125.656 47.0746 125.784 47.8319 126.04C48.5999 126.296 49.2986 126.664 49.9279 127.144L49.2239 128.104C47.9973 127.176 46.7439 126.712 45.4639 126.712C44.9306 126.712 44.4613 126.797 44.0559 126.968C43.6506 127.128 43.3359 127.357 43.1119 127.656C42.8879 127.944 42.7759 128.285 42.7759 128.68C42.7759 129.203 42.9519 129.603 43.3039 129.88C43.6559 130.157 44.2373 130.36 45.0479 130.488L46.6479 130.744C47.8746 130.947 48.7653 131.293 49.3199 131.784C49.8746 132.264 50.1519 132.941 50.1519 133.816C50.1519 134.467 49.9706 135.048 49.6079 135.56C49.2453 136.061 48.7386 136.456 48.0879 136.744C47.4479 137.021 46.7066 137.16 45.8639 137.16ZM55.5179 137.144C54.7499 137.144 54.0513 136.963 53.4219 136.6C52.8033 136.227 52.3073 135.725 51.9339 135.096C51.5713 134.467 51.3899 133.763 51.3899 132.984C51.3899 132.216 51.5659 131.523 51.9179 130.904C52.2699 130.275 52.7446 129.779 53.3419 129.416C53.9393 129.043 54.6059 128.856 55.3419 128.856C56.0566 128.856 56.6966 129.043 57.2619 129.416C57.8379 129.779 58.2913 130.275 58.6219 130.904C58.9633 131.523 59.1339 132.216 59.1339 132.984V133.352H52.5579C52.6219 133.875 52.7873 134.344 53.0539 134.76C53.3313 135.176 53.6886 135.507 54.1259 135.752C54.5633 135.987 55.0433 136.104 55.5659 136.104C55.9819 136.104 56.3873 136.04 56.7819 135.912C57.1766 135.784 57.5073 135.603 57.7739 135.368L58.5099 136.152C58.0619 136.483 57.5926 136.733 57.1019 136.904C56.6219 137.064 56.0939 137.144 55.5179 137.144ZM52.5899 132.408H57.9499C57.8859 131.928 57.7259 131.501 57.4699 131.128C57.2246 130.744 56.9153 130.445 56.5419 130.232C56.1686 130.008 55.7579 129.896 55.3099 129.896C54.8513 129.896 54.4299 130.003 54.0459 130.216C53.6619 130.429 53.3419 130.728 53.0859 131.112C52.8299 131.485 52.6646 131.917 52.5899 132.408ZM60.7892 137V125.8L61.9732 125.528V137H60.7892ZM67.7523 137.144C66.9843 137.144 66.2856 136.963 65.6563 136.6C65.0376 136.227 64.5416 135.725 64.1683 135.096C63.8056 134.467 63.6243 133.763 63.6243 132.984C63.6243 132.216 63.8003 131.523 64.1523 130.904C64.5043 130.275 64.979 129.779 65.5763 129.416C66.1736 129.043 66.8403 128.856 67.5763 128.856C68.291 128.856 68.931 129.043 69.4963 129.416C70.0723 129.779 70.5256 130.275 70.8563 130.904C71.1976 131.523 71.3683 132.216 71.3683 132.984V133.352H64.7923C64.8563 133.875 65.0216 134.344 65.2883 134.76C65.5656 135.176 65.923 135.507 66.3603 135.752C66.7976 135.987 67.2776 136.104 67.8003 136.104C68.2163 136.104 68.6216 136.04 69.0163 135.912C69.411 135.784 69.7416 135.603 70.0083 135.368L70.7443 136.152C70.2963 136.483 69.827 136.733 69.3363 136.904C68.8563 137.064 68.3283 137.144 67.7523 137.144ZM64.8243 132.408H70.1843C70.1203 131.928 69.9603 131.501 69.7043 131.128C69.459 130.744 69.1496 130.445 68.7763 130.232C68.403 130.008 67.9923 129.896 67.5443 129.896C67.0856 129.896 66.6643 130.003 66.2803 130.216C65.8963 130.429 65.5763 130.728 65.3203 131.112C65.0643 131.485 64.899 131.917 64.8243 132.408ZM76.7356 137.144C75.9782 137.144 75.2902 136.963 74.6716 136.6C74.0529 136.227 73.5622 135.725 73.1996 135.096C72.8369 134.467 72.6556 133.763 72.6556 132.984C72.6556 132.205 72.8369 131.507 73.1996 130.888C73.5622 130.259 74.0529 129.757 74.6716 129.384C75.2902 129.011 75.9782 128.824 76.7356 128.824C77.3222 128.824 77.8876 128.936 78.4316 129.16C78.9756 129.373 79.4556 129.683 79.8716 130.088L79.1196 130.952C78.7996 130.611 78.4316 130.355 78.0156 130.184C77.6102 130.003 77.1889 129.912 76.7516 129.912C76.2076 129.912 75.7116 130.051 75.2636 130.328C74.8262 130.595 74.4742 130.963 74.2076 131.432C73.9516 131.891 73.8236 132.408 73.8236 132.984C73.8236 133.56 73.9516 134.083 74.2076 134.552C74.4742 135.021 74.8316 135.395 75.2796 135.672C75.7276 135.939 76.2236 136.072 76.7676 136.072C77.2049 136.072 77.6156 135.987 77.9996 135.816C78.3942 135.645 78.7622 135.395 79.1036 135.064L79.8396 135.864C79.4129 136.269 78.9329 136.584 78.3996 136.808C77.8662 137.032 77.3116 137.144 76.7356 137.144ZM84.5349 137.16C83.8416 137.16 83.3083 136.995 82.9349 136.664C82.5616 136.333 82.3749 135.853 82.3749 135.224V129.992H80.6469V128.984H82.3749V126.952L83.5429 126.648V128.984H85.9589V129.992H83.5429V134.92C83.5429 135.347 83.6389 135.656 83.8309 135.848C84.0229 136.029 84.3376 136.12 84.7749 136.12C84.9989 136.12 85.1963 136.104 85.3669 136.072C85.5483 136.04 85.7403 135.987 85.9429 135.912V136.952C85.7403 137.027 85.5109 137.08 85.2549 137.112C85.0096 137.144 84.7696 137.16 84.5349 137.16ZM94.5202 137.16C93.6349 137.16 92.7869 136.984 91.9762 136.632C91.1655 136.269 90.4509 135.752 89.8322 135.08L90.6482 134.232C91.2242 134.851 91.8375 135.315 92.4882 135.624C93.1495 135.933 93.8429 136.088 94.5682 136.088C95.1549 136.088 95.6722 135.997 96.1202 135.816C96.5789 135.624 96.9362 135.363 97.1922 135.032C97.4482 134.691 97.5762 134.307 97.5762 133.88C97.5762 133.304 97.3735 132.861 96.9682 132.552C96.5735 132.243 95.9175 132.013 95.0002 131.864L93.3842 131.608C92.3069 131.427 91.5122 131.107 91.0002 130.648C90.4882 130.189 90.2322 129.565 90.2322 128.776C90.2322 128.157 90.3975 127.613 90.7282 127.144C91.0589 126.675 91.5175 126.312 92.1042 126.056C92.7015 125.789 93.3895 125.656 94.1682 125.656C94.9575 125.656 95.7309 125.784 96.4882 126.04C97.2562 126.296 97.9549 126.664 98.5842 127.144L97.8802 128.104C96.6535 127.176 95.4002 126.712 94.1202 126.712C93.5869 126.712 93.1175 126.797 92.7122 126.968C92.3069 127.128 91.9922 127.357 91.7682 127.656C91.5442 127.944 91.4322 128.285 91.4322 128.68C91.4322 129.203 91.6082 129.603 91.9602 129.88C92.3122 130.157 92.8935 130.36 93.7042 130.488L95.3042 130.744C96.5309 130.947 97.4215 131.293 97.9762 131.784C98.5309 132.264 98.8082 132.941 98.8082 133.816C98.8082 134.467 98.6269 135.048 98.2642 135.56C97.9015 136.061 97.3949 136.456 96.7442 136.744C96.1042 137.021 95.3629 137.16 94.5202 137.16ZM104.174 137.144C103.406 137.144 102.708 136.963 102.078 136.6C101.46 136.227 100.964 135.725 100.59 135.096C100.228 134.467 100.046 133.763 100.046 132.984C100.046 132.216 100.222 131.523 100.574 130.904C100.926 130.275 101.401 129.779 101.998 129.416C102.596 129.043 103.262 128.856 103.998 128.856C104.713 128.856 105.353 129.043 105.918 129.416C106.494 129.779 106.948 130.275 107.278 130.904C107.62 131.523 107.79 132.216 107.79 132.984V133.352H101.214C101.278 133.875 101.444 134.344 101.71 134.76C101.988 135.176 102.345 135.507 102.782 135.752C103.22 135.987 103.7 136.104 104.222 136.104C104.638 136.104 105.044 136.04 105.438 135.912C105.833 135.784 106.164 135.603 106.43 135.368L107.166 136.152C106.718 136.483 106.249 136.733 105.758 136.904C105.278 137.064 104.75 137.144 104.174 137.144ZM101.246 132.408H106.606C106.542 131.928 106.382 131.501 106.126 131.128C105.881 130.744 105.572 130.445 105.198 130.232C104.825 130.008 104.414 129.896 103.966 129.896C103.508 129.896 103.086 130.003 102.702 130.216C102.318 130.429 101.998 130.728 101.742 131.112C101.486 131.485 101.321 131.917 101.246 132.408ZM109.445 137V125.8L110.629 125.528V137H109.445ZM112.649 137V125.8L113.833 125.528V137H112.649ZM119.612 137.144C118.844 137.144 118.145 136.963 117.516 136.6C116.897 136.227 116.401 135.725 116.028 135.096C115.665 134.467 115.484 133.763 115.484 132.984C115.484 132.216 115.66 131.523 116.012 130.904C116.364 130.275 116.838 129.779 117.436 129.416C118.033 129.043 118.7 128.856 119.436 128.856C120.15 128.856 120.79 129.043 121.356 129.416C121.932 129.779 122.385 130.275 122.716 130.904C123.057 131.523 123.228 132.216 123.228 132.984V133.352H116.652C116.716 133.875 116.881 134.344 117.148 134.76C117.425 135.176 117.782 135.507 118.22 135.752C118.657 135.987 119.137 136.104 119.66 136.104C120.076 136.104 120.481 136.04 120.876 135.912C121.27 135.784 121.601 135.603 121.868 135.368L122.604 136.152C122.156 136.483 121.686 136.733 121.196 136.904C120.716 137.064 120.188 137.144 119.612 137.144ZM116.684 132.408H122.044C121.98 131.928 121.82 131.501 121.564 131.128C121.318 130.744 121.009 130.445 120.636 130.232C120.262 130.008 119.852 129.896 119.404 129.896C118.945 129.896 118.524 130.003 118.14 130.216C117.756 130.429 117.436 130.728 117.18 131.112C116.924 131.485 116.758 131.917 116.684 132.408ZM124.883 137V128.984H126.067V130.12C126.312 129.704 126.622 129.384 126.995 129.16C127.379 128.925 127.816 128.808 128.307 128.808C128.584 128.808 128.835 128.845 129.059 128.92V130.008C128.92 129.955 128.782 129.917 128.643 129.896C128.504 129.875 128.366 129.864 128.227 129.864C127.736 129.864 127.304 130.008 126.931 130.296C126.568 130.573 126.28 130.979 126.067 131.512V137H124.883ZM134.076 137V125.8H138.62C139.345 125.8 139.969 125.917 140.492 126.152C141.025 126.387 141.436 126.723 141.724 127.16C142.012 127.587 142.156 128.093 142.156 128.68C142.156 129.256 142.001 129.757 141.692 130.184C141.393 130.611 140.977 130.936 140.444 131.16C141.116 131.363 141.644 131.699 142.028 132.168C142.422 132.637 142.62 133.197 142.62 133.848C142.62 134.488 142.46 135.048 142.14 135.528C141.83 135.997 141.388 136.36 140.812 136.616C140.246 136.872 139.58 137 138.812 137H134.076ZM135.308 130.68H138.556C139.281 130.68 139.857 130.509 140.284 130.168C140.721 129.827 140.94 129.363 140.94 128.776C140.94 128.189 140.721 127.725 140.284 127.384C139.857 127.043 139.281 126.872 138.556 126.872H135.308V130.68ZM135.308 135.928H138.716C139.526 135.928 140.172 135.736 140.652 135.352C141.132 134.968 141.372 134.456 141.372 133.816C141.372 133.176 141.132 132.664 140.652 132.28C140.172 131.896 139.526 131.704 138.716 131.704H135.308V135.928ZM146.895 137.144C146.309 137.144 145.791 137.043 145.343 136.84C144.906 136.637 144.559 136.355 144.303 135.992C144.058 135.629 143.935 135.208 143.935 134.728C143.935 133.971 144.223 133.373 144.799 132.936C145.375 132.499 146.154 132.28 147.135 132.28C147.999 132.28 148.783 132.461 149.487 132.824V131.768C149.487 131.128 149.306 130.648 148.943 130.328C148.581 129.997 148.053 129.832 147.359 129.832C146.965 129.832 146.565 129.891 146.159 130.008C145.765 130.115 145.327 130.291 144.847 130.536L144.399 129.624C144.975 129.347 145.509 129.144 145.999 129.016C146.49 128.888 146.981 128.824 147.471 128.824C148.485 128.824 149.263 129.064 149.807 129.544C150.362 130.024 150.639 130.712 150.639 131.608V137H149.487V136.216C149.125 136.525 148.725 136.76 148.287 136.92C147.861 137.069 147.397 137.144 146.895 137.144ZM145.071 134.696C145.071 135.144 145.258 135.512 145.631 135.8C146.015 136.077 146.506 136.216 147.103 136.216C147.583 136.216 148.021 136.141 148.415 135.992C148.81 135.843 149.167 135.608 149.487 135.288V133.784C149.157 133.56 148.805 133.4 148.431 133.304C148.058 133.197 147.637 133.144 147.167 133.144C146.527 133.144 146.015 133.288 145.631 133.576C145.258 133.853 145.071 134.227 145.071 134.696ZM152.617 137V128.984H153.801V129.928C154.431 129.192 155.273 128.824 156.329 128.824C156.937 128.824 157.471 128.957 157.929 129.224C158.399 129.48 158.761 129.843 159.017 130.312C159.284 130.771 159.417 131.309 159.417 131.928V137H158.249V132.168C158.249 131.453 158.047 130.893 157.641 130.488C157.247 130.072 156.703 129.864 156.009 129.864C155.529 129.864 155.103 129.971 154.729 130.184C154.356 130.397 154.047 130.701 153.801 131.096V137H152.617ZM161.399 137V125.8L162.583 125.528V132.6L166.775 128.984H168.215L163.815 132.792L168.423 137H166.807L162.583 133.16V137H161.399Z" fill="#929292"/>
<g clip-path="url(#clip0_59_11755)">
<path d="M336 129L331 134L326 129" stroke="#929292" stroke-width="1.5" stroke-linecap="round" stroke-linejoin="round"/>
</g>
<rect x="24.9999" y="164" width="330" height="36" rx="5.1" fill="#FAFAFA"/>
<path d="M45.8639 188.16C44.9786 188.16 44.1306 187.984 43.3199 187.632C42.5093 187.269 41.7946 186.752 41.1759 186.08L41.9919 185.232C42.5679 185.851 43.1813 186.315 43.8319 186.624C44.4933 186.933 45.1866 187.088 45.9119 187.088C46.4986 187.088 47.0159 186.997 47.4639 186.816C47.9226 186.624 48.2799 186.363 48.5359 186.032C48.7919 185.691 48.9199 185.307 48.9199 184.88C48.9199 184.304 48.7173 183.861 48.3119 183.552C47.9173 183.243 47.2613 183.013 46.3439 182.864L44.7279 182.608C43.6506 182.427 42.8559 182.107 42.3439 181.648C41.8319 181.189 41.5759 180.565 41.5759 179.776C41.5759 179.157 41.7413 178.613 42.0719 178.144C42.4026 177.675 42.8613 177.312 43.4479 177.056C44.0453 176.789 44.7333 176.656 45.5119 176.656C46.3013 176.656 47.0746 176.784 47.8319 177.04C48.5999 177.296 49.2986 177.664 49.9279 178.144L49.2239 179.104C47.9973 178.176 46.7439 177.712 45.4639 177.712C44.9306 177.712 44.4613 177.797 44.0559 177.968C43.6506 178.128 43.3359 178.357 43.1119 178.656C42.8879 178.944 42.7759 179.285 42.7759 179.68C42.7759 180.203 42.9519 180.603 43.3039 180.88C43.6559 181.157 44.2373 181.36 45.0479 181.488L46.6479 181.744C47.8746 181.947 48.7653 182.293 49.3199 182.784C49.8746 183.264 50.1519 183.941 50.1519 184.816C50.1519 185.467 49.9706 186.048 49.6079 186.56C49.2453 187.061 48.7386 187.456 48.0879 187.744C47.4479 188.021 46.7066 188.16 45.8639 188.16ZM55.5179 188.144C54.7499 188.144 54.0513 187.963 53.4219 187.6C52.8033 187.227 52.3073 186.725 51.9339 186.096C51.5713 185.467 51.3899 184.763 51.3899 183.984C51.3899 183.216 51.5659 182.523 51.9179 181.904C52.2699 181.275 52.7446 180.779 53.3419 180.416C53.9393 180.043 54.6059 179.856 55.3419 179.856C56.0566 179.856 56.6966 180.043 57.2619 180.416C57.8379 180.779 58.2913 181.275 58.6219 181.904C58.9633 182.523 59.1339 183.216 59.1339 183.984V184.352H52.5579C52.6219 184.875 52.7873 185.344 53.0539 185.76C53.3313 186.176 53.6886 186.507 54.1259 186.752C54.5633 186.987 55.0433 187.104 55.5659 187.104C55.9819 187.104 56.3873 187.04 56.7819 186.912C57.1766 186.784 57.5073 186.603 57.7739 186.368L58.5099 187.152C58.0619 187.483 57.5926 187.733 57.1019 187.904C56.6219 188.064 56.0939 188.144 55.5179 188.144ZM52.5899 183.408H57.9499C57.8859 182.928 57.7259 182.501 57.4699 182.128C57.2246 181.744 56.9153 181.445 56.5419 181.232C56.1686 181.008 55.7579 180.896 55.3099 180.896C54.8513 180.896 54.4299 181.003 54.0459 181.216C53.6619 181.429 53.3419 181.728 53.0859 182.112C52.8299 182.485 52.6646 182.917 52.5899 183.408ZM60.7892 188V176.8L61.9732 176.528V188H60.7892ZM67.7523 188.144C66.9843 188.144 66.2856 187.963 65.6563 187.6C65.0376 187.227 64.5416 186.725 64.1683 186.096C63.8056 185.467 63.6243 184.763 63.6243 183.984C63.6243 183.216 63.8003 182.523 64.1523 181.904C64.5043 181.275 64.979 180.779 65.5763 180.416C66.1736 180.043 66.8403 179.856 67.5763 179.856C68.291 179.856 68.931 180.043 69.4963 180.416C70.0723 180.779 70.5256 181.275 70.8563 181.904C71.1976 182.523 71.3683 183.216 71.3683 183.984V184.352H64.7923C64.8563 184.875 65.0216 185.344 65.2883 185.76C65.5656 186.176 65.923 186.507 66.3603 186.752C66.7976 186.987 67.2776 187.104 67.8003 187.104C68.2163 187.104 68.6216 187.04 69.0163 186.912C69.411 186.784 69.7416 186.603 70.0083 186.368L70.7443 187.152C70.2963 187.483 69.827 187.733 69.3363 187.904C68.8563 188.064 68.3283 188.144 67.7523 188.144ZM64.8243 183.408H70.1843C70.1203 182.928 69.9603 182.501 69.7043 182.128C69.459 181.744 69.1496 181.445 68.7763 181.232C68.403 181.008 67.9923 180.896 67.5443 180.896C67.0856 180.896 66.6643 181.003 66.2803 181.216C65.8963 181.429 65.5763 181.728 65.3203 182.112C65.0643 182.485 64.899 182.917 64.8243 183.408ZM76.7356 188.144C75.9782 188.144 75.2902 187.963 74.6716 187.6C74.0529 187.227 73.5622 186.725 73.1996 186.096C72.8369 185.467 72.6556 184.763 72.6556 183.984C72.6556 183.205 72.8369 182.507 73.1996 181.888C73.5622 181.259 74.0529 180.757 74.6716 180.384C75.2902 180.011 75.9782 179.824 76.7356 179.824C77.3222 179.824 77.8876 179.936 78.4316 180.16C78.9756 180.373 79.4556 180.683 79.8716 181.088L79.1196 181.952C78.7996 181.611 78.4316 181.355 78.0156 181.184C77.6102 181.003 77.1889 180.912 76.7516 180.912C76.2076 180.912 75.7116 181.051 75.2636 181.328C74.8262 181.595 74.4742 181.963 74.2076 182.432C73.9516 182.891 73.8236 183.408 73.8236 183.984C73.8236 184.56 73.9516 185.083 74.2076 185.552C74.4742 186.021 74.8316 186.395 75.2796 186.672C75.7276 186.939 76.2236 187.072 76.7676 187.072C77.2049 187.072 77.6156 186.987 77.9996 186.816C78.3942 186.645 78.7622 186.395 79.1036 186.064L79.8396 186.864C79.4129 187.269 78.9329 187.584 78.3996 187.808C77.8662 188.032 77.3116 188.144 76.7356 188.144ZM84.5349 188.16C83.8416 188.16 83.3083 187.995 82.9349 187.664C82.5616 187.333 82.3749 186.853 82.3749 186.224V180.992H80.6469V179.984H82.3749V177.952L83.5429 177.648V179.984H85.9589V180.992H83.5429V185.92C83.5429 186.347 83.6389 186.656 83.8309 186.848C84.0229 187.029 84.3376 187.12 84.7749 187.12C84.9989 187.12 85.1963 187.104 85.3669 187.072C85.5483 187.04 85.7403 186.987 85.9429 186.912V187.952C85.7403 188.027 85.5109 188.08 85.2549 188.112C85.0096 188.144 84.7696 188.16 84.5349 188.16ZM92.1202 186.88H94.6482C95.2989 186.88 95.9015 186.768 96.4562 186.544C97.0109 186.32 97.4962 186.005 97.9122 185.6C98.3282 185.195 98.6482 184.72 98.8722 184.176C99.1069 183.632 99.2242 183.04 99.2242 182.4C99.2242 181.76 99.1069 181.168 98.8722 180.624C98.6482 180.08 98.3282 179.605 97.9122 179.2C97.4962 178.795 97.0109 178.48 96.4562 178.256C95.9015 178.032 95.2989 177.92 94.6482 177.92H92.1202V186.88ZM90.8882 188V176.8H94.5842C95.4375 176.8 96.2215 176.939 96.9362 177.216C97.6509 177.493 98.2695 177.883 98.7922 178.384C99.3255 178.885 99.7362 179.477 100.024 180.16C100.323 180.843 100.472 181.589 100.472 182.4C100.472 183.211 100.328 183.957 100.04 184.64C99.7522 185.323 99.3415 185.915 98.8082 186.416C98.2855 186.917 97.6615 187.307 96.9362 187.584C96.2215 187.861 95.4375 188 94.5842 188H90.8882ZM104.552 188.144C103.965 188.144 103.448 188.043 103 187.84C102.562 187.637 102.216 187.355 101.96 186.992C101.714 186.629 101.592 186.208 101.592 185.728C101.592 184.971 101.88 184.373 102.456 183.936C103.032 183.499 103.81 183.28 104.792 183.28C105.656 183.28 106.44 183.461 107.144 183.824V182.768C107.144 182.128 106.962 181.648 106.6 181.328C106.237 180.997 105.709 180.832 105.016 180.832C104.621 180.832 104.221 180.891 103.816 181.008C103.421 181.115 102.984 181.291 102.504 181.536L102.056 180.624C102.632 180.347 103.165 180.144 103.656 180.016C104.146 179.888 104.637 179.824 105.128 179.824C106.141 179.824 106.92 180.064 107.464 180.544C108.018 181.024 108.296 181.712 108.296 182.608V188H107.144V187.216C106.781 187.525 106.381 187.76 105.944 187.92C105.517 188.069 105.053 188.144 104.552 188.144ZM102.728 185.696C102.728 186.144 102.914 186.512 103.288 186.8C103.672 187.077 104.162 187.216 104.76 187.216C105.24 187.216 105.677 187.141 106.072 186.992C106.466 186.843 106.824 186.608 107.144 186.288V184.784C106.813 184.56 106.461 184.4 106.088 184.304C105.714 184.197 105.293 184.144 104.824 184.144C104.184 184.144 103.672 184.288 103.288 184.576C102.914 184.853 102.728 185.227 102.728 185.696ZM113.191 188.16C112.498 188.16 111.965 187.995 111.591 187.664C111.218 187.333 111.031 186.853 111.031 186.224V180.992H109.303V179.984H111.031V177.952L112.199 177.648V179.984H114.615V180.992H112.199V185.92C112.199 186.347 112.295 186.656 112.487 186.848C112.679 187.029 112.994 187.12 113.431 187.12C113.655 187.12 113.853 187.104 114.023 187.072C114.205 187.04 114.397 186.987 114.599 186.912V187.952C114.397 188.027 114.167 188.08 113.911 188.112C113.666 188.144 113.426 188.16 113.191 188.16ZM119.487 188.144C118.719 188.144 118.02 187.963 117.391 187.6C116.772 187.227 116.276 186.725 115.903 186.096C115.54 185.467 115.359 184.763 115.359 183.984C115.359 183.216 115.535 182.523 115.887 181.904C116.239 181.275 116.713 180.779 117.311 180.416C117.908 180.043 118.575 179.856 119.311 179.856C120.025 179.856 120.665 180.043 121.231 180.416C121.807 180.779 122.26 181.275 122.591 181.904C122.932 182.523 123.103 183.216 123.103 183.984V184.352H116.527C116.591 184.875 116.756 185.344 117.023 185.76C117.3 186.176 117.657 186.507 118.095 186.752C118.532 186.987 119.012 187.104 119.535 187.104C119.951 187.104 120.356 187.04 120.751 186.912C121.145 186.784 121.476 186.603 121.743 186.368L122.479 187.152C122.031 187.483 121.561 187.733 121.071 187.904C120.591 188.064 120.063 188.144 119.487 188.144ZM116.559 183.408H121.919C121.855 182.928 121.695 182.501 121.439 182.128C121.193 181.744 120.884 181.445 120.511 181.232C120.137 181.008 119.727 180.896 119.279 180.896C118.82 180.896 118.399 181.003 118.015 181.216C117.631 181.429 117.311 181.728 117.055 182.112C116.799 182.485 116.633 182.917 116.559 183.408Z" fill="#929292"/>
<g clip-path="url(#clip1_59_11755)">
<path d="M338.25 175.125H325.75C325.405 175.125 325.125 175.405 325.125 175.75V188.25C325.125 188.595 325.405 188.875 325.75 188.875H338.25C338.595 188.875 338.875 188.595 338.875 188.25V175.75C338.875 175.405 338.595 175.125 338.25 175.125Z" stroke="#929292" stroke-width="1.2" stroke-linecap="round" stroke-linejoin="round"/>
<path d="M335.75 173.875V176.375" stroke="#929292" stroke-width="1.2" stroke-linecap="round" stroke-linejoin="round"/>
<path d="M328.25 173.875V176.375" stroke="#929292" stroke-width="1.2" stroke-linecap="round" stroke-linejoin="round"/>
<path d="M325.125 178.875H338.875" stroke="#929292" stroke-width="1.2" stroke-linecap="round" stroke-linejoin="round"/>
</g>
<rect x="25.4999" y="223.5" width="124" height="39" rx="10.5" stroke="#FF6600"/>
<path d="M54.5439 249.18C53.5359 249.18 52.5639 248.982 51.6279 248.586C50.6919 248.19 49.8639 247.632 49.1439 246.912L50.2959 245.58C50.9799 246.252 51.6759 246.75 52.3839 247.074C53.1039 247.398 53.8539 247.56 54.6339 247.56C55.2459 247.56 55.7799 247.476 56.2359 247.308C56.7039 247.128 57.0639 246.876 57.3159 246.552C57.5679 246.228 57.6939 245.862 57.6939 245.454C57.6939 244.89 57.4959 244.458 57.0999 244.158C56.7039 243.858 56.0499 243.63 55.1379 243.474L53.0319 243.132C51.8799 242.928 51.0159 242.556 50.4399 242.016C49.8759 241.476 49.5939 240.756 49.5939 239.856C49.5939 239.136 49.7859 238.506 50.1699 237.966C50.5539 237.414 51.0939 236.988 51.7899 236.688C52.4979 236.388 53.3139 236.238 54.2379 236.238C55.1499 236.238 56.0439 236.388 56.9199 236.688C57.8079 236.976 58.6059 237.396 59.3139 237.948L58.2699 239.388C56.9139 238.356 55.5399 237.84 54.1479 237.84C53.5959 237.84 53.1159 237.918 52.7079 238.074C52.2999 238.23 51.9819 238.452 51.7539 238.74C51.5259 239.016 51.4119 239.34 51.4119 239.712C51.4119 240.228 51.5859 240.624 51.9339 240.9C52.2819 241.164 52.8579 241.356 53.6619 241.476L55.6959 241.818C57.0279 242.034 58.0059 242.424 58.6299 242.988C59.2539 243.552 59.5659 244.326 59.5659 245.31C59.5659 246.078 59.3559 246.756 58.9359 247.344C58.5159 247.92 57.9279 248.37 57.1719 248.694C56.4159 249.018 55.5399 249.18 54.5439 249.18ZM65.5788 249.162C64.7028 249.162 63.9048 248.952 63.1848 248.532C62.4648 248.112 61.8948 247.542 61.4748 246.822C61.0668 246.102 60.8628 245.298 60.8628 244.41C60.8628 243.522 61.0728 242.724 61.4928 242.016C61.9128 241.296 62.4768 240.726 63.1848 240.306C63.9048 239.874 64.7028 239.658 65.5788 239.658C66.2748 239.658 66.9408 239.79 67.5768 240.054C68.2248 240.318 68.7828 240.69 69.2508 241.17L68.1348 242.412C67.7868 242.028 67.3968 241.74 66.9648 241.548C66.5328 241.356 66.0828 241.26 65.6148 241.26C65.0628 241.26 64.5588 241.398 64.1028 241.674C63.6588 241.95 63.3048 242.328 63.0408 242.808C62.7768 243.288 62.6448 243.822 62.6448 244.41C62.6448 244.998 62.7768 245.532 63.0408 246.012C63.3048 246.492 63.6648 246.876 64.1208 247.164C64.5768 247.44 65.0868 247.578 65.6508 247.578C66.1188 247.578 66.5568 247.488 66.9648 247.308C67.3728 247.116 67.7568 246.84 68.1168 246.48L69.2148 247.632C68.7348 248.124 68.1768 248.502 67.5408 248.766C66.9168 249.03 66.2628 249.162 65.5788 249.162ZM70.6635 249V236.4L72.4635 236.004V240.774C73.1715 240.03 74.0895 239.658 75.2175 239.658C75.9255 239.658 76.5435 239.808 77.0715 240.108C77.6115 240.408 78.0315 240.828 78.3315 241.368C78.6435 241.908 78.7995 242.532 78.7995 243.24V249H76.9995V243.546C76.9995 242.826 76.7955 242.262 76.3875 241.854C75.9795 241.434 75.4215 241.224 74.7135 241.224C74.2335 241.224 73.8015 241.326 73.4175 241.53C73.0335 241.734 72.7155 242.028 72.4635 242.412V249H70.6635ZM85.2684 249.162C84.3684 249.162 83.5524 248.952 82.8204 248.532C82.1004 248.112 81.5244 247.542 81.0924 246.822C80.6724 246.102 80.4624 245.298 80.4624 244.41C80.4624 243.534 80.6664 242.742 81.0744 242.034C81.4824 241.314 82.0344 240.744 82.7304 240.324C83.4264 239.892 84.2004 239.676 85.0524 239.676C85.9044 239.676 86.6604 239.892 87.3204 240.324C87.9804 240.744 88.5024 241.32 88.8864 242.052C89.2824 242.772 89.4804 243.588 89.4804 244.5V245.004H82.2624C82.3584 245.508 82.5444 245.958 82.8204 246.354C83.1084 246.75 83.4684 247.062 83.9004 247.29C84.3444 247.518 84.8244 247.632 85.3404 247.632C85.7844 247.632 86.2104 247.566 86.6184 247.434C87.0384 247.29 87.3864 247.086 87.6624 246.822L88.8144 247.956C88.2744 248.364 87.7164 248.67 87.1404 248.874C86.5764 249.066 85.9524 249.162 85.2684 249.162ZM82.2804 243.654H87.6984C87.6264 243.174 87.4584 242.754 87.1944 242.394C86.9424 242.022 86.6244 241.734 86.2404 241.53C85.8684 241.314 85.4604 241.206 85.0164 241.206C84.5604 241.206 84.1404 241.308 83.7564 241.512C83.3724 241.716 83.0484 242.004 82.7844 242.376C82.5324 242.736 82.3644 243.162 82.2804 243.654ZM95.4419 249.144C94.5899 249.144 93.8099 248.934 93.1019 248.514C92.3939 248.094 91.8359 247.53 91.4279 246.822C91.0199 246.102 90.8159 245.298 90.8159 244.41C90.8159 243.522 91.0199 242.724 91.4279 242.016C91.8479 241.308 92.4119 240.744 93.1199 240.324C93.8279 239.904 94.6139 239.694 95.4779 239.694C95.9819 239.694 96.4679 239.772 96.9359 239.928C97.4039 240.084 97.8359 240.312 98.2319 240.612V236.4L100.032 236.058V249H98.2499V248.118C97.4699 248.802 96.5339 249.144 95.4419 249.144ZM95.6759 247.578C96.2039 247.578 96.6839 247.482 97.1159 247.29C97.5599 247.098 97.9319 246.822 98.2319 246.462V242.34C97.9319 242.004 97.5599 241.74 97.1159 241.548C96.6839 241.344 96.2039 241.242 95.6759 241.242C95.0999 241.242 94.5779 241.38 94.1099 241.656C93.6419 241.932 93.2699 242.31 92.9939 242.79C92.7179 243.258 92.5799 243.792 92.5799 244.392C92.5799 244.992 92.7179 245.532 92.9939 246.012C93.2699 246.492 93.6419 246.876 94.1099 247.164C94.5779 247.44 95.0999 247.578 95.6759 247.578ZM105.71 249.18C105.002 249.18 104.378 249.03 103.838 248.73C103.298 248.43 102.878 248.01 102.578 247.47C102.278 246.918 102.128 246.288 102.128 245.58V239.838H103.91V245.274C103.91 245.994 104.114 246.564 104.522 246.984C104.942 247.404 105.5 247.614 106.196 247.614C106.688 247.614 107.126 247.512 107.51 247.308C107.894 247.092 108.206 246.792 108.446 246.408V239.838H110.246V249H108.446V248.064C107.738 248.808 106.826 249.18 105.71 249.18ZM112.376 249V236.4L114.176 236.058V249H112.376ZM120.688 249.162C119.788 249.162 118.972 248.952 118.24 248.532C117.52 248.112 116.944 247.542 116.512 246.822C116.092 246.102 115.882 245.298 115.882 244.41C115.882 243.534 116.086 242.742 116.494 242.034C116.902 241.314 117.454 240.744 118.15 240.324C118.846 239.892 119.62 239.676 120.472 239.676C121.324 239.676 122.08 239.892 122.74 240.324C123.4 240.744 123.922 241.32 124.306 242.052C124.702 242.772 124.9 243.588 124.9 244.5V245.004H117.682C117.778 245.508 117.964 245.958 118.24 246.354C118.528 246.75 118.888 247.062 119.32 247.29C119.764 247.518 120.244 247.632 120.76 247.632C121.204 247.632 121.63 247.566 122.038 247.434C122.458 247.29 122.806 247.086 123.082 246.822L124.234 247.956C123.694 248.364 123.136 248.67 122.56 248.874C121.996 249.066 121.372 249.162 120.688 249.162ZM117.7 243.654H123.118C123.046 243.174 122.878 242.754 122.614 242.394C122.362 242.022 122.044 241.734 121.66 241.53C121.288 241.314 120.88 241.206 120.436 241.206C119.98 241.206 119.56 241.308 119.176 241.512C118.792 241.716 118.468 242.004 118.204 242.376C117.952 242.736 117.784 243.162 117.7 243.654Z" fill="#FF6600"/>
<defs>
<clipPath id="clip0_59_11755">
<rect width="16" height="16" fill="white" transform="translate(323 123)"/>
</clipPath>
<clipPath id="clip1_59_11755">
<rect width="20" height="20" fill="white" transform="translate(322 172)"/>
</clipPath>
</defs>
</svg>
