<svg width="189" height="51" viewBox="0 0 189 51" fill="none" xmlns="http://www.w3.org/2000/svg">
<g clip-path="url(#clip0_59_6576)">
<g clip-path="url(#clip1_59_6576)">
<path d="M60.07 18.477L58.908 18.864L54.2989 12.0151H43.6087V24.2811H49.6897L52.5172 19.3283H53.7179V29.9304L52.1685 30.7044L49.8058 26.0224H43.57V37.4758L49.5735 39.1396L48.7989 40.6874H35.0876V39.4879L38.7284 36.6245V13.1759L34.7002 11.8216L35.4748 10.2739H57.9397L60.07 9.57742V18.477ZM82.2023 33.8386C82.2023 33.0389 81.8796 32.2908 81.2341 31.5943C80.5885 30.8979 79.7751 30.2658 78.7939 29.6983C77.8385 29.105 76.5345 28.3827 74.8819 27.5315C72.9194 26.4996 71.3443 25.6225 70.1565 24.9003C68.9687 24.1522 67.9487 23.2751 67.0967 22.269C66.2704 21.263 65.8572 20.1537 65.8572 18.9413C65.8572 17.6516 66.3995 16.2714 67.484 14.8011C68.5685 13.305 69.8854 12.0538 71.4347 11.0478C73.0098 10.0159 74.4558 9.5 75.7727 9.5C77.3737 9.5 79.2328 9.69348 81.3502 10.0804C83.4676 10.4673 85.0169 10.8801 85.9982 11.3186V18.8253H84.5263C83.2611 16.7358 81.8666 15.1106 80.3432 13.9498C78.8455 12.789 77.2704 12.2086 75.6178 12.2086C74.146 12.2086 72.9711 12.6729 72.0931 13.6015C71.241 14.5044 70.815 15.6911 70.815 17.1614C70.815 18.0127 71.1377 18.8124 71.7833 19.5605C72.4547 20.2828 73.268 20.9277 74.2234 21.4952C75.2046 22.0627 76.5603 22.7979 78.2904 23.7007C80.2012 24.6552 81.7504 25.5065 82.9383 26.2545C84.1261 26.9768 85.1202 27.8281 85.9206 28.8083C86.747 29.7628 87.1601 30.8463 87.1601 32.0587C87.1601 33.3484 86.5791 34.7414 85.4172 36.2376C84.2552 37.708 82.835 38.9591 81.1566 39.9909C79.5039 40.997 77.9934 41.5 76.6249 41.5C74.9464 41.5 72.9453 41.3065 70.6213 40.9196C68.3231 40.5327 66.6706 40.1199 65.6636 39.6814V32.1747H67.1354C68.4523 34.2642 69.9499 35.8894 71.6284 37.0502C73.3068 38.211 75.0368 38.7914 76.8185 38.7914C77.8772 38.7914 78.8197 38.5593 79.646 38.0949C80.4723 37.6306 81.1049 37.0244 81.5439 36.2763C81.9829 35.5024 82.2023 34.6899 82.2023 33.8386ZM120.477 40.7648H113.273L104.752 27.0284L102.932 25.7128L103.513 24.552H105.682C107.438 24.552 108.819 24.1135 109.826 23.2364C110.859 22.3336 111.375 21.1082 111.375 19.5605C111.375 17.5226 110.807 15.833 109.672 14.4915C108.535 13.1244 106.883 12.4407 104.714 12.4407C103.268 12.4407 101.938 12.8664 100.724 13.7177V37.8241L104.791 39.2171L104.016 40.7648H92.2416V39.5653L95.8825 36.702V13.1759L91.8543 11.8604L92.6289 10.3126H97.1219C99.4717 10.3126 101.783 10.2352 104.055 10.0804C105.707 9.97719 106.934 9.9256 107.734 9.9256C109.465 9.9256 111.001 10.2739 112.344 10.9704C113.712 11.6669 114.758 12.6084 115.481 13.795C116.23 14.9817 116.605 16.2844 116.605 17.7032C116.605 18.9929 116.204 20.2312 115.403 21.4178C114.603 22.5786 113.544 23.5976 112.228 24.4746C110.937 25.3259 109.568 25.9708 108.122 26.4093L110.639 27.2605L116.643 36.9341L121.252 39.2171L120.477 40.7648ZM154.12 40.6874H142.346V39.4879L145.987 36.6632L143.005 29.5048H129.99L126.814 36.818L133.631 39.1396L132.857 40.6874H121.081V39.4879L124.722 36.6245L135.684 11.5121L139.713 9.53871L151.022 36.7793L154.895 39.1396L154.12 40.6874ZM136.652 14.182L130.765 27.7636H142.308L136.652 14.182Z" fill="#003399"/>
</g>
</g>
<defs>
<clipPath id="clip0_59_6576">
<rect width="120.32" height="32" fill="white" transform="translate(34.7009 9.5)"/>
</clipPath>
<clipPath id="clip1_59_6576">
<rect width="120.32" height="32" fill="white" transform="translate(34.6986 9.5)"/>
</clipPath>
</defs>
</svg>
