<svg width="188" height="188" viewBox="0 0 188 188" fill="none" xmlns="http://www.w3.org/2000/svg">
<path d="M31.8295 89.4112C30.9422 89.4112 30.0536 89.2115 29.3611 88.8119C28.6123 88.3793 28.1992 87.7763 28.1992 87.1132C28.1992 86.4514 28.6111 85.8496 29.3587 85.4181C30.7412 84.6202 32.9081 84.6215 34.2931 85.4193C35.042 85.852 35.4538 86.455 35.4538 87.1181C35.4538 87.7799 35.042 88.3817 34.2956 88.8132C33.6043 89.2114 32.717 89.4112 31.8295 89.4112ZM31.8235 85.7662C31.0966 85.7662 30.3699 85.9219 29.8294 86.2343C29.3918 86.4856 29.1405 86.8067 29.1405 87.1131C29.1405 87.4207 29.393 87.7431 29.8318 87.9956C30.9153 88.6231 32.744 88.6219 33.825 87.9968C34.2626 87.7455 34.5126 87.4244 34.5126 87.118C34.5126 86.8104 34.2614 86.488 33.8226 86.2356C33.2807 85.9218 32.5515 85.7662 31.8235 85.7662Z" fill="#113958"/>
<path d="M90.0654 150.492C90.031 150.492 89.9955 150.488 89.9612 150.48C89.0836 150.281 88.0406 150.176 86.9449 150.176C85.8198 150.213 84.8074 150.279 83.9298 150.477C83.741 150.523 83.545 150.444 83.4371 150.284C83.328 150.124 83.328 149.914 83.4371 149.754C83.741 149.308 83.9004 148.777 83.8979 148.22C83.8979 147.66 83.7373 147.128 83.4334 146.682C83.3243 146.522 83.3243 146.312 83.4334 146.152C83.5413 145.992 83.7373 145.912 83.9261 145.959C84.8 146.156 85.8369 146.261 86.9241 146.261C86.9363 146.262 86.9462 146.262 86.9597 146.261C88.0504 146.261 89.0861 146.157 89.9576 145.96C90.1501 145.918 90.3424 145.994 90.4503 146.155C90.5594 146.314 90.5594 146.525 90.4503 146.684C90.1476 147.129 89.9882 147.66 89.9895 148.219C89.9907 148.78 90.1513 149.312 90.454 149.757C90.5631 149.916 90.5631 150.127 90.454 150.286C90.3657 150.417 90.2186 150.492 90.0654 150.492ZM86.9449 149.235C87.7452 149.235 88.521 149.289 89.2344 149.392C89.1118 149.019 89.0493 148.626 89.0481 148.221C89.0469 147.815 89.1105 147.421 89.2332 147.048C88.5186 147.151 87.6913 147.229 86.9424 147.202C86.9363 147.202 86.9301 147.202 86.924 147.202C86.1322 147.202 85.3625 147.15 84.6529 147.047C84.7754 147.419 84.8392 147.814 84.8392 148.219C84.8404 148.622 84.7779 149.016 84.6553 149.389C85.3637 149.287 86.1335 149.235 86.9264 149.235C86.9327 149.235 86.9388 149.235 86.9449 149.235Z" fill="#4C4F6B"/>
<path d="M154.916 102.251C154.656 102.251 154.445 102.04 154.445 101.78L154.441 96.6855C154.441 96.4256 154.652 96.2148 154.912 96.2148C155.172 96.2148 155.383 96.4256 155.383 96.6855L155.386 101.78C155.386 102.04 155.176 102.251 154.916 102.251Z" fill="#113958"/>
<path d="M159.328 99.7055L150.502 99.703C150.242 99.703 150.031 99.4922 150.031 99.2324C150.031 98.9726 150.242 98.7617 150.502 98.7617L159.328 98.7642C159.588 98.7642 159.798 98.975 159.798 99.2348C159.798 99.4947 159.588 99.7055 159.328 99.7055Z" fill="#113958"/>
<path d="M91.7824 45.6525C91.7714 45.6525 91.7591 45.6525 91.7468 45.6512C91.5544 45.6365 91.3902 45.5053 91.3325 45.3215C91.0666 44.4647 90.6364 43.51 90.0873 42.5601C89.5431 41.6151 88.9303 40.7633 88.3163 40.099C88.1851 39.9568 88.1544 39.7485 88.2378 39.5745C88.3224 39.4004 88.5026 39.2828 88.6975 39.3097C89.2306 39.3489 89.7736 39.2239 90.2613 38.9445C90.7454 38.6663 91.1254 38.2618 91.3583 37.7776C91.4417 37.6024 91.6206 37.4847 91.8167 37.5117C92.0104 37.5264 92.1746 37.6563 92.2323 37.8414C92.4994 38.7031 92.9297 39.6578 93.4775 40.604H93.4787C94.0266 41.5564 94.6394 42.407 95.2498 43.0639C95.3821 43.2048 95.414 43.4133 95.3294 43.5872C95.2461 43.7613 95.0622 43.8691 94.871 43.8532C94.3305 43.8103 93.7912 43.939 93.3046 44.2197C92.8205 44.4991 92.4393 44.9024 92.2064 45.3865C92.1268 45.5495 91.9626 45.6525 91.7824 45.6525ZM89.6228 40.1836C90.0702 40.7535 90.5041 41.3994 90.9024 42.0907C91.3032 42.782 91.6452 43.4806 91.9136 44.1498C92.1746 43.8581 92.4847 43.6056 92.8352 43.4034C93.1858 43.2023 93.5596 43.0602 93.9432 42.9805C93.4971 42.4142 93.0632 41.7683 92.6624 41.0746C92.2629 40.3833 91.9209 39.6847 91.6525 39.0155C91.3915 39.3072 91.0814 39.5585 90.7296 39.7607C90.379 39.963 90.0064 40.1039 89.6228 40.1836Z" fill="#113958"/>
<path d="M102.238 61.7695C102.238 60.1038 101.137 58.4369 98.9338 57.166C94.5325 54.624 87.3991 54.6216 83.0016 57.1598C80.8016 58.4296 79.7033 60.0965 79.7083 61.7621H79.707V79.2496V79.2508V79.2544H79.7083C79.7119 80.9177 80.8126 82.5809 83.0126 83.8506C87.4151 86.3926 94.5473 86.3951 98.9436 83.8567C101.144 82.5857 102.242 80.9201 102.238 79.2544V61.7695Z" fill="#FF8744"/>
<path d="M90.9898 86.2191C88.0176 86.2191 85.043 85.5646 82.7792 84.258C80.513 82.949 79.2567 81.1841 79.2395 79.2843C79.2383 79.2733 79.2383 79.2611 79.2383 79.25V61.7613C79.2346 59.8469 80.4872 58.0672 82.7682 56.7509C87.2883 54.1415 94.6483 54.1476 99.171 56.757C101.453 58.0746 102.711 59.8542 102.711 61.7687V79.2538C102.714 81.167 101.462 82.9466 99.1808 84.2642C96.9232 85.567 93.9571 86.2191 90.9898 86.2191ZM90.9604 55.7238C88.1634 55.7238 85.3677 56.3378 83.2388 57.5672C81.2618 58.707 80.1759 60.1962 80.1808 61.7601L80.1795 79.2489C80.1844 80.814 81.274 82.3019 83.2498 83.4418C87.5138 85.9054 94.4509 85.909 98.71 83.4479C100.686 82.3069 101.773 80.8177 101.769 79.255V61.7687C101.769 60.2048 100.68 58.7144 98.7002 57.5733C96.5664 56.3403 93.7634 55.7238 90.9604 55.7238Z" fill="#113958"/>
<path d="M102.241 79.2553V61.7703C102.241 60.1045 101.141 58.4377 98.9371 57.1667C97.9443 56.5932 96.7994 56.1679 95.5898 55.8516V85.1728C96.8032 84.859 97.9503 84.4325 98.9469 83.8577C101.147 82.5865 102.245 80.9209 102.241 79.2553Z" fill="#113958"/>
<path d="M95.5879 85.641C95.4849 85.641 95.3832 85.6068 95.2998 85.543C95.1846 85.4535 95.1172 85.3162 95.1172 85.1704V55.8493C95.1172 55.7034 95.1846 55.5662 95.2998 55.4767C95.415 55.3885 95.5645 55.3579 95.7067 55.3934C97.0451 55.7439 98.2107 56.2023 99.1704 56.7576C101.453 58.0739 102.71 59.8536 102.71 61.768V79.2518C102.714 81.1663 101.461 82.9459 99.1802 84.2635C98.212 84.8224 97.0427 85.2808 95.7055 85.6264C95.6664 85.6361 95.6272 85.641 95.5879 85.641ZM96.0586 56.4694V84.5514C97.0685 84.2524 97.9571 83.881 98.7096 83.4471C100.685 82.3061 101.772 80.8169 101.769 79.2542V79.253V61.7679C101.769 60.204 100.679 58.7136 98.6998 57.5725C97.9546 57.1411 97.0685 56.7722 96.0586 56.4694Z" fill="#113958"/>
<path d="M98.947 66.3645C103.345 63.825 103.34 59.7067 98.9373 57.166C94.5359 54.624 87.4026 54.6216 83.005 57.1598C78.6086 59.6981 78.6135 63.8163 83.016 66.3583C87.4185 68.9003 94.5506 68.9028 98.947 66.3645Z" fill="white"/>
<path d="M90.9898 68.7267C88.0176 68.7267 85.043 68.0722 82.7792 66.7657C80.4958 65.4469 79.2383 63.6673 79.2383 61.7527C79.2383 59.842 80.4921 58.066 82.7682 56.7509C87.2883 54.1415 94.6483 54.1476 99.171 56.757C101.453 58.0746 102.711 59.8542 102.712 61.7687C102.712 63.6795 101.458 65.4566 99.1807 66.7718C96.9232 68.0746 93.9571 68.7267 90.9898 68.7267ZM90.9603 55.7238C88.1634 55.7238 85.3677 56.3379 83.2388 57.5672C81.2667 58.7058 80.1796 60.1926 80.1796 61.7528C80.1796 63.3167 81.2704 64.8072 83.2498 65.9494C87.5138 68.413 94.451 68.4167 98.7101 65.9556C100.683 64.817 101.771 63.329 101.771 61.7688C101.769 60.2048 100.68 58.7157 98.7003 57.5734C96.5664 56.3403 93.7634 55.7238 90.9603 55.7238Z" fill="#113958"/>
<path d="M120.715 59.8867C120.715 58.2209 119.614 56.5541 117.41 55.2832C113.009 52.7412 105.876 52.7388 101.478 55.277C99.2782 56.5467 98.18 58.2137 98.1849 59.8793H98.1836V89.9174V89.9187V89.9223H98.1849C98.1885 91.5856 99.2891 93.2487 101.489 94.5185C105.892 97.0605 113.024 97.063 117.42 94.5247C119.62 93.2537 120.718 91.588 120.715 89.9223V59.8867Z" fill="#FF8744"/>
<path d="M109.466 96.8869C106.494 96.8869 103.52 96.2324 101.256 94.9258C98.9896 93.6168 97.7333 91.8519 97.7161 89.9521C97.7149 89.9411 97.7149 89.9289 97.7149 89.9178V59.8785C97.7112 57.964 98.9638 56.1844 101.245 54.868C105.764 52.2599 113.124 52.2636 117.648 54.8742C119.93 56.1918 121.187 57.9714 121.187 59.8859V89.9215C121.191 91.8347 119.938 93.6144 117.657 94.932C115.4 96.2348 112.434 96.8869 109.466 96.8869ZM109.437 53.841C106.64 53.841 103.844 54.455 101.715 55.6844C99.7385 56.8242 98.6526 58.3134 98.6575 59.8773L98.6562 89.9167C98.6611 91.4818 99.7507 92.9698 101.726 94.1096C105.99 96.5743 112.928 96.5756 117.187 94.1157C119.163 92.9746 120.25 91.4855 120.246 89.9228V59.8859C120.246 58.3219 119.156 56.8316 117.177 55.6905C115.043 54.4575 112.24 53.841 109.437 53.841Z" fill="#113958"/>
<path d="M120.714 89.9191V59.8835C120.714 58.2178 119.614 56.551 117.41 55.28C116.417 54.7065 115.272 54.2811 114.062 53.9648V95.8367C115.276 95.5229 116.423 95.0962 117.42 94.5215C119.62 93.2505 120.718 91.5849 120.714 89.9191Z" fill="#113958"/>
<path d="M114.064 96.3084C113.961 96.3084 113.86 96.2741 113.776 96.2104C113.661 96.1209 113.594 95.9836 113.594 95.8377V53.966C113.594 53.8201 113.661 53.6829 113.776 53.5934C113.892 53.5051 114.042 53.4757 114.183 53.51C115.522 53.8606 116.687 54.319 117.647 54.8742C119.929 56.1905 121.187 57.9702 121.187 59.8846V89.9191C121.19 91.8336 119.938 93.6132 117.657 94.9308C116.688 95.4897 115.519 95.9481 114.182 96.2937C114.143 96.3034 114.104 96.3084 114.064 96.3084ZM114.535 54.5862V95.2188C115.545 94.9198 116.434 94.5484 117.186 94.1145C119.162 92.9734 120.249 91.4843 120.245 89.9216V89.9203V59.8846C120.245 58.3207 119.156 56.8304 117.176 55.6892C116.431 55.2578 115.545 54.8889 114.535 54.5862Z" fill="#113958"/>
<path d="M117.423 64.4816C121.821 61.9422 121.816 57.8239 117.414 55.2832C113.012 52.7412 105.879 52.7388 101.482 55.277C97.0852 57.8153 97.0901 61.9334 101.493 64.4755C105.895 67.0175 113.027 67.02 117.423 64.4816Z" fill="white"/>
<path d="M109.466 66.8438C106.494 66.8438 103.52 66.1894 101.256 64.8828C98.9724 63.5641 97.7148 61.7844 97.7148 59.8699C97.7148 57.9591 98.9687 56.1832 101.245 54.868C105.764 52.2599 113.124 52.2636 117.648 54.8742C119.93 56.1918 121.187 57.9714 121.188 59.8859C121.188 61.7966 119.935 63.5738 117.657 64.889C115.4 66.1918 112.434 66.8438 109.466 66.8438ZM109.437 53.841C106.64 53.841 103.844 54.455 101.715 55.6844C99.7433 56.823 98.6562 58.3097 98.6562 59.87C98.6562 61.4339 99.7471 62.9243 101.726 64.0666C105.99 66.5302 112.928 66.5338 117.187 64.0727C119.16 62.9341 120.247 61.4462 120.247 59.8859C120.246 58.322 119.156 56.8328 117.177 55.6905C115.043 54.4575 112.24 53.841 109.437 53.841Z" fill="#113958"/>
<path d="M139.191 74.3203C139.191 72.6546 138.089 70.9877 135.887 69.7167C131.484 67.1748 124.351 67.1724 119.955 69.7106C117.753 70.9803 116.657 72.6473 116.66 74.3129V100.586V100.587V100.591C116.664 102.254 117.766 103.917 119.965 105.187C124.367 107.729 131.499 107.731 135.895 105.193C138.097 103.922 139.194 102.256 139.191 100.591L139.191 74.3203Z" fill="#FF8744"/>
<path d="M127.942 107.555C124.969 107.555 121.995 106.901 119.731 105.594C117.453 104.278 116.195 102.501 116.191 100.591V74.312C116.188 72.3975 117.44 70.6179 119.721 69.3016C124.24 66.6935 131.598 66.6972 136.124 69.3077C138.406 70.6254 139.664 72.405 139.664 74.3194V100.59C139.666 102.504 138.412 104.284 136.133 105.6C133.875 106.903 130.909 107.555 127.942 107.555ZM127.913 68.2744C125.115 68.2744 122.32 68.8885 120.192 70.1178C118.216 71.2577 117.129 72.7468 117.133 74.3108V100.585C117.136 102.15 118.226 103.638 120.202 104.778C124.466 107.241 131.403 107.245 135.662 104.784C137.638 103.644 138.725 102.154 138.722 100.591V74.3194C138.722 72.7554 137.633 71.265 135.653 70.124C133.518 68.8909 130.715 68.2744 127.913 68.2744Z" fill="#113958"/>
<path d="M139.191 100.588V74.3171C139.191 72.6515 138.089 70.9846 135.886 69.7136C134.892 69.1401 133.748 68.7147 132.539 68.3984V106.505C133.751 106.191 134.9 105.765 135.895 105.19C138.096 103.919 139.193 102.253 139.191 100.588Z" fill="#113958"/>
<path d="M132.541 106.977C132.438 106.977 132.336 106.943 132.253 106.879C132.138 106.79 132.07 106.652 132.07 106.507V68.3999C132.07 68.2541 132.138 68.1168 132.253 68.0274C132.368 67.9404 132.519 67.9072 132.66 67.9453C133.998 68.2946 135.163 68.753 136.124 69.3069C138.406 70.6246 139.663 72.4042 139.663 74.3186V100.589C139.666 102.504 138.412 104.283 136.132 105.6C135.166 106.157 133.997 106.616 132.659 106.963C132.619 106.972 132.58 106.977 132.541 106.977ZM133.012 69.0201V105.888C134.022 105.587 134.911 105.217 135.661 104.783C137.637 103.643 138.724 102.153 138.722 100.59C138.722 100.589 138.722 100.589 138.722 100.589V74.3186C138.722 72.7547 137.632 71.2643 135.653 70.1233C134.908 69.6918 134.02 69.3229 133.012 69.0201Z" fill="#113958"/>
<path d="M135.9 78.9152C140.298 76.3757 140.294 72.2575 135.891 69.7167C131.489 67.1748 124.356 67.1724 119.959 69.7106C115.562 72.249 115.566 76.3671 119.969 78.9091C124.372 81.4512 131.504 81.4536 135.9 78.9152Z" fill="white"/>
<path d="M127.943 81.2774C124.971 81.2774 121.996 80.623 119.732 79.3164C117.449 77.9976 116.191 76.2179 116.191 74.3035C116.193 72.3927 117.446 70.6168 119.723 69.3016C124.241 66.6935 131.599 66.6972 136.125 69.3078C138.407 70.6254 139.665 72.405 139.665 74.3181C139.665 76.2301 138.411 78.0073 136.134 79.3225C133.876 80.6253 130.91 81.2774 127.943 81.2774ZM127.915 68.2745C125.117 68.2745 122.321 68.8885 120.193 70.1179C118.22 71.2565 117.134 72.7432 117.133 74.3035C117.133 75.8674 118.223 77.3578 120.203 78.5001C124.467 80.9637 131.404 80.9674 135.663 78.5062C137.636 77.3664 138.724 75.8797 138.724 74.3182C138.724 72.7555 137.634 71.2652 135.655 70.1241C133.52 68.891 130.717 68.2745 127.915 68.2745Z" fill="#113958"/>
<path d="M127.58 144.549L121.43 140.997V138.933L137.283 129.781L143.432 133.331V135.396L127.58 144.549Z" fill="white"/>
<path d="M127.582 145.018C127.501 145.018 127.419 144.997 127.347 144.955L121.196 141.403C121.05 141.319 120.961 141.163 120.961 140.995V138.931C120.961 138.763 121.05 138.607 121.196 138.523L137.05 129.371C137.195 129.288 137.376 129.288 137.521 129.371L143.67 132.921C143.816 133.005 143.905 133.161 143.905 133.329V135.394C143.905 135.562 143.816 135.718 143.67 135.802L127.817 144.955C127.745 144.997 127.663 145.018 127.582 145.018ZM121.902 140.723L127.582 144.004L142.964 135.122V133.601L137.285 130.322L121.902 139.203L121.902 140.723Z" fill="#113958"/>
<path d="M127.58 144.546L121.43 140.994V138.93L127.58 142.48V144.546Z" fill="#FF8744"/>
<path d="M127.582 145.018C127.501 145.018 127.419 144.997 127.347 144.955L121.196 141.404C121.05 141.319 120.961 141.163 120.961 140.996V138.932C120.961 138.764 121.05 138.608 121.196 138.523C121.341 138.44 121.522 138.44 121.667 138.523L127.817 142.074C127.963 142.159 128.052 142.314 128.052 142.482V144.547C128.052 144.715 127.963 144.871 127.817 144.956C127.745 144.997 127.663 145.018 127.582 145.018ZM121.902 140.723L127.111 143.732V142.754L121.902 139.747V140.723Z" fill="#113958"/>
<path d="M127.582 142.481L143.435 133.328V135.393L127.582 144.547V142.481Z" fill="#113958"/>
<path d="M127.584 145.019C127.503 145.019 127.421 144.998 127.349 144.956C127.203 144.872 127.113 144.716 127.113 144.548V142.483C127.113 142.315 127.203 142.16 127.349 142.075L143.201 132.922C143.346 132.839 143.527 132.839 143.672 132.922C143.818 133.006 143.907 133.162 143.907 133.33V135.395C143.907 135.563 143.818 135.719 143.672 135.803L127.819 144.956C127.747 144.998 127.665 145.019 127.584 145.019ZM128.055 142.755V143.733L142.966 135.123V134.145L128.055 142.755Z" fill="#113958"/>
<path d="M129.785 116.314L75.2578 74.6719L44.1055 88.2508V92.7402L98.6344 134.383L129.785 120.804V116.314Z" fill="#FF8744"/>
<path d="M98.6324 134.855C98.5307 134.855 98.4302 134.822 98.3469 134.758L43.8179 93.1158C43.7015 93.0275 43.6328 92.889 43.6328 92.7419V88.2523C43.6328 88.0648 43.7444 87.8957 43.916 87.8209L75.0682 74.242C75.2239 74.1746 75.4065 74.1955 75.5412 74.2997L130.069 115.942C130.185 116.03 130.254 116.169 130.254 116.316V120.806C130.254 120.993 130.143 121.162 129.971 121.237L98.82 134.816C98.7599 134.842 98.6962 134.855 98.6324 134.855ZM44.5741 92.5091L98.6986 133.843L129.313 120.497V116.549L75.1895 75.2152L44.5741 88.5612V92.5091Z" fill="#113958"/>
<path d="M129.785 116.314L75.2578 74.6719L44.1055 88.2508L98.6344 129.893L129.785 116.314Z" fill="white"/>
<path d="M98.6324 130.366C98.5307 130.366 98.4302 130.332 98.3468 130.269L43.8179 88.6262C43.6855 88.5257 43.6156 88.3615 43.6365 88.196C43.6561 88.0306 43.7627 87.8872 43.9159 87.8209L75.0681 74.242C75.2238 74.1746 75.4065 74.1955 75.5412 74.2997L130.069 115.942C130.201 116.043 130.271 116.207 130.25 116.372C130.231 116.538 130.124 116.681 129.971 116.747L98.8198 130.326C98.7598 130.352 98.6961 130.366 98.6324 130.366ZM45.0251 88.3639L98.6986 129.353L128.862 116.204L75.1895 75.2152L45.0251 88.3639Z" fill="#113958"/>
<path d="M98.6289 129.891V134.381L129.78 120.802V116.312L98.6289 129.891Z" fill="#113958"/>
<path d="M98.6308 134.853C98.5401 134.853 98.4506 134.828 98.3734 134.776C98.2398 134.689 98.1602 134.542 98.1602 134.383V129.893C98.1602 129.706 98.2716 129.537 98.4433 129.462L129.594 115.883C129.74 115.82 129.907 115.833 130.039 115.921C130.173 116.008 130.252 116.155 130.252 116.314V120.804C130.252 120.991 130.141 121.16 129.969 121.235L98.8183 134.814C98.7582 134.84 98.6945 134.853 98.6308 134.853ZM99.1014 130.202V133.664L129.311 120.495V117.032L99.1014 130.202Z" fill="#113958"/>
<path d="M103.788 124.328L119.095 117.656C118.039 116.209 118.438 114.545 120.131 113.322L77.6035 80.8422C75.1019 81.4477 72.2168 81.2148 70.0953 80.2344L54.7869 86.9055C55.8422 88.3517 55.4439 90.0149 53.75 91.2407L96.2787 123.719C98.7815 123.112 101.667 123.348 103.788 124.328Z" fill="#FF8744"/>
<path d="M103.79 124.801C103.723 124.801 103.655 124.786 103.593 124.758C101.558 123.818 98.8006 123.595 96.3909 124.178C96.2573 124.21 96.1091 124.182 95.9951 124.095L53.4664 91.6163C53.3475 91.5256 53.2789 91.3846 53.2813 91.2363C53.2838 91.088 53.3561 90.9483 53.4762 90.8613C54.279 90.2803 54.7631 89.5976 54.8759 88.888C54.9679 88.3082 54.8098 87.7347 54.4089 87.1843C54.3244 87.0691 54.2974 86.922 54.3342 86.7848C54.3722 86.6462 54.4702 86.5335 54.6014 86.4759L69.9097 79.8047C70.0323 79.7508 70.172 79.7532 70.2946 79.8084C72.3267 80.7473 75.0856 80.9716 77.4953 80.3869C77.6338 80.3551 77.7772 80.3832 77.8912 80.4703L120.419 112.95C120.538 113.041 120.606 113.181 120.604 113.33C120.601 113.479 120.529 113.618 120.409 113.705C119.606 114.285 119.123 114.967 119.01 115.677C118.918 116.257 119.075 116.83 119.477 117.379C119.562 117.496 119.589 117.643 119.552 117.78C119.514 117.919 119.416 118.031 119.285 118.089L103.978 124.761C103.918 124.787 103.854 124.801 103.79 124.801ZM99.1413 122.918C100.791 122.918 102.427 123.224 103.793 123.815L118.411 117.443C118.092 116.83 117.978 116.178 118.08 115.53C118.206 114.733 118.649 113.983 119.371 113.333L77.4964 81.3526C75.0194 81.9005 72.2273 81.6738 70.0947 80.7508L55.4752 87.1217C55.7939 87.7345 55.9079 88.3866 55.8049 89.0349C55.6787 89.8316 55.2362 90.5829 54.5143 91.2325L96.3896 123.212C97.2808 123.015 98.2136 122.918 99.1413 122.918Z" fill="#113958"/>
<path d="M91.9116 106.083C87.2933 108.096 81.3233 108.03 78.5779 105.931C75.8299 103.833 77.3498 100.5 81.9679 98.4867C86.5874 96.473 92.5575 96.5415 95.3054 98.6387C98.0521 100.738 96.5335 104.07 91.9116 106.083ZM80.9653 90.4171L74.0563 85.1406L70.4922 86.6935L77.4023 91.9699L80.9653 90.4171ZM112.004 114.122L105.095 108.846L101.533 110.4L108.442 115.675L112.004 114.122Z" fill="white"/>
<path d="M108.444 116.143C108.342 116.143 108.242 116.11 108.158 116.047L101.249 110.772C101.117 110.671 101.047 110.507 101.068 110.341C101.087 110.176 101.194 110.032 101.346 109.966L104.908 108.412C105.066 108.345 105.246 108.366 105.382 108.47L112.291 113.746C112.423 113.847 112.493 114.011 112.472 114.176C112.453 114.342 112.346 114.485 112.193 114.551L108.631 116.104C108.571 116.13 108.507 116.143 108.444 116.143ZM102.456 110.509L108.51 115.131L111.084 114.008L105.03 109.385L102.456 110.509ZM84.7569 108.006C82.1499 108.006 79.7759 107.435 78.2941 106.303C77.1445 105.425 76.6162 104.315 76.7645 103.089C76.9924 101.207 78.8677 99.3239 81.7823 98.053C86.5316 95.9816 92.7298 96.0773 95.5929 98.2625C96.7425 99.1413 97.2707 100.252 97.1225 101.477C96.8933 103.36 95.0169 105.243 92.101 106.512C89.8103 107.511 87.1825 108.006 84.7569 108.006ZM89.1619 97.4818C86.865 97.4818 84.3549 97.9586 82.1573 98.9159C79.5528 100.052 77.8859 101.654 77.6984 103.203C77.593 104.078 77.9962 104.891 78.8652 105.555C81.4844 107.555 87.2499 107.597 91.726 105.65C94.3317 104.515 95.9998 102.911 96.1873 101.363C96.294 100.488 95.8907 99.6745 95.0217 99.0102C93.6882 97.993 91.5384 97.4818 89.1619 97.4818ZM77.4043 92.4383C77.3025 92.4383 77.2021 92.4051 77.1187 92.3415L70.2085 87.065C70.0761 86.9646 70.0062 86.8003 70.0271 86.6348C70.0467 86.4694 70.1533 86.326 70.3066 86.2598L73.8707 84.7069C74.0264 84.6394 74.209 84.6603 74.3439 84.7645L81.2528 90.0409C81.3852 90.1415 81.455 90.3057 81.4342 90.4711C81.4147 90.6366 81.308 90.78 81.1548 90.8462L77.5918 92.3991C77.5318 92.4248 77.468 92.4383 77.4043 92.4383ZM71.4158 86.8028L77.4705 91.4259L80.0456 90.3033L73.9921 85.6802L71.4158 86.8028Z" fill="#113958"/>
<path d="M103.712 119.533C103.612 119.533 103.513 119.502 103.427 119.437L94.7652 112.825C94.5581 112.669 94.5189 112.373 94.6769 112.166C94.8351 111.958 95.1304 111.922 95.3363 112.078L103.998 118.689C104.205 118.846 104.244 119.141 104.086 119.348C103.994 119.47 103.853 119.533 103.712 119.533ZM106.629 118.262C106.529 118.262 106.43 118.231 106.344 118.166L95.9344 110.216C95.7273 110.058 95.6881 109.763 95.8462 109.557C96.0031 109.348 96.2996 109.312 96.5055 109.468L106.915 117.418C107.122 117.576 107.161 117.871 107.003 118.077C106.911 118.199 106.77 118.262 106.629 118.262ZM76.8806 95.5415C76.78 95.5415 76.6808 95.5096 76.5949 95.4446L66.1843 87.4963C65.9772 87.3395 65.938 87.044 66.096 86.8369C66.253 86.6286 66.5495 86.593 66.7555 86.7487L77.1661 94.697C77.3732 94.8539 77.4125 95.1493 77.2543 95.3564C77.1625 95.4777 77.0215 95.5415 76.8806 95.5415ZM72.2096 95.4777C72.1091 95.4777 72.0086 95.4458 71.924 95.3809L63.2673 88.7673C63.0602 88.6092 63.0209 88.3138 63.179 88.1079C63.3371 87.8995 63.6361 87.8639 63.8384 88.0196L72.4952 94.6332C72.7023 94.7913 72.7415 95.0867 72.5834 95.2927C72.4915 95.414 72.3506 95.4777 72.2096 95.4777Z" fill="#113958"/>
<path d="M139.194 107.095L75.2554 70.1797L47.6562 86.1143V90.6039L111.595 127.52L139.194 111.584V107.095Z" fill="#FF8744"/>
<path d="M111.596 127.993C111.516 127.993 111.433 127.972 111.361 127.93L47.4228 91.0139C47.277 90.9293 47.1875 90.7737 47.1875 90.6058V86.1162C47.1875 85.9483 47.277 85.7926 47.4228 85.7081L75.0219 69.7734C75.1666 69.6901 75.348 69.6901 75.4925 69.7734L139.431 106.689C139.577 106.773 139.666 106.929 139.666 107.097V111.586C139.666 111.754 139.577 111.91 139.431 111.994L111.832 127.93C111.76 127.972 111.677 127.993 111.596 127.993ZM48.1289 90.3336L111.596 126.979L138.725 111.314V107.369L75.2573 70.7245L48.1288 86.3883V90.3336H48.1289Z" fill="#113958"/>
<path d="M139.194 107.095L75.2554 70.1797L47.6562 86.1143L111.595 123.03L139.194 107.095Z" fill="white"/>
<path d="M111.596 123.502C111.516 123.502 111.433 123.481 111.361 123.44L47.4228 86.5244C47.277 86.4398 47.1875 86.2842 47.1875 86.1162C47.1875 85.9483 47.277 85.7927 47.4228 85.7081L75.0219 69.7734C75.1666 69.6901 75.348 69.6901 75.4925 69.7734L139.431 106.689C139.577 106.773 139.666 106.929 139.666 107.097C139.666 107.265 139.577 107.42 139.431 107.505L111.832 123.44C111.76 123.481 111.677 123.502 111.596 123.502ZM48.5996 86.1163L111.597 122.489L138.254 107.097L75.2574 70.7246L48.5996 86.1163Z" fill="#113958"/>
<path d="M111.598 123.028V127.519L139.197 111.583V107.094L111.598 123.028Z" fill="#113958"/>
<path d="M111.596 127.992C111.515 127.992 111.433 127.971 111.36 127.929C111.214 127.845 111.125 127.689 111.125 127.521V123.03C111.125 122.862 111.214 122.707 111.36 122.622L138.959 106.688C139.104 106.604 139.285 106.604 139.43 106.688C139.576 106.772 139.665 106.928 139.665 107.096V111.585C139.665 111.753 139.576 111.909 139.43 111.993L111.831 127.929C111.759 127.971 111.677 127.992 111.596 127.992ZM112.066 123.302V126.706L138.724 111.313V107.911L112.066 123.302Z" fill="#113958"/>
<path d="M115.376 117.108L128.939 109.28C127.548 107.931 127.545 106.25 128.928 104.902L79.058 76.1092C76.7256 76.9107 73.8146 76.9096 71.4785 76.1055L57.918 83.9349C59.3079 85.2831 59.3103 86.9635 57.9254 88.3117L107.796 117.105C110.128 116.303 113.041 116.307 115.376 117.108Z" fill="#FF8744"/>
<path d="M115.378 117.578C115.327 117.578 115.275 117.569 115.225 117.552C112.977 116.781 110.189 116.78 107.951 117.548C107.818 117.591 107.68 117.579 107.562 117.511L57.6919 88.7186C57.5644 88.6438 57.4787 88.5151 57.4602 88.3693C57.4418 88.2222 57.4934 88.0763 57.5987 87.9734C58.1846 87.4035 58.4935 86.7637 58.4935 86.1239C58.4935 85.4841 58.1809 84.8431 57.5926 84.2719C57.4859 84.1689 57.4345 84.0219 57.4529 83.876C57.4713 83.729 57.5571 83.6002 57.6845 83.5255L71.245 75.696C71.3615 75.6274 71.5036 75.6139 71.6336 75.6592C73.8778 76.4326 76.6649 76.4339 78.9066 75.6629C79.0365 75.6163 79.1762 75.6311 79.2951 75.6997L129.165 104.493C129.293 104.567 129.379 104.696 129.397 104.842C129.415 104.989 129.364 105.135 129.259 105.238C128.674 105.808 128.365 106.446 128.365 107.086C128.366 107.727 128.679 108.368 129.268 108.94C129.375 109.043 129.426 109.19 129.408 109.336C129.39 109.483 129.304 109.612 129.176 109.687L115.613 117.515C115.541 117.557 115.46 117.578 115.378 117.578ZM111.579 116.033C112.868 116.033 114.159 116.22 115.325 116.593L128.201 109.162C127.692 108.521 127.425 107.812 127.424 107.086C127.424 106.363 127.687 105.657 128.191 105.017L79.0071 76.6215C76.6808 77.3654 73.8594 77.3643 71.5332 76.6178L58.6602 84.0501C59.1677 84.6911 59.4336 85.3983 59.4348 86.1239C59.436 86.8471 59.1713 87.5543 58.6663 88.194L107.85 116.59C109.008 116.22 110.293 116.033 111.579 116.033Z" fill="#113958"/>
<path d="M99.2556 99.9731C95.1631 102.336 89.236 102.744 86.015 100.885C82.794 99.0245 83.5011 95.6037 87.5923 93.2407C91.6848 90.8788 97.6133 90.4695 100.834 92.33C104.055 94.1893 103.348 97.6113 99.2556 99.9731ZM84.6704 85.3254L76.5702 80.6484L73.4141 82.4709L81.5133 87.148L84.6704 85.3254ZM121.067 106.338L112.967 101.662L109.811 103.486L117.91 108.162L121.067 106.338Z" fill="white"/>
<path d="M117.912 108.63C117.831 108.63 117.749 108.61 117.677 108.568L109.577 103.892C109.432 103.807 109.342 103.652 109.342 103.484C109.342 103.316 109.432 103.16 109.577 103.077L112.733 101.253C112.878 101.167 113.06 101.169 113.204 101.252L121.304 105.928C121.45 106.012 121.54 106.168 121.54 106.336C121.54 106.504 121.45 106.659 121.304 106.744L118.147 108.568C118.075 108.609 117.993 108.63 117.912 108.63ZM110.754 103.484L117.912 107.617L120.128 106.336L112.969 102.203L110.754 103.484ZM91.1989 102.509C89.1287 102.509 87.202 102.111 85.7815 101.291C84.3266 100.45 83.5263 99.2419 83.5263 97.8876C83.5263 96.081 84.9235 94.2376 87.3589 92.8306C91.5763 90.3977 97.7267 89.9908 101.071 91.9199C102.526 92.7595 103.327 93.968 103.327 95.3223C103.327 97.1302 101.929 98.9723 99.4928 100.379C97.0685 101.779 94.0032 102.509 91.1989 102.509ZM95.6504 91.627C93.0226 91.627 90.1277 92.3207 87.8295 93.6468C85.7239 94.8627 84.4676 96.4474 84.4676 97.8876C84.4676 98.9061 85.084 99.8008 86.2521 100.475C89.3383 102.258 95.067 101.849 99.0221 99.563C101.128 98.3484 102.385 96.7624 102.385 95.3223C102.385 94.3038 101.769 93.409 100.601 92.7361C99.3077 91.9885 97.5477 91.627 95.6504 91.627ZM81.515 87.6166C81.4342 87.6166 81.3521 87.5958 81.2797 87.5542L73.1807 82.8771C73.0348 82.7926 72.9453 82.6369 72.9453 82.469C72.9453 82.3011 73.0348 82.1454 73.1807 82.0608L76.3367 80.2383C76.4813 80.1549 76.6627 80.1549 76.8073 80.2383L84.9076 84.9153C85.0534 84.9999 85.1429 85.1555 85.1429 85.3234C85.1429 85.4913 85.0534 85.647 84.9076 85.7316L81.7503 87.5541C81.678 87.5958 81.5959 87.6166 81.515 87.6166ZM74.3573 82.469L81.515 86.603L83.731 85.3234L76.572 81.1893L74.3573 82.469Z" fill="#113958"/>
<path d="M114.037 112.364C113.956 112.364 113.875 112.343 113.802 112.301L103.649 106.439C103.423 106.309 103.346 106.021 103.476 105.796C103.607 105.569 103.897 105.497 104.119 105.623L114.272 111.485C114.498 111.615 114.575 111.903 114.445 112.129C114.357 112.279 114.199 112.364 114.037 112.364ZM116.623 110.87C116.542 110.87 116.461 110.849 116.388 110.807L104.183 103.761C103.957 103.631 103.88 103.343 104.01 103.118C104.141 102.891 104.432 102.82 104.653 102.945L116.858 109.991C117.084 110.121 117.161 110.409 117.031 110.635C116.943 110.785 116.785 110.87 116.623 110.87ZM77.0986 91.0377C77.0176 91.0377 76.9367 91.0169 76.8632 90.9752L66.7124 85.1129C66.4869 84.9818 66.4097 84.695 66.5396 84.4695C66.672 84.2427 66.9625 84.1704 67.183 84.2967L77.3338 90.1589C77.5593 90.29 77.6365 90.5769 77.5066 90.8023C77.4185 90.9531 77.2603 91.0377 77.0986 91.0377ZM81.7389 90.73C81.658 90.73 81.577 90.7092 81.5035 90.6676L69.2985 83.6201C69.073 83.489 68.9958 83.2022 69.1257 82.9767C69.2568 82.7499 69.5473 82.6777 69.7692 82.8039L81.9741 89.8514C82.1996 89.9825 82.2769 90.2693 82.1469 90.4949C82.0588 90.6455 81.9006 90.73 81.7389 90.73Z" fill="#113958"/>
<path d="M55.3826 40.9979C53.0329 39.6424 50.9064 39.5088 49.3658 40.3901L49.3621 40.3912C49.3597 40.3937 49.356 40.395 49.3524 40.3974L46.1044 42.2727C44.5588 43.1563 43.6016 45.0609 43.6016 47.7757C43.6016 53.1956 47.4145 59.7895 52.121 62.5068C54.4902 63.8746 56.6314 63.996 58.1757 63.089L61.3722 61.2432C62.9325 60.3656 63.9008 58.4573 63.9008 55.7289C63.9008 50.3093 60.0878 43.714 55.3826 40.9979Z" fill="#FF8744"/>
<path d="M55.9322 64.1463C54.6833 64.1463 53.3069 63.7332 51.8876 62.9146C47.0599 60.1274 43.1328 53.3362 43.1328 47.7753C43.1328 44.9735 44.106 42.874 45.8721 41.8641L49.1188 39.9888C50.8911 38.9776 53.1953 39.1897 55.6197 40.5894C60.4462 43.3765 64.3732 50.1679 64.3732 55.7286C64.3732 58.5451 63.3902 60.6483 61.6045 61.6533L58.4128 63.4967C57.6739 63.9306 56.8356 64.1463 55.9322 64.1463ZM49.6005 40.7977C49.5944 40.8014 49.587 40.8063 49.5809 40.81L46.3415 42.6803C44.8794 43.5162 44.0741 45.3253 44.0741 47.7753C44.0741 53.0358 47.7903 59.4619 52.3582 62.0983C54.497 63.3337 56.4776 63.5396 57.9398 62.6829L61.1388 60.8347C62.6194 60.0025 63.432 58.1897 63.432 55.7287C63.432 50.467 59.7158 44.0421 55.149 41.4057C53.0299 40.1838 51.0578 39.9644 49.6018 40.7979H49.6005V40.7977Z" fill="#113958"/>
<path d="M58.1744 63.0866L61.371 61.2408C62.9312 60.3633 63.8995 58.4549 63.8995 55.7266L52.1406 62.5154C54.5012 63.8723 56.6351 63.9911 58.1744 63.0866Z" fill="#113958"/>
<path d="M55.9322 64.145C54.6882 64.145 53.3191 63.7368 51.9084 62.9254C51.7626 62.8409 51.6719 62.6864 51.6719 62.5173C51.6719 62.3494 51.7613 62.1938 51.9072 62.1092L63.666 55.3203C63.8107 55.237 63.9921 55.237 64.1367 55.3203C64.2825 55.4049 64.372 55.5606 64.372 55.7285C64.372 58.545 63.389 60.6482 61.6033 61.6532L58.4129 63.4954C57.6726 63.9293 56.8354 64.145 55.9322 64.145ZM53.1181 62.4977C54.9639 63.3666 56.6553 63.4378 57.9373 62.6828C57.9386 62.6816 57.9398 62.6816 57.941 62.6803L61.1375 60.8345C62.4453 60.0991 63.2321 58.5989 63.3975 56.5631L53.1181 62.4977Z" fill="#113958"/>
<path d="M60.6393 57.6079C60.6405 63.0277 56.8251 65.2192 52.121 62.5032C47.4145 59.786 43.6016 53.1919 43.6016 47.7721C43.6016 42.3511 47.4158 40.1609 52.121 42.8769C56.8263 45.593 60.6405 52.1882 60.6393 57.6079Z" fill="white"/>
<path d="M55.9359 64.1456C54.6845 64.1456 53.3069 63.7325 51.8876 62.9139C47.0599 60.1267 43.1328 53.3354 43.1328 47.7746C43.1328 44.9826 44.0998 42.8868 45.8562 41.8719C47.6163 40.8546 49.9266 41.0679 52.3582 42.4713C57.1861 45.2584 61.1131 52.0498 61.1118 57.6105C61.1131 60.4025 60.146 62.4984 58.3897 63.5119C57.6567 63.936 56.8282 64.1456 55.9359 64.1456ZM48.3124 42.1808C47.5819 42.1808 46.9127 42.3487 46.3269 42.6882C44.8745 43.5265 44.0741 45.3332 44.0741 47.7746C44.0741 53.0351 47.7903 59.4612 52.3582 62.0975C54.4872 63.3281 56.4593 63.5365 57.9191 62.6969C59.3714 61.8586 60.1705 60.052 60.1705 57.6105C60.1718 52.35 56.4556 45.924 51.8876 43.2876C50.6154 42.5522 49.397 42.1808 48.3124 42.1808Z" fill="#113958"/>
<path d="M57.2855 56.1437C57.2047 56.1437 57.1238 56.1229 57.0502 56.0811L46.7242 50.1196C46.4986 49.9897 46.4214 49.7016 46.5513 49.4762C46.6837 49.2494 46.9742 49.1783 47.1948 49.3034L57.5208 55.2649C57.7463 55.3948 57.8235 55.6828 57.6937 55.9083C57.6054 56.0591 57.4473 56.1437 57.2855 56.1437Z" fill="#113958"/>
<path d="M52.123 59.112C51.8631 59.112 51.6523 58.9012 51.6523 58.6414L51.6536 46.7441C51.6536 46.4842 51.8644 46.2734 52.1243 46.2734C52.3841 46.2734 52.5949 46.4842 52.5949 46.7441L52.5937 58.6414C52.5937 58.9011 52.3828 59.112 52.123 59.112Z" fill="#113958"/>
<path d="M63.4864 125.445C63.4803 123.108 61.9335 120.771 58.8424 118.986C52.6554 115.415 42.6332 115.41 36.4536 118.979C33.3625 120.763 31.8193 123.104 31.8242 125.445V130.67C31.8242 130.67 31.8242 130.673 31.8242 130.675V130.679C31.8291 133.016 33.3771 135.353 36.4671 137.138C42.6529 140.711 52.6786 140.713 58.8571 137.145C61.9482 135.361 63.49 133.02 63.4863 130.679L63.4864 125.445Z" fill="#FF8744"/>
<path d="M47.675 140.281C43.5323 140.281 39.3896 139.37 36.2336 137.548C33.0934 135.734 31.3604 133.295 31.3555 130.682V125.447C31.3506 122.829 33.0775 120.388 36.2201 118.572C42.5175 114.937 52.7724 114.939 59.0796 118.58C62.2196 120.392 63.9515 122.831 63.9588 125.446V125.447V130.68C63.9625 133.3 62.2356 135.741 59.0942 137.555C55.9469 139.372 51.8115 140.281 47.675 140.281ZM47.637 116.774C43.6708 116.774 39.7071 117.646 36.6907 119.389C33.8521 121.026 32.2919 123.178 32.2968 125.446V130.672C32.3017 132.944 33.8669 135.093 36.7042 136.731C42.7515 140.226 52.5861 140.227 58.6236 136.739C61.461 135.101 63.0212 132.95 63.0175 130.682V125.448C63.0114 123.183 61.4462 121.033 58.6089 119.396C55.5828 117.648 51.6093 116.774 47.637 116.774Z" fill="#113958"/>
<path d="M63.4875 130.681V125.447C63.4814 123.11 61.9346 120.773 58.8435 118.988C57.6399 118.294 56.2893 117.738 54.8516 117.312V138.825C56.2941 138.4 57.651 137.845 58.8582 137.147C61.9494 135.363 63.4912 133.022 63.4875 130.681Z" fill="#113958"/>
<path d="M54.8535 139.298C54.753 139.298 54.6538 139.266 54.5716 139.205C54.4527 139.115 54.3828 138.976 54.3828 138.827V117.315C54.3828 117.167 54.4526 117.027 54.5716 116.937C54.6904 116.85 54.8437 116.82 54.987 116.864C56.5019 117.311 57.8783 117.89 59.0807 118.582C62.2207 120.395 63.9526 122.834 63.9599 125.448V130.682C63.9636 133.302 62.2367 135.744 59.0953 137.558C57.8979 138.249 56.5154 138.829 54.9869 139.278C54.943 139.292 54.8976 139.298 54.8535 139.298ZM55.3241 117.955V138.189C56.5424 137.79 57.6504 137.305 58.6248 136.741C61.4621 135.104 63.0224 132.953 63.0187 130.684C63.0187 130.683 63.0187 130.683 63.0187 130.683V125.449C63.0126 123.186 61.4474 121.036 58.6101 119.398C57.6333 118.835 56.5302 118.351 55.3241 117.955Z" fill="#113958"/>
<path d="M58.862 131.912C65.0393 128.345 65.0331 122.558 58.8473 118.986C52.6603 115.415 42.6381 115.41 36.4584 118.979C30.28 122.547 30.2849 128.333 36.4719 131.904C42.6578 135.477 52.6835 135.48 58.862 131.912Z" fill="white"/>
<path d="M47.6762 135.047C43.5335 135.047 39.3908 134.137 36.2348 132.314C33.0885 130.498 31.3555 128.055 31.3555 125.437C31.3555 122.823 33.0836 120.385 36.2213 118.572C42.5187 114.937 52.7737 114.939 59.0808 118.58C62.227 120.397 63.96 122.84 63.96 125.458C63.96 128.072 62.2319 130.51 59.0954 132.322C55.9481 134.138 51.8127 135.047 47.6762 135.047ZM47.6382 116.774C43.672 116.774 39.7083 117.646 36.6919 119.389C33.857 121.025 32.2968 123.173 32.2968 125.437C32.2968 127.705 33.8632 129.858 36.7054 131.498C42.7527 134.991 52.5873 134.993 58.6248 131.505C61.4585 129.87 63.0187 127.722 63.0187 125.458C63.0187 123.189 61.4524 121.037 58.6101 119.396C55.5841 117.648 51.6105 116.774 47.6382 116.774Z" fill="#113958"/>
<path d="M48.2737 140.284C48.0139 140.284 47.8031 140.073 47.8031 139.814V134.58C47.8031 134.32 48.0139 134.11 48.2737 134.11C48.5335 134.11 48.7444 134.32 48.7444 134.58V139.814C48.7444 140.074 48.5336 140.284 48.2737 140.284ZM44.9841 140.158C44.7242 140.158 44.5135 139.947 44.5135 139.688V134.454C44.5135 134.194 44.7242 133.983 44.9841 133.983C45.2439 133.983 45.4547 134.194 45.4547 134.454V139.688C45.4548 139.947 45.244 140.158 44.9841 140.158ZM51.5634 140.012C51.3036 140.012 51.0927 139.801 51.0927 139.542V134.308C51.0927 134.048 51.3035 133.837 51.5634 133.837C51.8232 133.837 52.034 134.048 52.034 134.308V139.542C52.034 139.801 51.8232 140.012 51.5634 140.012ZM41.6945 139.616C41.4346 139.616 41.2238 139.406 41.2238 139.146V133.912C41.2238 133.652 41.4346 133.442 41.6945 133.442C41.9543 133.442 42.1651 133.652 42.1651 133.912V139.146C42.1651 139.406 41.9544 139.616 41.6945 139.616ZM38.4048 138.562C38.145 138.562 37.9342 138.351 37.9342 138.092V132.858C37.9342 132.598 38.145 132.388 38.4048 132.388C38.6647 132.388 38.8755 132.598 38.8755 132.858V138.092C38.8755 138.351 38.6647 138.562 38.4048 138.562ZM35.1152 136.718C34.8554 136.718 34.6445 136.507 34.6445 136.247V131.014C34.6445 130.754 34.8553 130.543 35.1152 130.543C35.375 130.543 35.5858 130.754 35.5858 131.014V136.247C35.5858 136.507 35.375 136.718 35.1152 136.718Z" fill="#113958"/>
<path d="M43.4388 128.047C42.0133 127.222 41.8001 125.963 42.7966 125.01L46.0408 126.884L48.3377 126.529L44.1595 124.116L45.3484 123.43L48.6846 125.356L50.9839 125.002L46.8964 122.643C48.5473 122.068 50.729 122.189 52.1543 123.014C53.3249 123.69 53.706 124.698 53.1826 125.581L55.357 126.836C55.39 126.809 55.4268 126.782 55.4551 126.754C56.9602 125.148 56.4466 123.125 54.2049 121.83C51.6421 120.351 47.6232 120.221 44.8067 121.437L43.7244 120.812L41.4251 121.165L43.2917 122.243L42.1027 122.93L41.0794 122.338L38.7812 122.692L40.7068 123.804C38.6012 125.431 38.8254 127.75 41.3882 129.23C43.6299 130.524 47.1353 130.82 49.9138 129.952C49.9664 129.937 50.0118 129.915 50.0584 129.896L47.8841 128.64C46.3558 128.943 44.6093 128.722 43.4388 128.047Z" fill="#113958"/>
</svg>
