<svg width="358" height="279" viewBox="0 0 358 279" fill="none" xmlns="http://www.w3.org/2000/svg">
<rect x="0.5" y="1" width="418" height="277" rx="4.6" fill="white"/>
<rect x="0.5" y="1" width="418" height="277" rx="4.6" stroke="#000714"/>
<g clip-path="url(#clip0_286_1444)">
<path d="M39 151.25C40.933 151.25 42.5 149.683 42.5 147.75C42.5 145.817 40.933 144.25 39 144.25C37.067 144.25 35.5 145.817 35.5 147.75C35.5 149.683 37.067 151.25 39 151.25Z" stroke="#929292" stroke-linecap="round" stroke-linejoin="round"/>
<path d="M33.75 154.312C34.8093 152.482 36.7332 151.25 39 151.25C41.2668 151.25 43.1907 152.482 44.25 154.312" stroke="#929292" stroke-linecap="round" stroke-linejoin="round"/>
</g>
<path d="M50.048 153.5L53.528 145.1H54.644L58.1 153.5H57.092L56.036 150.86H52.076L51.008 153.5H50.048ZM52.4 150.068H55.712L54.056 145.952L52.4 150.068ZM61.3798 153.608C60.8118 153.608 60.2958 153.472 59.8318 153.2C59.3678 152.92 58.9998 152.544 58.7278 152.072C58.4558 151.6 58.3198 151.072 58.3198 150.488C58.3198 149.904 58.4558 149.38 58.7278 148.916C58.9998 148.444 59.3678 148.068 59.8318 147.788C60.2958 147.508 60.8118 147.368 61.3798 147.368C61.8198 147.368 62.2438 147.452 62.6518 147.62C63.0598 147.78 63.4198 148.012 63.7318 148.316L63.1678 148.964C62.9278 148.708 62.6518 148.516 62.3398 148.388C62.0358 148.252 61.7198 148.184 61.3918 148.184C60.9838 148.184 60.6118 148.288 60.2758 148.496C59.9478 148.696 59.6838 148.972 59.4838 149.324C59.2918 149.668 59.1958 150.056 59.1958 150.488C59.1958 150.92 59.2918 151.312 59.4838 151.664C59.6838 152.016 59.9518 152.296 60.2878 152.504C60.6238 152.704 60.9958 152.804 61.4038 152.804C61.7318 152.804 62.0398 152.74 62.3278 152.612C62.6238 152.484 62.8998 152.296 63.1558 152.048L63.7078 152.648C63.3878 152.952 63.0278 153.188 62.6278 153.356C62.2278 153.524 61.8118 153.608 61.3798 153.608ZM67.3564 153.608C66.7884 153.608 66.2724 153.472 65.8084 153.2C65.3444 152.92 64.9764 152.544 64.7044 152.072C64.4324 151.6 64.2964 151.072 64.2964 150.488C64.2964 149.904 64.4324 149.38 64.7044 148.916C64.9764 148.444 65.3444 148.068 65.8084 147.788C66.2724 147.508 66.7884 147.368 67.3564 147.368C67.7964 147.368 68.2204 147.452 68.6284 147.62C69.0364 147.78 69.3964 148.012 69.7084 148.316L69.1444 148.964C68.9044 148.708 68.6284 148.516 68.3164 148.388C68.0124 148.252 67.6964 148.184 67.3684 148.184C66.9604 148.184 66.5884 148.288 66.2524 148.496C65.9244 148.696 65.6604 148.972 65.4604 149.324C65.2684 149.668 65.1724 150.056 65.1724 150.488C65.1724 150.92 65.2684 151.312 65.4604 151.664C65.6604 152.016 65.9284 152.296 66.2644 152.504C66.6004 152.704 66.9724 152.804 67.3804 152.804C67.7084 152.804 68.0164 152.74 68.3044 152.612C68.6004 152.484 68.8764 152.296 69.1324 152.048L69.6844 152.648C69.3644 152.952 69.0044 153.188 68.6044 153.356C68.2044 153.524 67.7884 153.608 67.3564 153.608ZM73.345 153.62C72.777 153.62 72.257 153.484 71.785 153.212C71.321 152.932 70.953 152.556 70.681 152.084C70.409 151.612 70.273 151.084 70.273 150.5C70.273 149.916 70.409 149.388 70.681 148.916C70.953 148.444 71.321 148.072 71.785 147.8C72.257 147.52 72.777 147.38 73.345 147.38C73.921 147.38 74.441 147.52 74.905 147.8C75.369 148.072 75.737 148.444 76.009 148.916C76.281 149.388 76.417 149.916 76.417 150.5C76.417 151.084 76.281 151.612 76.009 152.084C75.737 152.556 75.369 152.932 74.905 153.212C74.441 153.484 73.921 153.62 73.345 153.62ZM73.345 152.828C73.753 152.828 74.121 152.724 74.449 152.516C74.785 152.308 75.049 152.028 75.241 151.676C75.441 151.324 75.541 150.932 75.541 150.5C75.541 150.06 75.441 149.668 75.241 149.324C75.049 148.972 74.785 148.692 74.449 148.484C74.121 148.276 73.753 148.172 73.345 148.172C72.937 148.172 72.565 148.276 72.229 148.484C71.901 148.692 71.637 148.972 71.437 149.324C71.245 149.668 71.149 150.06 71.149 150.5C71.149 150.932 71.245 151.324 71.437 151.676C71.637 152.028 71.901 152.308 72.229 152.516C72.565 152.724 72.937 152.828 73.345 152.828ZM79.9545 153.62C79.4985 153.62 79.0945 153.524 78.7425 153.332C78.3905 153.132 78.1145 152.86 77.9145 152.516C77.7225 152.164 77.6265 151.756 77.6265 151.292V147.488H78.5025V151.112C78.5025 151.648 78.6545 152.072 78.9585 152.384C79.2625 152.688 79.6705 152.84 80.1825 152.84C80.5425 152.84 80.8625 152.76 81.1425 152.6C81.4305 152.432 81.6625 152.2 81.8385 151.904V147.488H82.7265V153.5H81.8385V152.804C81.3665 153.348 80.7385 153.62 79.9545 153.62ZM84.2365 153.5V147.488H85.1245V148.196C85.5965 147.644 86.2285 147.368 87.0205 147.368C87.4765 147.368 87.8765 147.468 88.2205 147.668C88.5725 147.86 88.8445 148.132 89.0365 148.484C89.2365 148.828 89.3365 149.232 89.3365 149.696V153.5H88.4605V149.876C88.4605 149.34 88.3085 148.92 88.0045 148.616C87.7085 148.304 87.3005 148.148 86.7805 148.148C86.4205 148.148 86.1005 148.228 85.8205 148.388C85.5405 148.548 85.3085 148.776 85.1245 149.072V153.5H84.2365ZM93.0106 153.62C92.4906 153.62 92.0906 153.496 91.8106 153.248C91.5306 153 91.3906 152.64 91.3906 152.168V148.244H90.0946V147.488H91.3906V145.964L92.2666 145.736V147.488H94.0786V148.244H92.2666V151.94C92.2666 152.26 92.3386 152.492 92.4826 152.636C92.6266 152.772 92.8626 152.84 93.1906 152.84C93.3586 152.84 93.5066 152.828 93.6346 152.804C93.7706 152.78 93.9146 152.74 94.0666 152.684V153.464C93.9146 153.52 93.7426 153.56 93.5506 153.584C93.3666 153.608 93.1866 153.62 93.0106 153.62ZM97.7756 153.5V145.1H98.6996L103.752 151.916V145.1H104.628V153.5H103.812L98.6516 146.504V153.5H97.7756ZM108.082 153.608C107.642 153.608 107.254 153.532 106.918 153.38C106.59 153.228 106.33 153.016 106.138 152.744C105.954 152.472 105.862 152.156 105.862 151.796C105.862 151.228 106.078 150.78 106.51 150.452C106.942 150.124 107.526 149.96 108.262 149.96C108.91 149.96 109.498 150.096 110.026 150.368V149.576C110.026 149.096 109.89 148.736 109.618 148.496C109.346 148.248 108.95 148.124 108.43 148.124C108.134 148.124 107.834 148.168 107.53 148.256C107.234 148.336 106.906 148.468 106.546 148.652L106.21 147.968C106.642 147.76 107.042 147.608 107.41 147.512C107.778 147.416 108.146 147.368 108.514 147.368C109.274 147.368 109.858 147.548 110.266 147.908C110.682 148.268 110.89 148.784 110.89 149.456V153.5H110.026V152.912C109.754 153.144 109.454 153.32 109.126 153.44C108.806 153.552 108.458 153.608 108.082 153.608ZM106.714 151.772C106.714 152.108 106.854 152.384 107.134 152.6C107.422 152.808 107.79 152.912 108.238 152.912C108.598 152.912 108.926 152.856 109.222 152.744C109.518 152.632 109.786 152.456 110.026 152.216V151.088C109.778 150.92 109.514 150.8 109.234 150.728C108.954 150.648 108.638 150.608 108.286 150.608C107.806 150.608 107.422 150.716 107.134 150.932C106.854 151.14 106.714 151.42 106.714 151.772ZM112.373 153.5V147.488H113.261V148.148C113.717 147.628 114.305 147.368 115.025 147.368C115.449 147.368 115.825 147.468 116.153 147.668C116.481 147.86 116.737 148.124 116.921 148.46C117.169 148.092 117.465 147.82 117.809 147.644C118.153 147.46 118.545 147.368 118.985 147.368C119.425 147.368 119.809 147.468 120.137 147.668C120.465 147.86 120.721 148.132 120.905 148.484C121.097 148.828 121.193 149.232 121.193 149.696V153.5H120.317V149.876C120.317 149.34 120.177 148.92 119.897 148.616C119.617 148.304 119.237 148.148 118.757 148.148C118.429 148.148 118.129 148.232 117.857 148.4C117.585 148.56 117.353 148.804 117.161 149.132C117.177 149.22 117.189 149.312 117.197 149.408C117.213 149.496 117.221 149.592 117.221 149.696V153.5H116.345V149.876C116.345 149.34 116.205 148.92 115.925 148.616C115.645 148.304 115.269 148.148 114.797 148.148C114.477 148.148 114.185 148.224 113.921 148.376C113.665 148.52 113.445 148.736 113.261 149.024V153.5H112.373ZM125.506 153.608C124.93 153.608 124.406 153.472 123.934 153.2C123.47 152.92 123.098 152.544 122.818 152.072C122.546 151.6 122.41 151.072 122.41 150.488C122.41 149.912 122.542 149.392 122.806 148.928C123.07 148.456 123.426 148.084 123.874 147.812C124.322 147.532 124.822 147.392 125.374 147.392C125.91 147.392 126.39 147.532 126.814 147.812C127.246 148.084 127.586 148.456 127.834 148.928C128.09 149.392 128.218 149.912 128.218 150.488V150.764H123.286C123.334 151.156 123.458 151.508 123.658 151.82C123.866 152.132 124.134 152.38 124.462 152.564C124.79 152.74 125.15 152.828 125.542 152.828C125.854 152.828 126.158 152.78 126.454 152.684C126.75 152.588 126.998 152.452 127.198 152.276L127.75 152.864C127.414 153.112 127.062 153.3 126.694 153.428C126.334 153.548 125.938 153.608 125.506 153.608ZM123.31 150.056H127.33C127.282 149.696 127.162 149.376 126.97 149.096C126.786 148.808 126.554 148.584 126.274 148.424C125.994 148.256 125.686 148.172 125.35 148.172C125.006 148.172 124.69 148.252 124.402 148.412C124.114 148.572 123.874 148.796 123.682 149.084C123.49 149.364 123.366 149.688 123.31 150.056Z" fill="#929292"/>
<path d="M32.994 176.5V166.7H34.464V175.198H40.106V176.5H32.994ZM43.6796 176.626C43.1663 176.626 42.7136 176.537 42.3216 176.36C41.9296 176.173 41.6216 175.917 41.3976 175.59C41.1736 175.263 41.0616 174.885 41.0616 174.456C41.0616 173.784 41.3183 173.257 41.8316 172.874C42.3449 172.482 43.0496 172.286 43.9456 172.286C44.6456 172.286 45.2943 172.421 45.8916 172.692V171.936C45.8916 171.423 45.7423 171.04 45.4436 170.788C45.1543 170.536 44.7249 170.41 44.1556 170.41C43.8289 170.41 43.4883 170.461 43.1336 170.564C42.7789 170.657 42.3823 170.807 41.9436 171.012L41.4256 169.962C41.9669 169.71 42.4709 169.528 42.9376 169.416C43.4043 169.295 43.8756 169.234 44.3516 169.234C45.2756 169.234 45.9896 169.453 46.4936 169.892C47.0069 170.331 47.2636 170.956 47.2636 171.768V176.5H45.8916V175.884C45.5743 176.136 45.2336 176.323 44.8696 176.444C44.5056 176.565 44.1089 176.626 43.6796 176.626ZM42.4056 174.428C42.4056 174.773 42.5503 175.053 42.8396 175.268C43.1383 175.483 43.5256 175.59 44.0016 175.59C44.3749 175.59 44.7156 175.534 45.0236 175.422C45.3409 175.31 45.6303 175.137 45.8916 174.904V173.7C45.6209 173.541 45.3363 173.429 45.0376 173.364C44.7483 173.289 44.4216 173.252 44.0576 173.252C43.5443 173.252 43.1383 173.359 42.8396 173.574C42.5503 173.779 42.4056 174.064 42.4056 174.428ZM48.8768 176.5V166.7L50.2768 166.392V170.102C50.8274 169.523 51.5414 169.234 52.4188 169.234C52.9694 169.234 53.4501 169.351 53.8608 169.584C54.2808 169.817 54.6074 170.144 54.8408 170.564C55.0834 170.984 55.2048 171.469 55.2048 172.02V176.5H53.8048V172.258C53.8048 171.698 53.6461 171.259 53.3288 170.942C53.0114 170.615 52.5774 170.452 52.0268 170.452C51.6534 170.452 51.3174 170.531 51.0188 170.69C50.7201 170.849 50.4728 171.077 50.2768 171.376V176.5H48.8768ZM60.2081 176.64C59.5175 176.64 58.8875 176.477 58.3181 176.15C57.7581 175.823 57.3148 175.38 56.9881 174.82C56.6615 174.26 56.4981 173.635 56.4981 172.944C56.4981 172.253 56.6615 171.628 56.9881 171.068C57.3148 170.508 57.7581 170.065 58.3181 169.738C58.8875 169.402 59.5175 169.234 60.2081 169.234C60.9081 169.234 61.5381 169.402 62.0981 169.738C62.6581 170.065 63.1015 170.508 63.4281 171.068C63.7548 171.628 63.9181 172.253 63.9181 172.944C63.9181 173.635 63.7548 174.26 63.4281 174.82C63.1015 175.38 62.6581 175.823 62.0981 176.15C61.5381 176.477 60.9081 176.64 60.2081 176.64ZM60.2081 175.408C60.6468 175.408 61.0435 175.301 61.3981 175.086C61.7528 174.862 62.0328 174.563 62.2381 174.19C62.4435 173.817 62.5461 173.397 62.5461 172.93C62.5461 172.473 62.4388 172.062 62.2241 171.698C62.0188 171.325 61.7388 171.026 61.3841 170.802C61.0388 170.578 60.6468 170.466 60.2081 170.466C59.7695 170.466 59.3728 170.578 59.0181 170.802C58.6728 171.026 58.3928 171.325 58.1781 171.698C57.9728 172.062 57.8701 172.473 57.8701 172.93C57.8701 173.397 57.9728 173.817 58.1781 174.19C58.3835 174.563 58.6635 174.862 59.0181 175.086C59.3728 175.301 59.7695 175.408 60.2081 175.408ZM65.242 176.5V169.374H66.642V170.284C66.866 169.948 67.1413 169.687 67.468 169.5C67.804 169.304 68.182 169.206 68.602 169.206C68.8913 169.215 69.1293 169.257 69.316 169.332V170.592C69.1853 170.536 69.05 170.499 68.91 170.48C68.77 170.452 68.63 170.438 68.49 170.438C68.0793 170.438 67.7153 170.55 67.398 170.774C67.0807 170.989 66.8287 171.306 66.642 171.726V176.5H65.242ZM70.4373 176.5V169.374H71.8373V176.5H70.4373ZM71.1373 168.226C70.904 168.226 70.7033 168.142 70.5353 167.974C70.3673 167.797 70.2833 167.591 70.2833 167.358C70.2833 167.115 70.3673 166.915 70.5353 166.756C70.7033 166.588 70.904 166.504 71.1373 166.504C71.38 166.504 71.5853 166.588 71.7533 166.756C71.9213 166.915 72.0053 167.115 72.0053 167.358C72.0053 167.591 71.9213 167.797 71.7533 167.974C71.5853 168.142 71.38 168.226 71.1373 168.226ZM79.8979 176.64C79.1139 176.64 78.3579 176.486 77.6299 176.178C76.9019 175.87 76.2579 175.436 75.6979 174.876L76.5939 173.84C77.1259 174.363 77.6673 174.75 78.2179 175.002C78.7779 175.254 79.3613 175.38 79.9679 175.38C80.4439 175.38 80.8593 175.315 81.2139 175.184C81.5779 175.044 81.8579 174.848 82.0539 174.596C82.2499 174.344 82.3479 174.059 82.3479 173.742C82.3479 173.303 82.1939 172.967 81.8859 172.734C81.5779 172.501 81.0693 172.323 80.3599 172.202L78.7219 171.936C77.8259 171.777 77.1539 171.488 76.7059 171.068C76.2673 170.648 76.0479 170.088 76.0479 169.388C76.0479 168.828 76.1973 168.338 76.4959 167.918C76.7946 167.489 77.2146 167.157 77.7559 166.924C78.3066 166.691 78.9413 166.574 79.6599 166.574C80.3693 166.574 81.0646 166.691 81.7459 166.924C82.4366 167.148 83.0573 167.475 83.6079 167.904L82.7959 169.024C81.7413 168.221 80.6726 167.82 79.5899 167.82C79.1606 167.82 78.7873 167.881 78.4699 168.002C78.1526 168.123 77.9053 168.296 77.7279 168.52C77.5506 168.735 77.4619 168.987 77.4619 169.276C77.4619 169.677 77.5973 169.985 77.8679 170.2C78.1386 170.405 78.5866 170.555 79.2119 170.648L80.7939 170.914C81.8299 171.082 82.5906 171.385 83.0759 171.824C83.5613 172.263 83.8039 172.865 83.8039 173.63C83.8039 174.227 83.6406 174.755 83.3139 175.212C82.9873 175.66 82.5299 176.01 81.9419 176.262C81.3539 176.514 80.6726 176.64 79.8979 176.64ZM83.694 176.5L86.466 172.846L83.806 169.374H85.444L87.278 171.81L89.112 169.374H90.694L88.062 172.832L90.862 176.5H89.224L87.25 173.868L85.276 176.5H83.694ZM91.1315 176.5L93.9035 172.846L91.2435 169.374H92.8815L94.7155 171.81L96.5495 169.374H98.1315L95.4995 172.832L98.2995 176.5H96.6615L94.6875 173.868L92.7135 176.5H91.1315ZM98.569 176.5L101.341 172.846L98.681 169.374H100.319L102.153 171.81L103.987 169.374H105.569L102.937 172.832L105.737 176.5H104.099L102.125 173.868L100.151 176.5H98.569ZM106.007 176.5L108.779 172.846L106.119 169.374H107.757L109.591 171.81L111.425 169.374H113.007L110.375 172.832L113.175 176.5H111.537L109.563 173.868L107.589 176.5H106.007ZM113.444 176.5L116.216 172.846L113.556 169.374H115.194L117.028 171.81L118.862 169.374H120.444L117.812 172.832L120.612 176.5H118.974L117 173.868L115.026 176.5H113.444Z" fill="#000714"/>
<g clip-path="url(#clip1_286_1444)">
<path d="M214.312 148.625H216.5" stroke="#929292" stroke-width="0.875" stroke-linecap="round" stroke-linejoin="round"/>
<path d="M214.312 150.375H216.5" stroke="#929292" stroke-width="0.875" stroke-linecap="round" stroke-linejoin="round"/>
<path d="M217.812 145.125H208.188C207.946 145.125 207.75 145.321 207.75 145.562V153.438C207.75 153.679 207.946 153.875 208.188 153.875H217.812C218.054 153.875 218.25 153.679 218.25 153.438V145.562C218.25 145.321 218.054 145.125 217.812 145.125Z" stroke="#929292" stroke-width="0.875" stroke-linecap="round" stroke-linejoin="round"/>
<path d="M211.25 150.375C211.975 150.375 212.562 149.787 212.562 149.062C212.562 148.338 211.975 147.75 211.25 147.75C210.525 147.75 209.938 148.338 209.938 149.062C209.938 149.787 210.525 150.375 211.25 150.375Z" stroke="#929292" stroke-width="0.875" stroke-linecap="round" stroke-linejoin="round"/>
<path d="M209.5 151.688C209.694 150.933 210.435 150.375 211.25 150.375C212.065 150.375 212.806 150.932 213 151.688" stroke="#929292" stroke-width="0.875" stroke-linecap="round" stroke-linejoin="round"/>
</g>
<path d="M225.848 152.66H227.744C228.232 152.66 228.684 152.576 229.1 152.408C229.516 152.24 229.88 152.004 230.192 151.7C230.504 151.396 230.744 151.04 230.912 150.632C231.088 150.224 231.176 149.78 231.176 149.3C231.176 148.82 231.088 148.376 230.912 147.968C230.744 147.56 230.504 147.204 230.192 146.9C229.88 146.596 229.516 146.36 229.1 146.192C228.684 146.024 228.232 145.94 227.744 145.94H225.848V152.66ZM224.924 153.5V145.1H227.696C228.336 145.1 228.924 145.204 229.46 145.412C229.996 145.62 230.46 145.912 230.852 146.288C231.252 146.664 231.56 147.108 231.776 147.62C232 148.132 232.112 148.692 232.112 149.3C232.112 149.908 232.004 150.468 231.788 150.98C231.572 151.492 231.264 151.936 230.864 152.312C230.472 152.688 230.004 152.98 229.46 153.188C228.924 153.396 228.336 153.5 227.696 153.5H224.924ZM236.189 153.62C235.621 153.62 235.101 153.484 234.629 153.212C234.165 152.932 233.797 152.556 233.525 152.084C233.253 151.612 233.117 151.084 233.117 150.5C233.117 149.916 233.253 149.388 233.525 148.916C233.797 148.444 234.165 148.072 234.629 147.8C235.101 147.52 235.621 147.38 236.189 147.38C236.765 147.38 237.285 147.52 237.749 147.8C238.213 148.072 238.581 148.444 238.853 148.916C239.125 149.388 239.261 149.916 239.261 150.5C239.261 151.084 239.125 151.612 238.853 152.084C238.581 152.556 238.213 152.932 237.749 153.212C237.285 153.484 236.765 153.62 236.189 153.62ZM236.189 152.828C236.597 152.828 236.965 152.724 237.293 152.516C237.629 152.308 237.893 152.028 238.085 151.676C238.285 151.324 238.385 150.932 238.385 150.5C238.385 150.06 238.285 149.668 238.085 149.324C237.893 148.972 237.629 148.692 237.293 148.484C236.965 148.276 236.597 148.172 236.189 148.172C235.781 148.172 235.409 148.276 235.073 148.484C234.745 148.692 234.481 148.972 234.281 149.324C234.089 149.668 233.993 150.06 233.993 150.5C233.993 150.932 234.089 151.324 234.281 151.676C234.481 152.028 234.745 152.308 235.073 152.516C235.409 152.724 235.781 152.828 236.189 152.828ZM243.278 153.608C242.71 153.608 242.194 153.472 241.73 153.2C241.266 152.92 240.898 152.544 240.626 152.072C240.354 151.6 240.218 151.072 240.218 150.488C240.218 149.904 240.354 149.38 240.626 148.916C240.898 148.444 241.266 148.068 241.73 147.788C242.194 147.508 242.71 147.368 243.278 147.368C243.718 147.368 244.142 147.452 244.55 147.62C244.958 147.78 245.318 148.012 245.63 148.316L245.066 148.964C244.826 148.708 244.55 148.516 244.238 148.388C243.934 148.252 243.618 148.184 243.29 148.184C242.882 148.184 242.51 148.288 242.174 148.496C241.846 148.696 241.582 148.972 241.382 149.324C241.19 149.668 241.094 150.056 241.094 150.488C241.094 150.92 241.19 151.312 241.382 151.664C241.582 152.016 241.85 152.296 242.186 152.504C242.522 152.704 242.894 152.804 243.302 152.804C243.63 152.804 243.938 152.74 244.226 152.612C244.522 152.484 244.798 152.296 245.054 152.048L245.606 152.648C245.286 152.952 244.926 153.188 244.526 153.356C244.126 153.524 243.71 153.608 243.278 153.608ZM248.951 153.62C248.495 153.62 248.091 153.524 247.739 153.332C247.387 153.132 247.111 152.86 246.911 152.516C246.719 152.164 246.623 151.756 246.623 151.292V147.488H247.499V151.112C247.499 151.648 247.651 152.072 247.955 152.384C248.259 152.688 248.667 152.84 249.179 152.84C249.539 152.84 249.859 152.76 250.139 152.6C250.427 152.432 250.659 152.2 250.835 151.904V147.488H251.723V153.5H250.835V152.804C250.363 153.348 249.735 153.62 248.951 153.62ZM253.233 153.5V147.488H254.121V148.148C254.577 147.628 255.165 147.368 255.885 147.368C256.309 147.368 256.685 147.468 257.013 147.668C257.341 147.86 257.597 148.124 257.781 148.46C258.029 148.092 258.325 147.82 258.669 147.644C259.013 147.46 259.405 147.368 259.845 147.368C260.285 147.368 260.669 147.468 260.997 147.668C261.325 147.86 261.581 148.132 261.765 148.484C261.957 148.828 262.053 149.232 262.053 149.696V153.5H261.177V149.876C261.177 149.34 261.037 148.92 260.757 148.616C260.477 148.304 260.097 148.148 259.617 148.148C259.289 148.148 258.989 148.232 258.717 148.4C258.445 148.56 258.213 148.804 258.021 149.132C258.037 149.22 258.049 149.312 258.057 149.408C258.073 149.496 258.081 149.592 258.081 149.696V153.5H257.205V149.876C257.205 149.34 257.065 148.92 256.785 148.616C256.505 148.304 256.129 148.148 255.657 148.148C255.337 148.148 255.045 148.224 254.781 148.376C254.525 148.52 254.305 148.736 254.121 149.024V153.5H253.233ZM266.365 153.608C265.789 153.608 265.265 153.472 264.793 153.2C264.329 152.92 263.957 152.544 263.677 152.072C263.405 151.6 263.269 151.072 263.269 150.488C263.269 149.912 263.401 149.392 263.665 148.928C263.929 148.456 264.285 148.084 264.733 147.812C265.181 147.532 265.681 147.392 266.233 147.392C266.769 147.392 267.249 147.532 267.673 147.812C268.105 148.084 268.445 148.456 268.693 148.928C268.949 149.392 269.077 149.912 269.077 150.488V150.764H264.145C264.193 151.156 264.317 151.508 264.517 151.82C264.725 152.132 264.993 152.38 265.321 152.564C265.649 152.74 266.009 152.828 266.401 152.828C266.713 152.828 267.017 152.78 267.313 152.684C267.609 152.588 267.857 152.452 268.057 152.276L268.609 152.864C268.273 153.112 267.921 153.3 267.553 153.428C267.193 153.548 266.797 153.608 266.365 153.608ZM264.169 150.056H268.189C268.141 149.696 268.021 149.376 267.829 149.096C267.645 148.808 267.413 148.584 267.133 148.424C266.853 148.256 266.545 148.172 266.209 148.172C265.865 148.172 265.549 148.252 265.261 148.412C264.973 148.572 264.733 148.796 264.541 149.084C264.349 149.364 264.225 149.688 264.169 150.056ZM270.319 153.5V147.488H271.207V148.196C271.679 147.644 272.311 147.368 273.103 147.368C273.559 147.368 273.959 147.468 274.303 147.668C274.655 147.86 274.927 148.132 275.119 148.484C275.319 148.828 275.419 149.232 275.419 149.696V153.5H274.543V149.876C274.543 149.34 274.391 148.92 274.087 148.616C273.791 148.304 273.383 148.148 272.863 148.148C272.503 148.148 272.183 148.228 271.903 148.388C271.623 148.548 271.391 148.776 271.207 149.072V153.5H270.319ZM279.093 153.62C278.573 153.62 278.173 153.496 277.893 153.248C277.613 153 277.473 152.64 277.473 152.168V148.244H276.177V147.488H277.473V145.964L278.349 145.736V147.488H280.161V148.244H278.349V151.94C278.349 152.26 278.421 152.492 278.565 152.636C278.709 152.772 278.945 152.84 279.273 152.84C279.441 152.84 279.589 152.828 279.717 152.804C279.853 152.78 279.997 152.74 280.149 152.684V153.464C279.997 153.52 279.825 153.56 279.633 153.584C279.449 153.608 279.269 153.62 279.093 153.62Z" fill="#929292"/>
<path d="M206.994 176.5V166.7H214.218V167.988H208.464V170.928H212.244V172.174H208.464V175.212H214.274V176.5H206.994ZM215.617 176.5V169.374H217.017V170.06C217.549 169.509 218.216 169.234 219.019 169.234C219.504 169.234 219.934 169.341 220.307 169.556C220.69 169.771 220.993 170.06 221.217 170.424C221.516 170.032 221.866 169.738 222.267 169.542C222.668 169.337 223.121 169.234 223.625 169.234C224.157 169.234 224.619 169.351 225.011 169.584C225.412 169.817 225.725 170.144 225.949 170.564C226.182 170.984 226.299 171.469 226.299 172.02V176.5H224.899V172.258C224.899 171.698 224.75 171.259 224.451 170.942C224.162 170.615 223.765 170.452 223.261 170.452C222.916 170.452 222.603 170.531 222.323 170.69C222.043 170.849 221.8 171.091 221.595 171.418C221.614 171.511 221.628 171.609 221.637 171.712C221.646 171.815 221.651 171.917 221.651 172.02V176.5H220.265V172.258C220.265 171.698 220.116 171.259 219.817 170.942C219.528 170.615 219.131 170.452 218.627 170.452C218.291 170.452 217.988 170.527 217.717 170.676C217.446 170.816 217.213 171.031 217.017 171.32V176.5H215.617ZM227.908 176.5V169.374H229.308V176.5H227.908ZM228.608 168.226C228.375 168.226 228.174 168.142 228.006 167.974C227.838 167.797 227.754 167.591 227.754 167.358C227.754 167.115 227.838 166.915 228.006 166.756C228.174 166.588 228.375 166.504 228.608 166.504C228.851 166.504 229.056 166.588 229.224 166.756C229.392 166.915 229.476 167.115 229.476 167.358C229.476 167.591 229.392 167.797 229.224 167.974C229.056 168.142 228.851 168.226 228.608 168.226ZM230.957 176.5V169.374H232.357V170.284C232.581 169.948 232.856 169.687 233.183 169.5C233.519 169.304 233.897 169.206 234.317 169.206C234.606 169.215 234.844 169.257 235.031 169.332V170.592C234.9 170.536 234.765 170.499 234.625 170.48C234.485 170.452 234.345 170.438 234.205 170.438C233.794 170.438 233.43 170.55 233.113 170.774C232.796 170.989 232.544 171.306 232.357 171.726V176.5H230.957ZM238.119 176.626C237.606 176.626 237.153 176.537 236.761 176.36C236.369 176.173 236.061 175.917 235.837 175.59C235.613 175.263 235.501 174.885 235.501 174.456C235.501 173.784 235.758 173.257 236.271 172.874C236.784 172.482 237.489 172.286 238.385 172.286C239.085 172.286 239.734 172.421 240.331 172.692V171.936C240.331 171.423 240.182 171.04 239.883 170.788C239.594 170.536 239.164 170.41 238.595 170.41C238.268 170.41 237.928 170.461 237.573 170.564C237.218 170.657 236.822 170.807 236.383 171.012L235.865 169.962C236.406 169.71 236.91 169.528 237.377 169.416C237.844 169.295 238.315 169.234 238.791 169.234C239.715 169.234 240.429 169.453 240.933 169.892C241.446 170.331 241.703 170.956 241.703 171.768V176.5H240.331V175.884C240.014 176.136 239.673 176.323 239.309 176.444C238.945 176.565 238.548 176.626 238.119 176.626ZM236.845 174.428C236.845 174.773 236.99 175.053 237.279 175.268C237.578 175.473 237.965 175.576 238.441 175.576C238.814 175.576 239.155 175.525 239.463 175.422C239.78 175.31 240.07 175.137 240.331 174.904V173.7C240.06 173.541 239.776 173.429 239.477 173.364C239.188 173.289 238.861 173.252 238.497 173.252C237.984 173.252 237.578 173.359 237.279 173.574C236.99 173.779 236.845 174.064 236.845 174.428ZM246.163 176.626C245.472 176.626 244.945 176.467 244.581 176.15C244.217 175.823 244.035 175.352 244.035 174.736V170.55H242.523V169.374H244.035V167.554L245.421 167.218V169.374H247.521V170.55H245.421V174.414C245.421 174.778 245.5 175.039 245.659 175.198C245.827 175.347 246.098 175.422 246.471 175.422C246.667 175.422 246.84 175.408 246.989 175.38C247.148 175.352 247.316 175.31 247.493 175.254V176.43C247.306 176.495 247.087 176.542 246.835 176.57C246.592 176.607 246.368 176.626 246.163 176.626ZM251.859 176.626C251.159 176.626 250.525 176.463 249.955 176.136C249.395 175.809 248.947 175.366 248.611 174.806C248.285 174.246 248.121 173.621 248.121 172.93C248.121 172.249 248.28 171.633 248.597 171.082C248.915 170.522 249.344 170.079 249.885 169.752C250.427 169.416 251.029 169.248 251.691 169.248C252.354 169.248 252.942 169.416 253.455 169.752C253.969 170.079 254.375 170.527 254.673 171.096C254.981 171.656 255.135 172.291 255.135 173V173.392H249.521C249.596 173.784 249.741 174.134 249.955 174.442C250.179 174.75 250.459 174.993 250.795 175.17C251.141 175.347 251.514 175.436 251.915 175.436C252.261 175.436 252.592 175.385 252.909 175.282C253.236 175.17 253.507 175.011 253.721 174.806L254.617 175.688C254.197 176.005 253.763 176.243 253.315 176.402C252.877 176.551 252.391 176.626 251.859 176.626ZM249.535 172.342H253.749C253.693 171.969 253.563 171.642 253.357 171.362C253.161 171.073 252.914 170.849 252.615 170.69C252.326 170.522 252.009 170.438 251.663 170.438C251.309 170.438 250.982 170.517 250.683 170.676C250.385 170.835 250.133 171.059 249.927 171.348C249.731 171.628 249.601 171.959 249.535 172.342ZM258.987 176.64C258.371 176.64 257.792 176.551 257.251 176.374C256.719 176.187 256.257 175.926 255.865 175.59L256.635 174.666C256.999 174.955 257.372 175.179 257.755 175.338C258.147 175.487 258.544 175.562 258.945 175.562C259.449 175.562 259.86 175.464 260.177 175.268C260.494 175.072 260.653 174.815 260.653 174.498C260.653 174.237 260.56 174.031 260.373 173.882C260.186 173.733 259.897 173.63 259.505 173.574L258.217 173.392C257.508 173.289 256.976 173.07 256.621 172.734C256.266 172.398 256.089 171.95 256.089 171.39C256.089 170.961 256.206 170.587 256.439 170.27C256.672 169.943 256.999 169.691 257.419 169.514C257.839 169.327 258.329 169.234 258.889 169.234C259.402 169.234 259.897 169.309 260.373 169.458C260.849 169.607 261.306 169.841 261.745 170.158L261.031 171.082C260.639 170.821 260.256 170.629 259.883 170.508C259.519 170.387 259.15 170.326 258.777 170.326C258.348 170.326 258.002 170.419 257.741 170.606C257.48 170.783 257.349 171.017 257.349 171.306C257.349 171.567 257.438 171.773 257.615 171.922C257.802 172.062 258.105 172.16 258.525 172.216L259.813 172.398C260.522 172.501 261.059 172.72 261.423 173.056C261.787 173.383 261.969 173.826 261.969 174.386C261.969 174.815 261.838 175.203 261.577 175.548C261.316 175.884 260.961 176.15 260.513 176.346C260.065 176.542 259.556 176.64 258.987 176.64ZM266.139 176.5V166.7H267.609V176.5H266.139ZM271.081 175.184H273.097C273.611 175.184 274.087 175.095 274.525 174.918C274.964 174.731 275.347 174.479 275.673 174.162C276.009 173.835 276.266 173.457 276.443 173.028C276.63 172.589 276.723 172.113 276.723 171.6C276.723 171.096 276.63 170.625 276.443 170.186C276.266 169.747 276.009 169.369 275.673 169.052C275.347 168.725 274.964 168.473 274.525 168.296C274.087 168.109 273.611 168.016 273.097 168.016H271.081V175.184ZM269.611 176.5V166.7H273.069C273.807 166.7 274.488 166.826 275.113 167.078C275.739 167.321 276.285 167.661 276.751 168.1C277.218 168.539 277.582 169.057 277.843 169.654C278.105 170.251 278.235 170.9 278.235 171.6C278.235 172.309 278.105 172.963 277.843 173.56C277.591 174.148 277.232 174.661 276.765 175.1C276.299 175.539 275.748 175.884 275.113 176.136C274.488 176.379 273.807 176.5 273.069 176.5H269.611Z" fill="#000714"/>
<g clip-path="url(#clip2_286_1444)">
<path d="M43.375 206.688H34.625C34.3834 206.688 34.1875 206.883 34.1875 207.125V215.875C34.1875 216.117 34.3834 216.312 34.625 216.312H43.375C43.6166 216.312 43.8125 216.117 43.8125 215.875V207.125C43.8125 206.883 43.6166 206.688 43.375 206.688Z" stroke="#929292" stroke-width="0.875" stroke-linecap="round" stroke-linejoin="round"/>
<path d="M41.625 205.812V207.562" stroke="#929292" stroke-width="0.875" stroke-linecap="round" stroke-linejoin="round"/>
<path d="M36.375 205.812V207.562" stroke="#929292" stroke-width="0.875" stroke-linecap="round" stroke-linejoin="round"/>
<path d="M34.1875 209.312H43.8125" stroke="#929292" stroke-width="0.875" stroke-linecap="round" stroke-linejoin="round"/>
<path d="M37.0312 212.812L38.3438 214.125L40.9688 211.5" stroke="#929292" stroke-width="0.875" stroke-linecap="round" stroke-linejoin="round"/>
</g>
<path d="M50.924 215.5V207.1H56.936V207.916H51.848V210.856H55.172V211.66H51.848V214.684H56.984V215.5H50.924ZM57.4545 215.5L59.8185 212.404L57.5745 209.488H58.6305L60.3345 211.744L62.0385 209.488H63.0585L60.8385 212.392L63.2145 215.5H62.1585L60.3225 213.052L58.4625 215.5H57.4545ZM64.0451 217.948V209.488H64.9211V210.136C65.4411 209.64 66.0891 209.392 66.8651 209.392C67.4331 209.392 67.9451 209.532 68.4011 209.812C68.8571 210.084 69.2171 210.452 69.4811 210.916C69.7531 211.38 69.8891 211.904 69.8891 212.488C69.8891 213.072 69.7531 213.6 69.4811 214.072C69.2171 214.536 68.8571 214.908 68.4011 215.188C67.9451 215.46 67.4291 215.596 66.8531 215.596C66.5011 215.596 66.1611 215.536 65.8331 215.416C65.5051 215.296 65.2051 215.124 64.9331 214.9V217.948H64.0451ZM66.7811 214.816C67.2051 214.816 67.5851 214.716 67.9211 214.516C68.2571 214.308 68.5211 214.032 68.7131 213.688C68.9131 213.336 69.0131 212.94 69.0131 212.5C69.0131 212.06 68.9131 211.664 68.7131 211.312C68.5211 210.96 68.2571 210.684 67.9211 210.484C67.5851 210.276 67.2051 210.172 66.7811 210.172C66.4051 210.172 66.0531 210.248 65.7251 210.4C65.4051 210.544 65.1411 210.748 64.9331 211.012V213.988C65.1411 214.244 65.4091 214.448 65.7371 214.6C66.0651 214.744 66.4131 214.816 66.7811 214.816ZM71.1232 215.5V209.488H72.0112V215.5H71.1232ZM71.5672 208.336C71.4072 208.336 71.2672 208.276 71.1472 208.156C71.0272 208.036 70.9672 207.896 70.9672 207.736C70.9672 207.568 71.0272 207.428 71.1472 207.316C71.2672 207.196 71.4072 207.136 71.5672 207.136C71.7352 207.136 71.8752 207.196 71.9872 207.316C72.1072 207.428 72.1672 207.568 72.1672 207.736C72.1672 207.896 72.1072 208.036 71.9872 208.156C71.8752 208.276 71.7352 208.336 71.5672 208.336ZM73.5255 215.5V209.488H74.4135V210.34C74.5975 210.028 74.8295 209.788 75.1095 209.62C75.3975 209.444 75.7255 209.356 76.0935 209.356C76.3015 209.356 76.4895 209.384 76.6575 209.44V210.256C76.5535 210.216 76.4495 210.188 76.3455 210.172C76.2415 210.156 76.1375 210.148 76.0335 210.148C75.6655 210.148 75.3415 210.256 75.0615 210.472C74.7895 210.68 74.5735 210.984 74.4135 211.384V215.5H73.5255ZM78.0432 218.068C77.9312 218.068 77.8232 218.06 77.7192 218.044C77.6232 218.036 77.5432 218.024 77.4792 218.008V217.204C77.6152 217.236 77.7832 217.252 77.9832 217.252C78.5112 217.252 78.9112 216.94 79.1832 216.316L79.5432 215.488L77.0952 209.488H78.0792L80.0232 214.42L82.1232 209.488H83.0832L80.0832 216.436C79.9152 216.82 79.7352 217.132 79.5432 217.372C79.3512 217.612 79.1312 217.788 78.8832 217.9C78.6432 218.012 78.3632 218.068 78.0432 218.068ZM87.5785 214.66H89.4745C89.9625 214.66 90.4145 214.576 90.8305 214.408C91.2465 214.24 91.6105 214.004 91.9225 213.7C92.2345 213.396 92.4745 213.04 92.6425 212.632C92.8185 212.224 92.9065 211.78 92.9065 211.3C92.9065 210.82 92.8185 210.376 92.6425 209.968C92.4745 209.56 92.2345 209.204 91.9225 208.9C91.6105 208.596 91.2465 208.36 90.8305 208.192C90.4145 208.024 89.9625 207.94 89.4745 207.94H87.5785V214.66ZM86.6545 215.5V207.1H89.4265C90.0665 207.1 90.6545 207.204 91.1905 207.412C91.7265 207.62 92.1905 207.912 92.5825 208.288C92.9825 208.664 93.2905 209.108 93.5065 209.62C93.7305 210.132 93.8425 210.692 93.8425 211.3C93.8425 211.908 93.7345 212.468 93.5185 212.98C93.3025 213.492 92.9945 213.936 92.5945 214.312C92.2025 214.688 91.7345 214.98 91.1905 215.188C90.6545 215.396 90.0665 215.5 89.4265 215.5H86.6545ZM96.902 215.608C96.462 215.608 96.074 215.532 95.738 215.38C95.41 215.228 95.15 215.016 94.958 214.744C94.774 214.472 94.682 214.156 94.682 213.796C94.682 213.228 94.898 212.78 95.33 212.452C95.762 212.124 96.346 211.96 97.082 211.96C97.73 211.96 98.318 212.096 98.846 212.368V211.576C98.846 211.096 98.71 210.736 98.438 210.496C98.166 210.248 97.77 210.124 97.25 210.124C96.954 210.124 96.654 210.168 96.35 210.256C96.054 210.336 95.726 210.468 95.366 210.652L95.03 209.968C95.462 209.76 95.862 209.608 96.23 209.512C96.598 209.416 96.966 209.368 97.334 209.368C98.094 209.368 98.678 209.548 99.086 209.908C99.502 210.268 99.71 210.784 99.71 211.456V215.5H98.846V214.912C98.574 215.144 98.274 215.32 97.946 215.44C97.626 215.552 97.278 215.608 96.902 215.608ZM95.534 213.772C95.534 214.108 95.674 214.384 95.954 214.6C96.242 214.808 96.61 214.912 97.058 214.912C97.418 214.912 97.746 214.856 98.042 214.744C98.338 214.632 98.606 214.456 98.846 214.216V213.088C98.598 212.92 98.334 212.8 98.054 212.728C97.774 212.648 97.458 212.608 97.106 212.608C96.626 212.608 96.242 212.716 95.954 212.932C95.674 213.14 95.534 213.42 95.534 213.772ZM103.382 215.62C102.862 215.62 102.462 215.496 102.182 215.248C101.902 215 101.762 214.64 101.762 214.168V210.244H100.466V209.488H101.762V207.964L102.638 207.736V209.488H104.45V210.244H102.638V213.94C102.638 214.26 102.71 214.492 102.854 214.636C102.998 214.772 103.234 214.84 103.562 214.84C103.73 214.84 103.878 214.828 104.006 214.804C104.142 214.78 104.286 214.74 104.438 214.684V215.464C104.286 215.52 104.114 215.56 103.922 215.584C103.738 215.608 103.558 215.62 103.382 215.62ZM108.103 215.608C107.527 215.608 107.003 215.472 106.531 215.2C106.067 214.92 105.695 214.544 105.415 214.072C105.143 213.6 105.007 213.072 105.007 212.488C105.007 211.912 105.139 211.392 105.403 210.928C105.667 210.456 106.023 210.084 106.471 209.812C106.919 209.532 107.419 209.392 107.971 209.392C108.507 209.392 108.987 209.532 109.411 209.812C109.843 210.084 110.183 210.456 110.431 210.928C110.687 211.392 110.815 211.912 110.815 212.488V212.764H105.883C105.931 213.156 106.055 213.508 106.255 213.82C106.463 214.132 106.731 214.38 107.059 214.564C107.387 214.74 107.747 214.828 108.139 214.828C108.451 214.828 108.755 214.78 109.051 214.684C109.347 214.588 109.595 214.452 109.795 214.276L110.347 214.864C110.011 215.112 109.659 215.3 109.291 215.428C108.931 215.548 108.535 215.608 108.103 215.608ZM105.907 212.056H109.927C109.879 211.696 109.759 211.376 109.567 211.096C109.383 210.808 109.151 210.584 108.871 210.424C108.591 210.256 108.283 210.172 107.947 210.172C107.603 210.172 107.287 210.252 106.999 210.412C106.711 210.572 106.471 210.796 106.279 211.084C106.087 211.364 105.963 211.688 105.907 212.056Z" fill="#929292"/>
<path d="M32.686 238.5V237.52L36.662 233.292C36.9327 233.012 37.1427 232.76 37.292 232.536C37.4413 232.312 37.544 232.102 37.6 231.906C37.6653 231.701 37.698 231.486 37.698 231.262C37.698 230.823 37.5207 230.459 37.166 230.17C36.8113 229.881 36.3633 229.736 35.822 229.736C35.374 229.736 34.954 229.825 34.562 230.002C34.17 230.179 33.736 230.487 33.26 230.926L32.504 230.002C33.0267 229.517 33.5633 229.153 34.114 228.91C34.674 228.667 35.2527 228.546 35.85 228.546C36.4753 228.546 37.026 228.658 37.502 228.882C37.978 229.106 38.3467 229.419 38.608 229.82C38.8787 230.212 39.014 230.665 39.014 231.178C39.014 231.505 38.972 231.808 38.888 232.088C38.804 232.359 38.6593 232.648 38.454 232.956C38.2487 233.255 37.9593 233.6 37.586 233.992L34.394 237.352L39.21 237.338V238.5H32.686ZM43.7836 228.546C44.5676 228.546 45.2583 228.751 45.8556 229.162C46.453 229.563 46.9196 230.119 47.2556 230.828C47.5916 231.537 47.7596 232.363 47.7596 233.306C47.7596 234.379 47.573 235.317 47.1996 236.12C46.8263 236.913 46.299 237.534 45.6176 237.982C44.9456 238.421 44.157 238.64 43.2516 238.64C42.813 238.64 42.3696 238.57 41.9216 238.43C41.4736 238.29 41.0863 238.103 40.7596 237.87L41.4736 236.862C41.763 237.049 42.0663 237.193 42.3836 237.296C42.701 237.389 43.0276 237.436 43.3636 237.436C43.9983 237.436 44.5396 237.273 44.9876 236.946C45.445 236.619 45.795 236.153 46.0376 235.546C46.2803 234.93 46.4063 234.202 46.4156 233.362C46.0703 233.819 45.655 234.179 45.1696 234.44C44.6843 234.692 44.1803 234.818 43.6576 234.818C43.0136 234.818 42.4443 234.687 41.9496 234.426C41.455 234.155 41.0676 233.796 40.7876 233.348C40.5076 232.891 40.3676 232.368 40.3676 231.78C40.3676 231.155 40.517 230.599 40.8156 230.114C41.1143 229.629 41.5203 229.246 42.0336 228.966C42.547 228.686 43.1303 228.546 43.7836 228.546ZM43.8536 233.74C44.339 233.74 44.7963 233.628 45.2256 233.404C45.6643 233.171 46.0423 232.858 46.3596 232.466C46.285 231.906 46.131 231.421 45.8976 231.01C45.6736 230.599 45.3843 230.282 45.0296 230.058C44.675 229.825 44.2736 229.708 43.8256 229.708C43.4243 229.708 43.0603 229.797 42.7336 229.974C42.4163 230.151 42.1643 230.394 41.9776 230.702C41.8003 231.01 41.7116 231.36 41.7116 231.752C41.7116 232.135 41.8003 232.48 41.9776 232.788C42.1643 233.087 42.421 233.32 42.7476 233.488C43.0743 233.656 43.443 233.74 43.8536 233.74ZM49.1186 235.154V233.936H54.1586V235.154H49.1186ZM58.8296 238.64C58.0456 238.64 57.2896 238.486 56.5616 238.178C55.8336 237.87 55.1896 237.436 54.6296 236.876L55.5256 235.84C56.0576 236.363 56.5989 236.75 57.1496 237.002C57.7096 237.254 58.2929 237.38 58.8996 237.38C59.3756 237.38 59.7909 237.315 60.1456 237.184C60.5096 237.044 60.7896 236.848 60.9856 236.596C61.1816 236.344 61.2796 236.059 61.2796 235.742C61.2796 235.303 61.1256 234.967 60.8176 234.734C60.5096 234.501 60.0009 234.323 59.2916 234.202L57.6536 233.936C56.7576 233.777 56.0856 233.488 55.6376 233.068C55.1989 232.648 54.9796 232.088 54.9796 231.388C54.9796 230.828 55.1289 230.338 55.4276 229.918C55.7262 229.489 56.1462 229.157 56.6876 228.924C57.2382 228.691 57.8729 228.574 58.5916 228.574C59.3009 228.574 59.9962 228.691 60.6776 228.924C61.3682 229.148 61.9889 229.475 62.5396 229.904L61.7276 231.024C60.6729 230.221 59.6042 229.82 58.5216 229.82C58.0922 229.82 57.7189 229.881 57.4016 230.002C57.0842 230.123 56.8369 230.296 56.6596 230.52C56.4822 230.735 56.3936 230.987 56.3936 231.276C56.3936 231.677 56.5289 231.985 56.7996 232.2C57.0702 232.405 57.5182 232.555 58.1436 232.648L59.7256 232.914C60.7616 233.082 61.5222 233.385 62.0076 233.824C62.4929 234.263 62.7356 234.865 62.7356 235.63C62.7356 236.227 62.5722 236.755 62.2456 237.212C61.9189 237.66 61.4616 238.01 60.8736 238.262C60.2856 238.514 59.6042 238.64 58.8296 238.64ZM67.4822 238.626C66.7822 238.626 66.1476 238.463 65.5782 238.136C65.0182 237.809 64.5702 237.366 64.2342 236.806C63.9076 236.246 63.7442 235.621 63.7442 234.93C63.7442 234.249 63.9029 233.633 64.2202 233.082C64.5376 232.522 64.9669 232.079 65.5082 231.752C66.0496 231.416 66.6516 231.248 67.3142 231.248C67.9769 231.248 68.5649 231.416 69.0782 231.752C69.5916 232.079 69.9976 232.527 70.2962 233.096C70.6042 233.656 70.7582 234.291 70.7582 235V235.392H65.1442C65.2189 235.784 65.3636 236.134 65.5782 236.442C65.8022 236.75 66.0822 236.993 66.4182 237.17C66.7636 237.347 67.1369 237.436 67.5382 237.436C67.8836 237.436 68.2149 237.385 68.5322 237.282C68.8589 237.17 69.1296 237.011 69.3442 236.806L70.2402 237.688C69.8202 238.005 69.3862 238.243 68.9382 238.402C68.4996 238.551 68.0142 238.626 67.4822 238.626ZM65.1582 234.342H69.3722C69.3162 233.969 69.1856 233.642 68.9802 233.362C68.7842 233.073 68.5369 232.849 68.2382 232.69C67.9489 232.522 67.6316 232.438 67.2862 232.438C66.9316 232.438 66.6049 232.517 66.3062 232.676C66.0076 232.835 65.7556 233.059 65.5502 233.348C65.3542 233.628 65.2236 233.959 65.1582 234.342ZM72.0916 241.356V231.374H73.4776V232.06C74.075 231.528 74.803 231.262 75.6616 231.262C76.3336 231.262 76.9403 231.425 77.4816 231.752C78.0323 232.079 78.4663 232.517 78.7836 233.068C79.101 233.619 79.2596 234.239 79.2596 234.93C79.2596 235.621 79.0963 236.246 78.7696 236.806C78.4523 237.357 78.0183 237.795 77.4676 238.122C76.9263 238.449 76.315 238.612 75.6336 238.612C75.2416 238.612 74.8636 238.551 74.4996 238.43C74.1356 238.299 73.7996 238.117 73.4916 237.884V241.356H72.0916ZM75.4796 237.394C75.937 237.394 76.343 237.287 76.6976 237.072C77.0616 236.857 77.351 236.568 77.5656 236.204C77.7803 235.831 77.8876 235.411 77.8876 234.944C77.8876 234.477 77.7803 234.057 77.5656 233.684C77.351 233.311 77.0616 233.017 76.6976 232.802C76.343 232.587 75.937 232.48 75.4796 232.48C75.0783 232.48 74.705 232.555 74.3596 232.704C74.0143 232.853 73.725 233.063 73.4916 233.334V236.554C73.725 236.815 74.0143 237.021 74.3596 237.17C74.7143 237.319 75.0876 237.394 75.4796 237.394ZM80.5503 235.154V233.936H85.5903V235.154H80.5503ZM86.4028 238.5V237.52L90.3788 233.292C90.6495 233.012 90.8595 232.76 91.0088 232.536C91.1581 232.312 91.2608 232.102 91.3168 231.906C91.3821 231.701 91.4148 231.486 91.4148 231.262C91.4148 230.823 91.2375 230.459 90.8828 230.17C90.5281 229.881 90.0801 229.736 89.5388 229.736C89.0908 229.736 88.6708 229.825 88.2788 230.002C87.8868 230.179 87.4528 230.487 86.9768 230.926L86.2208 230.002C86.7435 229.517 87.2801 229.153 87.8308 228.91C88.3908 228.667 88.9695 228.546 89.5668 228.546C90.1921 228.546 90.7428 228.658 91.2188 228.882C91.6948 229.106 92.0635 229.419 92.3248 229.82C92.5955 230.212 92.7308 230.665 92.7308 231.178C92.7308 231.505 92.6888 231.808 92.6048 232.088C92.5208 232.359 92.3761 232.648 92.1708 232.956C91.9655 233.255 91.6761 233.6 91.3028 233.992L88.1108 237.352L92.9268 237.338V238.5H86.4028ZM98.1864 238.654C97.3651 238.654 96.6464 238.444 96.0304 238.024C95.4144 237.595 94.9291 237.002 94.5744 236.246C94.2291 235.481 94.0564 234.599 94.0564 233.6C94.0564 232.601 94.2291 231.724 94.5744 230.968C94.9291 230.203 95.4144 229.61 96.0304 229.19C96.6464 228.761 97.3651 228.546 98.1864 228.546C98.9984 228.546 99.7124 228.761 100.328 229.19C100.944 229.61 101.425 230.203 101.77 230.968C102.125 231.724 102.302 232.601 102.302 233.6C102.302 234.599 102.125 235.481 101.77 236.246C101.425 237.002 100.944 237.595 100.328 238.024C99.7124 238.444 98.9984 238.654 98.1864 238.654ZM98.1864 237.436C98.7464 237.436 99.2318 237.282 99.6424 236.974C100.053 236.657 100.37 236.209 100.594 235.63C100.818 235.051 100.93 234.375 100.93 233.6C100.93 232.816 100.818 232.139 100.594 231.57C100.37 230.991 100.053 230.548 99.6424 230.24C99.2318 229.923 98.7464 229.764 98.1864 229.764C97.6264 229.764 97.1411 229.923 96.7304 230.24C96.3198 230.548 95.9978 230.991 95.7644 231.57C95.5404 232.139 95.4284 232.816 95.4284 233.6C95.4284 234.375 95.5404 235.051 95.7644 235.63C95.9978 236.209 96.3198 236.657 96.7304 236.974C97.1411 237.282 97.6264 237.436 98.1864 237.436ZM103.206 238.5V237.52L107.182 233.292C107.452 233.012 107.662 232.76 107.812 232.536C107.961 232.312 108.064 232.102 108.12 231.906C108.185 231.701 108.218 231.486 108.218 231.262C108.218 230.823 108.04 230.459 107.686 230.17C107.331 229.881 106.883 229.736 106.342 229.736C105.894 229.736 105.474 229.825 105.082 230.002C104.69 230.179 104.256 230.487 103.78 230.926L103.024 230.002C103.546 229.517 104.083 229.153 104.634 228.91C105.194 228.667 105.772 228.546 106.37 228.546C106.995 228.546 107.546 228.658 108.022 228.882C108.498 229.106 108.866 229.419 109.128 229.82C109.398 230.212 109.534 230.665 109.534 231.178C109.534 231.505 109.492 231.808 109.408 232.088C109.324 232.359 109.179 232.648 108.974 232.956C108.768 233.255 108.479 233.6 108.106 233.992L104.914 237.352L109.73 237.338V238.5H103.206ZM111.645 238.5L116.321 229.89H110.609V228.7H117.777V229.722L113.213 238.5H111.645Z" fill="#000714"/>
<g clip-path="url(#clip3_286_1444)">
<path d="M214.312 209.625H216.5" stroke="#929292" stroke-width="0.875" stroke-linecap="round" stroke-linejoin="round"/>
<path d="M214.312 211.375H216.5" stroke="#929292" stroke-width="0.875" stroke-linecap="round" stroke-linejoin="round"/>
<path d="M217.812 206.125H208.188C207.946 206.125 207.75 206.321 207.75 206.562V214.438C207.75 214.679 207.946 214.875 208.188 214.875H217.812C218.054 214.875 218.25 214.679 218.25 214.438V206.562C218.25 206.321 218.054 206.125 217.812 206.125Z" stroke="#929292" stroke-width="0.875" stroke-linecap="round" stroke-linejoin="round"/>
<path d="M211.25 211.375C211.975 211.375 212.562 210.787 212.562 210.062C212.562 209.338 211.975 208.75 211.25 208.75C210.525 208.75 209.938 209.338 209.938 210.062C209.938 210.787 210.525 211.375 211.25 211.375Z" stroke="#929292" stroke-width="0.875" stroke-linecap="round" stroke-linejoin="round"/>
<path d="M209.5 212.688C209.694 211.933 210.435 211.375 211.25 211.375C212.065 211.375 212.806 211.932 213 212.688" stroke="#929292" stroke-width="0.875" stroke-linecap="round" stroke-linejoin="round"/>
</g>
<path d="M225.848 213.66H227.744C228.232 213.66 228.684 213.576 229.1 213.408C229.516 213.24 229.88 213.004 230.192 212.7C230.504 212.396 230.744 212.04 230.912 211.632C231.088 211.224 231.176 210.78 231.176 210.3C231.176 209.82 231.088 209.376 230.912 208.968C230.744 208.56 230.504 208.204 230.192 207.9C229.88 207.596 229.516 207.36 229.1 207.192C228.684 207.024 228.232 206.94 227.744 206.94H225.848V213.66ZM224.924 214.5V206.1H227.696C228.336 206.1 228.924 206.204 229.46 206.412C229.996 206.62 230.46 206.912 230.852 207.288C231.252 207.664 231.56 208.108 231.776 208.62C232 209.132 232.112 209.692 232.112 210.3C232.112 210.908 232.004 211.468 231.788 211.98C231.572 212.492 231.264 212.936 230.864 213.312C230.472 213.688 230.004 213.98 229.46 214.188C228.924 214.396 228.336 214.5 227.696 214.5H224.924ZM236.189 214.62C235.621 214.62 235.101 214.484 234.629 214.212C234.165 213.932 233.797 213.556 233.525 213.084C233.253 212.612 233.117 212.084 233.117 211.5C233.117 210.916 233.253 210.388 233.525 209.916C233.797 209.444 234.165 209.072 234.629 208.8C235.101 208.52 235.621 208.38 236.189 208.38C236.765 208.38 237.285 208.52 237.749 208.8C238.213 209.072 238.581 209.444 238.853 209.916C239.125 210.388 239.261 210.916 239.261 211.5C239.261 212.084 239.125 212.612 238.853 213.084C238.581 213.556 238.213 213.932 237.749 214.212C237.285 214.484 236.765 214.62 236.189 214.62ZM236.189 213.828C236.597 213.828 236.965 213.724 237.293 213.516C237.629 213.308 237.893 213.028 238.085 212.676C238.285 212.324 238.385 211.932 238.385 211.5C238.385 211.06 238.285 210.668 238.085 210.324C237.893 209.972 237.629 209.692 237.293 209.484C236.965 209.276 236.597 209.172 236.189 209.172C235.781 209.172 235.409 209.276 235.073 209.484C234.745 209.692 234.481 209.972 234.281 210.324C234.089 210.668 233.993 211.06 233.993 211.5C233.993 211.932 234.089 212.324 234.281 212.676C234.481 213.028 234.745 213.308 235.073 213.516C235.409 213.724 235.781 213.828 236.189 213.828ZM243.278 214.608C242.71 214.608 242.194 214.472 241.73 214.2C241.266 213.92 240.898 213.544 240.626 213.072C240.354 212.6 240.218 212.072 240.218 211.488C240.218 210.904 240.354 210.38 240.626 209.916C240.898 209.444 241.266 209.068 241.73 208.788C242.194 208.508 242.71 208.368 243.278 208.368C243.718 208.368 244.142 208.452 244.55 208.62C244.958 208.78 245.318 209.012 245.63 209.316L245.066 209.964C244.826 209.708 244.55 209.516 244.238 209.388C243.934 209.252 243.618 209.184 243.29 209.184C242.882 209.184 242.51 209.288 242.174 209.496C241.846 209.696 241.582 209.972 241.382 210.324C241.19 210.668 241.094 211.056 241.094 211.488C241.094 211.92 241.19 212.312 241.382 212.664C241.582 213.016 241.85 213.296 242.186 213.504C242.522 213.704 242.894 213.804 243.302 213.804C243.63 213.804 243.938 213.74 244.226 213.612C244.522 213.484 244.798 213.296 245.054 213.048L245.606 213.648C245.286 213.952 244.926 214.188 244.526 214.356C244.126 214.524 243.71 214.608 243.278 214.608ZM248.951 214.62C248.495 214.62 248.091 214.524 247.739 214.332C247.387 214.132 247.111 213.86 246.911 213.516C246.719 213.164 246.623 212.756 246.623 212.292V208.488H247.499V212.112C247.499 212.648 247.651 213.072 247.955 213.384C248.259 213.688 248.667 213.84 249.179 213.84C249.539 213.84 249.859 213.76 250.139 213.6C250.427 213.432 250.659 213.2 250.835 212.904V208.488H251.723V214.5H250.835V213.804C250.363 214.348 249.735 214.62 248.951 214.62ZM253.233 214.5V208.488H254.121V209.148C254.577 208.628 255.165 208.368 255.885 208.368C256.309 208.368 256.685 208.468 257.013 208.668C257.341 208.86 257.597 209.124 257.781 209.46C258.029 209.092 258.325 208.82 258.669 208.644C259.013 208.46 259.405 208.368 259.845 208.368C260.285 208.368 260.669 208.468 260.997 208.668C261.325 208.86 261.581 209.132 261.765 209.484C261.957 209.828 262.053 210.232 262.053 210.696V214.5H261.177V210.876C261.177 210.34 261.037 209.92 260.757 209.616C260.477 209.304 260.097 209.148 259.617 209.148C259.289 209.148 258.989 209.232 258.717 209.4C258.445 209.56 258.213 209.804 258.021 210.132C258.037 210.22 258.049 210.312 258.057 210.408C258.073 210.496 258.081 210.592 258.081 210.696V214.5H257.205V210.876C257.205 210.34 257.065 209.92 256.785 209.616C256.505 209.304 256.129 209.148 255.657 209.148C255.337 209.148 255.045 209.224 254.781 209.376C254.525 209.52 254.305 209.736 254.121 210.024V214.5H253.233ZM266.365 214.608C265.789 214.608 265.265 214.472 264.793 214.2C264.329 213.92 263.957 213.544 263.677 213.072C263.405 212.6 263.269 212.072 263.269 211.488C263.269 210.912 263.401 210.392 263.665 209.928C263.929 209.456 264.285 209.084 264.733 208.812C265.181 208.532 265.681 208.392 266.233 208.392C266.769 208.392 267.249 208.532 267.673 208.812C268.105 209.084 268.445 209.456 268.693 209.928C268.949 210.392 269.077 210.912 269.077 211.488V211.764H264.145C264.193 212.156 264.317 212.508 264.517 212.82C264.725 213.132 264.993 213.38 265.321 213.564C265.649 213.74 266.009 213.828 266.401 213.828C266.713 213.828 267.017 213.78 267.313 213.684C267.609 213.588 267.857 213.452 268.057 213.276L268.609 213.864C268.273 214.112 267.921 214.3 267.553 214.428C267.193 214.548 266.797 214.608 266.365 214.608ZM264.169 211.056H268.189C268.141 210.696 268.021 210.376 267.829 210.096C267.645 209.808 267.413 209.584 267.133 209.424C266.853 209.256 266.545 209.172 266.209 209.172C265.865 209.172 265.549 209.252 265.261 209.412C264.973 209.572 264.733 209.796 264.541 210.084C264.349 210.364 264.225 210.688 264.169 211.056ZM270.319 214.5V208.488H271.207V209.196C271.679 208.644 272.311 208.368 273.103 208.368C273.559 208.368 273.959 208.468 274.303 208.668C274.655 208.86 274.927 209.132 275.119 209.484C275.319 209.828 275.419 210.232 275.419 210.696V214.5H274.543V210.876C274.543 210.34 274.391 209.92 274.087 209.616C273.791 209.304 273.383 209.148 272.863 209.148C272.503 209.148 272.183 209.228 271.903 209.388C271.623 209.548 271.391 209.776 271.207 210.072V214.5H270.319ZM279.093 214.62C278.573 214.62 278.173 214.496 277.893 214.248C277.613 214 277.473 213.64 277.473 213.168V209.244H276.177V208.488H277.473V206.964L278.349 206.736V208.488H280.161V209.244H278.349V212.94C278.349 213.26 278.421 213.492 278.565 213.636C278.709 213.772 278.945 213.84 279.273 213.84C279.441 213.84 279.589 213.828 279.717 213.804C279.853 213.78 279.997 213.74 280.149 213.684V214.464C279.997 214.52 279.825 214.56 279.633 214.584C279.449 214.608 279.269 214.62 279.093 214.62ZM283.858 214.5V206.1H284.782V214.5H283.858ZM287.559 213.66H289.455C289.943 213.66 290.395 213.576 290.811 213.408C291.227 213.24 291.591 213.004 291.903 212.7C292.215 212.396 292.455 212.04 292.623 211.632C292.799 211.224 292.887 210.78 292.887 210.3C292.887 209.82 292.799 209.376 292.623 208.968C292.455 208.56 292.215 208.204 291.903 207.9C291.591 207.596 291.227 207.36 290.811 207.192C290.395 207.024 289.943 206.94 289.455 206.94H287.559V213.66ZM286.635 214.5V206.1H289.407C290.047 206.1 290.635 206.204 291.171 206.412C291.707 206.62 292.171 206.912 292.563 207.288C292.963 207.664 293.271 208.108 293.487 208.62C293.711 209.132 293.823 209.692 293.823 210.3C293.823 210.908 293.715 211.468 293.499 211.98C293.283 212.492 292.975 212.936 292.575 213.312C292.183 213.688 291.715 213.98 291.171 214.188C290.635 214.396 290.047 214.5 289.407 214.5H286.635ZM297.85 214.5V206.1H298.774L303.826 212.916V206.1H304.702V214.5H303.886L298.726 207.504V214.5H297.85ZM308.681 214.62C308.225 214.62 307.821 214.524 307.469 214.332C307.117 214.132 306.841 213.86 306.641 213.516C306.449 213.164 306.353 212.756 306.353 212.292V208.488H307.229V212.112C307.229 212.648 307.381 213.072 307.685 213.384C307.989 213.688 308.397 213.84 308.909 213.84C309.269 213.84 309.589 213.76 309.869 213.6C310.157 213.432 310.389 213.2 310.565 212.904V208.488H311.453V214.5H310.565V213.804C310.093 214.348 309.465 214.62 308.681 214.62ZM312.963 214.5V208.488H313.851V209.148C314.307 208.628 314.895 208.368 315.615 208.368C316.039 208.368 316.415 208.468 316.743 208.668C317.071 208.86 317.327 209.124 317.511 209.46C317.759 209.092 318.055 208.82 318.399 208.644C318.743 208.46 319.135 208.368 319.575 208.368C320.015 208.368 320.399 208.468 320.727 208.668C321.055 208.86 321.311 209.132 321.495 209.484C321.687 209.828 321.783 210.232 321.783 210.696V214.5H320.907V210.876C320.907 210.34 320.767 209.92 320.487 209.616C320.207 209.304 319.827 209.148 319.347 209.148C319.019 209.148 318.719 209.232 318.447 209.4C318.175 209.56 317.943 209.804 317.751 210.132C317.767 210.22 317.779 210.312 317.787 210.408C317.803 210.496 317.811 210.592 317.811 210.696V214.5H316.935V210.876C316.935 210.34 316.795 209.92 316.515 209.616C316.235 209.304 315.859 209.148 315.387 209.148C315.067 209.148 314.775 209.224 314.511 209.376C314.255 209.52 314.035 209.736 313.851 210.024V214.5H312.963ZM323.276 214.5V206.1L324.164 205.896V209.124C324.676 208.636 325.32 208.392 326.096 208.392C326.664 208.392 327.176 208.532 327.632 208.812C328.088 209.084 328.448 209.452 328.712 209.916C328.984 210.38 329.12 210.904 329.12 211.488C329.12 212.072 328.984 212.6 328.712 213.072C328.448 213.536 328.088 213.908 327.632 214.188C327.176 214.46 326.66 214.596 326.084 214.596C325.732 214.596 325.388 214.536 325.052 214.416C324.724 214.296 324.424 214.124 324.152 213.9V214.5H323.276ZM326.012 213.816C326.436 213.816 326.816 213.716 327.152 213.516C327.488 213.308 327.752 213.032 327.944 212.688C328.144 212.336 328.244 211.94 328.244 211.5C328.244 211.06 328.144 210.664 327.944 210.312C327.752 209.96 327.488 209.684 327.152 209.484C326.816 209.276 326.436 209.172 326.012 209.172C325.636 209.172 325.284 209.248 324.956 209.4C324.636 209.544 324.372 209.748 324.164 210.012V212.988C324.372 213.244 324.64 213.448 324.968 213.6C325.296 213.744 325.644 213.816 326.012 213.816ZM333.174 214.608C332.598 214.608 332.074 214.472 331.602 214.2C331.138 213.92 330.766 213.544 330.486 213.072C330.214 212.6 330.078 212.072 330.078 211.488C330.078 210.912 330.21 210.392 330.474 209.928C330.738 209.456 331.094 209.084 331.542 208.812C331.99 208.532 332.49 208.392 333.042 208.392C333.578 208.392 334.058 208.532 334.482 208.812C334.914 209.084 335.254 209.456 335.502 209.928C335.758 210.392 335.886 210.912 335.886 211.488V211.764H330.954C331.002 212.156 331.126 212.508 331.326 212.82C331.534 213.132 331.802 213.38 332.13 213.564C332.458 213.74 332.818 213.828 333.21 213.828C333.522 213.828 333.826 213.78 334.122 213.684C334.418 213.588 334.666 213.452 334.866 213.276L335.418 213.864C335.082 214.112 334.73 214.3 334.362 214.428C334.002 214.548 333.606 214.608 333.174 214.608ZM330.978 211.056H334.998C334.95 210.696 334.83 210.376 334.638 210.096C334.454 209.808 334.222 209.584 333.942 209.424C333.662 209.256 333.354 209.172 333.018 209.172C332.674 209.172 332.358 209.252 332.07 209.412C331.782 209.572 331.542 209.796 331.35 210.084C331.158 210.364 331.034 210.688 330.978 211.056ZM337.127 214.5V208.488H338.015V209.34C338.199 209.028 338.431 208.788 338.711 208.62C338.999 208.444 339.327 208.356 339.695 208.356C339.903 208.356 340.091 208.384 340.259 208.44V209.256C340.155 209.216 340.051 209.188 339.947 209.172C339.843 209.156 339.739 209.148 339.635 209.148C339.267 209.148 338.943 209.256 338.663 209.472C338.391 209.68 338.175 209.984 338.015 210.384V214.5H337.127Z" fill="#929292"/>
<path d="M207.664 239.5L213.008 229.66H206.48V228.3H214.672V229.468L209.456 239.5H207.664ZM219.849 239.676C219.049 239.676 218.34 239.537 217.721 239.26C217.113 238.983 216.633 238.599 216.281 238.108C215.929 237.617 215.753 237.057 215.753 236.428C215.753 235.991 215.854 235.585 216.057 235.212C216.27 234.839 216.564 234.513 216.937 234.236C217.321 233.959 217.753 233.761 218.233 233.644C217.614 233.452 217.113 233.127 216.729 232.668C216.345 232.209 216.153 231.697 216.153 231.132C216.153 230.556 216.313 230.044 216.633 229.596C216.964 229.137 217.406 228.78 217.961 228.524C218.516 228.257 219.145 228.124 219.849 228.124C220.553 228.124 221.182 228.257 221.737 228.524C222.302 228.78 222.745 229.137 223.065 229.596C223.385 230.044 223.545 230.556 223.545 231.132C223.545 231.697 223.353 232.209 222.969 232.668C222.585 233.127 222.084 233.452 221.465 233.644C222.201 233.836 222.798 234.188 223.257 234.7C223.716 235.201 223.945 235.777 223.945 236.428C223.945 237.057 223.769 237.617 223.417 238.108C223.076 238.599 222.596 238.983 221.977 239.26C221.358 239.537 220.649 239.676 219.849 239.676ZM219.849 233.052C220.265 233.052 220.638 232.972 220.969 232.812C221.3 232.652 221.561 232.433 221.753 232.156C221.945 231.879 222.041 231.569 222.041 231.228C222.041 230.876 221.945 230.561 221.753 230.284C221.561 229.996 221.3 229.777 220.969 229.628C220.638 229.468 220.265 229.388 219.849 229.388C219.433 229.388 219.06 229.468 218.729 229.628C218.398 229.777 218.137 229.991 217.945 230.268C217.753 230.545 217.657 230.86 217.657 231.212C217.657 231.564 217.753 231.879 217.945 232.156C218.137 232.433 218.398 232.652 218.729 232.812C219.06 232.972 219.433 233.052 219.849 233.052ZM219.849 238.412C220.34 238.412 220.777 238.327 221.161 238.156C221.545 237.975 221.849 237.729 222.073 237.42C222.297 237.1 222.409 236.743 222.409 236.348C222.409 235.953 222.297 235.601 222.073 235.292C221.849 234.972 221.545 234.727 221.161 234.556C220.777 234.375 220.34 234.284 219.849 234.284C219.358 234.284 218.921 234.375 218.537 234.556C218.153 234.737 217.849 234.983 217.625 235.292C217.401 235.601 217.289 235.953 217.289 236.348C217.289 236.743 217.401 237.1 217.625 237.42C217.849 237.729 218.153 237.975 218.537 238.156C218.921 238.327 219.358 238.412 219.849 238.412ZM231.69 239.5V236.652H225.338V235.388L231.498 228.3H233.274V235.308H234.634V236.652H233.274V239.5H231.69ZM227.226 235.308H231.69V230.172L227.226 235.308ZM237.26 239.5V229.948L235.244 230.796V229.388L237.836 228.3H238.844V239.5H237.26ZM244.467 228.124C245.363 228.124 246.152 228.359 246.835 228.828C247.518 229.287 248.051 229.921 248.435 230.732C248.819 231.543 249.011 232.487 249.011 233.564C249.011 234.791 248.798 235.863 248.371 236.78C247.944 237.687 247.342 238.396 246.563 238.908C245.795 239.409 244.894 239.66 243.859 239.66C243.358 239.66 242.851 239.58 242.339 239.42C241.827 239.26 241.384 239.047 241.011 238.78L241.827 237.628C242.158 237.841 242.504 238.007 242.867 238.124C243.23 238.231 243.603 238.284 243.987 238.284C244.712 238.284 245.331 238.097 245.843 237.724C246.366 237.351 246.766 236.817 247.043 236.124C247.32 235.42 247.464 234.588 247.475 233.628C247.08 234.151 246.606 234.561 246.051 234.86C245.496 235.148 244.92 235.292 244.323 235.292C243.587 235.292 242.936 235.143 242.371 234.844C241.806 234.535 241.363 234.124 241.043 233.612C240.723 233.089 240.563 232.492 240.563 231.82C240.563 231.105 240.734 230.471 241.075 229.916C241.416 229.361 241.88 228.924 242.467 228.604C243.054 228.284 243.72 228.124 244.467 228.124ZM244.547 234.06C245.102 234.06 245.624 233.932 246.115 233.676C246.616 233.409 247.048 233.052 247.411 232.604C247.326 231.964 247.15 231.409 246.883 230.94C246.627 230.471 246.296 230.108 245.891 229.852C245.486 229.585 245.027 229.452 244.515 229.452C244.056 229.452 243.64 229.553 243.267 229.756C242.904 229.959 242.616 230.236 242.403 230.588C242.2 230.94 242.099 231.34 242.099 231.788C242.099 232.225 242.2 232.62 242.403 232.972C242.616 233.313 242.91 233.58 243.283 233.772C243.656 233.964 244.078 234.06 244.547 234.06ZM254.311 228.124C255.207 228.124 255.996 228.359 256.679 228.828C257.361 229.287 257.895 229.921 258.279 230.732C258.663 231.543 258.855 232.487 258.855 233.564C258.855 234.791 258.641 235.863 258.215 236.78C257.788 237.687 257.185 238.396 256.407 238.908C255.639 239.409 254.737 239.66 253.703 239.66C253.201 239.66 252.695 239.58 252.183 239.42C251.671 239.26 251.228 239.047 250.855 238.78L251.671 237.628C252.001 237.841 252.348 238.007 252.711 238.124C253.073 238.231 253.447 238.284 253.831 238.284C254.556 238.284 255.175 238.097 255.687 237.724C256.209 237.351 256.609 236.817 256.887 236.124C257.164 235.42 257.308 234.588 257.319 233.628C256.924 234.151 256.449 234.561 255.895 234.86C255.34 235.148 254.764 235.292 254.167 235.292C253.431 235.292 252.78 235.143 252.215 234.844C251.649 234.535 251.207 234.124 250.887 233.612C250.567 233.089 250.407 232.492 250.407 231.82C250.407 231.105 250.577 230.471 250.919 229.916C251.26 229.361 251.724 228.924 252.311 228.604C252.897 228.284 253.564 228.124 254.311 228.124ZM254.391 234.06C254.945 234.06 255.468 233.932 255.959 233.676C256.46 233.409 256.892 233.052 257.255 232.604C257.169 231.964 256.993 231.409 256.727 230.94C256.471 230.471 256.14 230.108 255.735 229.852C255.329 229.585 254.871 229.452 254.359 229.452C253.9 229.452 253.484 229.553 253.111 229.756C252.748 229.959 252.46 230.236 252.247 230.588C252.044 230.94 251.943 231.34 251.943 231.788C251.943 232.225 252.044 232.62 252.247 232.972C252.46 233.313 252.753 233.58 253.127 233.772C253.5 233.964 253.921 234.06 254.391 234.06ZM260.05 239.5V238.38L264.594 233.548C264.903 233.228 265.143 232.94 265.314 232.684C265.484 232.428 265.602 232.188 265.666 231.964C265.74 231.729 265.778 231.484 265.778 231.228C265.778 230.727 265.575 230.311 265.17 229.98C264.764 229.649 264.252 229.484 263.634 229.484C263.122 229.484 262.642 229.585 262.194 229.788C261.746 229.991 261.25 230.343 260.706 230.844L259.842 229.788C260.439 229.233 261.052 228.817 261.682 228.54C262.322 228.263 262.983 228.124 263.666 228.124C264.38 228.124 265.01 228.252 265.554 228.508C266.098 228.764 266.519 229.121 266.818 229.58C267.127 230.028 267.282 230.545 267.282 231.132C267.282 231.505 267.234 231.852 267.138 232.172C267.042 232.481 266.876 232.812 266.642 233.164C266.407 233.505 266.076 233.9 265.65 234.348L262.002 238.188L267.506 238.172V239.5H260.05ZM272.927 239.676C272.127 239.676 271.418 239.537 270.799 239.26C270.191 238.983 269.711 238.599 269.359 238.108C269.007 237.617 268.831 237.057 268.831 236.428C268.831 235.991 268.933 235.585 269.135 235.212C269.349 234.839 269.642 234.513 270.015 234.236C270.399 233.959 270.831 233.761 271.311 233.644C270.693 233.452 270.191 233.127 269.807 232.668C269.423 232.209 269.231 231.697 269.231 231.132C269.231 230.556 269.391 230.044 269.711 229.596C270.042 229.137 270.485 228.78 271.039 228.524C271.594 228.257 272.223 228.124 272.927 228.124C273.631 228.124 274.261 228.257 274.815 228.524C275.381 228.78 275.823 229.137 276.143 229.596C276.463 230.044 276.623 230.556 276.623 231.132C276.623 231.697 276.431 232.209 276.047 232.668C275.663 233.127 275.162 233.452 274.543 233.644C275.279 233.836 275.877 234.188 276.335 234.7C276.794 235.201 277.023 235.777 277.023 236.428C277.023 237.057 276.847 237.617 276.495 238.108C276.154 238.599 275.674 238.983 275.055 239.26C274.437 239.537 273.727 239.676 272.927 239.676ZM272.927 233.052C273.343 233.052 273.717 232.972 274.047 232.812C274.378 232.652 274.639 232.433 274.831 232.156C275.023 231.879 275.119 231.569 275.119 231.228C275.119 230.876 275.023 230.561 274.831 230.284C274.639 229.996 274.378 229.777 274.047 229.628C273.717 229.468 273.343 229.388 272.927 229.388C272.511 229.388 272.138 229.468 271.807 229.628C271.477 229.777 271.215 229.991 271.023 230.268C270.831 230.545 270.735 230.86 270.735 231.212C270.735 231.564 270.831 231.879 271.023 232.156C271.215 232.433 271.477 232.652 271.807 232.812C272.138 232.972 272.511 233.052 272.927 233.052ZM272.927 238.412C273.418 238.412 273.855 238.327 274.239 238.156C274.623 237.975 274.927 237.729 275.151 237.42C275.375 237.1 275.487 236.743 275.487 236.348C275.487 235.953 275.375 235.601 275.151 235.292C274.927 234.972 274.623 234.727 274.239 234.556C273.855 234.375 273.418 234.284 272.927 234.284C272.437 234.284 271.999 234.375 271.615 234.556C271.231 234.737 270.927 234.983 270.703 235.292C270.479 235.601 270.367 235.953 270.367 236.348C270.367 236.743 270.479 237.1 270.703 237.42C270.927 237.729 271.231 237.975 271.615 238.156C271.999 238.327 272.437 238.412 272.927 238.412ZM278 239.5L282.288 233.708L278.24 228.3H280.272L283.296 232.428L286.304 228.3H288.256L284.256 233.692L288.592 239.5H286.576L283.264 234.956L279.936 239.5H278ZM288.844 239.5L293.132 233.708L289.084 228.3H291.116L294.14 232.428L297.148 228.3H299.1L295.1 233.692L299.436 239.5H297.42L294.108 234.956L290.78 239.5H288.844ZM299.688 239.5L303.976 233.708L299.928 228.3H301.96L304.984 232.428L307.992 228.3H309.944L305.944 233.692L310.28 239.5H308.264L304.952 234.956L301.624 239.5H299.688ZM310.532 239.5L314.82 233.708L310.772 228.3H312.804L315.828 232.428L318.836 228.3H320.788L316.788 233.692L321.124 239.5H319.108L315.796 234.956L312.468 239.5H310.532ZM321.375 239.5L325.663 233.708L321.615 228.3H323.647L326.671 232.428L329.679 228.3H331.631L327.631 233.692L331.967 239.5H329.951L326.639 234.956L323.311 239.5H321.375ZM332.219 239.5L336.507 233.708L332.459 228.3H334.491L337.515 232.428L340.523 228.3H342.475L338.475 233.692L342.811 239.5H340.795L337.483 234.956L334.155 239.5H332.219Z" fill="#000714"/>
<path d="M24 97.5H395" stroke="#929292" stroke-width="0.5" stroke-linecap="round"/>
<path d="M33.42 75V61H43.74V62.84H35.52V67.04H40.92V68.82H35.52V73.16H43.82V75H33.42ZM49.2386 75.2C48.3586 75.2 47.5319 75.0733 46.7586 74.82C45.9986 74.5533 45.3386 74.18 44.7786 73.7L45.8786 72.38C46.3986 72.7933 46.9319 73.1133 47.4786 73.34C48.0386 73.5533 48.6053 73.66 49.1786 73.66C49.8986 73.66 50.4853 73.52 50.9386 73.24C51.3919 72.96 51.6186 72.5933 51.6186 72.14C51.6186 71.7667 51.4853 71.4733 51.2186 71.26C50.9519 71.0467 50.5386 70.9 49.9786 70.82L48.1386 70.56C47.1253 70.4133 46.3653 70.1 45.8586 69.62C45.3519 69.14 45.0986 68.5 45.0986 67.7C45.0986 67.0867 45.2653 66.5533 45.5986 66.1C45.9319 65.6333 46.3986 65.2733 46.9986 65.02C47.5986 64.7533 48.2986 64.62 49.0986 64.62C49.8319 64.62 50.5386 64.7267 51.2186 64.94C51.8986 65.1533 52.5519 65.4867 53.1786 65.94L52.1586 67.26C51.5986 66.8867 51.0519 66.6133 50.5186 66.44C49.9986 66.2667 49.4719 66.18 48.9386 66.18C48.3253 66.18 47.8319 66.3133 47.4586 66.58C47.0853 66.8333 46.8986 67.1667 46.8986 67.58C46.8986 67.9533 47.0253 68.2467 47.2786 68.46C47.5453 68.66 47.9786 68.8 48.5786 68.88L50.4186 69.14C51.4319 69.2867 52.1986 69.6 52.7186 70.08C53.2386 70.5467 53.4986 71.18 53.4986 71.98C53.4986 72.5933 53.3119 73.1467 52.9386 73.64C52.5653 74.12 52.0586 74.5 51.4186 74.78C50.7786 75.06 50.0519 75.2 49.2386 75.2ZM59.9131 75.18C58.9398 75.18 58.0531 74.9467 57.2531 74.48C56.4531 74.0133 55.8198 73.38 55.3531 72.58C54.8998 71.78 54.6731 70.8867 54.6731 69.9C54.6731 68.9133 54.9065 68.0267 55.3731 67.24C55.8398 66.44 56.4665 65.8067 57.2531 65.34C58.0531 64.86 58.9398 64.62 59.9131 64.62C60.6865 64.62 61.4265 64.7667 62.1331 65.06C62.8531 65.3533 63.4731 65.7667 63.9931 66.3L62.7531 67.68C62.3665 67.2533 61.9331 66.9333 61.4531 66.72C60.9731 66.5067 60.4731 66.4 59.9531 66.4C59.3398 66.4 58.7798 66.5533 58.2731 66.86C57.7798 67.1667 57.3865 67.5867 57.0931 68.12C56.7998 68.6533 56.6531 69.2467 56.6531 69.9C56.6531 70.5533 56.7998 71.1467 57.0931 71.68C57.3865 72.2133 57.7865 72.64 58.2931 72.96C58.7998 73.2667 59.3665 73.42 59.9931 73.42C60.5131 73.42 60.9998 73.32 61.4531 73.12C61.9065 72.9067 62.3331 72.6 62.7331 72.2L63.9531 73.48C63.4198 74.0267 62.7998 74.4467 62.0931 74.74C61.3998 75.0333 60.6731 75.18 59.9131 75.18ZM65.5628 75V64.82H67.5628V66.12C67.8828 65.64 68.2761 65.2667 68.7428 65C69.2228 64.72 69.7628 64.58 70.3628 64.58C70.7761 64.5933 71.1161 64.6533 71.3828 64.76V66.56C71.1961 66.48 71.0028 66.4267 70.8028 66.4C70.6028 66.36 70.4028 66.34 70.2028 66.34C69.6161 66.34 69.0961 66.5 68.6428 66.82C68.1895 67.1267 67.8295 67.58 67.5628 68.18V75H65.5628ZM77.2388 75.2C76.2521 75.2 75.3521 74.9667 74.5388 74.5C73.7388 74.0333 73.1054 73.4 72.6388 72.6C72.1721 71.8 71.9388 70.9067 71.9388 69.92C71.9388 68.9333 72.1721 68.04 72.6388 67.24C73.1054 66.44 73.7388 65.8067 74.5388 65.34C75.3521 64.86 76.2521 64.62 77.2388 64.62C78.2388 64.62 79.1388 64.86 79.9388 65.34C80.7388 65.8067 81.3721 66.44 81.8388 67.24C82.3054 68.04 82.5388 68.9333 82.5388 69.92C82.5388 70.9067 82.3054 71.8 81.8388 72.6C81.3721 73.4 80.7388 74.0333 79.9388 74.5C79.1388 74.9667 78.2388 75.2 77.2388 75.2ZM77.2388 73.44C77.8654 73.44 78.4321 73.2867 78.9388 72.98C79.4454 72.66 79.8454 72.2333 80.1388 71.7C80.4321 71.1667 80.5788 70.5667 80.5788 69.9C80.5788 69.2467 80.4254 68.66 80.1188 68.14C79.8254 67.6067 79.4254 67.18 78.9188 66.86C78.4254 66.54 77.8654 66.38 77.2388 66.38C76.6121 66.38 76.0454 66.54 75.5388 66.86C75.0454 67.18 74.6454 67.6067 74.3388 68.14C74.0454 68.66 73.8988 69.2467 73.8988 69.9C73.8988 70.5667 74.0454 71.1667 74.3388 71.7C74.6321 72.2333 75.0321 72.66 75.5388 72.98C76.0454 73.2867 76.6121 73.44 77.2388 73.44ZM86.1347 75L83.2947 64.82H85.2347L87.2147 72.3L89.5347 64.82H91.2547L93.5747 72.3L95.5547 64.82H97.4347L94.5747 75H92.6547L90.3747 67.54L88.0747 75H86.1347ZM101.883 75L107.663 61H110.143L115.863 75H113.583L111.963 70.9H105.703L104.063 75H101.883ZM106.383 69.16H111.283L108.843 63L106.383 69.16ZM121.319 75.18C120.346 75.18 119.459 74.9467 118.659 74.48C117.859 74.0133 117.226 73.38 116.759 72.58C116.306 71.78 116.079 70.8867 116.079 69.9C116.079 68.9133 116.313 68.0267 116.779 67.24C117.246 66.44 117.873 65.8067 118.659 65.34C119.459 64.86 120.346 64.62 121.319 64.62C122.093 64.62 122.833 64.7667 123.539 65.06C124.259 65.3533 124.879 65.7667 125.399 66.3L124.159 67.68C123.773 67.2533 123.339 66.9333 122.859 66.72C122.379 66.5067 121.879 66.4 121.359 66.4C120.746 66.4 120.186 66.5533 119.679 66.86C119.186 67.1667 118.793 67.5867 118.499 68.12C118.206 68.6533 118.059 69.2467 118.059 69.9C118.059 70.5533 118.206 71.1467 118.499 71.68C118.793 72.2133 119.193 72.64 119.699 72.96C120.206 73.2667 120.773 73.42 121.399 73.42C121.919 73.42 122.406 73.32 122.859 73.12C123.313 72.9067 123.739 72.6 124.139 72.2L125.359 73.48C124.826 74.0267 124.206 74.4467 123.499 74.74C122.806 75.0333 122.079 75.18 121.319 75.18ZM131.456 75.18C130.483 75.18 129.596 74.9467 128.796 74.48C127.996 74.0133 127.363 73.38 126.896 72.58C126.443 71.78 126.216 70.8867 126.216 69.9C126.216 68.9133 126.449 68.0267 126.916 67.24C127.383 66.44 128.009 65.8067 128.796 65.34C129.596 64.86 130.483 64.62 131.456 64.62C132.229 64.62 132.969 64.7667 133.676 65.06C134.396 65.3533 135.016 65.7667 135.536 66.3L134.296 67.68C133.909 67.2533 133.476 66.9333 132.996 66.72C132.516 66.5067 132.016 66.4 131.496 66.4C130.883 66.4 130.323 66.5533 129.816 66.86C129.323 67.1667 128.929 67.5867 128.636 68.12C128.343 68.6533 128.196 69.2467 128.196 69.9C128.196 70.5533 128.343 71.1467 128.636 71.68C128.929 72.2133 129.329 72.64 129.836 72.96C130.343 73.2667 130.909 73.42 131.536 73.42C132.056 73.42 132.543 73.32 132.996 73.12C133.449 72.9067 133.876 72.6 134.276 72.2L135.496 73.48C134.963 74.0267 134.343 74.4467 133.636 74.74C132.943 75.0333 132.216 75.18 131.456 75.18ZM141.653 75.2C140.666 75.2 139.766 74.9667 138.953 74.5C138.153 74.0333 137.519 73.4 137.053 72.6C136.586 71.8 136.353 70.9067 136.353 69.92C136.353 68.9333 136.586 68.04 137.053 67.24C137.519 66.44 138.153 65.8067 138.953 65.34C139.766 64.86 140.666 64.62 141.653 64.62C142.653 64.62 143.553 64.86 144.353 65.34C145.153 65.8067 145.786 66.44 146.253 67.24C146.719 68.04 146.953 68.9333 146.953 69.92C146.953 70.9067 146.719 71.8 146.253 72.6C145.786 73.4 145.153 74.0333 144.353 74.5C143.553 74.9667 142.653 75.2 141.653 75.2ZM141.653 73.44C142.279 73.44 142.846 73.2867 143.353 72.98C143.859 72.66 144.259 72.2333 144.553 71.7C144.846 71.1667 144.993 70.5667 144.993 69.9C144.993 69.2467 144.839 68.66 144.533 68.14C144.239 67.6067 143.839 67.18 143.333 66.86C142.839 66.54 142.279 66.38 141.653 66.38C141.026 66.38 140.459 66.54 139.953 66.86C139.459 67.18 139.059 67.6067 138.753 68.14C138.459 68.66 138.313 69.2467 138.313 69.9C138.313 70.5667 138.459 71.1667 138.753 71.7C139.046 72.2333 139.446 72.66 139.953 72.98C140.459 73.2867 141.026 73.44 141.653 73.44ZM152.784 75.2C151.997 75.2 151.304 75.0333 150.704 74.7C150.104 74.3667 149.637 73.9 149.304 73.3C148.971 72.6867 148.804 71.9867 148.804 71.2V64.82H150.784V70.86C150.784 71.66 151.011 72.2933 151.464 72.76C151.931 73.2267 152.551 73.46 153.324 73.46C153.871 73.46 154.357 73.3467 154.784 73.12C155.211 72.88 155.557 72.5467 155.824 72.12V64.82H157.824V75H155.824V73.96C155.037 74.7867 154.024 75.2 152.784 75.2ZM160.192 75V64.82H162.192V65.86C162.978 65.0333 163.998 64.62 165.252 64.62C166.038 64.62 166.725 64.7867 167.312 65.12C167.912 65.4533 168.378 65.92 168.712 66.52C169.058 67.12 169.232 67.8133 169.232 68.6V75H167.232V68.94C167.232 68.14 167.005 67.5133 166.552 67.06C166.112 66.5933 165.492 66.36 164.692 66.36C164.158 66.36 163.678 66.4733 163.252 66.7C162.825 66.9267 162.472 67.2533 162.192 67.68V75H160.192ZM175.606 75.18C174.62 75.18 173.866 74.9533 173.346 74.5C172.826 74.0333 172.566 73.36 172.566 72.48V66.5H170.406V64.82H172.566V62.22L174.546 61.74V64.82H177.546V66.5H174.546V72.02C174.546 72.54 174.66 72.9133 174.886 73.14C175.126 73.3533 175.513 73.46 176.046 73.46C176.326 73.46 176.573 73.44 176.786 73.4C177.013 73.36 177.253 73.3 177.506 73.22V74.9C177.24 74.9933 176.926 75.06 176.566 75.1C176.22 75.1533 175.9 75.18 175.606 75.18ZM185.54 73.12H188.42C189.153 73.12 189.833 72.9933 190.46 72.74C191.086 72.4733 191.633 72.1133 192.1 71.66C192.58 71.1933 192.946 70.6533 193.2 70.04C193.466 69.4133 193.6 68.7333 193.6 68C193.6 67.28 193.466 66.6067 193.2 65.98C192.946 65.3533 192.58 64.8133 192.1 64.36C191.633 63.8933 191.086 63.5333 190.46 63.28C189.833 63.0133 189.153 62.88 188.42 62.88H185.54V73.12ZM183.44 75V61H188.38C189.433 61 190.406 61.18 191.3 61.54C192.193 61.8867 192.973 62.3733 193.64 63C194.306 63.6267 194.826 64.3667 195.2 65.22C195.573 66.0733 195.76 67 195.76 68C195.76 69.0133 195.573 69.9467 195.2 70.8C194.84 71.64 194.326 72.3733 193.66 73C192.993 73.6267 192.206 74.12 191.3 74.48C190.406 74.8267 189.433 75 188.38 75H183.44ZM202.611 75.18C201.611 75.18 200.704 74.9467 199.891 74.48C199.091 74.0133 198.451 73.38 197.971 72.58C197.504 71.78 197.271 70.8867 197.271 69.9C197.271 68.9267 197.497 68.0467 197.951 67.26C198.404 66.46 199.017 65.8267 199.791 65.36C200.564 64.88 201.424 64.64 202.371 64.64C203.317 64.64 204.157 64.88 204.891 65.36C205.624 65.8267 206.204 66.4667 206.631 67.28C207.071 68.08 207.291 68.9867 207.291 70V70.56H199.271C199.377 71.12 199.584 71.62 199.891 72.06C200.211 72.5 200.611 72.8467 201.091 73.1C201.584 73.3533 202.117 73.48 202.691 73.48C203.184 73.48 203.657 73.4067 204.111 73.26C204.577 73.1 204.964 72.8733 205.271 72.58L206.551 73.84C205.951 74.2933 205.331 74.6333 204.691 74.86C204.064 75.0733 203.371 75.18 202.611 75.18ZM199.291 69.06H205.311C205.231 68.5267 205.044 68.06 204.751 67.66C204.471 67.2467 204.117 66.9267 203.691 66.7C203.277 66.46 202.824 66.34 202.331 66.34C201.824 66.34 201.357 66.4533 200.931 66.68C200.504 66.9067 200.144 67.2267 199.851 67.64C199.571 68.04 199.384 68.5133 199.291 69.06ZM213.263 75.18C212.276 75.18 211.523 74.9533 211.003 74.5C210.483 74.0333 210.223 73.36 210.223 72.48V66.5H208.063V64.82H210.223V62.22L212.203 61.74V64.82H215.203V66.5H212.203V72.02C212.203 72.54 212.316 72.9133 212.543 73.14C212.783 73.3533 213.169 73.46 213.703 73.46C213.983 73.46 214.229 73.44 214.443 73.4C214.669 73.36 214.909 73.3 215.163 73.22V74.9C214.896 74.9933 214.583 75.06 214.223 75.1C213.876 75.1533 213.556 75.18 213.263 75.18ZM219.896 75.18C219.163 75.18 218.516 75.0533 217.956 74.8C217.396 74.5333 216.956 74.1667 216.636 73.7C216.316 73.2333 216.156 72.6933 216.156 72.08C216.156 71.12 216.523 70.3667 217.256 69.82C217.989 69.26 218.996 68.98 220.276 68.98C221.276 68.98 222.203 69.1733 223.056 69.56V68.48C223.056 67.7467 222.843 67.2 222.416 66.84C222.003 66.48 221.389 66.3 220.576 66.3C220.109 66.3 219.623 66.3733 219.116 66.52C218.609 66.6533 218.043 66.8667 217.416 67.16L216.676 65.66C217.449 65.3 218.169 65.04 218.836 64.88C219.503 64.7067 220.176 64.62 220.856 64.62C222.176 64.62 223.196 64.9333 223.916 65.56C224.649 66.1867 225.016 67.08 225.016 68.24V75H223.056V74.12C222.603 74.48 222.116 74.7467 221.596 74.92C221.076 75.0933 220.509 75.18 219.896 75.18ZM218.076 72.04C218.076 72.5333 218.283 72.9333 218.696 73.24C219.123 73.5467 219.676 73.7 220.356 73.7C220.889 73.7 221.376 73.62 221.816 73.46C222.269 73.3 222.683 73.0533 223.056 72.72V71C222.669 70.7733 222.263 70.6133 221.836 70.52C221.423 70.4133 220.956 70.36 220.436 70.36C219.703 70.36 219.123 70.5133 218.696 70.82C218.283 71.1133 218.076 71.52 218.076 72.04ZM227.321 75V64.82H229.321V75H227.321ZM228.321 63.18C227.987 63.18 227.701 63.06 227.461 62.82C227.221 62.5667 227.101 62.2733 227.101 61.94C227.101 61.5933 227.221 61.3067 227.461 61.08C227.701 60.84 227.987 60.72 228.321 60.72C228.667 60.72 228.961 60.84 229.201 61.08C229.441 61.3067 229.561 61.5933 229.561 61.94C229.561 62.2733 229.441 62.5667 229.201 62.82C228.961 63.06 228.667 63.18 228.321 63.18ZM231.676 75V61L233.676 60.62V75H231.676ZM239.532 75.2C238.652 75.2 237.825 75.0733 237.052 74.82C236.292 74.5533 235.632 74.18 235.072 73.7L236.172 72.38C236.692 72.7933 237.225 73.1133 237.772 73.34C238.332 73.5533 238.898 73.66 239.472 73.66C240.192 73.66 240.778 73.52 241.232 73.24C241.685 72.96 241.912 72.5933 241.912 72.14C241.912 71.7667 241.778 71.4733 241.512 71.26C241.245 71.0467 240.832 70.9 240.272 70.82L238.432 70.56C237.418 70.4133 236.658 70.1 236.152 69.62C235.645 69.14 235.392 68.5 235.392 67.7C235.392 67.0867 235.558 66.5533 235.892 66.1C236.225 65.6333 236.692 65.2733 237.292 65.02C237.892 64.7533 238.592 64.62 239.392 64.62C240.125 64.62 240.832 64.7267 241.512 64.94C242.192 65.1533 242.845 65.4867 243.472 65.94L242.452 67.26C241.892 66.8867 241.345 66.6133 240.812 66.44C240.292 66.2667 239.765 66.18 239.232 66.18C238.618 66.18 238.125 66.3133 237.752 66.58C237.378 66.8333 237.192 67.1667 237.192 67.58C237.192 67.9533 237.318 68.2467 237.572 68.46C237.838 68.66 238.272 68.8 238.872 68.88L240.712 69.14C241.725 69.2867 242.492 69.6 243.012 70.08C243.532 70.5467 243.792 71.18 243.792 71.98C243.792 72.5933 243.605 73.1467 243.232 73.64C242.858 74.12 242.352 74.5 241.712 74.78C241.072 75.06 240.345 75.2 239.532 75.2Z" fill="#000714"/>
<g clip-path="url(#clip4_286_1444)">
<path d="M35 29H61L48 21L35 29Z" stroke="#000714" stroke-width="2" stroke-linecap="round" stroke-linejoin="round"/>
<path d="M39 29V39" stroke="#000714" stroke-width="2" stroke-linecap="round" stroke-linejoin="round"/>
<path d="M45 29V39" stroke="#000714" stroke-width="2" stroke-linecap="round" stroke-linejoin="round"/>
<path d="M51 29V39" stroke="#000714" stroke-width="2" stroke-linecap="round" stroke-linejoin="round"/>
<path d="M57 29V39" stroke="#000714" stroke-width="2" stroke-linecap="round" stroke-linejoin="round"/>
<path d="M36 39H60" stroke="#000714" stroke-width="2" stroke-linecap="round" stroke-linejoin="round"/>
<path d="M34 43H62" stroke="#000714" stroke-width="2" stroke-linecap="round" stroke-linejoin="round"/>
</g>
<g clip-path="url(#clip5_286_1444)">
<path d="M328.349 44.2787C327.642 43.54 326.911 42.7788 326.635 42.1094C326.38 41.4963 326.365 40.48 326.35 39.4956C326.322 37.6656 326.292 35.5919 324.85 34.15C323.408 32.7081 321.334 32.6781 319.504 32.65C318.52 32.635 317.504 32.62 316.891 32.365C316.223 32.0894 315.46 31.3581 314.721 30.6512C313.427 29.4081 311.958 28 310 28C308.042 28 306.574 29.4081 305.279 30.6512C304.54 31.3581 303.779 32.0894 303.109 32.365C302.5 32.62 301.48 32.635 300.496 32.65C298.666 32.6781 296.592 32.7081 295.15 34.15C293.708 35.5919 293.687 37.6656 293.65 39.4956C293.635 40.48 293.62 41.4963 293.365 42.1094C293.089 42.7769 292.358 43.54 291.651 44.2787C290.408 45.5725 289 47.0425 289 49C289 50.9575 290.408 52.4256 291.651 53.7212C292.358 54.46 293.089 55.2213 293.365 55.8906C293.62 56.5037 293.635 57.52 293.65 58.5044C293.678 60.3344 293.708 62.4081 295.15 63.85C296.592 65.2919 298.666 65.3219 300.496 65.35C301.48 65.365 302.496 65.38 303.109 65.635C303.777 65.9106 304.54 66.6419 305.279 67.3488C306.573 68.5919 308.042 70 310 70C311.958 70 313.426 68.5919 314.721 67.3488C315.46 66.6419 316.221 65.9106 316.891 65.635C317.504 65.38 318.52 65.365 319.504 65.35C321.334 65.3219 323.408 65.2919 324.85 63.85C326.292 62.4081 326.322 60.3344 326.35 58.5044C326.365 57.52 326.38 56.5037 326.635 55.8906C326.911 55.2231 327.642 54.46 328.349 53.7212C329.592 52.4275 331 50.9575 331 49C331 47.0425 329.592 45.5744 328.349 44.2787ZM318.561 45.5613L308.061 56.0613C307.922 56.2007 307.757 56.3114 307.574 56.3868C307.392 56.4623 307.197 56.5012 307 56.5012C306.803 56.5012 306.608 56.4623 306.426 56.3868C306.243 56.3114 306.078 56.2007 305.939 56.0613L301.439 51.5613C301.157 51.2798 300.999 50.898 300.999 50.5C300.999 50.102 301.157 49.7202 301.439 49.4387C301.72 49.1573 302.102 48.9992 302.5 48.9992C302.898 48.9992 303.28 49.1573 303.561 49.4387L307 52.8794L316.439 43.4387C316.578 43.2994 316.744 43.1888 316.926 43.1134C317.108 43.038 317.303 42.9992 317.5 42.9992C317.697 42.9992 317.892 43.038 318.074 43.1134C318.256 43.1888 318.422 43.2994 318.561 43.4387C318.701 43.5781 318.811 43.7436 318.887 43.9257C318.962 44.1077 319.001 44.3029 319.001 44.5C319.001 44.6971 318.962 44.8923 318.887 45.0743C318.811 45.2564 318.701 45.4219 318.561 45.5613Z" fill="#0BA436"/>
</g>
<defs>
<clipPath id="clip0_286_1444">
<rect width="14" height="14" fill="white" transform="translate(32 142.5)"/>
</clipPath>
<clipPath id="clip1_286_1444">
<rect width="14" height="14" fill="white" transform="translate(206 142.5)"/>
</clipPath>
<clipPath id="clip2_286_1444">
<rect width="14" height="14" fill="white" transform="translate(32 204.5)"/>
</clipPath>
<clipPath id="clip3_286_1444">
<rect width="14" height="14" fill="white" transform="translate(206 203.5)"/>
</clipPath>
<clipPath id="clip4_286_1444">
<rect width="32" height="32" fill="white" transform="translate(32 17)"/>
</clipPath>
<clipPath id="clip5_286_1444">
<rect width="48" height="48" fill="white" transform="translate(286 25)"/>
</clipPath>
</defs>
</svg>
