<svg width="359" height="280" viewBox="0 0 359 280" fill="none" xmlns="http://www.w3.org/2000/svg">
<g clip-path="url(#clip0_59_11805)">
<rect x="1" y="1" width="418.914" height="277.748" rx="5.09501" fill="white"/>
<path d="M183.375 67.1226L182.116 65.7965C181.777 65.4394 181.28 65.2805 180.798 65.3731L178.914 65.7345C178.299 65.8524 177.83 66.3544 177.754 66.976L176.789 74.8674L179.711 75.9875C183.267 74.4405 183.082 69.7426 183.082 69.7426L183.594 68.8076C183.894 68.2585 183.806 67.5775 183.375 67.1226Z" fill="#FFB573"/>
<path d="M148.13 90.7704C148.13 90.7704 150.927 90.9398 152.567 90.8996C154.221 90.8769 155.867 90.8472 157.485 90.7547C159.096 90.6517 160.698 90.5382 162.167 90.3347C162.895 90.2326 163.602 90.1016 164.159 89.9497C164.42 89.8746 164.673 89.7952 164.789 89.7481C164.976 89.6616 164.769 89.8135 164.874 89.7542C165.148 89.5219 165.677 88.8907 166.141 88.3049C166.619 87.6973 167.101 87.0425 167.578 86.3764C168.536 85.0406 169.487 83.6525 170.436 82.2565L176.138 73.7949L180.594 76.1678C179.94 77.7978 179.229 79.3684 178.517 80.9582C177.78 82.5306 177.03 84.0986 176.255 85.6666C175.469 87.2284 174.651 88.7807 173.764 90.3347C173.314 91.1117 172.852 91.8896 172.344 92.6841C171.815 93.4952 171.329 94.253 170.409 95.2552C169.914 95.8061 169.007 96.474 168.422 96.7621C167.778 97.1139 167.224 97.3331 166.676 97.54C165.604 97.9267 164.633 98.1712 163.677 98.3851C161.773 98.8094 159.96 99.0617 158.154 99.2345C154.537 99.5934 151.065 99.7278 147.44 99.6466L148.13 90.7704Z" fill="#407BFF"/>
<path opacity="0.7" d="M180.589 76.1716C179.934 77.7954 179.227 79.3669 178.52 80.9558C177.778 82.5273 177.027 84.0988 176.25 85.6703C175.464 87.2243 174.652 88.7783 173.762 90.3323C173.317 91.1093 172.854 91.8863 172.339 92.6808C171.815 93.4927 171.326 94.2523 170.409 95.2563C169.912 95.8063 169.004 96.4698 168.419 96.7579C167.773 97.1159 167.223 97.3341 166.673 97.5437C165.599 97.9278 164.63 98.1723 163.678 98.3818C161.775 98.8096 159.959 99.0628 158.152 99.2374C157.375 99.316 156.607 99.3771 155.847 99.4382C153.045 99.639 150.286 99.7088 147.44 99.6477L147.579 97.8143L148.129 90.7688C148.129 90.7688 150.923 90.9435 152.564 90.8998C154.223 90.8736 155.864 90.8474 157.488 90.7514C159.095 90.6554 160.701 90.5419 162.168 90.3323C162.892 90.2363 163.6 90.1053 164.158 89.9482C164.42 89.8783 164.673 89.7998 164.787 89.7474C164.979 89.6601 164.77 89.8172 164.874 89.7561C165.145 89.5204 165.677 88.8918 166.14 88.3069C166.62 87.6957 167.101 87.0409 167.572 86.3774C168.532 85.0417 169.484 83.6535 170.436 82.2567L176.137 73.7969L180.589 76.1716Z" fill="white"/>
<path opacity="0.1" d="M155.847 99.4379C153.045 99.6387 150.286 99.7085 147.44 99.6474L147.579 97.814L148.26 96.2076C148.26 96.2076 152.835 96.1465 155.847 99.4379Z" fill="black"/>
<path d="M101.435 247.387C101.435 247.387 93.5314 241.95 94.0159 238.297C94.064 237.938 93.8536 237.621 93.4738 237.564L86.774 236.55C86.4615 236.503 86.1271 236.645 85.942 236.905L81.9836 242.453L83.762 243.096L84.7163 242.426L85.165 243.603C94.8165 247.095 99.0246 248.501 101.152 248.59C101.74 247.838 101.435 247.387 101.435 247.387Z" fill="black"/>
<path d="M145.943 144.688C145.943 144.688 145.542 145.736 144.834 147.552C144.075 149.516 142.957 152.38 141.613 155.785C140.714 158.055 139.718 160.569 138.645 163.214C133.712 175.472 127.339 190.637 123.122 198.293C115.046 212.943 94.0058 240.767 94.0058 240.767L85.5984 237.694C85.5984 237.694 100.737 209.041 108.376 194.522C110.707 190.096 113.387 183.583 116.041 176.476C117.307 173.097 118.565 169.579 119.778 166.096C120.328 164.524 120.869 162.953 121.393 161.407C122.781 157.321 124.082 153.384 125.226 149.874C125.366 149.438 125.505 149.001 125.645 148.582C126.108 147.142 126.544 145.78 126.937 144.523C128.578 139.354 129.6 135.949 129.635 135.818C129.643 135.818 129.643 135.818 129.643 135.818L137.143 139.904L145.943 144.688Z" fill="#263238"/>
<path opacity="0.3" d="M144.835 147.552C144.076 149.516 142.958 152.38 141.614 155.785C140.714 158.055 139.719 160.569 138.645 163.214C131.783 164.594 124.799 165.528 119.779 166.095C120.329 164.524 120.87 162.952 121.394 161.407C122.782 157.321 124.083 153.384 125.226 149.874C125.366 149.438 125.506 149.001 125.646 148.582C126.108 147.142 126.545 145.78 126.938 144.522C131.984 145.212 138.732 146.242 144.835 147.552Z" fill="black"/>
<path d="M119.078 95.4191C119.078 95.4261 119.084 95.4322 119.084 95.4383C120.295 99.4997 121.004 104.219 121.401 108.873C121.706 112.492 121.822 116.057 121.838 119.254C121.85 122.476 121.753 125.327 121.649 127.51C121.508 130.315 121.342 132.042 121.342 132.042L147.868 133.405C155.827 104.561 148.131 90.7693 148.131 90.7693C148.131 90.7693 144.825 90.4358 141.018 90.606C140.527 90.6209 140.029 90.6593 139.518 90.6986C136.274 90.9692 131.105 91.995 127.654 92.7747C126.943 92.9309 126.229 93.116 125.531 93.3046C122.065 94.2501 119.078 95.4191 119.078 95.4191Z" fill="#407BFF"/>
<path opacity="0.7" d="M147.867 133.407L121.344 132.046C121.344 132.046 121.51 130.317 121.649 127.506C121.684 126.685 121.719 125.751 121.754 124.738C121.806 123.106 121.841 121.255 121.841 119.255C121.833 118.286 121.815 117.282 121.789 116.252C121.789 116.086 121.78 115.92 121.78 115.755C121.737 114.122 121.658 112.428 121.545 110.708C121.492 110.097 121.449 109.486 121.396 108.875C121.361 108.395 121.318 107.906 121.274 107.426C121.143 106.203 121.003 104.981 120.829 103.776C120.785 103.445 120.733 103.113 120.68 102.79C120.602 102.24 120.514 101.707 120.418 101.166C120.06 99.1754 119.624 97.2372 119.091 95.43C119.091 95.43 119.083 95.4213 119.074 95.4213C119.074 95.4213 122.068 94.2514 125.534 93.2998C126.224 93.1165 126.94 92.9331 127.647 92.776C131.104 91.999 136.273 90.9688 139.512 90.6981C140.027 90.6632 140.525 90.6196 141.022 90.6108C144.82 90.4362 148.129 90.768 148.129 90.768C148.129 90.768 155.829 104.553 147.867 133.407Z" fill="white"/>
<path d="M164.275 202.435C164.275 202.435 156.697 196.552 157.391 192.934C157.46 192.578 157.268 192.25 156.893 192.171L150.263 190.774C149.953 190.708 149.612 190.831 149.412 191.08L145.142 196.391L146.88 197.136L147.872 196.523L148.252 197.723C157.687 201.765 161.807 203.409 163.927 203.621C164.553 202.903 164.275 202.435 164.275 202.435Z" fill="black"/>
<path d="M134.026 155.942C134.424 155.963 134.646 155.964 134.646 155.964L166.446 160.587L148.344 190.617L157.408 194.067C157.408 194.067 190.185 158.727 182.862 150.669C176.84 144.042 147.332 140.01 147.332 140.01L148.3 133.093L121.006 127.719C109.338 153.26 130.12 155.703 134.026 155.942Z" fill="#263238"/>
<path d="M120.686 130.436L120.107 130.324L120.636 128.484L121.151 128.584L120.686 130.436Z" fill="#263238"/>
<path d="M142.155 134.591L130.502 132.336L130.957 130.486L142.562 132.737L142.155 134.591Z" fill="#263238"/>
<path d="M143.461 132.911L148.388 133.866L148.059 135.733L143.072 134.768L143.461 132.911Z" fill="#263238"/>
<path d="M122.051 128.759L130.063 130.313L129.59 132.159L121.604 130.614L122.051 128.759Z" fill="#263238"/>
<g opacity="0.2">
<path d="M120.686 130.436L120.107 130.324L120.636 128.484L121.151 128.584L120.686 130.436Z" fill="white"/>
<path d="M142.155 134.591L130.502 132.336L130.957 130.486L142.562 132.737L142.155 134.591Z" fill="white"/>
<path d="M143.461 132.911L148.388 133.866L148.059 135.733L143.072 134.768L143.461 132.911Z" fill="white"/>
<path d="M122.051 128.759L130.063 130.313L129.59 132.159L121.604 130.614L122.051 128.759Z" fill="white"/>
</g>
<path d="M138.92 132.395L138.658 133.521C138.616 133.7 138.441 133.815 138.26 133.783L135.343 133.265C135.145 133.23 135.019 133.035 135.068 132.841L135.36 131.672C135.405 131.494 135.581 131.381 135.762 131.416L138.649 131.976C138.842 132.014 138.966 132.203 138.92 132.395Z" stroke="white" stroke-width="0.51431" stroke-miterlimit="10"/>
<path d="M136.501 132.487L135.611 132.331" stroke="white" stroke-width="0.51431" stroke-miterlimit="10" stroke-linecap="round" stroke-linejoin="round"/>
<path d="M130.399 80.7393L137.328 86.4821C136.65 89.2933 137.826 91.8854 139.192 92.3656C139.192 92.3656 140.203 94.7761 138.256 95.182C134.307 96.0053 129.802 92.1805 129.802 92.1805C131.89 89.935 131.135 84.3275 130.399 80.7393Z" fill="#EBB376"/>
<path opacity="0.2" d="M133.221 83.0815L137.322 86.4777C137.159 87.1429 137.034 87.8169 136.992 88.4708C135.453 88.277 133.329 86.6305 133.154 85.0276C133.066 84.227 133.093 83.457 133.221 83.0815Z" fill="black"/>
<path d="M136.514 69.3923C138.19 70.4373 140.462 73.5881 137.644 74.3459C134.826 75.1028 133.632 67.5964 136.514 69.3923Z" fill="#263238"/>
<path d="M127.861 80.1603C130.793 84.0261 132.313 86.4409 135.718 87.1324C140.839 88.1739 144.564 82.9575 142.841 78.2806C141.291 74.0699 136.758 68.4554 131.761 69.5205C126.837 70.5716 124.93 76.2944 127.861 80.1603Z" fill="#FFB573"/>
<path d="M128.727 75.9518L125.206 71.8433C125.206 71.8433 120.554 75.2656 122.666 77.3373C121.273 80.6139 126.806 85.1869 131.643 84.2475C132.203 81.2922 127.895 76.2452 127.895 76.2452C128.161 76.1648 128.441 76.0627 128.727 75.9518Z" fill="#263238"/>
<path d="M128.543 84.5563C129.556 85.3796 130.854 85.652 131.918 85.5167C133.518 85.3132 133.704 83.7182 132.745 82.5247C131.882 81.45 130.008 80.2609 128.649 81.0659C127.31 81.8604 127.384 83.6152 128.543 84.5563Z" fill="#FFB573"/>
<path d="M134.701 77.1492C134.919 77.4775 135.27 77.6259 135.483 77.481C135.697 77.336 135.693 76.9519 135.475 76.6236C135.256 76.2954 134.905 76.1469 134.692 76.2919C134.478 76.4368 134.483 76.8201 134.701 77.1492Z" fill="#263238"/>
<path d="M138.391 74.6375C138.609 74.9658 138.96 75.1142 139.173 74.9692C139.387 74.8243 139.382 74.4402 139.164 74.1119C138.946 73.7837 138.595 73.6352 138.382 73.7802C138.168 73.9251 138.172 74.3092 138.391 74.6375Z" fill="#263238"/>
<path d="M137.327 75.5991C137.327 75.5991 139.302 76.9052 140.718 77.23C140.489 78.131 139.341 78.55 139.341 78.55L137.327 75.5991Z" fill="#ED893E"/>
<path d="M136.3 80.7757C136.156 80.8534 136.011 80.9442 135.864 81.0516C135.813 81.0891 135.8 81.1624 135.838 81.214C135.876 81.2663 135.949 81.2768 135.999 81.2402C137.403 80.2196 138.757 80.7259 138.771 80.7312C138.83 80.7547 138.897 80.7233 138.92 80.6639C138.943 80.6037 138.914 80.5365 138.854 80.5129C138.8 80.492 137.631 80.0554 136.3 80.7757Z" fill="#263238"/>
<path d="M132.172 76.0702C132.252 76.0746 132.333 76.0362 132.38 75.9629C132.942 75.0889 133.796 75.0671 133.804 75.0671C133.933 75.0654 134.036 74.9597 134.036 74.8323C134.035 74.7048 133.93 74.6018 133.803 74.6035C133.757 74.6035 132.687 74.6306 131.99 75.7158C131.92 75.8241 131.952 75.9672 132.059 76.0362C132.094 76.0571 132.133 76.0685 132.172 76.0702Z" fill="#263238"/>
<path d="M138.433 71.6563C138.446 71.6144 138.448 71.5681 138.435 71.5219C138.4 71.3979 138.272 71.3254 138.15 71.3595C136.917 71.7008 136.597 72.7188 136.577 72.7625C136.54 72.8847 136.608 73.0156 136.73 73.0549C136.851 73.0933 136.981 73.027 137.019 72.9056C137.03 72.8629 137.286 72.0824 138.276 71.8082C138.354 71.7864 138.411 71.727 138.433 71.6563Z" fill="#263238"/>
<path d="M127.895 76.2436C127.895 76.2436 137.112 72.3708 137.677 67.9497C138.242 63.5286 134.347 65.3402 134.347 65.3402C134.347 65.3402 136.15 65.217 135.974 66.5301C135.974 66.5301 132.861 64.406 129.894 66.2315C129.894 66.2315 131.28 66.2045 132.01 67.2329C132.01 67.2329 129.193 67.7829 126.032 70.1262C122.871 72.4694 117.194 80.8585 127.895 76.2436Z" fill="#263238"/>
<path opacity="0.3" d="M147.336 140.01L132.312 138.285C132.312 138.285 138.26 137.308 147.666 137.653L147.336 140.01Z" fill="black"/>
<path opacity="0.1" d="M121.545 110.709C121.492 110.098 121.449 109.487 121.396 108.876C121.361 108.395 121.318 107.906 121.274 107.426C121.143 106.204 121.003 104.982 120.829 103.777C120.785 103.445 120.733 103.113 120.68 102.79C121.082 102.467 121.527 102.171 121.999 101.909C121.999 101.909 122.854 106.318 121.545 110.709Z" fill="black"/>
<path d="M96.5043 132.158L93.8939 138.285L99.5469 139.683C99.5469 139.683 101.974 135.656 99.6045 132.586L96.5043 132.158Z" fill="#EBB376"/>
<path d="M94.3006 143.008L98.7636 143.041L99.5468 139.683L93.8938 138.285L94.3006 143.008Z" fill="#EBB376"/>
<path d="M121.927 99.6601C122.315 103.502 121.004 105.064 121.004 105.064C121.004 105.064 117.283 107.402 115.669 108.6C114.296 109.635 112.951 110.685 111.676 111.737C111.045 112.266 110.437 112.801 109.879 113.331C109.327 113.855 108.81 114.401 108.484 114.823C108.338 114.992 108.191 115.266 108.035 115.51C107.876 115.767 107.71 116.151 107.538 116.462C107.197 117.166 106.858 117.911 106.537 118.693C105.892 120.253 105.281 121.879 104.701 123.529C103.492 126.811 102.365 130.195 101.206 133.522L96.0498 132.296C96.5745 128.674 97.2825 125.143 98.0997 121.567C98.531 119.789 99.0085 118.008 99.5568 116.196C99.8292 115.293 100.139 114.372 100.488 113.427C100.697 112.93 100.865 112.482 101.126 111.951C101.401 111.412 101.654 110.885 102.033 110.327C102.731 109.283 103.417 108.495 104.106 107.736C104.796 106.985 105.488 106.293 106.186 105.625C107.574 104.292 108.999 103.077 110.442 101.908C113.332 99.5588 116.234 97.4128 119.343 95.3394C119.343 95.3394 121.575 96.1827 121.927 99.6601Z" fill="#407BFF"/>
<path opacity="0.7" d="M121.927 99.6601C122.315 103.502 121.004 105.064 121.004 105.064C121.004 105.064 117.283 107.402 115.669 108.6C114.296 109.635 112.951 110.685 111.676 111.737C111.045 112.266 110.437 112.801 109.879 113.331C109.327 113.855 108.81 114.401 108.484 114.823C108.338 114.992 108.191 115.266 108.035 115.51C107.876 115.767 107.71 116.151 107.538 116.462C107.197 117.166 106.858 117.911 106.537 118.693C105.892 120.253 105.281 121.879 104.701 123.529C103.492 126.811 102.365 130.195 101.206 133.522L96.0498 132.296C96.5745 128.674 97.2825 125.143 98.0997 121.567C98.531 119.789 99.0085 118.008 99.5568 116.196C99.8292 115.293 100.139 114.372 100.488 113.427C100.697 112.93 100.865 112.482 101.126 111.951C101.401 111.412 101.654 110.885 102.033 110.327C102.731 109.283 103.417 108.495 104.106 107.736C104.796 106.985 105.488 106.293 106.186 105.625C107.574 104.292 108.999 103.077 110.442 101.908C113.332 99.5588 116.234 97.4128 119.343 95.3394C119.343 95.3394 121.575 96.1827 121.927 99.6601Z" fill="white"/>
<path d="M133.645 94.5091L135.587 97.5586C135.587 97.5586 128.818 105.762 115.865 108.468L115 111.105L117.755 111.826C117.755 111.826 131.745 108.205 137.328 97.7114L140.211 94.4995L136.813 93.3584L133.645 94.5091Z" fill="#407BFF"/>
<path d="M127.375 92.6722L130.529 89.9125L136.814 93.3593L137.541 89.5903L140.859 91.4997L141.809 96.3739L137.178 94.3702L133.034 98.0658L127.375 92.6722Z" fill="#407BFF"/>
<path opacity="0.6" d="M127.375 92.6722L130.529 89.9125L136.814 93.3593L137.541 89.5903L140.859 91.4997L141.809 96.3739L137.178 94.3702L133.034 98.0658L127.375 92.6722Z" fill="white"/>
<path d="M213.964 38.0693C213.964 38.0693 208.094 45.3514 202.136 44.7464C196.178 44.1422 193.133 46.5597 193.133 46.5597L192.552 49.4661L195.746 49.0348C195.746 49.0348 195.746 46.7317 201.963 46.991C208.18 47.2503 212.842 41.9055 214.655 39.4828L213.964 38.0693Z" fill="#407BFF"/>
<path d="M256.14 25.9667L256.016 25.394C255.953 25.167 255.987 25.1373 255.772 24.5716C255.431 23.6863 254.856 22.9573 254.349 22.5007C253.298 21.5613 252.433 21.2296 251.679 20.9319C250.185 20.4028 248.995 20.2361 247.817 20.092C246.651 19.9593 245.545 19.9017 244.457 19.8729C242.284 19.81 240.189 19.9183 238.113 20.0483C233.95 20.3234 229.945 20.8149 225.828 21.5264L227.326 30.1276C231.09 29.5279 235.016 28.9787 238.814 28.585C240.719 28.3912 242.618 28.2724 244.44 28.2139C245.348 28.1904 246.242 28.1938 247.065 28.2445C247.644 28.2785 248.217 28.344 248.647 28.4182C248.674 28.7142 248.685 29.0381 248.674 29.3821C248.619 30.8662 248.248 32.6036 247.74 34.3348C246.715 37.8122 245.108 41.424 243.444 44.7983L247.587 47.5615C250.234 44.2142 252.412 40.7369 254.216 36.7366C255.077 34.7199 255.84 32.5914 256.185 30.0936C256.352 28.8416 256.411 27.4771 256.14 25.9667Z" fill="#407BFF"/>
<path opacity="0.7" d="M256.184 30.0957C255.904 32.1561 255.328 33.972 254.656 35.6745C254.516 36.0324 254.368 36.3904 254.219 36.7396C252.412 40.7381 250.229 44.2128 247.584 47.5566L243.446 44.7978C245.105 41.4191 246.711 37.8134 247.741 34.33C248.09 33.1339 248.378 31.9291 248.536 30.8116C248.614 30.314 248.658 29.8338 248.675 29.3798C248.684 29.0393 248.675 28.7163 248.649 28.4195C248.221 28.3409 247.645 28.2798 247.069 28.2449C246.24 28.1925 245.349 28.1925 244.441 28.2099C244.371 28.2099 244.31 28.2187 244.24 28.2187C242.477 28.2798 240.652 28.402 238.81 28.5854C235.126 28.9695 231.337 29.4933 227.679 30.0783C227.556 30.0957 227.443 30.1132 227.329 30.1306L225.828 21.5224C229.949 20.8153 233.947 20.3264 238.111 20.047C240.189 19.916 242.285 19.8113 244.459 19.8724C245.55 19.8986 246.65 19.9597 247.82 20.0906C248.998 20.2391 250.186 20.4049 251.679 20.9288C252.429 21.2256 253.294 21.5573 254.35 22.5002C254.856 22.9542 255.433 23.6876 255.773 24.5693C255.983 25.1368 255.957 25.163 256.018 25.39L256.14 25.9662C256.41 27.4766 256.349 28.8385 256.184 30.0957Z" fill="white"/>
<path opacity="0.1" d="M244.243 28.2182C242.48 28.2793 240.655 28.4015 238.813 28.5848C235.129 28.969 231.34 29.4928 227.682 30.0778C229.017 26.7951 230.388 23.4775 230.388 23.4775C230.388 23.4775 236.499 24.0625 244.243 28.2182Z" fill="black"/>
<path opacity="0.1" d="M254.656 35.6744C254.516 36.0323 254.368 36.3903 254.219 36.7395C252.412 40.738 250.229 44.2127 247.584 47.5565L243.446 44.7977C245.105 41.419 246.711 37.8133 247.741 34.3299C248.091 33.1338 248.379 31.929 248.536 30.8115C250.552 32.1647 252.613 33.7711 254.656 35.6744Z" fill="black"/>
<path d="M198.852 27.6953C199.09 27.9974 199.123 28.3684 198.926 28.5238C198.728 28.6801 198.375 28.5614 198.136 28.2593C197.898 27.9572 197.865 27.5862 198.062 27.4308C198.26 27.2754 198.613 27.3933 198.852 27.6953Z" fill="#263238"/>
<path d="M199.151 28.3467C199.151 28.3467 199.84 30.6306 199.748 32.0676C200.676 32.1444 201.404 31.1989 201.404 31.1989L199.151 28.3467Z" fill="#DE5753"/>
<path d="M198.636 25.146C198.671 25.1041 198.692 25.0491 198.69 24.9898C198.684 24.8649 198.579 24.7689 198.454 24.7741C197.205 24.8291 196.666 25.7205 196.642 25.7598C196.579 25.8672 196.614 26.006 196.722 26.0689C196.829 26.1317 196.968 26.0951 197.031 25.9903C197.048 25.9606 197.478 25.27 198.474 25.2255C198.539 25.2229 198.597 25.1923 198.636 25.146Z" fill="#263238"/>
<path d="M207.551 23.0244C210.435 25.1031 215.959 28.3928 219.093 27.146C219.093 27.146 221.91 29.491 219.204 35.3815C216.228 41.8586 214.566 36.9992 214.566 36.9992C215.347 33.0766 212.682 31.9618 209.936 31.4458L207.551 23.0244Z" fill="#E4897B"/>
<path d="M208.419 19.1037C211.12 22.9904 212.897 25.1285 212.528 28.5098C211.973 33.5971 206.056 35.5134 202.248 32.5119C198.821 29.8098 194.98 23.9071 197.443 19.5655C199.87 15.2885 205.718 15.216 208.419 19.1037Z" fill="#E4897B"/>
<path d="M212.756 25.5182C212.351 27.7209 204.937 30.7347 201.572 25.9853C201.572 25.9853 197.35 25.9513 194.81 23.4063C192.271 20.8614 192.815 18.1009 195.092 16.5992C197.098 15.2757 202.284 5.52553 208.323 12.4837C214.88 12.2165 213.261 22.769 212.756 25.5182Z" fill="#263238"/>
<path d="M200.229 15.5497C200.229 15.5497 196.335 15.3611 194.091 17.1456C191.846 18.9301 192.479 24.4041 193.342 25.4378C194.206 26.4706 195.127 26.4706 195.127 26.4706C195.127 26.4706 193.803 25.7844 193.803 24.7743C193.803 24.7743 194.379 26.1249 197.027 26.4706C197.027 26.4706 196.271 25.8673 196.39 25.1043C196.39 25.1043 197.825 26.9612 201.139 25.1043C204.451 23.2473 200.229 15.5497 200.229 15.5497Z" fill="#263238"/>
<path d="M203.542 25.1676C204.258 26.1804 204.537 27.448 204.472 28.4747C204.376 30.0183 203.084 30.1396 202.068 29.1662C201.154 28.2896 200.102 26.43 200.699 25.1423C201.289 23.8738 202.724 24.01 203.542 25.1676Z" fill="#E4897B"/>
<path d="M211.294 38.0697C211.294 38.0697 210.568 29.2799 216.307 24.3438L223.142 24.9697C223.142 24.9697 219.203 34.5811 211.294 38.0697Z" fill="#407BFF"/>
<path opacity="0.6" d="M211.294 38.0697C211.294 38.0697 210.568 29.2799 216.307 24.3438L223.142 24.9697C223.142 24.9697 219.203 34.5811 211.294 38.0697Z" fill="white"/>
<path d="M231.002 57.839C231.002 57.839 220.666 47.6908 209.241 40.5868C209.241 40.5868 216.853 22.7191 226.488 21.124C226.488 21.124 251.4 28.647 258.628 49.0344L231.002 57.839Z" fill="#407BFF"/>
<path d="M232.314 119.744L227.854 121.635L223.028 111.497L227.487 109.604L232.314 119.744Z" fill="#E4897B"/>
<path d="M258.625 49.0356L255.993 76.9434C254.547 78.0137 252.243 78.8457 249.463 79.4944C244.018 80.7621 236.752 81.3374 230.478 81.6735C223.43 82.0577 217.643 82.131 217.12 82.5361C215.894 83.4895 231.411 115.537 231.411 115.537L224.005 116.46C224.005 116.46 204.541 89.7658 202.022 80.4914C201.094 77.0682 200.159 72.7807 206.444 68.7743C211.978 65.2472 232.583 62.6001 232.583 62.6001L230.998 57.8394L258.625 49.0356Z" fill="#263238"/>
<path opacity="0.2" d="M249.467 79.4939C244.022 80.7615 236.757 81.3369 230.482 81.673C229.632 71.3746 234.815 61.4926 234.815 61.4926L242.184 59.6016L249.467 79.4939Z" fill="black"/>
<path d="M297.254 115.633L298.043 120.413L287.052 122.716L286.263 117.936L297.254 115.633Z" fill="#E4897B"/>
<path d="M298.28 120.589C298.248 120.554 298.197 120.543 298.153 120.561C298.108 120.579 298.08 120.623 298.082 120.671C298.085 120.754 298.151 122.702 298.761 123.273C298.885 123.39 299.027 123.446 299.18 123.441C299.453 123.432 299.566 123.298 299.612 123.186C299.744 122.868 299.502 122.312 299.176 121.782C298.871 121.29 298.495 120.819 298.28 120.589ZM298.331 120.995C298.912 121.695 299.548 122.742 299.4 123.098C299.38 123.144 299.336 123.206 299.172 123.212C299.081 123.215 298.997 123.18 298.917 123.105C298.867 123.058 298.821 122.998 298.778 122.929C298.481 122.448 298.37 121.499 298.331 120.995Z" fill="#407BFF"/>
<path d="M298.241 120.561C298.203 120.545 298.16 120.551 298.127 120.575C298.083 120.609 297.04 121.405 296.933 122.195C296.901 122.436 296.956 122.652 297.099 122.84C297.292 123.091 297.475 123.085 297.597 123.035C298.109 122.823 298.395 121.288 298.311 120.652C298.308 120.635 298.303 120.621 298.295 120.607C298.282 120.587 298.264 120.571 298.241 120.561ZM297.16 122.226C297.231 121.707 297.805 121.15 298.097 120.898C298.105 121.594 297.816 122.696 297.508 122.823C297.483 122.834 297.407 122.865 297.281 122.7C297.267 122.682 297.254 122.663 297.242 122.643C297.166 122.519 297.139 122.382 297.16 122.226Z" fill="#407BFF"/>
<path d="M297.445 120.524L294.671 116.019C294.567 115.85 294.594 115.632 294.736 115.494L297.901 112.421C298.229 112.102 298.767 112.17 299 112.562C299.974 114.205 301.324 116.612 302.582 118.654C304.053 121.042 305.454 123.024 307.179 125.825C308.222 127.519 306.799 129.043 306.208 128.429C303.515 125.637 301.816 123.049 298.379 121.319C298.006 121.131 297.665 120.88 297.445 120.524Z" fill="#263238"/>
<path d="M258.624 49.0356C258.624 49.0356 267.499 71.85 252.526 80.7027C252.526 80.7027 252.336 107.064 256.12 110.154C260.726 113.913 294.455 115.826 294.455 115.826L294.161 124.202C294.161 124.202 258.052 127.157 247.12 123.236C234.319 118.643 231.468 58.2367 231.468 58.2367L258.624 49.0356Z" fill="#263238"/>
<path opacity="0.2" d="M248.363 63.04L253.753 61.4092C253.753 61.4092 254.494 66.0468 254.484 68.5289L251.984 70.6757L249.619 69.9222C249.619 69.9222 248.973 64.9651 248.363 63.04Z" fill="black"/>
<path d="M232.777 57.8579L233.475 60.0754L231.482 60.6936L230.78 58.4952L232.777 57.8579Z" fill="#263238"/>
<path d="M241.974 54.9077L242.725 57.2082L234.47 59.7671L233.741 57.5461L241.974 54.9077Z" fill="#263238"/>
<path d="M252.249 51.6152L252.998 54.0222L243.771 56.8806L243.038 54.567L252.249 51.6152Z" fill="#263238"/>
<path d="M259.756 51.9231L254.073 53.6849L254.067 53.6857L253.305 51.2744L258.946 49.4663L259.756 51.9231Z" fill="#263238"/>
<g opacity="0.2">
<path d="M232.776 57.8579L233.473 60.0754L231.48 60.6936L230.778 58.4952L232.776 57.8579Z" fill="white"/>
<path d="M241.973 54.9077L242.724 57.2082L234.469 59.7671L233.74 57.5461L241.973 54.9077Z" fill="white"/>
<path d="M252.247 51.6152L252.996 54.0222L243.769 56.8806L243.036 54.567L252.247 51.6152Z" fill="white"/>
<path d="M259.754 51.9231L254.072 53.6849L254.066 53.6857L253.303 51.2744L258.944 49.4663L259.754 51.9231Z" fill="white"/>
</g>
<path d="M226.483 120.219C226.53 120.209 226.565 120.171 226.572 120.123C226.579 120.076 226.555 120.03 226.513 120.006C226.441 119.967 224.725 119.043 223.924 119.281C223.759 119.33 223.639 119.423 223.567 119.558C223.436 119.798 223.496 119.964 223.569 120.06C223.777 120.334 224.379 120.405 225.001 120.391C225.581 120.377 226.176 120.288 226.483 120.219ZM226.107 120.059C225.21 120.207 223.986 120.229 223.752 119.922C223.722 119.882 223.691 119.812 223.769 119.668C223.813 119.587 223.884 119.533 223.99 119.502C224.056 119.483 224.131 119.472 224.211 119.47C224.777 119.456 225.652 119.839 226.107 120.059Z" fill="#407BFF"/>
<path d="M226.528 120.2C226.56 120.175 226.578 120.135 226.572 120.095C226.565 120.04 226.404 118.738 225.776 118.247C225.584 118.096 225.37 118.035 225.135 118.065C224.821 118.104 224.734 118.267 224.715 118.396C224.64 118.946 225.822 119.966 226.414 120.214C226.428 120.22 226.445 120.224 226.461 120.223C226.484 120.222 226.508 120.214 226.528 120.2ZM225.635 118.427C226.048 118.749 226.238 119.526 226.31 119.905C225.705 119.561 224.899 118.756 224.944 118.426C224.948 118.399 224.959 118.318 225.165 118.292C225.188 118.289 225.211 118.288 225.234 118.287C225.378 118.284 225.511 118.329 225.635 118.427Z" fill="#407BFF"/>
<path d="M226.958 119.535L232.247 119.41C232.445 119.406 232.62 119.539 232.667 119.732L233.726 124.014C233.836 124.457 233.507 124.889 233.049 124.892C231.141 124.905 228.381 124.858 225.983 124.915C223.178 124.981 220.76 125.192 217.472 125.269C215.484 125.316 214.885 123.319 215.712 123.117C219.482 122.199 222.573 122.036 225.799 119.94C226.151 119.712 226.541 119.545 226.958 119.535Z" fill="#263238"/>
<path opacity="0.7" d="M258.629 49.0392L231.006 57.8394C231.006 57.8394 226.134 53.0639 219.385 47.7645C218.102 46.7605 216.758 45.739 215.361 44.7263C213.396 43.2945 211.336 41.8889 209.241 40.5881C209.241 40.5881 216.854 22.7169 226.492 21.1279C226.492 21.1279 251.4 28.6448 258.629 49.0392Z" fill="white"/>
<path opacity="0.1" d="M219.381 47.7641C218.097 46.7601 216.753 45.7386 215.356 44.7259L215.897 43.0933C215.897 43.0933 218.219 45.0489 219.381 47.7641Z" fill="black"/>
<path d="M179.469 65.9932L177.565 66.4472C177.09 66.5607 176.73 66.9484 176.652 67.4303L176.222 70.0817C176.131 70.6413 176.441 71.1887 176.967 71.3991L178.359 71.9544C178.359 71.9544 182.377 74.8529 185.774 72.9811L184.306 69.0952L181.434 66.4961C180.902 66.0151 180.167 65.8274 179.469 65.9932Z" fill="#E4897B"/>
<path d="M214.139 41.2929C216.58 42.7578 216.793 45.7786 216.793 45.7786C216.793 45.7786 214.875 50.9828 213.762 53.5722C213.006 55.3297 212.221 57.0932 211.308 58.8472C210.364 60.6159 209.457 62.3498 207.916 64.2653L207.616 64.6276L207.258 65.0126C207.042 65.2553 206.723 65.5443 206.412 65.8123C206.28 65.9363 206.038 66.1056 205.835 66.2479C205.637 66.3841 205.361 66.5675 205.28 66.598L204.542 66.9813C203.581 67.4658 202.68 67.8439 201.777 68.2158C199.983 68.9509 198.207 69.59 196.426 70.202C192.853 71.3972 189.299 72.4893 185.651 73.4087L183.919 68.7396C187.192 67.0625 190.528 65.4744 193.784 63.8375C195.415 63.029 197.039 62.2154 198.598 61.3947C199.366 60.98 200.132 60.5557 200.793 60.1541L201.263 59.8573C201.389 59.7848 201.292 59.8189 201.284 59.8241C201.264 59.8267 201.223 59.8773 201.252 59.8346C201.279 59.7874 201.308 59.7726 201.387 59.6582L201.492 59.5273L201.618 59.343C202.324 58.3163 203.125 56.7457 203.815 55.2057C204.508 53.6298 205.2 52.0042 205.837 50.3376C207.105 47.0183 208.323 43.5567 209.458 40.2033C209.456 40.2042 211.549 39.7388 214.139 41.2929Z" fill="#407BFF"/>
<path opacity="0.7" d="M214.139 41.2929C216.58 42.7578 216.793 45.7786 216.793 45.7786C216.793 45.7786 214.875 50.9828 213.762 53.5722C213.006 55.3297 212.221 57.0932 211.308 58.8472C210.364 60.6159 209.457 62.3498 207.916 64.2653L207.616 64.6276L207.258 65.0126C207.042 65.2553 206.723 65.5443 206.412 65.8123C206.28 65.9363 206.038 66.1056 205.835 66.2479C205.637 66.3841 205.361 66.5675 205.28 66.598L204.542 66.9813C203.581 67.4658 202.68 67.8439 201.777 68.2158C199.983 68.9509 198.207 69.59 196.426 70.202C192.853 71.3972 189.299 72.4893 185.651 73.4087L183.919 68.7396C187.192 67.0625 190.528 65.4744 193.784 63.8375C195.415 63.029 197.039 62.2154 198.598 61.3947C199.366 60.98 200.132 60.5557 200.793 60.1541L201.263 59.8573C201.389 59.7848 201.292 59.8189 201.284 59.8241C201.264 59.8267 201.223 59.8773 201.252 59.8346C201.279 59.7874 201.308 59.7726 201.387 59.6582L201.492 59.5273L201.618 59.343C202.324 58.3163 203.125 56.7457 203.815 55.2057C204.508 53.6298 205.2 52.0042 205.837 50.3376C207.105 47.0183 208.323 43.5567 209.458 40.2033C209.456 40.2042 211.549 39.7388 214.139 41.2929Z" fill="white"/>
<path d="M54.4741 272.954H201.916L279.946 209.922L283.368 214.158H302.587L322.166 124.033L302.939 124.072L302.948 124.033L210.719 124.217L221.73 137.847L54.4741 272.954Z" fill="#FF6600"/>
<path opacity="0.2" d="M54.4741 272.954H182.698L272.358 200.528L283.368 214.158L302.948 124.033L210.719 124.217L221.73 137.847L54.4741 272.954Z" fill="white"/>
<path d="M51.4764 267.752H157.341C157.291 267.304 157.261 266.849 157.261 266.388C157.261 259.591 162.772 254.081 169.569 254.081C169.72 254.081 169.866 254.099 170.017 254.104C171.559 249.965 175.535 247.011 180.211 247.011C186.225 247.011 191.1 251.886 191.1 257.9C191.1 257.909 191.099 257.916 191.099 257.924C196.431 258.173 200.702 262.427 200.98 267.752H201.475C204.484 267.752 206.947 270.214 206.947 273.224C206.947 276.234 204.485 278.696 201.475 278.696H51.4764C48.467 278.696 46.005 276.234 46.005 273.224C46.005 270.214 48.467 267.752 51.4764 267.752Z" fill="url(#paint0_linear_59_11805)"/>
<path opacity="0.7" d="M51.4764 267.752H157.341C157.291 267.304 157.261 266.849 157.261 266.388C157.261 259.591 162.772 254.081 169.569 254.081C169.72 254.081 169.866 254.099 170.017 254.104C171.559 249.965 175.535 247.011 180.211 247.011C186.225 247.011 191.1 251.886 191.1 257.9C191.1 257.909 191.099 257.916 191.099 257.924C196.431 258.173 200.702 262.427 200.98 267.752H201.475C204.484 267.752 206.947 270.214 206.947 273.224C206.947 276.234 204.485 278.696 201.475 278.696H51.4764C48.467 278.696 46.005 276.234 46.005 273.224C46.005 270.214 48.467 267.752 51.4764 267.752Z" fill="white"/>
<path fill-rule="evenodd" clip-rule="evenodd" d="M293.379 237.972L300.578 243.689L295.815 249.686L293.379 237.972Z" fill="#FF6600"/>
<path fill-rule="evenodd" clip-rule="evenodd" d="M301.023 243.781L293.999 237.851L298.938 232L301.023 243.781Z" fill="#FF6600"/>
<path opacity="0.4" fill-rule="evenodd" clip-rule="evenodd" d="M317.762 193.972L324.961 199.689L320.198 205.686L317.762 193.972Z" fill="#FF6600"/>
<path fill-rule="evenodd" clip-rule="evenodd" d="M10.7625 262.972L17.9613 268.689L13.1989 274.686L10.7625 262.972Z" fill="#FF6600"/>
<path opacity="0.4" fill-rule="evenodd" clip-rule="evenodd" d="M325.406 199.781L318.381 193.851L323.321 188L325.406 199.781Z" fill="#FF6600"/>
<path fill-rule="evenodd" clip-rule="evenodd" d="M18.407 268.781L11.3821 262.851L16.3216 257L18.407 268.781Z" fill="#FF6600"/>
<g opacity="0.2" clip-path="url(#clip1_59_11805)">
<path fill-rule="evenodd" clip-rule="evenodd" d="M323.446 10.0723H332.867V16.9166H341.287L350.67 24.5737H332.867V34.2488C332.874 36.4843 336.229 37.0607 339.049 35.6417V42.7369C331.902 46.2229 323.106 44.1246 323.446 34.2488V24.5737H320.25V16.9166H323.446V10.0723Z" fill="#003399"/>
<path fill-rule="evenodd" clip-rule="evenodd" d="M341.48 10.0723H350.674V17.7299L341.48 10.0723Z" fill="#FF6600"/>
<path fill-rule="evenodd" clip-rule="evenodd" d="M341.139 24.5732H350.673V31.2118L341.139 24.5732Z" fill="#001F5C"/>
<path fill-rule="evenodd" clip-rule="evenodd" d="M341.139 24.5732L350.673 31.2118V43.7581H341.139V24.5732Z" fill="#003399"/>
</g>
</g>
<rect x="0.5" y="0.5" width="419.914" height="278.748" rx="5.59501" stroke="#000714"/>
<defs>
<linearGradient id="paint0_linear_59_11805" x1="46.005" y1="247.011" x2="154.111" y2="340.073" gradientUnits="userSpaceOnUse">
<stop stop-color="#FF9752"/>
<stop offset="1" stop-color="#FF6600"/>
</linearGradient>
<clipPath id="clip0_59_11805">
<rect x="1" y="1" width="418.914" height="277.748" rx="5.09501" fill="white"/>
</clipPath>
<clipPath id="clip1_59_11805">
<rect width="31.9524" height="35.3158" fill="white" transform="translate(319.047 9.8418)"/>
</clipPath>
</defs>
</svg>
