<svg width="16" height="16" viewBox="0 0 16 16" fill="none" xmlns="http://www.w3.org/2000/svg">
<path d="M4.62663 3.33334C4.62645 3.68696 4.48581 4.02603 4.23563 4.27595C3.98546 4.52587 3.64625 4.66618 3.29263 4.666C2.93901 4.66583 2.59994 4.52518 2.35001 4.27501C2.10009 4.02483 1.95978 3.68562 1.95996 3.332C1.96014 2.97838 2.10078 2.63931 2.35096 2.38939C2.60113 2.13947 2.94034 1.99916 3.29396 1.99934C3.64758 1.99951 3.98665 2.14016 4.23658 2.39033C4.4865 2.64051 4.6268 2.97971 4.62663 3.33334ZM4.66663 5.65334H1.99996V14H4.66663V5.65334ZM8.87996 5.65334H6.22663V14H8.85329V9.62C8.85329 7.18 12.0333 6.95334 12.0333 9.62V14H14.6666V8.71334C14.6666 4.6 9.95996 4.75334 8.85329 6.77334L8.87996 5.65334Z" fill="#FF6600"/>
</svg>
