<svg width="22" height="22" viewBox="0 0 22 22" fill="none" xmlns="http://www.w3.org/2000/svg">
<path d="M6.50233 4.77793C6.5021 5.24943 6.31457 5.70152 5.98101 6.03475C5.64744 6.36798 5.19516 6.55506 4.72367 6.55482C4.25217 6.55459 3.80008 6.36706 3.46685 6.0335C3.13362 5.69993 2.94654 5.24765 2.94678 4.77616C2.94701 4.30466 3.13454 3.85257 3.46811 3.51934C3.80167 3.18611 4.25395 2.99903 4.72544 2.99927C5.19694 2.9995 5.64903 3.18703 5.98226 3.5206C6.31549 3.85416 6.50257 4.30644 6.50233 4.77793ZM6.55567 7.87127H3.00011V19.0002H6.55567V7.87127ZM12.1734 7.87127H8.63567V19.0002H12.1379V13.1602C12.1379 9.90682 16.3779 9.6046 16.3779 13.1602V19.0002H19.889V11.9513C19.889 6.46682 13.6134 6.67127 12.1379 9.3646L12.1734 7.87127Z" fill="#000714"/>
</svg>
