<svg width="394" height="394" viewBox="0 0 394 394" fill="none" xmlns="http://www.w3.org/2000/svg">
<path d="M316.597 239.142C318.808 239.142 321.018 238.643 322.74 237.649C324.604 236.574 325.63 235.074 325.63 233.425C325.63 231.778 324.606 230.281 322.746 229.209C319.303 227.218 313.912 227.221 310.47 229.212C308.607 230.287 307.582 231.789 307.582 233.437C307.582 235.083 308.605 236.581 310.464 237.652C312.183 238.645 314.391 239.142 316.597 239.142ZM316.612 230.072C318.422 230.072 320.23 230.461 321.575 231.237C322.664 231.865 323.289 232.662 323.289 233.424C323.289 234.19 322.662 234.99 321.569 235.621C318.873 237.178 314.324 237.178 311.635 235.624C310.547 234.996 309.924 234.199 309.924 233.437C309.924 232.671 310.549 231.871 311.641 231.24C312.988 230.461 314.801 230.072 316.612 230.072Z" fill="#1F0D26"/>
<path d="M107.64 336.14C107.726 336.14 107.812 336.131 107.899 336.11C110.083 335.616 112.678 335.354 115.404 335.354H115.405C115.419 335.354 115.434 335.354 115.448 335.354C118.157 335.354 120.735 335.613 122.905 336.104C123.38 336.22 123.86 336.021 124.132 335.622C124.402 335.225 124.402 334.701 124.132 334.305C123.376 333.195 122.979 331.874 122.984 330.487C122.984 329.093 123.383 327.77 124.141 326.66C124.411 326.264 124.411 325.739 124.141 325.343C123.871 324.943 123.391 324.742 122.914 324.861C120.738 325.352 118.16 325.614 115.454 325.614C115.427 325.611 115.396 325.611 115.367 325.614C112.655 325.614 110.077 325.355 107.907 324.864C107.442 324.76 106.951 324.95 106.682 325.349C106.412 325.745 106.412 326.27 106.682 326.666C107.435 327.773 107.833 329.093 107.83 330.484C107.827 331.88 107.427 333.204 106.672 334.311C106.403 334.707 106.403 335.231 106.672 335.628C106.893 335.954 107.259 336.14 107.64 336.14ZM115.402 333.012C113.413 333.012 111.482 333.146 109.706 333.402C110.011 332.475 110.17 331.496 110.171 330.49C110.173 329.481 110.017 328.499 109.712 327.572C111.49 327.828 113.547 327.935 115.411 327.956C117.407 327.886 119.328 327.828 121.105 327.569C120.799 328.496 120.642 329.478 120.642 330.484C120.639 331.487 120.794 332.469 121.099 333.396C119.323 333.14 117.32 333.057 115.402 333.012Z" fill="#1F0D26"/>
<path d="M260.512 321.33C261.158 321.33 261.683 320.805 261.683 320.159L261.692 307.483C261.692 306.837 261.169 306.312 260.522 306.312C260.521 306.312 260.521 306.312 260.521 306.312C259.875 306.312 259.35 306.837 259.35 307.483L259.341 320.159C259.341 320.805 259.864 321.33 260.51 321.33C260.512 321.33 260.512 321.33 260.512 321.33Z" fill="#1F0D26"/>
<path d="M249.538 314.997L271.495 314.991C272.141 314.991 272.666 314.466 272.666 313.82C272.666 313.174 272.141 312.649 271.495 312.649L249.538 312.655C248.891 312.655 248.367 313.179 248.367 313.826C248.367 314.472 248.891 314.997 249.538 314.997Z" fill="#1F0D26"/>
<path d="M63.3445 179.068C64.3095 179.068 65.3539 178.76 66.4149 178.147C69.8606 176.159 72.556 171.491 72.553 167.518C72.5544 165.373 71.7709 163.735 70.3454 162.912C68.9184 162.087 67.104 162.224 65.2411 163.304C61.7969 165.292 59.1 169.96 59.1 173.932C59.1 176.078 59.8852 177.714 61.3122 178.537C61.9267 178.891 62.6128 179.068 63.3445 179.068ZM68.3132 164.729C68.6379 164.729 68.9291 164.798 69.1731 164.939C69.8348 165.321 70.2129 166.261 70.2113 167.517C70.2144 170.626 67.9396 174.564 65.2442 176.119C64.1526 176.75 63.1494 176.888 62.4831 176.508C61.8214 176.127 61.4418 175.188 61.4418 173.931C61.4418 170.826 63.718 166.888 66.412 165.331C67.1026 164.933 67.7582 164.729 68.3132 164.729Z" fill="#1F0D26"/>
<path d="M279.462 72.6559C279.491 72.6559 279.52 72.6542 279.549 72.6528C280.03 72.6163 280.438 72.2914 280.58 71.8326C281.242 69.7013 282.314 67.3259 283.681 64.9643C285.035 62.6103 286.557 60.4941 288.086 58.8385C288.412 58.4847 288.49 57.968 288.279 57.5335C288.07 57.102 287.619 56.8627 287.136 56.8764C285.805 56.9771 284.459 56.6644 283.248 55.9678C282.042 55.2742 281.097 54.2694 280.518 53.0634C280.31 52.6305 279.853 52.3851 279.377 52.4033C278.897 52.4383 278.487 52.7646 278.345 53.2235C277.679 55.3655 276.607 57.7424 275.244 60.0948C275.244 60.0963 275.244 60.0963 275.244 60.0963C273.878 62.4656 272.353 64.5816 270.835 66.2145C270.507 66.5682 270.429 67.085 270.638 67.5195C270.847 67.9526 271.314 68.2086 271.78 68.1797C273.104 68.079 274.464 68.3947 275.674 69.0914C276.882 69.7866 277.827 70.7897 278.408 71.9943C278.604 72.4013 279.016 72.6559 279.462 72.6559ZM284.835 59.0503C283.721 60.4666 282.641 62.0735 281.652 63.7934C280.656 65.5161 279.804 67.2542 279.138 68.9161C278.488 68.1903 277.715 67.5652 276.842 67.0622C275.97 66.559 275.041 66.2053 274.087 66.0071C275.195 64.5999 276.276 62.9945 277.272 61.2672C278.267 59.5474 279.119 57.8109 279.787 56.1431C280.435 56.8703 281.208 57.4954 282.08 57.9984C282.954 58.5 283.882 58.8536 284.835 59.0503Z" fill="#1F0D26"/>
<path d="M194.144 78.9887C194.55 78.9887 194.943 78.7784 195.16 78.4033C195.483 77.8422 195.291 77.1273 194.731 76.804L183.748 70.4708C183.187 70.1461 182.471 70.3411 182.149 70.8992C181.826 71.4603 182.018 72.1752 182.577 72.4985L193.561 78.8316C193.745 78.9385 193.946 78.9887 194.144 78.9887Z" fill="#1F0D26"/>
<path d="M183.158 85.3251C183.564 85.3251 183.957 85.1164 184.174 84.7398L195.16 65.7281C195.483 65.1686 195.291 64.452 194.731 64.1287C194.17 63.8024 193.455 63.9945 193.132 64.5571L182.146 83.5689C181.823 84.1283 182.015 84.8449 182.574 85.1682C182.759 85.2748 182.96 85.3251 183.158 85.3251Z" fill="#1F0D26"/>
<path d="M299.484 277.232C299.496 274.707 301.17 272.18 304.511 270.25C311.208 266.383 322.047 266.377 328.728 270.235C332.073 272.164 333.738 274.699 333.726 277.232H333.729V284.523H333.726C333.711 287.045 332.037 289.566 328.698 291.493C322.002 295.357 311.165 295.366 304.484 291.509C301.145 289.582 299.477 287.054 299.484 284.523V277.232Z" fill="#FF672F"/>
<path d="M316.565 295.546C321.168 295.546 325.774 294.534 329.283 292.509C332.884 290.429 334.879 287.597 334.897 284.529L334.9 277.232C334.911 274.153 332.927 271.305 329.314 269.219C322.321 265.182 310.932 265.194 303.926 269.234C300.321 271.317 298.328 274.156 298.313 277.226C298.313 277.229 298.313 277.229 298.313 277.232V284.523C298.305 287.597 300.289 290.439 303.899 292.524C307.388 294.537 311.974 295.546 316.565 295.546ZM316.644 268.506C320.811 268.506 324.975 269.42 328.143 271.25C330.999 272.897 332.566 275.019 332.555 277.226L332.558 284.523C332.543 286.715 330.964 288.835 328.113 290.478C321.75 294.149 311.414 294.158 305.07 290.493C302.217 288.847 300.65 286.728 300.655 284.526V277.239C300.665 275.034 302.243 272.912 305.097 271.265C308.282 269.423 312.465 268.506 316.644 268.506Z" fill="#1F0D26"/>
<path d="M299.484 277.233C299.496 274.708 301.17 272.18 304.511 270.25C305.627 269.607 306.89 269.107 308.198 268.677V293.089C306.878 292.659 305.609 292.159 304.484 291.509C301.145 289.582 299.477 287.054 299.484 284.523V277.233Z" fill="#1F0D26"/>
<path d="M308.198 294.259C308.442 294.259 308.683 294.183 308.886 294.037C309.189 293.814 309.369 293.464 309.369 293.088V268.677C309.369 268.301 309.189 267.948 308.884 267.728C308.582 267.506 308.194 267.445 307.832 267.563C306.234 268.088 304.993 268.622 303.926 269.235C300.321 271.317 298.328 274.156 298.313 277.226C298.313 277.23 298.313 277.23 298.313 277.233V284.523C298.305 287.597 300.289 290.439 303.899 292.524C304.975 293.143 306.225 293.677 307.835 294.201C307.954 294.241 308.076 294.259 308.198 294.259ZM307.027 270.344V291.427C306.282 291.131 305.641 290.826 305.07 290.494C302.217 288.85 300.65 286.728 300.654 284.526V277.233C300.668 275.031 302.246 272.912 305.097 271.265C305.661 270.939 306.292 270.637 307.027 270.344Z" fill="#1F0D26"/>
<path d="M304.484 284.23C297.806 280.373 297.819 274.116 304.511 270.25C311.208 266.383 322.047 266.377 328.728 270.235C335.406 274.092 335.394 280.348 328.698 284.212C322.002 288.078 311.165 288.088 304.484 284.23Z" fill="white"/>
<path d="M316.562 288.264C321.166 288.264 325.774 287.252 329.283 285.227C332.904 283.136 334.898 280.291 334.9 277.211C334.9 274.141 332.916 271.302 329.314 269.219C322.321 265.182 310.932 265.194 303.926 269.234C300.307 271.326 298.313 274.174 298.313 277.254C298.313 280.327 300.296 283.163 303.899 285.246C307.388 287.258 311.973 288.264 316.562 288.264ZM316.644 268.506C320.811 268.506 324.975 269.42 328.143 271.25C330.991 272.893 332.558 275.009 332.558 277.211C332.557 279.419 330.979 281.544 328.112 283.197C321.752 286.874 311.415 286.88 305.07 283.215C302.223 281.571 300.654 279.455 300.654 277.254C300.654 275.046 302.232 272.918 305.097 271.265C308.282 269.423 312.465 268.506 316.644 268.506Z" fill="#1F0D26"/>
<path d="M187.81 340.427L203.11 331.591V326.456L163.669 303.688L148.371 312.518V317.656L187.81 340.427Z" fill="white"/>
<path d="M187.81 341.598C188.012 341.598 188.214 341.546 188.395 341.442L203.696 332.606C204.059 332.395 204.281 332.008 204.281 331.59V326.455C204.281 326.038 204.059 325.65 203.696 325.44L164.255 302.672C163.892 302.464 163.446 302.464 163.084 302.672L147.786 311.502C147.423 311.712 147.2 312.1 147.2 312.518V317.655C147.2 318.073 147.423 318.46 147.786 318.671L187.224 341.442C187.406 341.546 187.607 341.598 187.81 341.598ZM201.94 330.913L187.81 339.076L149.542 316.979V313.195L163.669 305.038L201.939 327.133L201.94 330.913Z" fill="#1F0D26"/>
<path d="M187.81 340.427L203.11 331.591V326.456L187.81 335.289V340.427Z" fill="#FF672F"/>
<path d="M187.81 341.598C188.012 341.598 188.214 341.546 188.395 341.442L203.696 332.606C204.059 332.395 204.281 332.008 204.281 331.59V326.456C204.281 326.038 204.059 325.65 203.696 325.44C203.333 325.233 202.888 325.233 202.525 325.44L187.224 334.274C186.861 334.484 186.639 334.871 186.639 335.289V340.427C186.639 340.845 186.861 341.232 187.224 341.442C187.406 341.546 187.607 341.598 187.81 341.598ZM201.94 330.914L188.981 338.399V335.966L201.94 328.483V330.914Z" fill="#1F0D26"/>
<path d="M187.81 335.289L148.371 312.518V317.656L187.81 340.427V335.289Z" fill="#1F0D26"/>
<path d="M187.81 341.598C188.012 341.598 188.214 341.546 188.395 341.442C188.758 341.232 188.981 340.845 188.981 340.427V335.289C188.981 334.871 188.758 334.484 188.395 334.274L148.957 311.502C148.594 311.295 148.149 311.295 147.786 311.502C147.423 311.713 147.2 312.1 147.2 312.518V317.656C147.2 318.073 147.423 318.461 147.786 318.671L187.224 341.442C187.406 341.546 187.607 341.598 187.81 341.598ZM186.639 335.966V338.399L149.542 316.979V314.546L186.639 335.966Z" fill="#1F0D26"/>
<path d="M121.8 121.347C111.731 118.97 105.495 108.879 107.873 98.8099C110.251 88.7406 120.341 82.5052 130.41 84.8828C140.48 87.2605 146.715 97.3508 144.337 107.42C141.96 117.49 131.869 123.725 121.8 121.347Z" fill="white"/>
<path d="M126.097 123.038C137.073 123.038 146.002 114.108 146.002 103.133C146.002 92.157 137.073 83.2275 126.097 83.2275C115.121 83.2275 106.192 92.157 106.192 103.133C106.192 114.108 115.121 123.038 126.097 123.038ZM126.097 85.5692C135.781 85.5692 143.66 93.4484 143.66 103.133C143.66 112.817 135.781 120.696 126.097 120.696C116.413 120.696 108.534 112.817 108.534 103.133C108.534 93.4484 116.413 85.5692 126.097 85.5692Z" fill="#1F0D26"/>
<path d="M126.097 84.3984C126.841 84.3984 127.57 84.4533 128.292 84.5387C120.666 85.8226 114.842 92.4085 114.842 100.401C114.842 109.307 122.066 116.531 130.976 116.531C135.851 116.531 140.172 114.32 143.13 110.899C140.175 117.366 133.668 121.867 126.097 121.867C115.748 121.867 107.362 113.479 107.362 103.133C107.363 92.7868 115.748 84.3984 126.097 84.3984Z" fill="#FF672F"/>
<path d="M126.097 123.038C133.857 123.038 140.96 118.464 144.196 111.385C144.436 110.856 144.252 110.228 143.762 109.914C143.275 109.599 142.63 109.689 142.244 110.134C139.372 113.454 135.266 115.36 130.976 115.36C122.726 115.36 116.013 108.649 116.013 100.401C116.013 93.0947 121.26 86.9094 128.486 85.6928C129.061 85.5968 129.477 85.0922 129.463 84.5097C129.448 83.9272 129.009 83.444 128.43 83.3753C127.661 83.2854 126.888 83.2275 126.097 83.2275C115.122 83.2275 106.192 92.157 106.192 103.133C106.192 114.108 115.121 123.038 126.097 123.038ZM137.666 116.322C134.517 119.084 130.422 120.696 126.097 120.696C116.413 120.696 108.534 112.817 108.534 103.133C108.534 95.255 113.748 88.5727 120.904 86.3528C116.479 89.5011 113.672 94.6511 113.672 100.4C113.672 109.94 121.435 117.702 130.976 117.702C133.295 117.702 135.565 117.223 137.666 116.322Z" fill="#1F0D26"/>
<path d="M315.223 148.639C313.156 145.056 310.339 142.114 307.293 140.354C303.566 138.205 299.688 137.97 296.657 139.72C293.632 141.468 291.894 144.931 291.894 149.221L291.897 169.95C291.897 173.45 293.032 177.344 295.096 180.918C297.163 184.501 299.981 187.44 303.024 189.2C306.75 191.355 310.628 191.584 313.659 189.834C316.684 188.09 318.419 184.626 318.422 180.335V159.607C318.419 156.107 317.285 152.213 315.223 148.639ZM302.487 176.649C301.182 174.39 300.432 171.947 300.435 169.95V149.221C300.435 147.742 300.843 147.169 300.926 147.114C301.014 147.072 301.724 147.001 303.024 147.749C304.768 148.758 306.518 150.636 307.829 152.908C309.134 155.17 309.884 157.61 309.884 159.607V180.335C309.884 181.814 309.473 182.387 309.39 182.439C309.305 182.485 308.591 182.555 307.292 181.805C305.551 180.799 303.798 178.921 302.487 176.649Z" fill="#FF672F"/>
<path d="M309.2 192.172C310.996 192.172 312.711 191.733 314.245 190.848C317.64 188.89 319.59 185.059 319.593 180.337V159.607C319.59 155.902 318.398 151.799 316.237 148.054C314.069 144.295 311.101 141.202 307.878 139.34C303.775 136.971 299.47 136.741 296.071 138.706C292.673 140.67 290.723 144.503 290.723 149.221L290.726 169.95C290.726 173.655 291.918 177.757 294.082 181.503C296.247 185.257 299.215 188.35 302.438 190.213C304.69 191.517 307.006 192.172 309.2 192.172ZM314.21 149.224C316.169 152.62 317.248 156.308 317.251 159.608V180.335C317.248 184.197 315.727 187.291 313.074 188.82C310.415 190.353 306.963 190.125 303.611 188.186C300.737 186.525 298.073 183.737 296.109 180.332C294.149 176.937 293.068 173.249 293.068 169.95L293.065 149.221C293.065 145.361 294.588 142.268 297.242 140.734C299.898 139.2 303.35 139.432 306.707 141.368C309.579 143.027 312.243 145.817 314.21 149.224ZM309.189 183.635C309.483 183.635 309.739 183.581 309.944 183.472C310.656 183.026 311.055 181.84 311.055 180.335V159.607C311.055 157.414 310.249 154.76 308.843 152.322C307.434 149.88 305.527 147.845 303.611 146.735C302.318 145.992 301.098 145.733 300.417 146.059C299.642 146.562 299.264 147.715 299.264 149.221V169.95C299.261 172.142 300.066 174.798 301.473 177.234C302.882 179.675 304.789 181.71 306.707 182.819C307.628 183.351 308.511 183.635 309.189 183.635ZM301.667 148.393C301.868 148.467 302.126 148.583 302.44 148.764C304.008 149.671 305.605 151.395 306.815 153.493C308.021 155.585 308.713 157.813 308.713 159.607V180.335C308.713 180.684 308.686 180.957 308.652 181.163C308.45 181.089 308.192 180.973 307.878 180.791C306.306 179.883 304.711 178.16 303.501 176.063C302.293 173.973 301.603 171.746 301.606 169.951V149.221C301.606 148.872 301.632 148.599 301.667 148.393Z" fill="#1F0D26"/>
<path d="M308.037 140.869C309.15 138.808 309.863 136.555 309.863 134.585L309.866 113.811C309.863 112.622 309.601 112.042 309.488 111.847C309.412 111.716 309.366 111.676 309.366 111.676C309.274 111.637 308.57 111.567 307.295 112.304C303.649 114.411 300.45 119.955 300.453 124.175L300.45 144.952C300.45 146.141 300.715 146.721 300.828 146.916C300.904 147.047 300.95 147.084 300.95 147.084C300.953 147.087 300.971 147.084 300.971 147.087L300.969 147.111C300.99 147.102 301.042 147.105 301.078 147.099C301.118 147.105 301.164 147.102 301.225 147.099C301.548 147.114 302.142 147.236 303.024 147.748C304.768 148.757 306.518 150.636 307.829 152.908C307.917 153.06 307.969 153.215 308.055 153.371C307.802 153.536 307.549 153.703 307.293 153.853C301.85 156.993 296.154 155.896 293.434 151.185C292.428 149.441 291.912 147.343 291.912 144.952L291.915 124.175C291.912 116.97 296.797 108.508 303.026 104.91C308.46 101.769 314.162 102.867 316.882 107.578C317.888 109.322 318.401 111.42 318.401 113.814L318.404 134.588C318.404 138.735 316.776 143.296 314.217 147.111C312.47 144.516 310.345 142.366 308.037 140.869Z" fill="white"/>
<path d="M301.107 156.818C303.281 156.818 305.602 156.181 307.878 154.867C308.122 154.725 308.358 154.571 308.595 154.417C309.108 154.081 309.375 153.343 309.081 152.807C308.965 152.555 308.91 152.438 308.842 152.321C307.434 149.88 305.527 147.844 303.611 146.734C302.818 146.274 302.184 146.067 301.717 145.981C301.671 145.771 301.621 145.434 301.621 144.952L301.624 124.175C301.621 120.386 304.603 115.212 307.881 113.318C308.186 113.141 308.436 113.028 308.634 112.955C308.665 113.161 308.694 113.445 308.695 113.814L308.692 134.585C308.692 136.265 308.093 138.299 307.006 140.313C306.716 140.849 306.887 141.52 307.399 141.851C309.566 143.257 311.587 145.301 313.246 147.765C313.464 148.088 313.827 148.282 314.217 148.282C314.217 148.282 314.217 148.282 314.219 148.282C314.607 148.282 314.972 148.087 315.19 147.763C317.977 143.607 319.575 138.806 319.575 134.588L319.572 113.814C319.572 111.214 319.007 108.92 317.896 106.993C316.408 104.416 314.028 102.696 311.194 102.15C308.419 101.617 305.313 102.237 302.441 103.896C295.879 107.686 290.741 116.595 290.744 124.175L290.741 144.952C290.741 147.545 291.305 149.84 292.42 151.77C294.329 155.077 297.517 156.817 301.107 156.818ZM306.494 152.959C301.717 155.606 296.788 154.652 294.448 150.599C293.542 149.031 293.083 147.129 293.083 144.952L293.086 124.175C293.083 117.351 297.707 109.334 303.612 105.924C305.998 104.546 308.528 104.023 310.75 104.45C312.94 104.871 314.708 106.156 315.869 108.164C316.771 109.729 317.23 111.631 317.23 113.814L317.233 134.588C317.233 137.881 316.12 141.604 314.146 145.015C312.766 143.236 311.205 141.699 309.543 140.485C310.51 138.436 311.034 136.373 311.034 134.585L311.037 113.811C311.034 112.462 310.744 111.681 310.502 111.262C310.436 111.149 310.231 110.878 310.133 110.792C310.043 110.713 309.941 110.649 309.831 110.602C309.299 110.373 308.197 110.432 306.709 111.291C302.681 113.619 299.279 119.519 299.282 124.177L299.279 144.952C299.279 146.294 299.57 147.079 299.814 147.501C299.822 147.515 299.831 147.529 299.842 147.545C299.912 147.763 300.058 147.954 300.261 148.106C300.519 148.3 300.846 148.343 301.154 148.274C301.354 148.288 301.76 148.367 302.435 148.761C303.873 149.593 305.33 151.104 306.494 152.959Z" fill="#1F0D26"/>
<path d="M250.163 116.851L259.03 121.97V201.707C259.024 208.76 254.066 217.334 247.946 220.868L119.035 295.293C115.97 297.062 113.205 297.229 111.199 296.083L102.268 290.927L102.277 290.914C100.31 289.743 99.0933 287.295 99.0933 283.813V204.073L250.163 116.851Z" fill="#1F0D26"/>
<path d="M114.071 297.986C115.8 297.986 117.687 297.424 119.62 296.308L248.531 221.882C254.959 218.17 260.195 209.12 260.201 201.709V121.97C260.201 121.553 259.978 121.165 259.615 120.957L250.748 115.837C250.385 115.627 249.94 115.627 249.577 115.837L98.5077 203.059C98.1449 203.268 97.9224 203.655 97.9224 204.073V283.813C97.9224 287.508 99.1923 290.341 101.505 291.814C101.56 291.863 101.618 291.905 101.682 291.942L110.613 297.098C111.653 297.69 112.821 297.986 114.071 297.986ZM257.859 122.646V201.707C257.853 208.373 253.143 216.514 247.36 219.854L118.449 294.277C115.865 295.772 113.499 296.049 111.779 295.067L103.014 290.006C102.97 289.969 102.925 289.938 102.876 289.908C101.191 288.905 100.264 286.74 100.264 283.813V204.748L250.163 118.203L257.859 122.646Z" fill="#1F0D26"/>
<path d="M259.03 121.971V201.707C259.024 208.76 254.066 217.334 247.946 220.868L119.035 295.293C112.912 298.83 107.954 295.976 107.957 288.93L107.954 209.187L259.03 121.971Z" fill="white"/>
<path d="M114.072 297.989C115.798 297.989 117.686 297.425 119.62 296.308L248.531 221.882C254.959 218.17 260.195 209.12 260.201 201.709V121.971C260.201 121.553 259.978 121.165 259.615 120.957C259.253 120.746 258.807 120.746 258.445 120.957L107.369 208.173C107.006 208.382 106.784 208.769 106.784 209.187L106.787 288.929C106.785 292.768 108.141 295.665 110.604 297.089C111.645 297.69 112.816 297.989 114.072 297.989ZM257.859 123.998V201.707C257.853 208.373 253.143 216.514 247.36 219.854L118.449 294.277C115.862 295.775 113.495 296.049 111.775 295.061C110.067 294.073 109.127 291.896 109.128 288.929L109.125 209.862L257.859 123.998Z" fill="#1F0D26"/>
<path d="M110.174 160.097L239.088 85.6695C242.14 83.9073 244.9 83.7365 246.906 84.8829L246.909 84.8767L255.816 90.0239L255.813 90.0268C257.798 91.1885 259.021 93.6463 259.024 97.1558L259.03 121.97L107.954 209.186L99.0934 204.073L99.0904 179.259C99.0904 172.206 104.052 163.628 110.174 160.097Z" fill="#FF672F"/>
<path d="M107.954 210.357C108.157 210.357 108.358 210.306 108.54 210.2L259.615 122.984C259.978 122.775 260.201 122.388 260.201 121.971L260.195 97.1561C260.192 93.3354 258.845 90.4449 256.404 89.0162L247.496 83.8632C247.453 83.8387 247.409 83.8174 247.365 83.7992C244.915 82.4652 241.773 82.7671 238.503 84.656L109.589 159.084C103.155 162.795 97.9195 171.845 97.9195 179.259L97.9225 204.073C97.9225 204.491 98.1451 204.878 98.5079 205.087L107.369 210.2C107.55 210.306 107.751 210.357 107.954 210.357ZM257.859 121.295L107.954 207.834L100.264 203.396L100.261 179.259C100.261 172.59 104.971 164.45 110.76 161.112L239.674 86.6836C242.249 85.1955 244.612 84.9165 246.325 85.8999C246.361 85.9199 246.397 85.938 246.434 85.9533L255.231 91.0378C256.917 92.0288 257.85 94.2029 257.853 97.1575L257.859 121.295Z" fill="#1F0D26"/>
<path d="M107.954 209.187L99.0933 204.073L99.0903 179.259C99.0903 175.771 100.31 171.913 102.28 168.477L140.379 190.474L107.954 209.187Z" fill="#1F0D26"/>
<path d="M107.954 210.357C108.157 210.357 108.358 210.306 108.54 210.2L140.965 191.487C141.328 191.279 141.55 190.891 141.55 190.474C141.55 190.056 141.328 189.669 140.965 189.46L102.865 167.463C102.597 167.307 102.278 167.266 101.975 167.346C101.674 167.428 101.418 167.625 101.264 167.894C99.1068 171.657 97.9192 175.693 97.9192 179.259L97.9223 204.073C97.9223 204.491 98.1448 204.878 98.5076 205.087L107.369 210.2C107.55 210.306 107.751 210.357 107.954 210.357ZM138.038 190.474L107.954 207.834L100.264 203.396L100.261 179.259C100.261 176.413 101.133 173.194 102.734 170.091L138.038 190.474Z" fill="#1F0D26"/>
<path d="M107.951 184.375C107.955 177.322 112.915 168.745 119.038 165.217L247.946 90.7893C254.069 87.2523 259.024 90.1062 259.024 97.1559L259.03 121.97L107.954 209.187L107.951 184.375Z" fill="#FF672F"/>
<path d="M107.954 210.358C108.157 210.358 108.358 210.306 108.54 210.201L259.615 122.985C259.978 122.776 260.201 122.388 260.201 121.971L260.195 97.1563C260.195 93.3142 258.838 90.4145 256.374 88.992C253.901 87.5695 250.702 87.8455 247.36 89.7756L118.452 164.204C112.02 167.91 106.783 176.958 106.78 184.376L106.783 209.187C106.783 209.605 107.006 209.992 107.369 210.201C107.55 210.306 107.751 210.358 107.954 210.358ZM257.859 121.295L109.125 207.159L109.122 184.376C109.125 177.705 113.836 169.567 119.622 166.231L248.532 91.8034C251.117 90.3107 253.483 90.0302 255.203 91.0211C256.912 92.0076 257.853 94.1862 257.853 97.1561L257.859 121.295Z" fill="#1F0D26"/>
<path d="M175.741 151.267C175.741 156.738 179.586 158.948 184.334 156.207L214.164 138.982C218.915 136.241 222.76 129.581 222.76 124.117C222.76 118.644 218.915 116.43 214.164 119.171L184.336 136.393C179.586 139.138 175.744 145.791 175.741 151.267Z" fill="white"/>
<path d="M180.485 158.559C181.87 158.559 183.378 158.111 184.919 157.221L214.749 139.996C219.898 137.026 223.93 130.051 223.93 124.117C223.93 121.037 222.831 118.706 220.834 117.552C218.835 116.398 216.259 116.608 213.578 118.157L183.751 135.379C178.606 138.351 174.573 145.33 174.57 151.267C174.57 154.345 175.669 156.675 177.665 157.826C178.514 158.317 179.465 158.559 180.485 158.559ZM218.004 119.162C218.62 119.162 219.18 119.301 219.663 119.581C220.904 120.298 221.589 121.909 221.589 124.117C221.589 129.206 217.995 135.419 213.579 137.968L183.748 155.193C181.827 156.303 180.082 156.515 178.836 155.798C177.595 155.081 176.912 153.473 176.912 151.267C176.915 146.175 180.509 139.958 184.922 137.407L214.75 120.185C215.925 119.507 217.035 119.162 218.004 119.162Z" fill="#1F0D26"/>
<path d="M183.644 151.112C184.303 151.112 185.006 150.909 185.698 150.508C187.851 149.264 189.539 146.343 189.539 143.858C189.539 142.443 188.979 141.307 188.002 140.743C187.021 140.177 185.753 140.26 184.523 140.972C182.365 142.214 180.675 145.138 180.675 147.627C180.675 149.041 181.235 150.177 182.216 150.741C182.646 150.988 183.131 151.112 183.644 151.112ZM186.566 142.71C186.671 142.71 186.761 142.729 186.831 142.771C187.057 142.902 187.197 143.318 187.197 143.858C187.197 145.527 185.974 147.645 184.526 148.482C184.052 148.758 183.609 148.849 183.385 148.712C183.158 148.581 183.016 148.165 183.016 147.627C183.016 145.983 184.267 143.821 185.692 142.999C186.021 142.81 186.331 142.71 186.566 142.71Z" fill="#1F0D26"/>
<path d="M189.894 149.66C190.301 149.66 190.694 149.448 190.911 149.072C191.232 148.511 191.039 147.796 190.478 147.474L187.992 146.05C187.428 145.727 186.716 145.925 186.395 146.483C186.073 147.044 186.267 147.759 186.828 148.081L189.313 149.505C189.497 149.61 189.697 149.66 189.894 149.66Z" fill="#1F0D26"/>
<path d="M241.172 121.278C241.578 121.278 241.971 121.069 242.188 120.693L247.935 110.752C248.091 110.484 248.134 110.164 248.053 109.863C247.972 109.563 247.775 109.307 247.505 109.151L241.758 105.849C241.194 105.528 240.482 105.72 240.158 106.281C239.837 106.842 240.03 107.558 240.59 107.88L245.321 110.597L240.16 119.522C239.837 120.081 240.027 120.798 240.588 121.121C240.773 121.228 240.974 121.278 241.172 121.278Z" fill="#1F0D26"/>
<path d="M235.635 117.854C235.833 117.854 236.034 117.804 236.219 117.697L247.507 111.181C248.066 110.857 248.259 110.141 247.935 109.581C247.612 109.023 246.9 108.828 246.336 109.153L235.048 115.669C234.488 115.992 234.296 116.709 234.619 117.268C234.836 117.644 235.229 117.854 235.635 117.854Z" fill="#1F0D26"/>
<path d="M150.995 166.72C151.193 166.72 151.395 166.67 151.579 166.563L162.864 160.047C163.424 159.724 163.616 159.007 163.293 158.448C162.97 157.888 162.256 157.695 161.693 158.019L150.408 164.536C149.849 164.859 149.657 165.575 149.98 166.135C150.196 166.51 150.59 166.72 150.995 166.72Z" fill="#1F0D26"/>
<path d="M156.641 169.965C157.289 169.965 157.812 169.44 157.812 168.794L157.806 155.786C157.806 155.14 157.281 154.615 156.635 154.615C155.987 154.615 155.464 155.14 155.464 155.786L155.47 168.794C155.47 169.44 155.994 169.965 156.641 169.965Z" fill="#1F0D26"/>
<path d="M127.875 186.571C128.077 186.571 128.279 186.519 128.46 186.414L138.8 180.443C139.163 180.234 139.385 179.847 139.385 179.43V170.724C139.385 170.306 139.163 169.919 138.8 169.71C138.437 169.504 137.992 169.5 137.629 169.71L127.286 175.674C126.923 175.883 126.701 176.271 126.701 176.688L126.704 185.4C126.704 185.819 126.928 186.205 127.289 186.414C127.471 186.519 127.672 186.571 127.875 186.571ZM137.044 178.754L129.046 183.372L129.043 177.365L137.044 172.75V178.754Z" fill="#1F0D26"/>
<path d="M124.087 184.461C124.29 184.461 124.491 184.409 124.673 184.304L128.457 182.118C129.017 181.794 129.209 181.078 128.885 180.518C128.565 179.959 127.847 179.764 127.286 180.09L125.26 181.261L125.265 175.255L133.263 170.637L133.26 172.903C133.258 173.549 133.782 174.074 134.429 174.076H134.43C135.077 174.076 135.6 173.553 135.601 172.906L135.607 168.61C135.607 168.192 135.385 167.805 135.022 167.594C134.662 167.384 134.214 167.384 133.851 167.594L123.508 173.565C123.147 173.773 122.923 174.159 122.923 174.577L122.917 183.289C122.917 183.708 123.139 184.095 123.502 184.304C123.684 184.409 123.885 184.461 124.087 184.461Z" fill="#1F0D26"/>
<path d="M202.68 214.388L241.265 192.108C249.995 187.07 264.158 187.076 272.897 192.12C277.328 194.669 279.502 198.032 279.447 201.383H279.459V258.266L279.45 258.269C279.426 261.556 277.252 264.828 272.916 267.331L234.331 289.609C225.598 294.649 211.435 294.646 202.699 289.597C198.296 287.063 196.116 283.73 196.143 280.4H196.137V223.518C196.131 220.209 198.314 216.91 202.68 214.388Z" fill="#FF672F"/>
<path d="M218.529 294.533C224.464 294.533 230.398 293.231 234.917 290.624L273.501 268.347C278.005 265.746 280.527 262.23 280.618 258.428C280.626 258.376 280.63 258.321 280.63 258.266V201.383C280.63 201.328 280.627 201.274 280.619 201.22C280.604 197.336 278.076 193.75 273.481 191.104C264.436 185.884 249.719 185.877 240.68 191.094L202.095 213.374C197.491 216.033 194.958 219.636 194.966 223.519V280.4C194.966 280.44 194.968 280.479 194.972 280.519C194.995 284.392 197.527 287.971 202.115 290.612C206.638 293.225 212.584 294.533 218.529 294.533ZM278.289 258.124C278.282 258.169 278.279 258.214 278.279 258.26C278.257 261.255 276.145 264.115 272.331 266.316L233.746 288.593C225.342 293.448 211.679 293.433 203.284 288.584C199.409 286.352 197.29 283.449 197.314 280.409C197.314 280.367 197.313 280.324 197.308 280.281V223.517C197.302 220.505 199.418 217.625 203.266 215.402L241.851 193.121C250.245 188.276 263.908 188.282 272.312 193.134C276.209 195.376 278.327 198.299 278.276 201.363C278.275 201.427 278.279 201.49 278.288 201.552L278.289 258.124Z" fill="#1F0D26"/>
<path d="M196.143 280.401H196.137V223.518C196.131 220.21 198.314 216.91 202.68 214.389L207.193 211.782V291.558C205.602 291.009 204.065 290.39 202.699 289.597C198.296 287.063 196.116 283.731 196.143 280.401Z" fill="#1F0D26"/>
<path d="M207.193 292.728C207.434 292.728 207.672 292.655 207.873 292.512C208.181 292.293 208.364 291.936 208.364 291.558V211.781C208.364 211.364 208.142 210.976 207.779 210.768C207.416 210.557 206.971 210.557 206.608 210.768L202.095 213.375C197.491 216.034 194.958 219.636 194.966 223.519V280.401C194.966 280.44 194.968 280.48 194.972 280.52C194.997 284.392 197.527 287.972 202.115 290.612C203.368 291.338 204.862 291.994 206.812 292.664C206.936 292.707 207.065 292.728 207.193 292.728ZM206.022 213.811V289.881C204.952 289.457 204.062 289.033 203.286 288.585C199.409 286.353 197.29 283.45 197.314 280.41C197.314 280.367 197.312 280.324 197.308 280.282V223.518C197.302 220.505 199.418 217.625 203.266 215.402L206.022 213.811Z" fill="#1F0D26"/>
<path d="M234.331 232.656C225.598 237.693 211.435 237.693 202.699 232.647C193.954 227.604 193.948 219.429 202.68 214.388L241.265 192.108C249.995 187.07 264.158 187.076 272.897 192.12C281.639 197.16 281.643 205.341 272.916 210.379L234.331 232.656Z" fill="white"/>
<path d="M218.524 237.58C224.461 237.58 230.396 236.277 234.917 233.67L273.501 211.392C278.098 208.74 280.629 205.139 280.629 201.254C280.627 197.366 278.09 193.762 273.483 191.106C264.433 185.883 249.718 185.88 240.68 191.094L202.095 213.374C197.497 216.029 194.965 219.628 194.965 223.511C194.965 227.398 197.505 231.003 202.113 233.661C206.637 236.274 212.581 237.58 218.524 237.58ZM233.746 231.642C225.347 236.487 211.683 236.484 203.284 231.633C199.43 229.41 197.306 226.526 197.306 223.51C197.306 220.5 199.422 217.62 203.266 215.402L241.851 193.122C250.245 188.276 263.909 188.282 272.312 193.134C276.165 195.355 278.286 198.24 278.287 201.255C278.287 204.266 276.172 207.146 272.33 209.364L233.746 231.642Z" fill="#1F0D26"/>
<path d="M217.076 227.454C221.006 227.454 224.196 224.267 224.196 220.334V196.163C224.196 185.055 232.331 170.976 241.966 165.415C245.272 163.506 248.248 162.945 249.934 163.915C251.611 164.884 252.614 167.735 252.614 171.538V197.154C252.614 201.084 255.798 204.271 259.731 204.271C263.664 204.271 266.851 201.084 266.851 197.154V171.538C266.851 162.454 263.28 155.182 257.054 151.587C250.818 147.983 242.728 148.534 234.846 153.084C220.89 161.14 209.956 180.063 209.956 196.163V220.334C209.956 224.268 213.145 227.454 217.076 227.454Z" fill="#1F0D26"/>
<path d="M217.076 228.625C221.648 228.625 225.367 224.906 225.367 220.334V196.163C225.367 185.422 233.237 171.806 242.552 166.429C245.403 164.781 248.069 164.195 249.35 164.93C250.622 165.665 251.443 168.259 251.443 171.538V197.154C251.443 201.723 255.162 205.442 259.731 205.442C264.303 205.442 268.022 201.723 268.022 197.154V171.538C268.022 162.024 264.238 154.383 257.639 150.573C251.036 146.759 242.516 147.306 234.261 152.07C219.975 160.317 208.785 179.684 208.785 196.163V220.334C208.785 224.906 212.504 228.625 217.076 228.625ZM247.926 162.279C246.069 162.279 243.81 162.999 241.381 164.401C231.432 170.145 223.025 184.689 223.025 196.163V220.334C223.025 223.615 220.357 226.283 217.076 226.283C213.795 226.283 211.127 223.615 211.127 220.334V196.163C211.127 180.443 221.804 161.965 235.432 154.098C242.945 149.76 250.616 149.215 256.469 152.601C262.323 155.981 265.68 162.883 265.68 171.538V197.154C265.68 200.432 263.012 203.1 259.731 203.1C256.453 203.1 253.785 200.432 253.785 197.154V171.538C253.785 167.249 252.595 164.101 250.52 162.901C249.795 162.483 248.917 162.279 247.926 162.279Z" fill="#1F0D26"/>
<path d="M246.726 251.177C246.729 246.786 249.815 241.444 253.621 239.249C257.426 237.05 260.515 238.828 260.515 243.216C260.515 245.816 259.426 248.725 257.755 251.137C257.767 251.293 257.798 251.43 257.798 251.588V253.887C257.798 256.543 255.926 259.782 253.621 261.114C251.312 262.446 249.443 261.364 249.443 258.708L249.446 256.415C249.449 256.251 249.474 256.083 249.486 255.912C247.821 255.424 246.726 253.775 246.726 251.177Z" fill="#1F0D26"/>
<path d="M251.753 262.861C252.529 262.861 253.363 262.614 254.206 262.129C256.877 260.583 258.969 256.964 258.969 253.887V251.588C258.969 251.57 258.966 251.512 258.96 251.445C260.696 248.809 261.686 245.832 261.686 243.215C261.686 240.66 260.762 238.718 259.083 237.75C257.4 236.777 255.253 236.952 253.035 238.235C248.844 240.653 245.558 246.336 245.555 251.175C245.555 251.177 245.555 251.177 245.555 251.177C245.555 253.769 246.556 255.754 248.275 256.676L248.272 258.705C248.272 260.404 248.931 261.758 250.08 262.419C250.588 262.715 251.154 262.861 251.753 262.861ZM256.697 239.474C257.15 239.474 257.56 239.575 257.912 239.779C258.836 240.311 259.344 241.532 259.344 243.215C259.344 245.452 258.389 248.164 256.793 250.471C256.639 250.692 256.567 250.96 256.587 251.229L257.798 251.588H256.627V253.887C256.627 256.13 254.982 258.974 253.035 260.102C252.309 260.516 251.66 260.629 251.251 260.391C250.846 260.16 250.614 259.544 250.614 258.708L250.617 256.417C250.618 256.406 250.653 256.006 250.653 255.996C250.693 255.445 250.344 254.944 249.815 254.788C248.597 254.432 247.897 253.114 247.897 251.177C247.9 247.232 250.789 242.233 254.206 240.262C255.112 239.739 255.961 239.474 256.697 239.474Z" fill="#1F0D26"/>
<path d="M252.864 251.04V248.744C252.864 248.582 252.837 248.445 252.822 248.29C254.493 245.878 255.584 242.969 255.584 240.368C255.584 239.682 255.487 239.087 255.344 238.535C258.31 237.709 260.515 239.517 260.515 243.216C260.515 245.817 259.426 248.726 257.755 251.138C257.768 251.293 257.798 251.43 257.798 251.589V253.888C257.798 256.544 255.926 259.782 253.621 261.115C251.312 262.447 249.443 261.365 249.443 258.709L249.446 257.654C251.376 256.114 252.864 253.388 252.864 251.04Z" fill="white"/>
<path d="M251.753 262.862C252.529 262.862 253.363 262.615 254.206 262.13C256.877 260.584 258.969 256.965 258.969 253.888V251.589C258.969 251.57 258.966 251.513 258.96 251.445C260.696 248.81 261.686 245.832 261.686 243.216C261.686 240.952 260.933 239.133 259.563 238.095C258.356 237.174 256.745 236.93 255.029 237.407C254.413 237.579 254.049 238.212 254.211 238.829C254.349 239.363 254.413 239.852 254.413 240.368C254.413 242.635 253.482 245.28 251.86 247.623C251.701 247.85 251.629 248.128 251.657 248.404L252.864 248.744H251.693V251.04C251.693 252.965 250.442 255.362 248.716 256.739C248.438 256.96 248.277 257.295 248.275 257.65L248.272 258.705C248.272 260.404 248.931 261.758 250.08 262.419C250.588 262.715 251.154 262.862 251.753 262.862ZM256.709 239.509C257.196 239.509 257.705 239.624 258.147 239.959C258.918 240.545 259.344 241.702 259.344 243.216C259.344 245.452 258.389 248.164 256.793 250.471C256.639 250.692 256.567 250.96 256.587 251.229L257.798 251.589H256.627V253.888C256.627 256.13 254.982 258.974 253.035 260.102C252.309 260.517 251.66 260.629 251.251 260.392C250.846 260.16 250.614 259.544 250.614 258.708L250.615 258.195C252.651 256.351 254.035 253.488 254.035 251.04V248.744C254.035 248.692 254.034 248.64 254.03 248.591C255.765 245.954 256.755 242.979 256.755 240.368C256.755 240.079 256.74 239.795 256.709 239.509Z" fill="#1F0D26"/>
<path d="M89.104 238.032L136.297 210.784C138.516 209.504 140.526 209.366 142.008 210.162L142.017 210.144L147.527 213.324C149.015 214.181 149.936 216.017 149.936 218.633V247.716C149.936 252.952 146.249 259.325 141.703 261.95L94.5134 289.192C92.2906 290.478 90.2841 290.61 88.805 289.82L88.796 289.835L88.6986 289.78C88.6954 289.777 88.6923 289.777 88.6893 289.774L83.289 286.658C81.7981 285.801 80.8742 283.963 80.8742 281.343V252.263C80.8744 247.033 84.5609 240.655 89.104 238.032Z" fill="#FF672F"/>
<path d="M90.8513 291.485C92.1854 291.485 93.6321 291.055 95.1004 290.204L142.288 262.965C147.233 260.108 151.106 253.411 151.106 247.716V218.633C151.106 215.668 150.042 213.422 148.111 212.309L142.602 209.13C142.52 209.081 142.432 209.045 142.342 209.019C140.456 208.121 138.117 208.382 135.711 209.771L88.5187 237.018C83.576 239.871 79.7035 246.567 79.7035 252.263V281.343C79.7035 284.313 80.7692 286.56 82.7055 287.673L88.1041 290.789C88.1711 290.826 88.2412 290.86 88.3144 290.884C89.0889 291.286 89.9441 291.485 90.8513 291.485ZM141.621 211.268L146.941 214.338C148.118 215.015 148.765 216.541 148.765 218.633V247.716C148.765 252.57 145.334 258.501 141.117 260.934L93.928 288.176C92.161 289.2 90.5403 289.42 89.3573 288.786C89.307 288.761 89.2566 288.737 89.2049 288.719L83.8748 285.642C82.6947 284.965 82.0453 283.437 82.0453 281.342V252.262C82.0453 247.49 85.5458 241.438 89.6896 239.046L136.882 211.798C138.652 210.775 140.274 210.564 141.454 211.195C141.508 211.224 141.564 211.248 141.621 211.268Z" fill="#1F0D26"/>
<path d="M88.8052 289.82L88.7962 289.835L88.6987 289.781C88.6955 289.777 88.6925 289.777 88.6894 289.774L83.2892 286.658C81.7983 285.801 80.8744 283.963 80.8744 281.343V252.263C80.8744 249.836 81.6915 247.174 82.9967 244.741L127.253 270.293L94.5137 289.192C92.2907 290.479 90.2842 290.61 88.8052 289.82Z" fill="#1F0D26"/>
<path d="M90.8513 291.485C92.1854 291.485 93.6321 291.055 95.1003 290.204L127.838 271.308C128.201 271.098 128.424 270.71 128.424 270.293C128.424 269.875 128.201 269.488 127.838 269.277L83.582 243.726C83.3091 243.566 82.9814 243.528 82.6765 243.614C82.3716 243.701 82.1139 243.908 81.9646 244.187C80.5071 246.905 79.7035 249.773 79.7035 252.263V281.343C79.7035 284.313 80.7692 286.56 82.7054 287.673L88.104 290.789C88.1711 290.826 88.2412 290.86 88.3144 290.884C89.0889 291.287 89.9441 291.485 90.8513 291.485ZM124.911 270.293L93.928 288.176C92.1595 289.201 90.5357 289.42 89.3573 288.786C89.3069 288.762 89.2566 288.737 89.2048 288.719L83.8747 285.642C82.6947 284.965 82.0453 283.438 82.0453 281.343V252.263C82.0453 250.471 82.553 248.416 83.4891 246.378L124.911 270.293Z" fill="#1F0D26"/>
<path d="M94.5136 241.154L141.703 213.907C146.249 211.285 149.936 213.401 149.936 218.633V247.716C149.936 252.952 146.249 259.325 141.703 261.95L94.5136 289.192C89.9702 291.82 86.2837 289.701 86.2837 284.465L86.2805 255.385C86.2837 250.156 89.9702 243.777 94.5136 241.154Z" fill="white"/>
<path d="M90.827 291.497C92.1626 291.497 93.6156 291.064 95.1004 290.204L142.288 262.966C147.233 260.109 151.106 253.411 151.106 247.717V218.633C151.106 215.672 150.045 213.428 148.118 212.315C146.184 211.198 143.701 211.404 141.117 212.893L93.9279 240.141C88.9866 242.993 85.1127 249.689 85.1097 255.385L85.1127 284.465C85.1127 287.429 86.1754 289.676 88.1039 290.789C88.9242 291.262 89.8436 291.497 90.827 291.497ZM145.38 213.95C145.962 213.95 146.49 214.079 146.947 214.343C148.12 215.02 148.765 216.545 148.765 218.633V247.716C148.765 252.571 145.334 258.501 141.117 260.935L93.9279 288.176C92.1044 289.234 90.4533 289.445 89.2732 288.759C88.1009 288.082 87.4544 286.557 87.4544 284.465L87.4513 255.385C87.4544 250.529 90.8848 244.6 95.0986 242.168L142.288 214.921C143.406 214.276 144.461 213.95 145.38 213.95Z" fill="#1F0D26"/>
<path d="M111.319 264.228C111.517 264.228 111.719 264.176 111.903 264.072L136.94 249.617C137.5 249.294 137.692 248.577 137.368 248.018C137.047 247.46 136.332 247.266 135.769 247.59L110.732 262.041C110.173 262.364 109.98 263.081 110.304 263.642C110.52 264.017 110.914 264.228 111.319 264.228ZM99.8634 263.255C100.061 263.255 100.263 263.203 100.447 263.099L136.94 242.034C137.5 241.711 137.692 240.994 137.368 240.435C137.047 239.877 136.332 239.682 135.769 240.006L99.2764 261.069C98.7169 261.392 98.5247 262.109 98.8479 262.669C99.0644 263.045 99.4578 263.255 99.8634 263.255ZM99.8664 255.675C100.065 255.675 100.266 255.624 100.45 255.518L136.94 234.445C137.5 234.121 137.692 233.405 137.368 232.845C137.047 232.287 136.332 232.094 135.769 232.417L99.2794 253.49C98.7199 253.813 98.5278 254.53 98.851 255.089C99.0675 255.464 99.4608 255.675 99.8664 255.675Z" fill="#1F0D26"/>
</svg>
