<svg width="155" height="52" viewBox="0 0 155 52" fill="none" xmlns="http://www.w3.org/2000/svg">
<g clip-path="url(#clip0_488_855)">
<path d="M12.581 36.2123H20.1156V15.6317H28.2593V9.68164H4.39941V15.6317H12.581V36.2123Z" fill="#003399"/>
<path d="M36.5177 18.1357V15.6718H29.6301V36.2146H36.8604V26.777C36.8604 23.1765 38.8772 21.6981 41.8077 21.6981C42.3401 21.6981 42.7968 21.7362 43.4438 21.8119V15.3311C40.3994 15.3311 38.002 16.2786 36.5177 18.1357Z" fill="#003399"/>
<path d="M60.4869 15.6699V25.5625C60.4869 29.0114 58.7366 30.4136 56.6056 30.4136C54.4363 30.4136 53.1804 29.1628 53.1804 25.9791V15.6699H45.9506V27.1542C45.9506 33.673 49.6416 36.5534 54.7027 36.5534C57.0623 36.5534 59.2693 35.7198 60.8293 34.0145V36.2126H67.7173V15.6699H60.4869Z" fill="#003399"/>
<path d="M79.6734 36.5552C86.3707 36.5552 89.8713 33.5992 89.8713 29.8092C89.8713 21.6604 77.7327 24.7306 77.7327 21.8876C77.7327 21.1298 78.6075 20.4476 81.0431 20.4476C82.8696 20.4476 84.9245 20.8268 86.9798 21.9634L89.1487 17.0745C87.0942 15.937 83.8968 15.3311 81.005 15.3311C74.5359 15.3311 70.9586 18.2872 70.9586 22.1529C70.9586 30.3778 83.1363 27.2318 83.1363 29.9986C83.1363 30.8704 82.3369 31.401 79.9016 31.401C77.3899 31.401 74.6119 30.6808 72.709 29.5057L70.5403 34.4331C72.557 35.6839 76.1723 36.5552 79.6734 36.5552Z" fill="#003399"/>
<path d="M132.735 15.3311C130.148 15.3311 127.827 16.2023 126.19 17.9081V15.6718H119.302V36.2146H126.533V26.2844C126.533 22.8732 128.321 21.4327 130.643 21.4327C132.735 21.4327 134.029 22.6839 134.029 25.64V36.2146H141.259V24.4649C141.259 18.0976 137.569 15.3311 132.735 15.3311Z" fill="#003399"/>
<path fill-rule="evenodd" clip-rule="evenodd" d="M93.9964 11.3105H100.961V16.3494H107.184L114.12 21.9867H100.961V29.1097C100.966 30.7555 103.445 31.1798 105.53 30.1351V35.3587C100.247 37.9252 93.7456 36.3804 93.9964 29.1097V21.9867H91.6339V16.3494H93.9964V11.3105Z" fill="#003399"/>
<path fill-rule="evenodd" clip-rule="evenodd" d="M107.328 11.3105H114.123V16.9482L107.328 11.3105Z" fill="#FF6600"/>
<path fill-rule="evenodd" clip-rule="evenodd" d="M107.075 21.9883H114.123V26.8757L107.075 21.9883Z" fill="#001F5C"/>
<path fill-rule="evenodd" clip-rule="evenodd" d="M107.075 21.9883L114.123 26.8757V36.1125H107.075V21.9883Z" fill="#003399"/>
<path d="M141.1 13.6186V6.80887H138.682V5.33984H145.273V6.80887H142.522L142.522 13.6186H141.1Z" fill="#4A4A4A"/>
<path d="M146.364 13.6186V5.33984H148.152L149.986 11.2016C150.172 11.7456 150.301 12.1617 150.383 12.4272C150.486 12.1274 150.626 11.6878 150.824 11.0983L152.672 5.33984H154.137V13.6184H153.197V6.80887L151.332 13.6184H149.468L147.603 6.80887V13.6184L146.364 13.6186Z" fill="#4A4A4A"/>
</g>
<defs>
<clipPath id="clip0_488_855">
<rect width="154.143" height="52" fill="white"/>
</clipPath>
</defs>
</svg>
