<svg
  width="12"
  height="12"
  viewBox="0 0 12 13"
  xmlns="http://www.w3.org/2000/svg"
   className="hover-svgs ms-2"
>
  <g clipPath="url(#clip0_258_1551)">
    <path
      d="M10.1681 6.84146C10.2618 6.7477 10.3145 6.62055 10.3145 6.48796C10.3145 6.35538 10.2618 6.22823 10.1681 6.13446L7.33956 3.30596C7.29344 3.25821 7.23826 3.22012 7.17726 3.19391C7.11626 3.16771 7.05065 3.15392 6.98426 3.15334C6.91787 3.15276 6.85203 3.16541 6.79058 3.19055C6.72913 3.21569 6.67331 3.25282 6.62636 3.29977C6.57942 3.34671 6.54229 3.40254 6.51715 3.46399C6.49201 3.52544 6.47936 3.59128 6.47993 3.65766C6.48051 3.72405 6.4943 3.78966 6.52051 3.85067C6.54671 3.91167 6.5848 3.96684 6.63256 4.01296L8.60756 5.98796L1.98606 5.98796C1.85345 5.98796 1.72627 6.04064 1.63251 6.13441C1.53874 6.22818 1.48606 6.35536 1.48606 6.48796C1.48606 6.62057 1.53874 6.74775 1.63251 6.84152C1.72627 6.93529 1.85345 6.98796 1.98606 6.98796L8.60756 6.98796L6.63256 8.96297C6.54148 9.05727 6.49108 9.18357 6.49222 9.31467C6.49336 9.44576 6.54595 9.57117 6.63865 9.66387C6.73135 9.75658 6.85676 9.80916 6.98786 9.8103C7.11896 9.81144 7.24526 9.76104 7.33956 9.66997L10.1681 6.84146Z"
      fill="#000"
      className="svg-paths"
    />
  </g>
  <defs>
    <clipPath id="clip0_258_1551">
      <rect width="12" height="12" fill="white" transform="translate(12 0.5) rotate(90)"/>
    </clipPath>
  </defs>
</svg>
