<svg width="188" height="188" viewBox="0 0 188 188" fill="none" xmlns="http://www.w3.org/2000/svg">
<path d="M159.253 130.176C159.246 127.472 157.457 124.768 153.881 122.704C146.725 118.573 135.132 118.567 127.984 122.696C124.408 124.76 122.623 127.468 122.629 130.176V136.22C122.629 136.221 122.629 136.222 122.629 136.225V136.229C122.635 138.933 124.425 141.637 127.999 143.701C135.156 147.834 146.752 147.836 153.898 143.709C157.474 141.645 159.258 138.937 159.253 136.229L159.253 130.176Z" fill="#FF8744"/>
<path d="M140.965 147.335C136.171 147.335 131.379 146.28 127.729 144.173C124.096 142.075 122.092 139.254 122.086 136.231V130.176C122.08 127.147 124.078 124.323 127.713 122.224C134.997 118.018 146.86 118.022 154.155 122.233C157.787 124.329 159.791 127.15 159.799 130.174V130.176V136.23C159.803 139.259 157.806 142.083 154.172 144.182C150.531 146.283 145.748 147.335 140.965 147.335ZM140.919 120.145C136.331 120.145 131.746 121.152 128.257 123.168C124.974 125.062 123.169 127.552 123.175 130.174V136.22C123.18 138.848 124.991 141.333 128.273 143.229C135.268 147.269 146.641 147.272 153.628 143.237C156.91 141.343 158.715 138.855 158.71 136.231V130.177C158.703 127.557 156.893 125.071 153.611 123.176C150.11 121.156 145.513 120.145 140.919 120.145Z" fill="#113958"/>
<path d="M159.254 136.23V130.176C159.246 127.473 157.457 124.769 153.882 122.705C152.49 121.902 150.927 121.259 149.266 120.767V145.651C150.933 145.159 152.504 144.517 153.899 143.71C157.474 141.646 159.258 138.938 159.254 136.23Z" fill="#113958"/>
<path d="M149.267 146.195C149.151 146.195 149.036 146.158 148.941 146.087C148.803 145.984 148.723 145.822 148.723 145.651V120.767C148.723 120.595 148.803 120.433 148.941 120.331C149.078 120.226 149.257 120.195 149.422 120.245C151.172 120.763 152.766 121.432 154.155 122.233C157.788 124.329 159.791 127.151 159.799 130.175V136.228C159.804 139.259 157.806 142.084 154.173 144.182C152.792 144.98 151.192 145.651 149.422 146.172C149.371 146.188 149.318 146.195 149.267 146.195ZM149.812 121.507V144.912C151.222 144.45 152.504 143.888 153.628 143.239C156.91 141.344 158.715 138.855 158.711 136.231C158.711 136.23 158.711 136.23 158.711 136.23V130.176C158.704 127.557 156.893 125.071 153.611 123.177C152.483 122.525 151.207 121.965 149.812 121.507Z" fill="#113958"/>
<path d="M153.9 137.656C161.045 133.53 161.039 126.836 153.883 122.704C146.726 118.573 135.133 118.567 127.985 122.696C120.838 126.823 120.844 133.516 128.001 137.647C135.157 141.78 146.753 141.783 153.9 137.656Z" fill="white"/>
<path d="M140.966 141.281C136.174 141.281 131.381 140.226 127.73 138.119C124.091 136.018 122.086 133.193 122.086 130.164C122.086 127.14 124.085 124.321 127.714 122.224C134.999 118.018 146.861 118.022 154.157 122.233C157.796 124.333 159.801 127.159 159.801 130.189C159.801 133.213 157.803 136.032 154.174 138.128C150.533 140.229 145.751 141.281 140.966 141.281ZM140.92 120.145C136.333 120.145 131.748 121.152 128.259 123.168C124.98 125.061 123.175 127.546 123.175 130.164C123.175 132.787 124.987 135.278 128.274 137.175C135.27 141.216 146.643 141.218 153.629 137.184C156.907 135.292 158.712 132.807 158.712 130.188C158.712 127.564 156.9 125.075 153.612 123.176C150.112 121.156 145.514 120.145 140.92 120.145Z" fill="#113958"/>
<path d="M141.656 147.34C141.355 147.34 141.111 147.096 141.111 146.795V140.741C141.111 140.441 141.355 140.197 141.656 140.197C141.956 140.197 142.2 140.441 142.2 140.741V146.795C142.2 147.096 141.956 147.34 141.656 147.34ZM137.851 147.194C137.55 147.194 137.306 146.95 137.306 146.649V140.595C137.306 140.295 137.55 140.051 137.851 140.051C138.151 140.051 138.395 140.295 138.395 140.595V146.649C138.395 146.95 138.151 147.194 137.851 147.194ZM145.461 147.025C145.161 147.025 144.917 146.781 144.917 146.48V140.427C144.917 140.126 145.161 139.882 145.461 139.882C145.762 139.882 146.006 140.126 146.006 140.427V146.48C146.005 146.781 145.762 147.025 145.461 147.025ZM134.046 146.567C133.745 146.567 133.501 146.323 133.501 146.022V139.969C133.501 139.668 133.745 139.424 134.046 139.424C134.346 139.424 134.59 139.668 134.59 139.969V146.022C134.59 146.323 134.346 146.567 134.046 146.567ZM130.24 145.348C129.94 145.348 129.696 145.104 129.696 144.803V138.749C129.696 138.449 129.94 138.205 130.24 138.205C130.541 138.205 130.785 138.449 130.785 138.749V144.803C130.785 145.104 130.541 145.348 130.24 145.348ZM126.435 143.214C126.134 143.214 125.891 142.97 125.891 142.669V136.616C125.891 136.315 126.134 136.071 126.435 136.071C126.736 136.071 126.979 136.315 126.979 136.616V142.669C126.979 142.97 126.736 143.214 126.435 143.214Z" fill="#113958"/>
<path d="M153.445 120.015C153.438 117.311 151.648 114.607 148.073 112.543C140.916 108.412 129.323 108.406 122.175 112.534C118.599 114.599 116.815 117.307 116.82 120.015V126.058C116.82 126.06 116.82 126.061 116.82 126.064V126.068C116.826 128.772 118.617 131.475 122.191 133.54C129.347 137.673 140.943 137.675 148.09 133.548C151.665 131.484 153.449 128.776 153.445 126.068V120.015Z" fill="#FF8744"/>
<path d="M135.156 137.173C130.363 137.173 125.571 136.118 121.92 134.012C118.288 131.913 116.283 129.092 116.277 126.069V120.014C116.272 116.986 118.269 114.161 121.904 112.063C129.187 107.856 141.049 107.859 148.347 112.071C151.979 114.168 153.982 116.988 153.991 120.013C153.991 120.013 153.991 120.013 153.991 120.014V126.068C153.995 129.098 151.997 131.922 148.364 134.02C144.723 136.121 139.939 137.173 135.156 137.173ZM135.111 109.983C130.523 109.983 125.938 110.99 122.449 113.006C119.165 114.901 117.36 117.39 117.366 120.013V126.058C117.372 128.687 119.182 131.172 122.464 133.067C129.459 137.108 140.833 137.111 147.819 133.076C151.101 131.182 152.906 128.694 152.902 126.069V120.016C152.895 117.395 151.084 114.909 147.802 113.014C144.302 110.994 139.704 109.983 135.111 109.983Z" fill="#113958"/>
<path d="M153.445 126.069V120.015C153.438 117.311 151.649 114.608 148.073 112.544C146.681 111.741 145.119 111.097 143.457 110.605V135.49C145.124 134.998 146.695 134.355 148.09 133.549C151.666 131.485 153.449 128.777 153.445 126.069Z" fill="#113958"/>
<path d="M143.458 136.033C143.342 136.033 143.227 135.997 143.132 135.926C142.995 135.822 142.914 135.661 142.914 135.489V110.605C142.914 110.433 142.995 110.272 143.132 110.169C143.27 110.065 143.45 110.032 143.613 110.083C145.364 110.601 146.957 111.271 148.347 112.071C151.979 114.168 153.982 116.988 153.991 120.013V126.067C153.995 129.098 151.997 131.922 148.364 134.02C146.983 134.818 145.384 135.489 143.613 136.011C143.562 136.026 143.509 136.033 143.458 136.033ZM144.003 111.345V134.75C145.413 134.288 146.695 133.727 147.819 133.077C151.101 131.182 152.906 128.694 152.902 126.07C152.902 126.068 152.902 126.068 152.902 126.068V120.014C152.895 117.395 151.084 114.909 147.802 113.014C146.674 112.364 145.398 111.804 144.003 111.345Z" fill="#113958"/>
<path d="M148.091 127.494C155.237 123.369 155.231 116.674 148.074 112.543C140.917 108.412 129.325 108.406 122.176 112.534C115.03 116.662 115.035 123.355 122.192 127.486C129.349 131.619 140.944 131.622 148.091 127.494Z" fill="white"/>
<path d="M135.157 131.119C130.365 131.119 125.572 130.065 121.921 127.958C118.282 125.857 116.277 123.031 116.277 120.003C116.277 116.979 118.276 114.159 121.906 112.063C129.189 107.856 141.051 107.859 148.348 112.071C151.987 114.172 153.992 116.997 153.992 120.027C153.992 123.051 151.994 125.871 148.365 127.966C144.724 130.068 139.942 131.119 135.157 131.119ZM135.112 109.983C130.524 109.983 125.939 110.99 122.45 113.006C119.171 114.899 117.366 117.384 117.366 120.003C117.366 122.626 119.178 125.117 122.466 127.014C129.461 131.054 140.834 131.059 147.821 127.022C151.098 125.131 152.903 122.646 152.903 120.027C152.903 117.403 151.091 114.913 147.804 113.014C144.303 110.994 139.705 109.983 135.112 109.983Z" fill="#113958"/>
<path d="M135.851 137.177C135.551 137.177 135.307 136.934 135.307 136.633V130.579C135.307 130.279 135.551 130.035 135.851 130.035C136.152 130.035 136.396 130.279 136.396 130.579V136.633C136.396 136.934 136.152 137.177 135.851 137.177ZM132.046 137.031C131.745 137.031 131.502 136.787 131.502 136.487V130.433C131.502 130.133 131.745 129.889 132.046 129.889C132.347 129.889 132.59 130.133 132.59 130.433V136.487C132.59 136.788 132.347 137.031 132.046 137.031ZM139.656 136.863C139.356 136.863 139.112 136.619 139.112 136.318V130.265C139.112 129.964 139.356 129.72 139.656 129.72C139.957 129.72 140.201 129.964 140.201 130.265V136.318C140.201 136.619 139.957 136.863 139.656 136.863ZM128.241 136.405C127.94 136.405 127.696 136.161 127.696 135.86V129.807C127.696 129.506 127.94 129.262 128.241 129.262C128.541 129.262 128.785 129.506 128.785 129.807V135.86C128.785 136.161 128.541 136.405 128.241 136.405ZM124.436 135.185C124.135 135.185 123.891 134.942 123.891 134.641V128.587C123.891 128.287 124.135 128.043 124.436 128.043C124.736 128.043 124.98 128.287 124.98 128.587V134.641C124.98 134.942 124.736 135.185 124.436 135.185ZM120.63 133.052C120.33 133.052 120.086 132.808 120.086 132.507V126.454C120.086 126.153 120.33 125.909 120.63 125.909C120.931 125.909 121.175 126.153 121.175 126.454V132.507C121.175 132.808 120.931 133.052 120.63 133.052Z" fill="#113958"/>
<path d="M159.253 111.304C159.246 108.6 157.457 105.896 153.881 103.832C146.725 99.7008 135.132 99.6952 127.984 103.824C124.408 105.888 122.623 108.596 122.629 111.304V117.347C122.629 117.349 122.629 117.35 122.629 117.353V117.357C122.635 120.061 124.425 122.765 127.999 124.829C135.156 128.962 146.752 128.964 153.898 124.837C157.474 122.773 159.258 120.065 159.253 117.357L159.253 111.304Z" fill="#FF8744"/>
<path d="M140.965 128.462C136.171 128.462 131.379 127.407 127.729 125.301C124.096 123.202 122.092 120.382 122.086 117.358V111.303C122.08 108.275 124.078 105.45 127.713 103.352C134.997 99.1455 146.86 99.1483 154.155 103.36C157.787 105.457 159.791 108.277 159.799 111.302C159.799 111.303 159.799 111.303 159.799 111.303V117.357C159.803 120.387 157.806 123.211 154.172 125.309C150.531 127.41 145.748 128.462 140.965 128.462ZM140.919 101.272C136.331 101.272 131.746 102.279 128.257 104.295C124.974 106.19 123.169 108.679 123.175 111.302V117.347C123.18 119.975 124.991 122.462 128.273 124.356C135.268 128.397 146.641 128.4 153.628 124.365C156.91 122.471 158.715 119.982 158.71 117.358V111.305C158.703 108.684 156.893 106.198 153.611 104.303C150.11 102.283 145.514 101.272 140.919 101.272Z" fill="#113958"/>
<path d="M159.254 117.357V111.303C159.246 108.6 157.457 105.896 153.882 103.832C152.49 103.029 150.927 102.386 149.266 101.894V126.778C150.933 126.286 152.504 125.643 153.899 124.837C157.474 122.773 159.258 120.065 159.254 117.357Z" fill="#113958"/>
<path d="M149.267 127.322C149.151 127.322 149.036 127.285 148.941 127.214C148.803 127.111 148.723 126.949 148.723 126.778V101.894C148.723 101.722 148.803 101.56 148.941 101.458C149.078 101.353 149.257 101.322 149.422 101.372C151.172 101.89 152.766 102.559 154.155 103.36C157.788 105.457 159.791 108.277 159.799 111.302V117.356C159.804 120.386 157.806 123.21 154.173 125.309C152.792 126.107 151.192 126.778 149.422 127.299C149.371 127.315 149.318 127.322 149.267 127.322ZM149.812 102.634V126.039C151.222 125.577 152.504 125.015 153.628 124.366C156.91 122.471 158.715 119.982 158.711 117.357V117.357V111.303C158.704 108.684 156.893 106.198 153.611 104.303C152.483 103.652 151.207 103.092 149.812 102.634Z" fill="#113958"/>
<path d="M153.9 118.784C161.045 114.658 161.039 107.964 153.883 103.832C146.726 99.7011 135.133 99.6955 127.985 103.824C120.838 107.951 120.844 114.644 128.001 118.775C135.157 122.908 146.753 122.911 153.9 118.784Z" fill="white"/>
<path d="M140.966 122.408C136.174 122.408 131.381 121.354 127.73 119.246C124.091 117.146 122.086 114.321 122.086 111.292C122.086 108.268 124.085 105.448 127.714 103.352C134.999 99.1457 146.861 99.1486 154.157 103.361C157.796 105.462 159.801 108.287 159.801 111.316C159.801 114.34 157.803 117.16 154.174 119.255C150.533 121.358 145.751 122.408 140.966 122.408ZM140.92 101.272C136.333 101.272 131.748 102.28 128.259 104.295C124.98 106.188 123.175 108.673 123.175 111.292C123.175 113.915 124.987 116.405 128.274 118.304C135.27 122.342 146.643 122.346 153.629 118.312C156.907 116.42 158.712 113.935 158.712 111.316C158.712 108.692 156.9 106.202 153.612 104.304C150.112 102.283 145.514 101.272 140.92 101.272Z" fill="#113958"/>
<path d="M139.587 113.55C140.097 113.257 140.361 112.937 140.375 112.588C140.391 112.242 140.167 111.77 139.704 111.172C138.77 110.085 138.277 109.164 138.226 108.41C138.176 107.653 138.72 106.947 139.86 106.286C140.911 105.681 142.113 105.379 143.461 105.386C144.811 105.391 146.127 105.696 147.411 106.3L149.411 105.147L150.897 106.005L148.87 107.175C149.837 107.915 150.278 108.673 150.194 109.456C150.112 110.24 149.485 110.957 148.314 111.614L148.248 111.628L145.582 110.09C146.261 109.697 146.628 109.307 146.685 108.919C146.74 108.53 146.491 108.176 145.937 107.855C145.35 107.518 144.773 107.361 144.206 107.385C143.638 107.409 143.098 107.572 142.582 107.868C142.102 108.147 141.858 108.447 141.849 108.774C141.839 109.1 142.062 109.585 142.519 110.229C143.454 111.286 143.939 112.202 143.973 112.973C144.01 113.745 143.46 114.458 142.327 115.111C141.243 115.738 140.037 116.043 138.71 116.027C137.383 116.013 136.073 115.702 134.783 115.093L132.943 116.155L131.457 115.297L133.296 114.235C132.206 113.482 131.619 112.686 131.538 111.843C131.454 111.003 132.094 110.202 133.451 109.448L133.534 109.432L136.193 110.966C135.394 111.425 135.02 111.866 135.071 112.289C135.121 112.708 135.457 113.098 136.082 113.458C136.691 113.811 137.298 113.991 137.904 113.993C138.508 113.996 139.069 113.848 139.587 113.55Z" fill="#113958"/>
<path d="M141.656 128.467C141.355 128.467 141.111 128.223 141.111 127.922V121.868C141.111 121.568 141.355 121.324 141.656 121.324C141.956 121.324 142.2 121.568 142.2 121.868V127.922C142.2 128.223 141.956 128.467 141.656 128.467ZM137.851 128.32C137.55 128.32 137.306 128.077 137.306 127.776V121.722C137.306 121.422 137.55 121.178 137.851 121.178C138.151 121.178 138.395 121.422 138.395 121.722V127.776C138.395 128.077 138.151 128.32 137.851 128.32ZM145.461 128.152C145.161 128.152 144.917 127.908 144.917 127.607V121.554C144.917 121.253 145.161 121.009 145.461 121.009C145.762 121.009 146.006 121.253 146.006 121.554V127.607C146.005 127.908 145.762 128.152 145.461 128.152ZM134.046 127.694C133.745 127.694 133.501 127.45 133.501 127.149V121.096C133.501 120.795 133.745 120.551 134.046 120.551C134.346 120.551 134.59 120.795 134.59 121.096V127.149C134.59 127.45 134.346 127.694 134.046 127.694ZM130.24 126.475C129.94 126.475 129.696 126.231 129.696 125.93V119.876C129.696 119.576 129.94 119.332 130.24 119.332C130.541 119.332 130.785 119.576 130.785 119.876V125.93C130.785 126.231 130.541 126.475 130.24 126.475ZM126.435 124.341C126.134 124.341 125.891 124.097 125.891 123.796V117.743C125.891 117.442 126.134 117.198 126.435 117.198C126.736 117.198 126.979 117.442 126.979 117.743V123.796C126.979 124.097 126.736 124.341 126.435 124.341Z" fill="#113958"/>
<path d="M35.8517 124.532C34.8252 124.532 33.7974 124.301 32.9964 123.839C32.1301 123.338 31.6523 122.641 31.6523 121.874C31.6523 121.108 32.1287 120.412 32.9935 119.914C34.5941 118.989 37.1007 118.989 38.7013 119.915C39.5676 120.415 40.044 121.113 40.044 121.88C40.044 122.645 39.5676 123.341 38.7042 123.84C37.9046 124.301 36.8781 124.532 35.8517 124.532ZM35.8446 120.315C35.0039 120.315 34.1632 120.496 33.5379 120.857C33.0318 121.149 32.7411 121.519 32.7411 121.874C32.7411 122.23 33.0332 122.603 33.5407 122.895C34.794 123.62 36.9093 123.619 38.1597 122.896C38.6658 122.605 38.955 122.234 38.955 121.88C38.955 121.524 38.6644 121.152 38.1568 120.858C37.5303 120.496 36.6868 120.315 35.8446 120.315Z" fill="#113958"/>
<path d="M107.706 172.356C107.406 172.356 107.162 172.113 107.162 171.812L107.156 165.918C107.156 165.618 107.4 165.374 107.701 165.374C108.001 165.374 108.245 165.618 108.245 165.918L108.251 171.812C108.251 172.113 108.007 172.356 107.706 172.356Z" fill="#113958"/>
<path d="M112.807 169.412L102.599 169.409C102.299 169.409 102.055 169.165 102.055 168.865C102.055 168.564 102.299 168.32 102.599 168.32L112.807 168.323C113.107 168.323 113.351 168.567 113.351 168.868C113.351 169.168 113.107 169.412 112.807 169.412Z" fill="#113958"/>
<path d="M149.606 77.5744C149.158 77.5744 148.673 77.4313 148.18 77.147C146.579 76.2226 145.324 74.0521 145.324 72.2055C145.323 71.2074 145.687 70.4461 146.351 70.0633C147.017 69.6783 147.858 69.7443 148.724 70.244C150.324 71.1705 151.579 73.3418 151.579 75.1869C151.579 76.1843 151.215 76.9442 150.551 77.327C150.265 77.4922 149.946 77.5744 149.606 77.5744ZM147.296 70.9075C147.145 70.9075 147.01 70.9401 146.895 71.006C146.589 71.1832 146.413 71.6206 146.413 72.2047C146.413 73.6494 147.471 75.4804 148.724 76.2041C149.23 76.4962 149.699 76.5607 150.007 76.3842C150.315 76.207 150.49 75.7703 150.49 75.1869C150.49 73.7437 149.431 71.9113 148.18 71.1867C147.859 71.0018 147.554 70.9075 147.296 70.9075Z" fill="#113958"/>
<path d="M39.4052 44.9772C39.3924 44.9772 39.3782 44.9765 39.364 44.9757C39.1414 44.9588 38.9515 44.8078 38.8848 44.5937C38.5772 43.6019 38.0796 42.4983 37.4444 41.4009C36.8108 40.3036 36.1033 39.3182 35.3944 38.5513C35.2427 38.3868 35.2072 38.1465 35.3037 37.9451C35.4014 37.7431 35.6043 37.6191 35.8353 37.6389C36.4562 37.6842 37.0829 37.5404 37.6429 37.2172C38.2058 36.8946 38.6453 36.4289 38.9132 35.8689C39.0096 35.6661 39.1911 35.5413 39.4434 35.5605C39.6661 35.5769 39.8574 35.7279 39.9241 35.9419C40.2317 36.9336 40.7308 38.0388 41.366 39.1368C41.366 39.1374 41.3674 39.1374 41.3674 39.1374C42.0012 40.2355 42.7086 41.2194 43.4161 41.9828C43.5678 42.1473 43.6032 42.3883 43.5068 42.5897C43.4076 42.7917 43.1963 42.9093 42.9751 42.8958C42.3414 42.8491 41.7289 42.9957 41.1675 43.319C40.6061 43.6415 40.1666 44.108 39.8958 44.6694C39.8036 44.8589 39.6136 44.9772 39.4052 44.9772ZM36.9057 38.6506C37.4232 39.3077 37.925 40.0555 38.3872 40.8558C38.8508 41.6562 39.2463 42.4643 39.5568 43.2377C39.8587 42.8995 40.2175 42.6089 40.6243 42.3757C41.0298 42.1418 41.4608 41.9773 41.9046 41.8852C41.3885 41.2301 40.8866 40.4838 40.4244 39.6827C39.9608 38.881 39.5638 38.0729 39.2534 37.3002C38.9514 37.6376 38.5927 37.9283 38.1858 38.1615C37.7805 38.3946 37.3494 38.5584 36.9057 38.6506Z" fill="#113958"/>
<path d="M93.1036 22.6275C92.9165 22.6275 92.7322 22.5297 92.6316 22.3553C92.4812 22.0944 92.5706 21.762 92.8315 21.6117L97.9382 18.6671C98.2004 18.5182 98.5322 18.6061 98.6825 18.8663C98.8327 19.1272 98.7434 19.4596 98.4826 19.6099L93.3759 22.5545C93.2893 22.6041 93.1957 22.6275 93.1036 22.6275Z" fill="#113958"/>
<path d="M98.2113 25.5734C98.0241 25.5734 97.8413 25.4763 97.7406 25.3012L92.6325 16.4616C92.4808 16.2015 92.5702 15.8683 92.831 15.718C93.0848 15.5677 93.4222 15.6549 93.5739 15.9172L98.6821 24.7568C98.8338 25.0169 98.7445 25.3501 98.4836 25.5004C98.3985 25.55 98.3049 25.5734 98.2113 25.5734Z" fill="#113958"/>
<path d="M56.0816 145.514L48.793 141.305L41.5116 145.51V151.82L48.8002 156.028L56.0816 151.826V145.514Z" fill="#FF8744"/>
<path d="M48.8016 156.573C48.7081 156.573 48.613 156.549 48.5294 156.501L41.2408 152.293C41.0721 152.195 40.9686 152.015 40.9686 151.821V145.51C40.9686 145.316 41.0721 145.136 41.2408 145.038L48.5223 140.833C48.6896 140.737 48.8995 140.737 49.0667 140.833L56.3553 145.043C56.5241 145.14 56.6276 145.32 56.6276 145.515V151.826C56.6276 152.021 56.5241 152.201 56.3553 152.298L49.0739 156.501C48.9902 156.549 48.8952 156.573 48.8016 156.573ZM42.0574 151.506L48.8016 155.401L55.5386 151.512V145.829L48.7945 141.933L42.0574 145.825V151.506Z" fill="#113958"/>
<path d="M48.7987 149.718L41.5116 145.51L48.793 141.305L56.0816 145.514L48.7987 149.718Z" fill="white"/>
<path d="M48.8002 150.263C48.7066 150.263 48.6116 150.238 48.528 150.19L41.2408 145.982C41.0721 145.885 40.9686 145.705 40.9686 145.51C40.9686 145.316 41.0721 145.136 41.2408 145.038L48.5223 140.833C48.6896 140.737 48.8995 140.737 49.0667 140.833L56.3553 145.043C56.5241 145.14 56.6276 145.32 56.6276 145.515C56.6276 145.709 56.5241 145.889 56.3553 145.987L49.0724 150.19C48.9887 150.238 48.8938 150.263 48.8002 150.263ZM42.6018 145.51L48.8002 149.09L54.9943 145.515L48.7945 141.933L42.6018 145.51Z" fill="#113958"/>
<path d="M48.7982 156.028L48.7968 149.718L56.0796 145.514V151.826L48.7982 156.028Z" fill="#113958"/>
<path d="M48.7997 156.573C48.7061 156.573 48.6111 156.549 48.5275 156.5C48.3588 156.403 48.2552 156.222 48.2552 156.028L48.2538 149.718C48.2538 149.524 48.3573 149.344 48.526 149.246L55.8089 145.042C55.9763 144.946 56.1861 144.946 56.3534 145.042C56.5221 145.14 56.6256 145.32 56.6256 145.514V151.826C56.6256 152.02 56.5221 152.2 56.3534 152.298L49.0719 156.5C48.9882 156.549 48.8932 156.573 48.7997 156.573ZM49.3426 150.033L49.3441 155.085L55.5368 151.511V146.457L49.3426 150.033Z" fill="#113958"/>
<path d="M63.3669 144.111L56.0783 139.901L48.7969 144.105V156.03L56.0854 160.237L63.3684 156.034L63.3669 144.111Z" fill="#FF8744"/>
<path d="M56.087 160.782C55.9934 160.782 55.8984 160.758 55.8147 160.71L48.5262 156.502C48.3574 156.404 48.2539 156.224 48.2539 156.03V144.105C48.2539 143.911 48.3574 143.731 48.5262 143.633L55.8077 139.43C55.975 139.333 56.1847 139.333 56.3521 139.43L63.6407 143.639C63.8094 143.737 63.9129 143.917 63.9129 144.111L63.9143 156.034C63.9143 156.228 63.8108 156.409 63.6421 156.506L56.3592 160.71C56.2756 160.758 56.1805 160.782 56.087 160.782ZM49.3429 155.715L56.0871 159.61L62.8255 155.719L62.8241 144.426L56.0799 140.53L49.3429 144.42V155.715Z" fill="#113958"/>
<path d="M56.0869 148.313L48.7969 144.105L56.0783 139.901L63.3669 144.111L56.0869 148.313Z" fill="white"/>
<path d="M56.0884 148.858C55.9948 148.858 55.8998 148.833 55.8162 148.785L48.5262 144.577C48.3574 144.48 48.2539 144.3 48.2539 144.105C48.2539 143.911 48.3574 143.731 48.5262 143.633L55.8077 139.43C55.975 139.333 56.1847 139.333 56.3521 139.43L63.6407 143.639C63.8094 143.737 63.9129 143.917 63.9129 144.111C63.9129 144.305 63.8094 144.485 63.6407 144.583L56.3606 148.785C56.277 148.833 56.182 148.858 56.0884 148.858ZM49.8872 144.105L56.0884 147.685L62.2796 144.111L56.0798 140.53L49.8872 144.105Z" fill="#113958"/>
<path d="M56.0859 160.237L56.0874 148.312L63.3674 144.11L63.3689 156.033L56.0859 160.237Z" fill="#113958"/>
<path d="M56.0874 160.782C55.9938 160.782 55.8989 160.758 55.8151 160.71C55.6464 160.612 55.543 160.432 55.543 160.237L55.5444 148.313C55.5444 148.119 55.6479 147.939 55.8166 147.841L63.0967 143.639C63.2639 143.542 63.4738 143.542 63.6411 143.639C63.8098 143.737 63.9133 143.917 63.9133 144.111L63.9147 156.034C63.9147 156.228 63.8112 156.408 63.6425 156.506L56.3596 160.71C56.276 160.758 56.1809 160.782 56.0874 160.782ZM56.6333 148.628L56.6318 159.295L62.8259 155.719L62.8246 145.053L56.6333 148.628Z" fill="#113958"/>
<path d="M70.6559 144.813L63.3674 140.604L56.0859 144.807L56.0874 160.236L63.3745 164.444L70.6559 160.242V144.813Z" fill="#FF8744"/>
<path d="M63.376 164.989C63.2824 164.989 63.1874 164.965 63.1038 164.917L55.8166 160.709C55.6479 160.611 55.5444 160.431 55.5444 160.237L55.543 144.808C55.543 144.613 55.6465 144.433 55.8151 144.335L63.0967 140.132C63.2639 140.035 63.4738 140.035 63.6411 140.132L70.9297 144.341C71.0984 144.439 71.2019 144.619 71.2019 144.813V160.242C71.2019 160.437 71.0984 160.617 70.9297 160.715L63.6482 164.917C63.5646 164.965 63.4696 164.989 63.376 164.989ZM56.6333 159.922L63.376 163.816L70.1131 159.928V145.128L63.369 141.232L56.6319 145.122L56.6333 159.922Z" fill="#113958"/>
<path d="M63.3745 149.015L56.0859 144.807L63.3674 140.604L70.6559 144.813L63.3745 149.015Z" fill="white"/>
<path d="M63.376 149.56C63.2824 149.56 63.1874 149.536 63.1038 149.488L55.8151 145.28C55.6464 145.182 55.543 145.002 55.543 144.808C55.543 144.613 55.6465 144.433 55.8151 144.335L63.0967 140.132C63.2639 140.035 63.4738 140.035 63.6411 140.132L70.9297 144.341C71.0984 144.439 71.2019 144.619 71.2019 144.813C71.2019 145.007 71.0984 145.188 70.9297 145.285L63.6482 149.487C63.5646 149.536 63.4696 149.56 63.376 149.56ZM57.1763 144.808L63.376 148.387L69.5688 144.813L63.369 141.232L57.1763 144.808Z" fill="#113958"/>
<path d="M63.375 164.444V149.015L70.6564 144.812V160.242L63.375 164.444Z" fill="#113958"/>
<path d="M63.3765 164.989C63.2829 164.989 63.1879 164.965 63.1043 164.916C62.9355 164.819 62.832 164.639 62.832 164.444V149.015C62.832 148.821 62.9355 148.641 63.1043 148.543L70.3858 144.341C70.5531 144.244 70.7629 144.244 70.9302 144.341C71.099 144.439 71.2025 144.619 71.2025 144.813V160.242C71.2025 160.436 71.099 160.616 70.9302 160.714L63.6488 164.916C63.5651 164.965 63.4701 164.989 63.3765 164.989ZM63.9209 149.33V163.501L70.1135 159.927V145.756L63.9209 149.33Z" fill="#113958"/>
<path d="M77.9465 158.136L70.6564 153.929L63.375 158.132V164.444L70.6636 168.653L77.9451 164.45L77.9465 158.136Z" fill="#FF8744"/>
<path d="M70.665 169.198C70.5715 169.198 70.4765 169.174 70.3929 169.126L63.1043 164.917C62.9355 164.819 62.832 164.639 62.832 164.444V158.133C62.832 157.939 62.9355 157.758 63.1043 157.661L70.3858 153.457C70.5531 153.361 70.7629 153.361 70.9302 153.457L78.2203 157.665C78.389 157.763 78.4925 157.943 78.4925 158.137L78.4911 164.45C78.4911 164.644 78.3876 164.824 78.2189 164.922L70.9374 169.126C70.8537 169.174 70.7587 169.198 70.665 169.198ZM63.9209 164.13L70.665 168.026L77.4021 164.135L77.4036 158.452L70.658 154.557L63.9209 158.447V164.13Z" fill="#113958"/>
<path d="M70.665 162.34L63.375 158.132L70.6564 153.929L77.9465 158.136L70.665 162.34Z" fill="white"/>
<path d="M70.6665 162.885C70.573 162.885 70.478 162.861 70.3943 162.813L63.1043 158.605C62.9355 158.507 62.832 158.327 62.832 158.133C62.832 157.939 62.9355 157.758 63.1043 157.661L70.3858 153.457C70.5531 153.361 70.7629 153.361 70.9302 153.457L78.2203 157.665C78.389 157.763 78.4925 157.943 78.4925 158.137C78.4925 158.331 78.389 158.511 78.2203 158.609L70.9388 162.813C70.8551 162.861 70.7601 162.885 70.6665 162.885ZM64.4653 158.133L70.6665 161.713L76.8592 158.137L70.6581 154.557L64.4653 158.133Z" fill="#113958"/>
<path d="M70.6641 168.654L70.6655 162.34L77.947 158.137L77.9456 164.45L70.6641 168.654Z" fill="#113958"/>
<path d="M70.6655 169.198C70.572 169.198 70.477 169.174 70.3934 169.126C70.2246 169.028 70.1211 168.848 70.1211 168.654L70.1226 162.341C70.1226 162.147 70.2261 161.966 70.3948 161.869L77.6762 157.665C77.8436 157.569 78.0534 157.569 78.2207 157.665C78.3894 157.763 78.4929 157.943 78.4929 158.137L78.4915 164.45C78.4915 164.645 78.388 164.825 78.2193 164.922L70.9378 169.126C70.8541 169.174 70.7591 169.198 70.6655 169.198ZM71.2114 162.655L71.21 167.711L77.4026 164.136L77.4041 159.08L71.2114 162.655Z" fill="#113958"/>
<path d="M42.9482 68.1912L35.8354 64.084L28.7383 68.1813V89.3551L35.8511 93.4623L42.9482 89.365V68.1912Z" fill="#FF8744"/>
<path d="M35.8526 94.0065C35.759 94.0065 35.6641 93.9824 35.5803 93.9335L28.4676 89.8263C28.2988 89.7291 28.1953 89.5491 28.1953 89.3549V68.181C28.1953 67.9868 28.2988 67.8068 28.4676 67.7096L35.5648 63.6124C35.732 63.5146 35.9418 63.5146 36.1092 63.6124L43.222 67.7196C43.3907 67.8168 43.4942 67.9968 43.4942 68.191V89.3649C43.4942 89.5591 43.3907 89.7392 43.222 89.8363L36.1248 93.9336C36.0411 93.9824 35.9461 94.0065 35.8526 94.0065ZM29.2842 89.0409L35.8526 92.8333L42.4053 89.0508V68.505L35.8369 64.7125L29.2842 68.4951V89.0409Z" fill="#113958"/>
<path d="M42.9482 68.1912L35.8354 64.084L28.7383 68.1813L35.8511 72.2885L42.9482 68.1912Z" fill="white"/>
<path d="M35.8526 72.8327C35.759 72.8327 35.6641 72.8086 35.5803 72.7596L28.4676 68.6524C28.2988 68.5553 28.1953 68.3752 28.1953 68.181C28.1953 67.9868 28.2988 67.8068 28.4676 67.7096L35.5648 63.6124C35.732 63.5146 35.9418 63.5146 36.1092 63.6124L43.222 67.7196C43.3907 67.8168 43.4942 67.9968 43.4942 68.191C43.4942 68.3852 43.3907 68.5653 43.222 68.6624L36.1248 72.7596C36.0411 72.8086 35.9461 72.8327 35.8526 72.8327ZM29.8286 68.1811L35.8526 71.6595L41.8609 68.191L35.8369 64.7126L29.8286 68.1811Z" fill="#113958"/>
<path d="M35.8517 72.2885V93.4623L42.9487 89.365V68.1912L35.8517 72.2885Z" fill="#113958"/>
<path d="M35.8531 94.0065C35.7595 94.0065 35.6646 93.9824 35.5809 93.9335C35.4122 93.8363 35.3087 93.6563 35.3087 93.462V72.2882C35.3087 72.094 35.4122 71.9139 35.5809 71.8169L42.6781 67.7196C42.8454 67.6218 43.0552 67.6218 43.2225 67.7196C43.3913 67.8168 43.4948 67.9968 43.4948 68.191V89.3649C43.4948 89.5592 43.3913 89.7392 43.2225 89.8363L36.1253 93.9336C36.0417 93.9824 35.9467 94.0065 35.8531 94.0065ZM36.3976 72.6022V92.5193L42.406 89.0508V69.1338L36.3976 72.6022Z" fill="#113958"/>
<path d="M136.298 41.836C139.7 38.4343 139.7 32.9192 136.298 29.5175C132.896 26.1159 127.381 26.1159 123.98 29.5175C120.578 32.9192 120.578 38.4343 123.98 41.836C127.381 45.2376 132.896 45.2376 136.298 41.836Z" fill="white"/>
<path d="M130.142 44.9308C125.038 44.9308 120.887 40.779 120.887 35.6759C120.887 30.5727 125.038 26.4209 130.142 26.4209C135.246 26.4209 139.397 30.5727 139.397 35.6759C139.397 40.779 135.246 44.9308 130.142 44.9308ZM130.142 27.5097C125.639 27.5097 121.976 31.1732 121.976 35.6759C121.976 40.1787 125.639 43.8421 130.142 43.8421C134.644 43.8421 138.308 40.1787 138.308 35.6759C138.308 31.1732 134.644 27.5097 130.142 27.5097Z" fill="#113958"/>
<path d="M130.138 26.9648C129.792 26.9648 129.452 26.9904 129.118 27.0301C132.662 27.627 135.37 30.6892 135.37 34.4052C135.37 38.5463 132.012 41.905 127.87 41.905C125.602 41.905 123.594 40.8772 122.219 39.2864C123.591 42.2934 126.617 44.386 130.138 44.386C134.949 44.386 138.849 40.4859 138.849 35.6755C138.849 30.865 134.949 26.9648 130.138 26.9648Z" fill="#FF8744"/>
<path d="M130.14 44.9309C126.53 44.9309 123.227 42.8044 121.725 39.5131C121.612 39.2664 121.699 38.9751 121.927 38.829C122.148 38.6823 122.454 38.7234 122.631 38.931C123.967 40.4749 125.877 41.361 127.871 41.361C131.706 41.361 134.827 38.2406 134.827 34.4056C134.827 31.0087 132.388 28.1328 129.028 27.5672C128.762 27.5225 128.568 27.2878 128.575 27.0171C128.582 26.7463 128.786 26.5216 129.055 26.4897C129.411 26.4478 129.773 26.4209 130.14 26.4209C135.244 26.4209 139.395 30.5727 139.395 35.6759C139.395 40.779 135.244 44.9309 130.14 44.9309ZM124.759 41.8077C126.223 43.0928 128.128 43.8421 130.14 43.8421C134.643 43.8421 138.306 40.1787 138.306 35.6759C138.306 32.0126 135.882 28.9048 132.553 27.8735C134.61 29.3373 135.916 31.7319 135.916 34.4057C135.916 38.841 132.308 42.4499 127.871 42.4499C126.792 42.4499 125.736 42.2273 124.759 41.8077Z" fill="#113958"/>
<path d="M122.523 58.4363L67.2767 26.54C66.2262 25.9334 65.2776 25.8837 64.5943 26.2877L64.5915 26.2836L60.8402 28.4499C60.1569 28.8426 59.7344 29.6846 59.7344 30.8855V118.588C59.7344 120.987 61.4242 123.907 63.5055 125.11L118.752 157.004C119.781 157.6 120.711 157.659 121.392 157.284L121.395 157.288L125.191 155.096C125.875 154.704 126.296 153.861 126.296 152.661V64.9593C126.294 62.5591 124.607 59.6399 122.523 58.4363Z" fill="#FF8744"/>
<path d="M120.434 158.065C119.82 158.065 119.155 157.868 118.477 157.475L63.2309 125.582C60.9639 124.272 59.1875 121.2 59.1875 118.588V30.8855C59.1875 29.5217 59.6766 28.4888 60.567 27.9777L64.3168 25.8121C64.3395 25.7987 64.3636 25.7873 64.3877 25.7774C65.2667 25.2961 66.3853 25.3981 67.5464 26.0688L122.793 57.965C125.06 59.2743 126.836 62.3466 126.838 64.9595V152.661C126.838 154.024 126.348 155.058 125.46 155.568L121.664 157.76C121.636 157.776 121.608 157.788 121.578 157.8C121.228 157.977 120.842 158.065 120.434 158.065ZM64.7975 26.7925L61.1099 28.9212C60.5726 29.2303 60.2763 29.9278 60.2763 30.8854V118.588C60.2763 120.81 61.8457 123.523 63.7752 124.637L119.022 156.532C119.841 157.009 120.588 157.099 121.126 156.807C121.145 156.796 121.165 156.787 121.184 156.779L124.917 154.624C125.454 154.316 125.749 153.619 125.749 152.661V64.9594C125.747 62.7364 124.176 60.0221 122.248 58.9078L67.0021 27.0116C66.1671 26.5303 65.4128 26.438 64.8684 26.7563C64.8457 26.7705 64.8216 26.7826 64.7975 26.7925Z" fill="#113958"/>
<path d="M59.7344 98.8984V118.588C59.7344 120.987 61.4242 123.907 63.5055 125.11L118.752 157.004C119.781 157.6 120.711 157.659 121.392 157.284L121.395 157.288L125.191 155.096C125.875 154.703 126.296 153.861 126.296 152.66V64.9593C126.294 63.7229 125.844 62.3521 125.123 61.1455L59.7344 98.8984Z" fill="#113958"/>
<path d="M120.434 158.065C119.82 158.065 119.155 157.868 118.477 157.475L63.2309 125.581C60.9639 124.271 59.1875 121.199 59.1875 118.588V98.8983C59.1875 98.7041 59.291 98.5241 59.4597 98.4269L124.849 60.674C125.102 60.5266 125.434 60.6109 125.589 60.866C126.392 62.2137 126.836 63.6668 126.838 64.9584V152.66C126.838 154.024 126.348 155.058 125.46 155.568L121.664 157.76C121.636 157.775 121.608 157.788 121.578 157.8C121.228 157.977 120.842 158.065 120.434 158.065ZM60.2764 99.2123V118.588C60.2764 120.809 61.8458 123.523 63.7753 124.637L119.022 156.532C119.841 157.008 120.588 157.099 121.126 156.807C121.145 156.796 121.165 156.787 121.184 156.779L124.917 154.624C125.454 154.316 125.749 153.619 125.749 152.66V64.9591C125.747 64.0205 125.447 62.9268 124.914 61.8932L60.2764 99.2123Z" fill="#113958"/>
<path d="M122.523 154.839C122.523 157.239 120.836 158.21 118.752 157.005L63.5055 125.11C61.4243 123.908 59.7344 120.987 59.7344 118.588V30.8859C59.7344 28.4857 61.4242 27.516 63.5055 28.7182L118.752 60.6144C120.836 61.8181 122.523 64.7373 122.523 67.1375V154.839Z" fill="white"/>
<path d="M120.439 158.07C119.827 158.07 119.159 157.871 118.477 157.476L63.2309 125.582C60.9639 124.272 59.1875 121.2 59.1875 118.589V30.8859C59.1875 29.5242 59.6752 28.4928 60.5613 27.9816C61.453 27.4677 62.5929 27.5641 63.7753 28.2468L119.022 60.143C121.289 61.4523 123.065 64.5245 123.065 67.1374V154.839C123.065 156.201 122.577 157.233 121.691 157.744C121.314 157.962 120.892 158.07 120.439 158.07ZM61.8188 28.7451C61.5537 28.7451 61.3141 28.8047 61.1057 28.9245C60.5713 29.2335 60.2764 29.9296 60.2764 30.8859V118.589C60.2764 120.81 61.8458 123.524 63.7753 124.638L119.022 156.533C119.854 157.013 120.61 157.11 121.147 156.801C121.681 156.492 121.976 155.796 121.976 154.839V67.1374C121.976 64.9151 120.407 62.2002 118.477 61.0858L63.2309 29.1896C62.7205 28.8947 62.2385 28.7451 61.8188 28.7451Z" fill="#113958"/>
<path d="M106.152 82.3689C106.152 91.9259 99.4262 95.7948 91.1295 91.0043C82.8288 86.2124 76.1016 74.5771 76.1016 65.0201C76.103 55.4617 82.8273 51.5955 91.1295 56.3889C99.4262 61.178 106.152 72.8106 106.152 82.3689Z" fill="#FF8744"/>
<path d="M97.8525 93.6112C95.6961 93.6112 93.3157 92.8946 90.8588 91.4762C82.4218 86.6062 75.5586 74.7376 75.5586 65.0205C75.56 60.2023 77.2145 56.5935 80.2201 54.8589C83.2356 53.12 87.2067 53.4943 91.4032 55.9179C99.8373 60.7857 106.698 72.6521 106.698 82.3694C106.698 87.1875 105.042 90.7971 102.036 92.5324C100.789 93.2533 99.3766 93.6112 97.8525 93.6112ZM84.4066 54.8709C83.0711 54.8709 81.842 55.1792 80.7631 55.8016C78.1105 57.3334 76.6474 60.6077 76.6474 65.0204C76.6474 74.3909 83.2668 85.8363 91.4032 90.5333C95.2466 92.7528 98.8321 93.125 101.492 91.5896C104.147 90.057 105.609 86.7828 105.609 82.3694C105.609 72.9988 98.9923 61.5555 90.8587 56.8608C88.5691 55.5386 86.3717 54.8709 84.4066 54.8709Z" fill="#113958"/>
<path d="M91.1265 78.7753C87.8955 76.9095 85.274 72.3771 85.274 68.6526C85.274 64.9311 87.894 63.424 91.1265 65.2897C94.3588 67.1555 96.9788 71.6893 96.9788 75.4124C96.9788 79.1353 94.3588 80.6411 91.1265 78.7753ZM91.1292 91.0046C95.3413 93.4375 99.1424 93.6275 101.87 91.9858C99.6725 86.5218 95.6901 81.4096 91.1264 78.7754C86.5641 76.1411 82.5803 76.6545 80.3828 79.5792C83.1135 84.3725 86.9143 88.5718 91.1292 91.0046Z" fill="white"/>
<path d="M97.8364 93.6075C95.6843 93.6075 93.311 92.8929 90.8583 91.4759C86.7044 89.0785 82.8169 84.9487 79.9106 79.8483C79.8042 79.6598 79.8184 79.4251 79.9489 79.2522C81.7977 76.791 84.7621 75.9857 88.0938 76.893C86.1005 74.5765 84.7309 71.4 84.7309 68.6524C84.7309 66.6527 85.4341 65.145 86.7129 64.407C87.9945 63.6691 89.6575 63.813 91.3999 64.8182C94.7769 66.7675 97.5245 71.5198 97.5245 75.4121C97.5245 77.4125 96.8213 78.9203 95.5439 79.6576C95.0789 79.9263 94.5628 80.0779 94.0127 80.1147C97.4762 82.9304 100.495 87.1027 102.376 91.782C102.477 92.0301 102.382 92.3144 102.152 92.4519C100.87 93.224 99.4129 93.6075 97.8364 93.6075ZM81.0405 79.6279C83.8306 84.4156 87.4997 88.2803 91.4028 90.5331C95.1031 92.6689 98.5524 93.0914 101.184 91.7453C98.9281 86.4018 95.0025 81.6403 90.8556 79.2465C86.8277 76.92 83.1911 77.0738 81.0405 79.6279ZM91.3999 78.3037C92.7921 79.1076 94.0709 79.2536 94.9995 78.7149C95.9253 78.1804 96.4357 77.0072 96.4357 75.4122C96.4357 71.8665 93.9319 67.5374 90.8555 65.761C89.4647 64.9593 88.1873 64.8139 87.2572 65.3498C86.3301 65.8851 85.8197 67.0582 85.8197 68.6524C85.8197 72.1953 88.3206 76.5223 91.3942 78.3008C91.397 78.3016 91.3985 78.303 91.3999 78.3037Z" fill="#113958"/>
<path d="M115.166 115.153C115.073 115.153 114.979 115.13 114.894 115.08L66.8158 87.3223C66.5549 87.172 66.4657 86.8388 66.6159 86.5786C66.7691 86.3164 67.105 86.2306 67.3602 86.3794L115.439 114.137C115.699 114.288 115.789 114.621 115.638 114.881C115.536 115.055 115.353 115.153 115.166 115.153Z" fill="#113958"/>
<path d="M115.164 131.629L67.0858 103.871V95.543L115.164 123.301V131.629ZM115.164 134.888L67.0858 107.13V115.458L115.164 143.216V134.888Z" fill="#FF8744"/>
<path d="M115.166 143.76C115.072 143.76 114.977 143.736 114.893 143.688L66.8151 115.929C66.6464 115.832 66.5428 115.652 66.5428 115.458V107.13C66.5428 106.936 66.6464 106.756 66.8151 106.659C66.9824 106.561 67.1923 106.561 67.3595 106.659L115.438 134.416C115.606 134.514 115.71 134.694 115.71 134.888V143.216C115.71 143.41 115.606 143.59 115.438 143.688C115.354 143.736 115.259 143.76 115.166 143.76ZM67.6317 115.144L114.621 142.273V135.203L67.6317 108.073V115.144ZM115.166 132.173C115.072 132.173 114.977 132.149 114.893 132.101L66.8151 104.342C66.6464 104.245 66.5428 104.065 66.5428 103.871V95.5428C66.5428 95.3486 66.6464 95.1685 66.8151 95.0714C66.9824 94.9736 67.1923 94.9736 67.3595 95.0714L115.438 122.829C115.606 122.926 115.71 123.106 115.71 123.301V131.628C115.71 131.823 115.606 132.003 115.438 132.1C115.354 132.149 115.259 132.173 115.166 132.173ZM67.6317 103.557L114.621 130.686V123.615L67.6317 96.4856V103.557Z" fill="#113958"/>
<path d="M70.6773 114.085C70.3315 113.887 70.0522 113.402 70.0508 113.005C70.0508 112.607 70.3316 112.444 70.6761 112.645C71.022 112.843 71.3012 113.328 71.3012 113.727C71.3011 114.124 71.0219 114.285 70.6773 114.085ZM75.8465 116.349C75.8465 115.953 75.5657 115.468 75.2212 115.269C74.8767 115.068 74.596 115.231 74.596 115.628C74.596 116.026 74.8766 116.51 75.2212 116.71C75.5657 116.908 75.8465 116.748 75.8465 116.349ZM80.3903 118.974C80.3903 118.575 80.111 118.092 79.7651 117.892C79.4205 117.694 79.1412 117.854 79.1412 118.251C79.1412 118.649 79.4205 119.134 79.7651 119.332C80.1095 119.532 80.3889 119.371 80.3903 118.974ZM84.9355 121.598C84.9342 121.198 84.6535 120.715 84.3104 120.516C83.9644 120.316 83.6851 120.478 83.6851 120.876C83.6865 121.273 83.9659 121.758 84.3104 121.957C84.6534 122.157 84.9342 121.995 84.9355 121.598ZM89.4794 124.221C89.4794 123.824 89.1988 123.339 88.8555 123.139C88.5096 122.941 88.2304 123.102 88.229 123.499C88.2318 123.898 88.5096 124.381 88.8555 124.58C89.1988 124.78 89.4794 124.619 89.4794 124.221ZM94.0247 126.844C94.0232 126.447 93.7439 125.963 93.3979 125.763C93.0549 125.565 92.7741 125.725 92.7741 126.124C92.7741 126.52 93.0534 127.005 93.3979 127.204C93.7439 127.404 94.0247 127.242 94.0247 126.844ZM98.5686 129.469C98.5686 129.071 98.2893 128.586 97.9433 128.387C97.5988 128.188 97.3181 128.349 97.3195 128.748C97.3195 129.145 97.5988 129.629 97.9433 129.828C98.2892 130.028 98.5686 129.866 98.5686 129.469ZM103.112 132.092C103.112 131.695 102.833 131.21 102.489 131.012C102.143 130.812 101.863 130.974 101.863 131.37C101.863 131.769 102.143 132.252 102.489 132.452C102.834 132.651 103.115 132.49 103.112 132.092ZM107.658 134.716C107.658 134.318 107.377 133.833 107.032 133.635C106.688 133.436 106.407 133.596 106.407 133.995C106.407 134.392 106.687 134.877 107.031 135.075C107.377 135.275 107.658 135.113 107.658 134.716ZM112.203 137.341C112.201 136.942 111.922 136.457 111.576 136.259C111.232 136.057 110.951 136.22 110.952 136.619C110.952 137.016 111.232 137.501 111.576 137.699C111.922 137.899 112.203 137.738 112.203 137.341Z" fill="#113958"/>
<path d="M111.86 138.33C111.678 138.33 111.488 138.276 111.306 138.17C110.795 137.876 110.41 137.209 110.41 136.619C110.408 136.23 110.574 135.91 110.865 135.741C111.157 135.578 111.513 135.592 111.853 135.788C112.36 136.08 112.747 136.746 112.749 137.339V137.34C112.749 137.729 112.583 138.048 112.294 138.215C112.16 138.292 112.013 138.33 111.86 138.33ZM107.315 135.706C107.133 135.706 106.943 135.652 106.76 135.545C106.25 135.252 105.864 134.584 105.864 133.994C105.864 133.606 106.03 133.287 106.319 133.12C106.611 132.952 106.97 132.968 107.306 133.162C107.818 133.457 108.204 134.125 108.204 134.716C108.204 135.105 108.038 135.424 107.748 135.591C107.615 135.667 107.468 135.706 107.315 135.706ZM102.771 133.081C102.591 133.081 102.402 133.029 102.219 132.924C101.706 132.628 101.32 131.96 101.32 131.37C101.32 130.982 101.486 130.663 101.776 130.496C102.063 130.328 102.425 130.344 102.762 130.541C103.273 130.834 103.657 131.501 103.658 132.091C103.661 132.478 103.497 132.797 103.209 132.965C103.076 133.043 102.927 133.081 102.771 133.081ZM98.2269 130.459C98.0454 130.459 97.8554 130.405 97.6726 130.298C97.1622 130.005 96.7766 129.337 96.7766 128.747C96.7751 128.359 96.941 128.04 97.2302 127.871C97.5223 127.704 97.8809 127.72 98.2184 127.917C98.7274 128.209 99.1144 128.876 99.1144 129.469C99.1144 129.858 98.9485 130.177 98.6593 130.344C98.5275 130.42 98.38 130.459 98.2269 130.459ZM93.6816 127.834C93.5001 127.834 93.3101 127.781 93.1273 127.674C92.6169 127.381 92.2313 126.713 92.2313 126.123C92.2313 125.733 92.3972 125.414 92.6864 125.248C92.977 125.081 93.3371 125.095 93.6716 125.292C94.1821 125.586 94.5691 126.252 94.5705 126.842V126.843C94.5705 127.233 94.4046 127.552 94.1154 127.719C93.9822 127.796 93.8348 127.834 93.6816 127.834ZM93.5215 126.845C93.4974 126.863 93.4789 126.877 93.4789 126.877L94.0262 126.843L93.5215 126.845ZM89.1378 125.21C88.9563 125.21 88.7664 125.156 88.5834 125.05C88.0774 124.759 87.6902 124.093 87.686 123.503C87.6874 123.109 87.8533 122.79 88.1425 122.624C88.4332 122.458 88.789 122.472 89.1278 122.667C89.641 122.966 90.0252 123.632 90.0252 124.221C90.0252 124.611 89.8594 124.93 89.5687 125.097C89.4369 125.172 89.2895 125.21 89.1378 125.21ZM84.5911 122.587C84.4096 122.587 84.2211 122.534 84.0382 122.427C83.5306 122.134 83.1436 121.468 83.1422 120.878C83.1422 120.486 83.308 120.167 83.5973 120C83.8865 119.835 84.2438 119.848 84.584 120.045C85.0944 120.34 85.4801 121.007 85.4814 121.596C85.4814 121.597 85.4814 121.599 85.4814 121.6C85.4801 121.989 85.3127 122.308 85.0221 122.474C84.8903 122.549 84.7443 122.587 84.5911 122.587ZM84.404 121.6C84.3955 121.613 84.3913 121.623 84.3898 121.629L84.9371 121.598L84.404 121.6ZM80.0472 119.962C79.8658 119.962 79.6758 119.909 79.4929 119.803C78.9839 119.509 78.5983 118.842 78.5983 118.251C78.5983 117.862 78.7642 117.544 79.052 117.377C79.3426 117.208 79.7013 117.225 80.0387 117.42C80.5505 117.716 80.9361 118.384 80.9361 118.974C80.9361 118.974 80.9361 118.975 80.9361 118.976C80.9347 119.365 80.7674 119.683 80.4782 119.849C80.3464 119.925 80.1989 119.962 80.0472 119.962ZM79.8601 118.974C79.8516 118.988 79.8459 118.999 79.8445 119.006L80.3918 118.974H79.8601ZM75.5034 117.339C75.3219 117.339 75.1334 117.286 74.9505 117.181C74.4387 116.884 74.0531 116.216 74.0531 115.628C74.0531 115.238 74.2204 114.918 74.5111 114.752C74.7988 114.586 75.1576 114.602 75.4978 114.799C76.0068 115.093 76.3924 115.76 76.3924 116.349C76.3924 116.739 76.2265 117.058 75.9373 117.224C75.804 117.301 75.6565 117.339 75.5034 117.339ZM70.9596 114.715C70.7781 114.715 70.5881 114.662 70.4067 114.557C69.8963 114.262 69.5093 113.597 69.5078 113.007C69.5078 112.614 69.6752 112.294 69.9658 112.127C70.2564 111.961 70.6151 111.978 70.9526 112.175C71.4601 112.467 71.8471 113.135 71.8471 113.727C71.8471 114.116 71.6812 114.435 71.392 114.601C71.2587 114.678 71.1127 114.715 70.9596 114.715Z" fill="#113958"/>
</svg>
