<svg width="260" height="87" viewBox="0 0 260 87" fill="none" xmlns="http://www.w3.org/2000/svg">
<rect x="0.621429" y="0.621429" width="258.757" height="85.7571" rx="9.32143" fill="#082448"/>
<rect x="0.621429" y="0.621429" width="258.757" height="85.7571" rx="9.32143" stroke="url(#paint0_linear_384_154)" stroke-width="1.24286"/>
<g clip-path="url(#clip0_384_154)">
<path d="M61.6336 51.9957H69.873V29.3992H78.7786V22.8662H52.6866V29.3992H61.6336V51.9957Z" fill="white"/>
<path d="M87.8083 32.1458V29.4405H80.2765V51.9956H88.1832V41.6336C88.1832 37.6804 90.3886 36.0571 93.5932 36.0571C94.1755 36.0571 94.6749 36.099 95.3824 36.1821V29.0664C92.0532 29.0664 89.4315 30.1068 87.8083 32.1458Z" fill="white"/>
<path d="M114.026 29.4404V40.302C114.026 44.0887 112.112 45.6284 109.782 45.6284C107.41 45.6284 106.036 44.255 106.036 40.7595V29.4404H98.13V42.0497C98.13 49.2071 102.166 52.3695 107.701 52.3695C110.281 52.3695 112.695 51.4543 114.401 49.5819V51.9954H121.933V29.4404H114.026Z" fill="white"/>
<path d="M135 52.3696C142.324 52.3696 146.152 49.124 146.152 44.9628C146.152 36.0157 132.878 39.3867 132.878 36.2652C132.878 35.4332 133.835 34.6841 136.498 34.6841C138.495 34.6841 140.743 35.1005 142.99 36.3484L145.362 30.9807C143.115 29.7317 139.619 29.0664 136.456 29.0664C129.382 29.0664 125.47 32.3121 125.47 36.5565C125.47 45.5871 138.787 42.1329 138.787 45.1707C138.787 46.128 137.913 46.7105 135.25 46.7105C132.503 46.7105 129.465 45.9198 127.384 44.6296L125.013 50.0396C127.218 51.413 131.172 52.3696 135 52.3696Z" fill="white"/>
<path d="M193.026 29.0664C190.197 29.0664 187.659 30.023 185.868 31.8959V29.4405H178.336V51.9956H186.243V41.0927C186.243 37.3473 188.198 35.7658 190.738 35.7658C193.026 35.7658 194.441 37.1395 194.441 40.3852V51.9956H202.347V39.095C202.347 32.1039 198.312 29.0664 193.026 29.0664Z" fill="white"/>
<path fill-rule="evenodd" clip-rule="evenodd" d="M150.669 24.6543H158.285V30.1868H165.09L172.675 36.3763H158.285V44.197C158.29 46.004 161.002 46.4699 163.282 45.3229V51.0582C157.504 53.876 150.394 52.1799 150.669 44.197V36.3763H148.085V30.1868H150.669V24.6543Z" fill="white"/>
<path fill-rule="evenodd" clip-rule="evenodd" d="M165.242 24.6543H172.673V30.8442L165.242 24.6543Z" fill="#FF6600"/>
<path fill-rule="evenodd" clip-rule="evenodd" d="M164.967 36.377H172.674V41.7431L164.967 36.377Z" fill="#13175C"/>
<path fill-rule="evenodd" clip-rule="evenodd" d="M164.967 36.3765L172.674 41.7426V51.8842H164.967V36.3765Z" fill="white"/>
<path d="M156.312 69.3614C155.941 69.6545 155.453 69.7915 154.945 69.7915C154.007 69.7915 153.499 69.2445 153.499 68.2286V63.268H156.293V61.3146H153.499V58.9316H151.058V61.3146H149.339V63.268H151.058V68.2874C151.058 70.5921 152.366 71.8032 154.652 71.8032C155.53 71.8032 156.41 71.569 156.995 71.1002L156.312 69.3614Z" fill="#FF6600"/>
<path d="M161.333 62.7597V61.2362H159.008V71.6662H161.45V66.6074C161.45 64.4786 162.622 63.385 164.477 63.385C164.654 63.385 164.828 63.4044 165.043 63.4433V61.1191C163.306 61.1191 162.037 61.6657 161.333 62.7597Z" fill="#FF6600"/>
<path d="M171.04 61.1191C169.36 61.1191 167.739 61.5487 166.626 62.4081L167.583 64.1856C168.364 63.541 169.576 63.1503 170.748 63.1503C172.486 63.1503 173.344 63.9903 173.344 65.4162V65.5722H170.649C167.486 65.5722 166.314 66.9397 166.314 68.678C166.314 70.4944 167.817 71.8031 170.2 71.8031C171.762 71.8031 172.896 71.295 173.481 70.3967V71.6661H175.787V65.5527C175.787 62.5451 174.048 61.1191 171.04 61.1191ZM170.708 70.0256C169.458 70.0256 168.716 69.4591 168.716 68.5803C168.716 67.8185 169.165 67.1937 170.826 67.1937H173.344V68.4044C172.934 69.4786 171.899 70.0256 170.708 70.0256Z" fill="#FF6600"/>
<path d="M186.784 57.1733V62.5255C185.963 61.568 184.771 61.119 183.424 61.119C180.396 61.119 178.151 63.2085 178.151 66.4514C178.151 69.6936 180.396 71.803 183.424 71.803C184.85 71.803 186.06 71.3148 186.882 70.3188V71.666H189.224V57.1733H186.784ZM183.717 69.7131C181.959 69.7131 180.611 68.4436 180.611 66.4514C180.611 64.459 181.959 63.1891 183.717 63.1891C185.475 63.1891 186.822 64.459 186.822 66.4514C186.822 68.4436 185.475 69.7131 183.717 69.7131Z" fill="#FF6600"/>
<path d="M202.232 66.5098C202.232 63.248 200.005 61.1191 196.959 61.1191C193.853 61.1191 191.568 63.3456 191.568 66.4515C191.568 69.5571 193.833 71.8031 197.331 71.8031C199.127 71.8031 200.592 71.2172 201.529 70.1038L200.22 68.5998C199.478 69.3614 198.56 69.7326 197.389 69.7326C195.572 69.7326 194.303 68.7561 194.01 67.2326H202.193C202.213 66.998 202.232 66.705 202.232 66.5098ZM196.959 63.0722C198.56 63.0722 199.712 64.1075 199.908 65.6115H193.99C194.225 64.088 195.377 63.0722 196.959 63.0722Z" fill="#FF6600"/>
<path d="M203.962 27.613V23.644H202.478V23.1099H206.048V23.644H204.558V27.613H203.962Z" fill="white"/>
<path d="M206.639 27.613V23.1099H207.539L208.601 26.2983C208.702 26.5942 208.772 26.8205 208.816 26.965C208.872 26.8019 208.948 26.5628 209.055 26.2421L210.136 23.1099H210.935V27.613H210.363V23.8455L209.055 27.613H208.521L207.218 23.7826V27.613H206.639Z" fill="white"/>
</g>
<defs>
<linearGradient id="paint0_linear_384_154" x1="287.153" y1="20.3077" x2="113.081" y2="251.131" gradientUnits="userSpaceOnUse">
<stop stop-color="white" stop-opacity="0.4"/>
<stop offset="0.405687" stop-color="white" stop-opacity="0.01"/>
<stop offset="0.574372" stop-color="white" stop-opacity="0.01"/>
<stop offset="1" stop-color="white" stop-opacity="0.1"/>
</linearGradient>
<clipPath id="clip0_384_154">
<rect width="186.429" height="87" fill="white" transform="translate(37.0001)"/>
</clipPath>
</defs>
</svg>
