<svg width="22" height="22" viewBox="0 0 22 22" fill="none" xmlns="http://www.w3.org/2000/svg">
<g clip-path="url(#clip0_402_6684)">
<path fill-rule="evenodd" clip-rule="evenodd" d="M17.893 4.47393C17.9699 4.38604 18.0287 4.28386 18.0661 4.17324C18.1034 4.06261 18.1187 3.94571 18.1109 3.8292C18.1031 3.7127 18.0724 3.59887 18.0206 3.49421C17.9688 3.38956 17.8969 3.29613 17.809 3.21927C17.7211 3.1424 17.6189 3.0836 17.5083 3.04622C17.3977 3.00884 17.2808 2.99362 17.1643 3.00142C17.0478 3.00922 16.934 3.03989 16.8293 3.09168C16.7247 3.14347 16.6312 3.21537 16.5544 3.30327L12.0121 8.49438L8.15702 3.35482C8.07422 3.24443 7.96686 3.15482 7.84343 3.09311C7.72001 3.0314 7.58391 2.99927 7.44591 2.99927H3.89035C3.72528 2.99927 3.56346 3.04524 3.42304 3.13202C3.28261 3.21881 3.16913 3.34298 3.09531 3.49063C3.02148 3.63828 2.99023 3.80357 3.00506 3.96798C3.01988 4.13239 3.0802 4.28943 3.17924 4.42149L8.90102 12.0499L4.10991 17.5255C4.03304 17.6134 3.97424 17.7156 3.93686 17.8262C3.89948 17.9368 3.88426 18.0537 3.89206 18.1702C3.89986 18.2867 3.93053 18.4006 3.98232 18.5052C4.03411 18.6099 4.10601 18.7033 4.19391 18.7802C4.28181 18.857 4.38399 18.9158 4.49461 18.9532C4.60523 18.9906 4.72213 19.0058 4.83864 18.998C4.95515 18.9902 5.06898 18.9595 5.17363 18.9077C5.27828 18.856 5.37171 18.7841 5.44858 18.6962L9.9908 13.5042L13.8459 18.6437C13.9287 18.7541 14.0361 18.8437 14.1595 18.9054C14.2829 18.9671 14.419 18.9993 14.557 18.9993H18.1126C18.2777 18.9993 18.4395 18.9533 18.5799 18.8665C18.7203 18.7797 18.8338 18.6556 18.9076 18.5079C18.9814 18.3603 19.0127 18.195 18.9979 18.0306C18.9831 17.8661 18.9227 17.7091 18.8237 17.577L13.1019 9.9486L17.893 4.47393ZM15.0015 17.2215L5.66813 4.77705H7.00147L16.3348 17.2215H15.0015Z" fill="#000714"/>
</g>
<defs>
<clipPath id="clip0_402_6684">
<rect width="21.3333" height="21.3333" fill="white" transform="translate(0.333496 0.333252)"/>
</clipPath>
</defs>
</svg>
