<svg width="359" height="280" viewBox="0 0 359 280" fill="none" xmlns="http://www.w3.org/2000/svg">
<g clip-path="url(#clip0_303_1205)">
<rect x="1" y="1" width="418.914" height="277.748" rx="5.09501" fill="white"/>
<g filter="url(#filter0_d_303_1205)">
<rect x="297" y="93" width="89" height="139" rx="2" fill="white"/>
<rect x="297.5" y="93.5" width="88" height="138" rx="1.5" stroke="#F3F3F3"/>
<path d="M324.5 105.5H358.5" stroke="#929292" stroke-width="3" stroke-linecap="square"/>
<path d="M305 114L378 114" stroke="#C8C8C8" stroke-width="1.5" stroke-linecap="round"/>
<path d="M305 135L325 135" stroke="#C8C8C8" stroke-width="1.5" stroke-linecap="round"/>
<path d="M305 141L371 141" stroke="#EBEBEB" stroke-linecap="round"/>
<path d="M305 145L371 145" stroke="#EBEBEB" stroke-linecap="round"/>
<path d="M305 149L371 149" stroke="#EBEBEB" stroke-linecap="round"/>
<g opacity="0.1" clip-path="url(#clip1_303_1205)">
<path fill-rule="evenodd" clip-rule="evenodd" d="M328.607 144.241H338.478V151.412H347.299L357.13 159.434H338.478V169.571C338.485 171.913 342 172.517 344.955 171.03V178.464C337.466 182.116 328.251 179.917 328.607 169.571V159.434H325.258V151.412H328.607V144.241Z" fill="#003399"/>
<path fill-rule="evenodd" clip-rule="evenodd" d="M347.503 144.241H357.135V152.264L347.503 144.241Z" fill="#FF6600"/>
<path fill-rule="evenodd" clip-rule="evenodd" d="M347.135 159.433H357.124V166.388L347.135 159.433Z" fill="#001F5C"/>
<path fill-rule="evenodd" clip-rule="evenodd" d="M347.135 159.433L357.124 166.388V179.533H347.135V159.433Z" fill="#003399"/>
</g>
<path d="M305 159L325 159" stroke="#C8C8C8" stroke-width="1.5" stroke-linecap="round"/>
<path d="M305 165L371 165" stroke="#EBEBEB" stroke-linecap="round"/>
<path d="M305 169L371 169" stroke="#EBEBEB" stroke-linecap="round"/>
<path d="M305 173L371 173" stroke="#EBEBEB" stroke-linecap="round"/>
<path d="M305 183L325 183" stroke="#C8C8C8" stroke-width="1.5" stroke-linecap="round"/>
<path d="M305 189L371 189" stroke="#EBEBEB" stroke-linecap="round"/>
<path d="M305 193L371 193" stroke="#EBEBEB" stroke-linecap="round"/>
<path d="M305 197L371 197" stroke="#EBEBEB" stroke-linecap="round"/>
<path d="M305 207L325 207" stroke="#C8C8C8" stroke-width="1.5" stroke-linecap="round"/>
<path d="M305 213L371 213" stroke="#EBEBEB" stroke-linecap="round"/>
<path d="M305 217L371 217" stroke="#EBEBEB" stroke-linecap="round"/>
<path d="M305 221L371 221" stroke="#EBEBEB" stroke-linecap="round"/>
</g>
<g filter="url(#filter1_d_303_1205)">
<rect x="34" y="48" width="89" height="139" rx="2" fill="white"/>
<rect x="34.5" y="48.5" width="88" height="138" rx="1.5" stroke="#F3F3F3"/>
<path d="M61.5 60.5H95.5" stroke="#929292" stroke-width="3" stroke-linecap="square"/>
<path d="M42 69L115 69" stroke="#C8C8C8" stroke-width="1.5" stroke-linecap="round"/>
<g opacity="0.1" clip-path="url(#clip2_303_1205)">
<path fill-rule="evenodd" clip-rule="evenodd" d="M62.6069 107.241H72.478V114.412H81.2986L91.1298 122.434H72.478V132.571C72.485 134.913 75.9996 135.517 78.9548 134.03V141.464C71.4662 145.116 62.2513 142.917 62.6069 132.571V122.434H59.2583V114.412H62.6069V107.241Z" fill="#003399"/>
<path fill-rule="evenodd" clip-rule="evenodd" d="M81.5032 107.241H91.1347V115.264L81.5032 107.241Z" fill="#FF6600"/>
<path fill-rule="evenodd" clip-rule="evenodd" d="M81.135 122.433H91.1241V129.388L81.135 122.433Z" fill="#001F5C"/>
<path fill-rule="evenodd" clip-rule="evenodd" d="M81.135 122.433L91.1241 129.388V142.533H81.135V122.433Z" fill="#003399"/>
</g>
<path d="M42 90L62 90" stroke="#C8C8C8" stroke-width="1.5" stroke-linecap="round"/>
<path d="M42 96L108 96" stroke="#EBEBEB" stroke-linecap="round"/>
<path d="M42 100L108 100" stroke="#EBEBEB" stroke-linecap="round"/>
<path d="M42 104L108 104" stroke="#EBEBEB" stroke-linecap="round"/>
<path d="M42 114L62 114" stroke="#C8C8C8" stroke-width="1.5" stroke-linecap="round"/>
<path d="M42 120L108 120" stroke="#EBEBEB" stroke-linecap="round"/>
<path d="M42 124L108 124" stroke="#EBEBEB" stroke-linecap="round"/>
<path d="M42 128L108 128" stroke="#EBEBEB" stroke-linecap="round"/>
<path d="M42 138L62 138" stroke="#C8C8C8" stroke-width="1.5" stroke-linecap="round"/>
<path d="M42 144L108 144" stroke="#EBEBEB" stroke-linecap="round"/>
<path d="M42 148L108 148" stroke="#EBEBEB" stroke-linecap="round"/>
<path d="M42 152L108 152" stroke="#EBEBEB" stroke-linecap="round"/>
<path d="M42 162L62 162" stroke="#C8C8C8" stroke-width="1.5" stroke-linecap="round"/>
<path d="M42 168L108 168" stroke="#EBEBEB" stroke-linecap="round"/>
<path d="M42 172L108 172" stroke="#EBEBEB" stroke-linecap="round"/>
<path d="M42 176L108 176" stroke="#EBEBEB" stroke-linecap="round"/>
<g opacity="0.2" clip-path="url(#clip3_303_1205)">
<path fill-rule="evenodd" clip-rule="evenodd" d="M109.651 53.6934H112.164V55.5192H114.41L116.914 57.5619H112.164V60.1428C112.166 60.7392 113.061 60.893 113.814 60.5144V62.4072C111.907 63.3371 109.56 62.7774 109.651 60.1428V57.5619H108.798V55.5192H109.651V53.6934Z" fill="#003399"/>
<path fill-rule="evenodd" clip-rule="evenodd" d="M114.462 53.6934H116.914V55.7362L114.462 53.6934Z" fill="#FF6600"/>
<path fill-rule="evenodd" clip-rule="evenodd" d="M114.369 57.5615H116.912V59.3325L114.369 57.5615Z" fill="#001F5C"/>
<path fill-rule="evenodd" clip-rule="evenodd" d="M114.369 57.5615L116.912 59.3325V62.6794H114.369V57.5615Z" fill="#003399"/>
</g>
</g>
<g filter="url(#filter2_d_303_1205)">
<rect x="108" y="24" width="89" height="139" rx="2" fill="white"/>
<rect x="108.5" y="24.5" width="88" height="138" rx="1.5" stroke="#F3F3F3"/>
<path d="M135.5 36.5H169.5" stroke="#929292" stroke-width="3" stroke-linecap="square"/>
<path d="M116 45L189 45" stroke="#C8C8C8" stroke-width="1.5" stroke-linecap="round"/>
<path d="M116 66L136 66" stroke="#C8C8C8" stroke-width="1.5" stroke-linecap="round"/>
<path d="M116 72L182 72" stroke="#EBEBEB" stroke-linecap="round"/>
<path d="M116 76L182 76" stroke="#EBEBEB" stroke-linecap="round"/>
<path d="M116 80L182 80" stroke="#EBEBEB" stroke-linecap="round"/>
<path d="M116 90L136 90" stroke="#C8C8C8" stroke-width="1.5" stroke-linecap="round"/>
<g opacity="0.1" clip-path="url(#clip4_303_1205)">
<path fill-rule="evenodd" clip-rule="evenodd" d="M139.607 75.2412H149.478V82.4119H158.299L168.13 90.4343H149.478V100.571C149.485 102.913 153 103.517 155.955 102.03V109.464C148.466 113.116 139.251 110.917 139.607 100.571V90.4343H136.258V82.4119H139.607V75.2412Z" fill="#003399"/>
<path fill-rule="evenodd" clip-rule="evenodd" d="M158.503 75.2412H168.135V83.2641L158.503 75.2412Z" fill="#FF6600"/>
<path fill-rule="evenodd" clip-rule="evenodd" d="M158.135 90.4331H168.124V97.3883L158.135 90.4331Z" fill="#001F5C"/>
<path fill-rule="evenodd" clip-rule="evenodd" d="M158.135 90.4331L168.124 97.3883V110.533H158.135V90.4331Z" fill="#003399"/>
</g>
<path d="M116 96L182 96" stroke="#EBEBEB" stroke-linecap="round"/>
<path d="M116 100L182 100" stroke="#EBEBEB" stroke-linecap="round"/>
<path d="M116 104L182 104" stroke="#EBEBEB" stroke-linecap="round"/>
<path d="M116 114L136 114" stroke="#C8C8C8" stroke-width="1.5" stroke-linecap="round"/>
<path d="M116 120L182 120" stroke="#EBEBEB" stroke-linecap="round"/>
<path d="M116 124L182 124" stroke="#EBEBEB" stroke-linecap="round"/>
<path d="M116 128L182 128" stroke="#EBEBEB" stroke-linecap="round"/>
<path d="M116 138L136 138" stroke="#C8C8C8" stroke-width="1.5" stroke-linecap="round"/>
<path d="M116 144L182 144" stroke="#EBEBEB" stroke-linecap="round"/>
<path d="M116 148L182 148" stroke="#EBEBEB" stroke-linecap="round"/>
<path d="M116 152L182 152" stroke="#EBEBEB" stroke-linecap="round"/>
<g opacity="0.8" clip-path="url(#clip5_303_1205)">
<path fill-rule="evenodd" clip-rule="evenodd" d="M183.651 29.6934H186.164V31.5192H188.41L190.914 33.5619H186.164V36.1428C186.166 36.7392 187.061 36.893 187.814 36.5144V38.4072C185.907 39.3371 183.56 38.7774 183.651 36.1428V33.5619H182.798V31.5192H183.651V29.6934Z" fill="#003399"/>
<path fill-rule="evenodd" clip-rule="evenodd" d="M188.462 29.6934H190.914V31.7362L188.462 29.6934Z" fill="#FF6600"/>
<path fill-rule="evenodd" clip-rule="evenodd" d="M188.369 33.5615H190.912V35.3325L188.369 33.5615Z" fill="#001F5C"/>
<path fill-rule="evenodd" clip-rule="evenodd" d="M188.369 33.5615L190.912 35.3325V38.6794H188.369V33.5615Z" fill="#003399"/>
</g>
</g>
<g filter="url(#filter3_d_303_1205)">
<rect x="225" y="117" width="89" height="139" rx="2" fill="white"/>
<rect x="225.5" y="117.5" width="88" height="138" rx="1.5" stroke="#F3F3F3"/>
<path d="M252.5 129.5H286.5" stroke="#929292" stroke-width="3" stroke-linecap="square"/>
<path d="M233 138L306 138" stroke="#C8C8C8" stroke-width="1.5" stroke-linecap="round"/>
<path d="M233 159L253 159" stroke="#C8C8C8" stroke-width="1.5" stroke-linecap="round"/>
<path d="M233 165L299 165" stroke="#EBEBEB" stroke-linecap="round"/>
<path d="M233 169L299 169" stroke="#EBEBEB" stroke-linecap="round"/>
<path d="M233 173L299 173" stroke="#EBEBEB" stroke-linecap="round"/>
<g opacity="0.1" clip-path="url(#clip6_303_1205)">
<path fill-rule="evenodd" clip-rule="evenodd" d="M256.607 168.241H266.478V175.412H275.299L285.13 183.434H266.478V193.571C266.485 195.913 270 196.517 272.955 195.03V202.464C265.466 206.116 256.251 203.917 256.607 193.571V183.434H253.258V175.412H256.607V168.241Z" fill="#003399"/>
<path fill-rule="evenodd" clip-rule="evenodd" d="M275.503 168.241H285.135V176.264L275.503 168.241Z" fill="#FF6600"/>
<path fill-rule="evenodd" clip-rule="evenodd" d="M275.135 183.433H285.124V190.388L275.135 183.433Z" fill="#001F5C"/>
<path fill-rule="evenodd" clip-rule="evenodd" d="M275.135 183.433L285.124 190.388V203.533H275.135V183.433Z" fill="#003399"/>
</g>
<path d="M233 183L253 183" stroke="#C8C8C8" stroke-width="1.5" stroke-linecap="round"/>
<path d="M233 189L299 189" stroke="#EBEBEB" stroke-linecap="round"/>
<path d="M233 193L299 193" stroke="#EBEBEB" stroke-linecap="round"/>
<path d="M233 197L299 197" stroke="#EBEBEB" stroke-linecap="round"/>
<path d="M233 207L253 207" stroke="#C8C8C8" stroke-width="1.5" stroke-linecap="round"/>
<path d="M233 213L299 213" stroke="#EBEBEB" stroke-linecap="round"/>
<path d="M233 217L299 217" stroke="#EBEBEB" stroke-linecap="round"/>
<path d="M233 221L299 221" stroke="#EBEBEB" stroke-linecap="round"/>
<path d="M233 231L253 231" stroke="#C8C8C8" stroke-width="1.5" stroke-linecap="round"/>
<path d="M233 237L299 237" stroke="#EBEBEB" stroke-linecap="round"/>
<path d="M233 241L299 241" stroke="#EBEBEB" stroke-linecap="round"/>
<path d="M233 245L299 245" stroke="#EBEBEB" stroke-linecap="round"/>
<g opacity="0.8" clip-path="url(#clip7_303_1205)">
<path fill-rule="evenodd" clip-rule="evenodd" d="M300.651 122.693H303.164V124.519H305.41L307.914 126.562H303.164V129.143C303.166 129.739 304.061 129.893 304.814 129.514V131.407C302.907 132.337 300.56 131.777 300.651 129.143V126.562H299.798V124.519H300.651V122.693Z" fill="#003399"/>
<path fill-rule="evenodd" clip-rule="evenodd" d="M305.462 122.693H307.914V124.736L305.462 122.693Z" fill="#FF6600"/>
<path fill-rule="evenodd" clip-rule="evenodd" d="M305.369 126.562H307.912V128.332L305.369 126.562Z" fill="#001F5C"/>
<path fill-rule="evenodd" clip-rule="evenodd" d="M305.369 126.562L307.912 128.332V131.679H305.369V126.562Z" fill="#003399"/>
</g>
</g>
<circle cx="210" cy="154" r="36" fill="white"/>
<path d="M255.435 142.309C253.685 140.48 251.874 138.595 251.191 136.938C250.56 135.419 250.523 132.903 250.486 130.465C250.416 125.934 250.342 120.799 246.771 117.229C243.201 113.658 238.066 113.584 233.535 113.514C231.097 113.477 228.581 113.44 227.062 112.809C225.41 112.126 223.52 110.315 221.691 108.565C218.487 105.487 214.847 102 210 102C205.153 102 201.518 105.487 198.309 108.565C196.48 110.315 194.595 112.126 192.938 112.809C191.429 113.44 188.903 113.477 186.465 113.514C181.934 113.584 176.799 113.658 173.229 117.229C169.658 120.799 169.607 125.934 169.514 130.465C169.477 132.903 169.44 135.419 168.809 136.938C168.126 138.59 166.315 140.48 164.565 142.309C161.487 145.513 158 149.153 158 154C158 158.847 161.487 162.482 164.565 165.691C166.315 167.52 168.126 169.405 168.809 171.062C169.44 172.581 169.477 175.097 169.514 177.535C169.584 182.066 169.658 187.201 173.229 190.771C176.799 194.342 181.934 194.416 186.465 194.486C188.903 194.523 191.419 194.56 192.938 195.191C194.59 195.874 196.48 197.685 198.309 199.435C201.513 202.513 205.153 206 210 206C214.847 206 218.482 202.513 221.691 199.435C223.52 197.685 225.405 195.874 227.062 195.191C228.581 194.56 231.097 194.523 233.535 194.486C238.066 194.416 243.201 194.342 246.771 190.771C250.342 187.201 250.416 182.066 250.486 177.535C250.523 175.097 250.56 172.581 251.191 171.062C251.874 169.41 253.685 167.52 255.435 165.691C258.513 162.487 262 158.847 262 154C262 149.153 258.513 145.518 255.435 142.309ZM231.199 145.485L205.199 171.485C204.854 171.83 204.445 172.104 203.994 172.291C203.543 172.478 203.06 172.574 202.571 172.574C202.083 172.574 201.6 172.478 201.149 172.291C200.698 172.104 200.289 171.83 199.944 171.485L188.801 160.342C188.104 159.645 187.712 158.7 187.712 157.714C187.712 156.729 188.104 155.783 188.801 155.086C189.498 154.389 190.443 153.998 191.429 153.998C192.414 153.998 193.359 154.389 194.056 155.086L202.571 163.606L225.944 140.229C226.289 139.884 226.698 139.61 227.149 139.424C227.6 139.237 228.083 139.141 228.571 139.141C229.059 139.141 229.543 139.237 229.994 139.424C230.445 139.61 230.854 139.884 231.199 140.229C231.544 140.574 231.818 140.984 232.005 141.435C232.192 141.886 232.288 142.369 232.288 142.857C232.288 143.345 232.192 143.828 232.005 144.279C231.818 144.73 231.544 145.14 231.199 145.485Z" fill="white"/>
<path d="M255.435 142.309C253.685 140.48 251.874 138.595 251.191 136.938C250.56 135.419 250.523 132.903 250.486 130.465C250.416 125.934 250.342 120.799 246.771 117.229C243.201 113.658 238.066 113.584 233.535 113.514C231.097 113.477 228.581 113.44 227.062 112.809C225.41 112.126 223.52 110.315 221.691 108.565C218.487 105.487 214.847 102 210 102C205.153 102 201.518 105.487 198.309 108.565C196.48 110.315 194.595 112.126 192.938 112.809C191.429 113.44 188.903 113.477 186.465 113.514C181.934 113.584 176.799 113.658 173.229 117.229C169.658 120.799 169.607 125.934 169.514 130.465C169.477 132.903 169.44 135.419 168.809 136.938C168.126 138.59 166.315 140.48 164.565 142.309C161.487 145.513 158 149.153 158 154C158 158.847 161.487 162.482 164.565 165.691C166.315 167.52 168.126 169.405 168.809 171.062C169.44 172.581 169.477 175.097 169.514 177.535C169.584 182.066 169.658 187.201 173.229 190.771C176.799 194.342 181.934 194.416 186.465 194.486C188.903 194.523 191.419 194.56 192.938 195.191C194.59 195.874 196.48 197.685 198.309 199.435C201.513 202.513 205.153 206 210 206C214.847 206 218.482 202.513 221.691 199.435C223.52 197.685 225.405 195.874 227.062 195.191C228.581 194.56 231.097 194.523 233.535 194.486C238.066 194.416 243.201 194.342 246.771 190.771C250.342 187.201 250.416 182.066 250.486 177.535C250.523 175.097 250.56 172.581 251.191 171.062C251.874 169.41 253.685 167.52 255.435 165.691C258.513 162.487 262 158.847 262 154C262 149.153 258.513 145.518 255.435 142.309ZM231.199 145.485L205.199 171.485C204.854 171.83 204.445 172.104 203.994 172.291C203.543 172.478 203.06 172.574 202.571 172.574C202.083 172.574 201.6 172.478 201.149 172.291C200.698 172.104 200.289 171.83 199.944 171.485L188.801 160.342C188.104 159.645 187.712 158.7 187.712 157.714C187.712 156.729 188.104 155.783 188.801 155.086C189.498 154.389 190.443 153.998 191.429 153.998C192.414 153.998 193.359 154.389 194.056 155.086L202.571 163.606L225.944 140.229C226.289 139.884 226.698 139.61 227.149 139.424C227.6 139.237 228.083 139.141 228.571 139.141C229.059 139.141 229.543 139.237 229.994 139.424C230.445 139.61 230.854 139.884 231.199 140.229C231.544 140.574 231.818 140.984 232.005 141.435C232.192 141.886 232.288 142.369 232.288 142.857C232.288 143.345 232.192 143.828 232.005 144.279C231.818 144.73 231.544 145.14 231.199 145.485Z" fill="#0BA436"/>
<g filter="url(#filter4_d_303_1205)">
<rect x="87" y="213" width="84" height="42" rx="2" fill="white"/>
<path d="M95 227L115 227" stroke="#C8C8C8" stroke-width="1.5" stroke-linecap="round"/>
<path d="M95 233L161 233" stroke="#EBEBEB" stroke-linecap="round"/>
<path d="M95 237L161 237" stroke="#EBEBEB" stroke-linecap="round"/>
<path d="M95 241L161 241" stroke="#EBEBEB" stroke-linecap="round"/>
<g opacity="0.5" clip-path="url(#clip8_303_1205)">
<path fill-rule="evenodd" clip-rule="evenodd" d="M158.174 218.062H160.688V219.887H162.934L165.437 221.93H160.688V224.511C160.69 225.107 161.584 225.261 162.337 224.883V226.775C160.43 227.705 158.084 227.146 158.174 224.511V221.93H157.322V219.887H158.174V218.062Z" fill="#003399"/>
<path fill-rule="evenodd" clip-rule="evenodd" d="M162.985 218.062H165.438V220.104L162.985 218.062Z" fill="#FF6600"/>
<path fill-rule="evenodd" clip-rule="evenodd" d="M162.892 221.93H165.436V223.701L162.892 221.93Z" fill="#001F5C"/>
<path fill-rule="evenodd" clip-rule="evenodd" d="M162.892 221.93L165.436 223.701V227.048H162.892V221.93Z" fill="#003399"/>
</g>
</g>
<g filter="url(#filter5_d_303_1205)">
<rect x="246" y="24" width="84" height="42" rx="2" fill="white"/>
<g opacity="0.1" clip-path="url(#clip9_303_1205)">
<path fill-rule="evenodd" clip-rule="evenodd" d="M280.859 35.5684H286.882V39.9442H292.265L298.265 44.8398H286.882V51.0255C286.887 52.4547 289.031 52.8233 290.835 51.916V56.4523C286.265 58.681 280.642 57.3395 280.859 51.0255V44.8398H278.815V39.9442H280.859V35.5684Z" fill="#003399"/>
<path fill-rule="evenodd" clip-rule="evenodd" d="M292.39 35.5684H298.268V40.4642L292.39 35.5684Z" fill="#FF6600"/>
<path fill-rule="evenodd" clip-rule="evenodd" d="M292.165 44.8394H298.261V49.0837L292.165 44.8394Z" fill="#001F5C"/>
<path fill-rule="evenodd" clip-rule="evenodd" d="M292.165 44.8394L298.261 49.0837V57.1051H292.165V44.8394Z" fill="#003399"/>
</g>
<path d="M254 38L274 38" stroke="#C8C8C8" stroke-width="1.5" stroke-linecap="round"/>
<path d="M254 44L320 44" stroke="#EBEBEB" stroke-linecap="round"/>
<path d="M254 48L320 48" stroke="#EBEBEB" stroke-linecap="round"/>
<path d="M254 52L320 52" stroke="#EBEBEB" stroke-linecap="round"/>
</g>
</g>
<rect x="0.5" y="0.5" width="419.914" height="278.748" rx="5.59501" stroke="#000714"/>
<defs>
<filter id="filter0_d_303_1205" x="277" y="93" width="129" height="179" filterUnits="userSpaceOnUse" color-interpolation-filters="sRGB">
<feFlood flood-opacity="0" result="BackgroundImageFix"/>
<feColorMatrix in="SourceAlpha" type="matrix" values="0 0 0 0 0 0 0 0 0 0 0 0 0 0 0 0 0 0 127 0" result="hardAlpha"/>
<feMorphology radius="5" operator="erode" in="SourceAlpha" result="effect1_dropShadow_303_1205"/>
<feOffset dy="20"/>
<feGaussianBlur stdDeviation="12.5"/>
<feColorMatrix type="matrix" values="0 0 0 0 0 0 0 0 0 0 0 0 0 0 0 0 0 0 0.1 0"/>
<feBlend mode="normal" in2="BackgroundImageFix" result="effect1_dropShadow_303_1205"/>
<feBlend mode="normal" in="SourceGraphic" in2="effect1_dropShadow_303_1205" result="shape"/>
</filter>
<filter id="filter1_d_303_1205" x="12" y="35" width="129" height="179" filterUnits="userSpaceOnUse" color-interpolation-filters="sRGB">
<feFlood flood-opacity="0" result="BackgroundImageFix"/>
<feColorMatrix in="SourceAlpha" type="matrix" values="0 0 0 0 0 0 0 0 0 0 0 0 0 0 0 0 0 0 127 0" result="hardAlpha"/>
<feMorphology radius="5" operator="erode" in="SourceAlpha" result="effect1_dropShadow_303_1205"/>
<feOffset dx="-2" dy="7"/>
<feGaussianBlur stdDeviation="12.5"/>
<feColorMatrix type="matrix" values="0 0 0 0 0 0 0 0 0 0 0 0 0 0 0 0 0 0 0.1 0"/>
<feBlend mode="normal" in2="BackgroundImageFix" result="effect1_dropShadow_303_1205"/>
<feBlend mode="normal" in="SourceGraphic" in2="effect1_dropShadow_303_1205" result="shape"/>
</filter>
<filter id="filter2_d_303_1205" x="88" y="24" width="129" height="179" filterUnits="userSpaceOnUse" color-interpolation-filters="sRGB">
<feFlood flood-opacity="0" result="BackgroundImageFix"/>
<feColorMatrix in="SourceAlpha" type="matrix" values="0 0 0 0 0 0 0 0 0 0 0 0 0 0 0 0 0 0 127 0" result="hardAlpha"/>
<feMorphology radius="5" operator="erode" in="SourceAlpha" result="effect1_dropShadow_303_1205"/>
<feOffset dy="20"/>
<feGaussianBlur stdDeviation="12.5"/>
<feColorMatrix type="matrix" values="0 0 0 0 0 0 0 0 0 0 0 0 0 0 0 0 0 0 0.1 0"/>
<feBlend mode="normal" in2="BackgroundImageFix" result="effect1_dropShadow_303_1205"/>
<feBlend mode="normal" in="SourceGraphic" in2="effect1_dropShadow_303_1205" result="shape"/>
</filter>
<filter id="filter3_d_303_1205" x="205" y="117" width="129" height="179" filterUnits="userSpaceOnUse" color-interpolation-filters="sRGB">
<feFlood flood-opacity="0" result="BackgroundImageFix"/>
<feColorMatrix in="SourceAlpha" type="matrix" values="0 0 0 0 0 0 0 0 0 0 0 0 0 0 0 0 0 0 127 0" result="hardAlpha"/>
<feMorphology radius="5" operator="erode" in="SourceAlpha" result="effect1_dropShadow_303_1205"/>
<feOffset dy="20"/>
<feGaussianBlur stdDeviation="12.5"/>
<feColorMatrix type="matrix" values="0 0 0 0 0 0 0 0 0 0 0 0 0 0 0 0 0 0 0.1 0"/>
<feBlend mode="normal" in2="BackgroundImageFix" result="effect1_dropShadow_303_1205"/>
<feBlend mode="normal" in="SourceGraphic" in2="effect1_dropShadow_303_1205" result="shape"/>
</filter>
<filter id="filter4_d_303_1205" x="67" y="213" width="124" height="82" filterUnits="userSpaceOnUse" color-interpolation-filters="sRGB">
<feFlood flood-opacity="0" result="BackgroundImageFix"/>
<feColorMatrix in="SourceAlpha" type="matrix" values="0 0 0 0 0 0 0 0 0 0 0 0 0 0 0 0 0 0 127 0" result="hardAlpha"/>
<feMorphology radius="5" operator="erode" in="SourceAlpha" result="effect1_dropShadow_303_1205"/>
<feOffset dy="20"/>
<feGaussianBlur stdDeviation="12.5"/>
<feColorMatrix type="matrix" values="0 0 0 0 0 0 0 0 0 0 0 0 0 0 0 0 0 0 0.1 0"/>
<feBlend mode="normal" in2="BackgroundImageFix" result="effect1_dropShadow_303_1205"/>
<feBlend mode="normal" in="SourceGraphic" in2="effect1_dropShadow_303_1205" result="shape"/>
</filter>
<filter id="filter5_d_303_1205" x="226" y="24" width="124" height="82" filterUnits="userSpaceOnUse" color-interpolation-filters="sRGB">
<feFlood flood-opacity="0" result="BackgroundImageFix"/>
<feColorMatrix in="SourceAlpha" type="matrix" values="0 0 0 0 0 0 0 0 0 0 0 0 0 0 0 0 0 0 127 0" result="hardAlpha"/>
<feMorphology radius="5" operator="erode" in="SourceAlpha" result="effect1_dropShadow_303_1205"/>
<feOffset dy="20"/>
<feGaussianBlur stdDeviation="12.5"/>
<feColorMatrix type="matrix" values="0 0 0 0 0 0 0 0 0 0 0 0 0 0 0 0 0 0 0.1 0"/>
<feBlend mode="normal" in2="BackgroundImageFix" result="effect1_dropShadow_303_1205"/>
<feBlend mode="normal" in="SourceGraphic" in2="effect1_dropShadow_303_1205" result="shape"/>
</filter>
<clipPath id="clip0_303_1205">
<rect x="1" y="1" width="418.914" height="277.748" rx="5.09501" fill="white"/>
</clipPath>
<clipPath id="clip1_303_1205">
<rect width="33.4762" height="37" fill="white" transform="translate(324 144)"/>
</clipPath>
<clipPath id="clip2_303_1205">
<rect width="33.4762" height="37" fill="white" transform="translate(58 107)"/>
</clipPath>
<clipPath id="clip3_303_1205">
<rect width="8.5238" height="9.42105" fill="white" transform="translate(108.477 53.6318)"/>
</clipPath>
<clipPath id="clip4_303_1205">
<rect width="33.4762" height="37" fill="white" transform="translate(135 75)"/>
</clipPath>
<clipPath id="clip5_303_1205">
<rect width="8.5238" height="9.42105" fill="white" transform="translate(182.477 29.6318)"/>
</clipPath>
<clipPath id="clip6_303_1205">
<rect width="33.4762" height="37" fill="white" transform="translate(252 168)"/>
</clipPath>
<clipPath id="clip7_303_1205">
<rect width="8.5238" height="9.42105" fill="white" transform="translate(299.477 122.632)"/>
</clipPath>
<clipPath id="clip8_303_1205">
<rect width="8.5238" height="9.42105" fill="white" transform="translate(157 218)"/>
</clipPath>
<clipPath id="clip9_303_1205">
<rect width="20.4286" height="22.579" fill="white" transform="translate(278.047 35.4209)"/>
</clipPath>
</defs>
</svg>
