<svg width="39" height="39" viewBox="0 0 39 39" fill="none" xmlns="http://www.w3.org/2000/svg" className="hover-svg">
<g clip-path="url(#clip0_259_8)">
<path d="M31.0781 17.0625C33.434 17.0625 35.3438 15.1527 35.3438 12.7969C35.3438 10.441 33.434 8.53125 31.0781 8.53125C28.7223 8.53125 26.8125 10.441 26.8125 12.7969C26.8125 15.1527 28.7223 17.0625 31.0781 17.0625Z" stroke="white" stroke-width="2" stroke-linecap="round" stroke-linejoin="round" className="svg-path"/>
<path d="M7.3125 31.6875H2.4375C2.11427 31.6875 1.80427 31.5591 1.57571 31.3305C1.34715 31.102 1.21875 30.792 1.21875 30.4688V24.375C1.21875 24.0518 1.34715 23.7418 1.57571 23.5132C1.80427 23.2847 2.11427 23.1562 2.4375 23.1562H7.3125" stroke="white" stroke-width="2" stroke-linecap="round" stroke-linejoin="round" className="svg-path"/>
<path d="M17.0625 24.375H21.9375L32.1445 22.0274C32.5198 21.9246 32.9137 21.9096 33.2957 21.9838C33.6777 22.058 34.0374 22.2192 34.3469 22.4551C34.6564 22.6909 34.9073 22.9949 35.0802 23.3435C35.2531 23.692 35.3433 24.0758 35.3438 24.4649C35.3439 24.9347 35.2132 25.3953 34.9661 25.7949C34.7191 26.1945 34.3656 26.5174 33.9452 26.7272L28.0312 29.25L18.2812 31.6875H7.3125V23.1563L11.1211 19.3477C11.4615 19.0084 11.8655 18.7396 12.3099 18.5566C12.7542 18.3737 13.2304 18.2801 13.7109 18.2813H21.3281C22.1362 18.2813 22.9112 18.6023 23.4826 19.1737C24.054 19.7451 24.375 20.5201 24.375 21.3281C24.375 22.1362 24.054 22.9112 23.4826 23.4826C22.9112 24.054 22.1362 24.375 21.3281 24.375H17.0625Z" stroke="white" stroke-width="2" stroke-linecap="round" stroke-linejoin="round" className="svg-path"/>
<path d="M26.8125 12.9933C25.9846 13.3849 25.0527 13.4996 24.1546 13.3205C23.2564 13.1414 22.4398 12.678 21.8254 11.9988C21.211 11.3197 20.8316 10.4608 20.7431 9.54927C20.6546 8.63774 20.8619 7.72193 21.3342 6.93731C21.8065 6.15268 22.5188 5.5409 23.3657 5.19243C24.2126 4.84397 25.1492 4.77733 26.037 5.00238C26.9247 5.22742 27.7164 5.7322 28.2951 6.44205C28.8737 7.1519 29.2085 8.02914 29.25 8.94401" stroke="white" stroke-width="2" stroke-linecap="round" stroke-linejoin="round" className="svg-path"/>
</g>
<defs>
<clipPath id="clip0_259_8">
<rect width="39" height="39" fill="white"/>
</clipPath>
</defs>
</svg>
